<?xml version="1.0" encoding="utf-8"?>
<!-- Generator: Adobe Illustrator 24.0.2, SVG Export Plug-In . SVG Version: 6.00 Build 0)  -->
<svg version="1.1" id="Ebene_1" xmlns="http://www.w3.org/2000/svg" xmlns:xlink="http://www.w3.org/1999/xlink" x="0px" y="0px"
	 viewBox="0 0 505.42 390.09" style="enable-background:new 0 0 505.42 390.09;" xml:space="preserve">
<style type="text/css">
	.st0{fill:none;stroke:#000000;stroke-width:1.5;stroke-miterlimit:10;}
	.st1{opacity:0.05;}
	.st2{fill:#D45F14;}
	.st3{opacity:0.21;fill:none;stroke:#000000;stroke-miterlimit:10;}
	.st4{fill:none;stroke:#000000;stroke-miterlimit:10;}
	.st5{fill:#F6F6F6;stroke:#000000;stroke-width:2;stroke-miterlimit:10;}
	.st6{fill:none;stroke:#59B3E5;stroke-width:1.5846;stroke-miterlimit:10;}
	.st7{fill:none;stroke:#59B3E5;stroke-miterlimit:10;}
	.st8{fill:#59B3E5;}
	.st9{fill:none;stroke:#C3C674;stroke-width:1.032;stroke-miterlimit:10;}
	.st10{fill:none;stroke:#BBC272;stroke-width:1.032;stroke-miterlimit:10;}
	.st11{font-family:'Arial-BoldMT';}
	.st12{font-size:24px;}
	.st13{fill:none;stroke:#59B3E5;stroke-width:2;stroke-miterlimit:10;}
	.st14{font-size:14px;}
	.st15{font-size:9px;}
	.st16{fill:none;stroke:#D45F14;stroke-width:2;stroke-miterlimit:10;}
	.st17{fill:none;stroke:#0073B3;stroke-width:2;stroke-miterlimit:10;}
	.st18{fill:#0073B3;}
	.st19{fill:none;stroke:#F0E442;stroke-width:2;stroke-miterlimit:10;}
	.st20{fill:#F0E442;}
	.st21{fill:none;stroke:#009E73;stroke-width:2;stroke-miterlimit:10;}
	.st22{fill:#009E73;}
	.st23{fill:none;stroke:#000000;stroke-width:2;stroke-miterlimit:10;}
	.st24{fill:#575756;}
	.st25{fill:none;stroke:#575756;stroke-width:2;stroke-miterlimit:10;}
	.st26{fill:#878787;}
	.st27{fill:none;stroke:#878787;stroke-width:2;stroke-miterlimit:10;}
	.st28{stroke:#000000;stroke-width:2.3426;stroke-miterlimit:10;}
	.st29{fill:none;stroke:#000000;stroke-width:0.75;stroke-miterlimit:10;}
	.st30{stroke:#000000;stroke-miterlimit:10;}
	.st31{fill:#F6F6F6;}
	.st32{fill:#0073B3;stroke:#000000;stroke-linejoin:round;stroke-miterlimit:10;}
	.st33{fill:none;stroke:#000000;stroke-width:0.1782;stroke-miterlimit:10;}
	.st34{fill:#005483;}
	.st35{fill:#005280;stroke:#000000;stroke-linejoin:bevel;stroke-miterlimit:10;}
	.st36{fill:none;stroke:#000000;stroke-linecap:square;stroke-linejoin:bevel;stroke-miterlimit:10;}
</style>
<g>
	<g>
		<line class="st0" x1="69.18" y1="339.61" x2="69.18" y2="203.02"/>
		<g>
			<polygon points="71.79,204.8 69.18,195.05 66.56,204.8 			"/>
		</g>
	</g>
</g>
<g class="st1">
	<polygon points="7.91,376.38 69.5,340.81 497.15,340.81 435.58,376.38 	"/>
	<path d="M492.66,342.02l-36.05,20.82l-21.35,12.33H12.41l57.42-33.15H492.66 M501.64,339.61H69.18L3.42,377.58H435.9
		C457.81,364.92,479.73,352.27,501.64,339.61L501.64,339.61z"/>
</g>
<path class="st2" d="M284.63,366.77c-1.08,2.11-3.19,2.51-4.67,0.79c-1.52-1.67-1.76-4.75-0.63-6.91c1.13-2.07,3.24-2.48,4.67-0.79
	C285.51,361.53,285.8,364.65,284.63,366.77"/>
<path class="st2" d="M295.15,365.82c-0.9,2.19-2.96,2.78-4.58,1.2c-1.66-1.53-2.16-4.58-1.23-6.83c0.95-2.16,3.01-2.75,4.58-1.2
	C295.57,360.53,296.13,363.61,295.15,365.82"/>
<path class="st2" d="M305.55,363.96c-0.7,2.26-2.71,3.03-4.46,1.59c-1.78-1.38-2.55-4.37-1.82-6.69c0.76-2.23,2.76-3,4.46-1.59
	C305.51,358.65,306.33,361.67,305.55,363.96"/>
<path class="st2" d="M315.75,361.2c-0.5,2.31-2.43,3.25-4.31,1.98c-1.9-1.22-2.93-4.13-2.4-6.51c0.56-2.29,2.49-3.23,4.31-1.98
	C315.24,355.91,316.33,358.85,315.75,361.2"/>
<path class="st2" d="M325.67,357.56c-0.3,2.35-2.14,3.45-4.12,2.34c-2-1.05-3.27-3.86-2.96-6.27c0.36-2.33,2.2-3.44,4.12-2.34
	C324.7,352.33,326.04,355.17,325.67,357.56"/>
<path class="st2" d="M335.23,353.07c-0.09,2.37-1.83,3.63-3.9,2.69c-2.08-0.87-3.6-3.56-3.49-5.99c0.15-2.35,1.89-3.61,3.9-2.69
	C333.82,347.95,335.4,350.65,335.23,353.07"/>
<path class="st2" d="M344.37,347.76c0.11,2.37-1.51,3.77-3.65,3.02c-2.15-0.69-3.9-3.24-4-5.67c-0.05-2.36,1.57-3.77,3.65-3.02
	C342.51,342.78,344.32,345.34,344.37,347.76"/>
<path class="st2" d="M353,341.68c0.32,2.35-1.17,3.89-3.37,3.33c-2.2-0.5-4.16-2.88-4.48-5.29c-0.26-2.35,1.23-3.89,3.37-3.33
	C350.72,336.88,352.75,339.27,353,341.68"/>
<path class="st2" d="M361.08,334.86c0.52,2.31-0.83,3.98-3.07,3.61c-2.24-0.3-4.4-2.51-4.93-4.88c-0.46-2.31,0.89-3.98,3.07-3.61
	C358.39,330.28,360.62,332.49,361.08,334.86"/>
<path class="st2" d="M368.53,327.37c0.72,2.26-0.48,4.03-2.74,3.86c-2.25-0.11-4.6-2.12-5.33-4.44c-0.66-2.26,0.54-4.04,2.74-3.86
	C365.45,323.04,367.86,325.05,368.53,327.37"/>
<path class="st2" d="M375.3,319.26c0.92,2.18-0.13,4.06-2.39,4.09c-2.25,0.09-4.77-1.71-5.7-3.95c-0.86-2.2,0.19-4.08,2.39-4.09
	C371.86,315.22,374.43,317,375.3,319.26"/>
<path class="st2" d="M381.34,310.59c1.1,2.1,0.23,4.06-2.03,4.28c-2.24,0.29-4.9-1.29-6.02-3.44c-1.04-2.12-0.17-4.08,2.03-4.28
	C377.55,306.86,380.28,308.41,381.34,310.59"/>
<path class="st2" d="M386.6,301.43c1.28,1.99,0.58,4.02-1.65,4.44c-2.2,0.48-4.99-0.85-6.3-2.9c-1.22-2.02-0.52-4.05,1.65-4.44
	C382.5,298.04,385.35,299.35,386.6,301.43"/>
<path class="st2" d="M391.04,291.84c1.45,1.87,0.93,3.95-1.25,4.57c-2.15,0.67-5.05-0.42-6.53-2.34c-1.4-1.9-0.87-3.98,1.25-4.57
	C386.66,288.82,389.61,289.88,391.04,291.84"/>
<path class="st2" d="M394.63,281.9c1.61,1.74,1.27,3.86-0.85,4.66c-2.09,0.86-5.06,0.03-6.71-1.77c-1.56-1.77-1.22-3.89,0.85-4.66
	C390.01,279.28,393.03,280.07,394.63,281.9"/>
<path class="st2" d="M397.33,271.69c1.75,1.59,1.6,3.73-0.44,4.72c-2,1.03-5.04,0.47-6.84-1.18c-1.7-1.63-1.55-3.77,0.44-4.72
	C392.5,269.48,395.59,270.01,397.33,271.69"/>
<path class="st2" d="M399.14,261.28c1.89,1.43,1.92,3.58-0.03,4.74c-1.91,1.2-4.98,0.9-6.91-0.58c-1.84-1.48-1.88-3.62,0.03-4.74
	C394.13,259.5,397.26,259.76,399.14,261.28"/>
<path class="st2" d="M400.03,250.75c2,1.26,2.23,3.4,0.38,4.72c-1.79,1.37-4.89,1.34-6.94,0.03c-1.96-1.31-2.18-3.45-0.38-4.72
	C394.89,249.41,398.02,249.4,400.03,250.75"/>
<path class="st2" d="M400,240.18c2.11,1.08,2.51,3.19,0.79,4.67c-1.67,1.52-4.75,1.76-6.91,0.63c-2.07-1.13-2.48-3.24-0.79-4.67
	C394.77,239.3,397.89,239.01,400,240.18"/>
<path class="st2" d="M399.06,229.66c2.19,0.9,2.78,2.96,1.2,4.58c-1.53,1.66-4.58,2.16-6.83,1.23c-2.16-0.95-2.75-3.01-1.2-4.58
	C393.76,229.24,396.84,228.68,399.06,229.66"/>
<path class="st2" d="M397.19,219.26c2.26,0.7,3.03,2.71,1.59,4.46c-1.38,1.78-4.37,2.55-6.69,1.82c-2.23-0.76-3-2.76-1.59-4.46
	C391.88,219.3,394.9,218.47,397.19,219.26"/>
<path class="st2" d="M394.43,209.06c2.31,0.5,3.25,2.43,1.98,4.31c-1.22,1.9-4.13,2.93-6.51,2.4c-2.29-0.56-3.23-2.49-1.98-4.31
	C389.14,209.56,392.08,208.48,394.43,209.06"/>
<path class="st2" d="M390.79,199.14c2.35,0.3,3.45,2.14,2.34,4.12c-1.05,2-3.86,3.27-6.27,2.96c-2.33-0.36-3.44-2.2-2.34-4.12
	C385.57,200.1,388.4,198.77,390.79,199.14"/>
<path class="st2" d="M386.3,189.58c2.37,0.09,3.63,1.83,2.69,3.9c-0.87,2.08-3.56,3.6-5.99,3.49c-2.35-0.15-3.61-1.89-2.69-3.9
	C381.18,190.99,383.89,189.41,386.3,189.58"/>
<path class="st2" d="M380.99,180.44c2.37-0.11,3.77,1.51,3.02,3.65c-0.69,2.15-3.24,3.9-5.67,4c-2.36,0.05-3.77-1.57-3.02-3.65
	C376.02,182.3,378.57,180.49,380.99,180.44"/>
<path class="st2" d="M374.91,171.8c2.35-0.32,3.89,1.17,3.33,3.37c-0.5,2.2-2.88,4.16-5.3,4.48c-2.35,0.26-3.89-1.23-3.33-3.37
	C370.11,174.08,372.5,172.06,374.91,171.8"/>
<path class="st2" d="M368.1,163.73c2.31-0.52,3.98,0.83,3.61,3.07c-0.3,2.24-2.51,4.4-4.88,4.93c-2.31,0.46-3.98-0.89-3.61-3.07
	C363.52,166.42,365.72,164.19,368.1,163.73"/>
<path class="st2" d="M360.61,156.28c2.26-0.72,4.03,0.48,3.86,2.74c-0.11,2.25-2.12,4.6-4.44,5.33c-2.26,0.66-4.04-0.54-3.86-2.74
	C356.28,159.36,358.28,156.95,360.61,156.28"/>
<path class="st2" d="M352.5,149.51c2.18-0.92,4.06,0.13,4.09,2.39c0.09,2.25-1.71,4.77-3.95,5.7c-2.2,0.86-4.08-0.19-4.09-2.39
	C348.45,152.95,350.24,150.38,352.5,149.51"/>
<path class="st2" d="M343.82,143.47c2.1-1.1,4.06-0.23,4.28,2.03c0.29,2.24-1.29,4.9-3.44,6.02c-2.12,1.04-4.08,0.17-4.28-2.03
	C340.1,147.25,341.65,144.53,343.82,143.47"/>
<path class="st2" d="M334.66,138.21c1.99-1.28,4.02-0.58,4.44,1.65c0.48,2.2-0.85,4.99-2.9,6.3c-2.02,1.22-4.05,0.52-4.44-1.65
	C331.28,142.3,332.59,139.46,334.66,138.21"/>
<path class="st2" d="M325.07,133.77c1.87-1.45,3.95-0.93,4.57,1.25c0.67,2.15-0.42,5.05-2.34,6.53c-1.9,1.4-3.98,0.87-4.57-1.25
	C322.06,138.14,323.12,135.2,325.07,133.77"/>
<path class="st2" d="M315.13,130.18c1.74-1.61,3.86-1.27,4.66,0.85c0.86,2.09,0.03,5.06-1.77,6.71c-1.77,1.56-3.89,1.22-4.66-0.85
	C312.51,134.8,313.31,131.77,315.13,130.18"/>
<path class="st2" d="M304.92,127.48c1.59-1.75,3.73-1.6,4.72,0.44c1.03,2,0.47,5.04-1.18,6.84c-1.63,1.7-3.77,1.55-4.72-0.44
	C302.71,132.31,303.24,129.22,304.92,127.48"/>
<path class="st2" d="M294.51,125.67c1.43-1.89,3.58-1.92,4.74,0.03c1.2,1.91,0.9,4.98-0.58,6.91c-1.48,1.84-3.62,1.88-4.74-0.03
	C292.73,130.67,292.99,127.55,294.51,125.67"/>
<path class="st2" d="M283.98,124.78c1.26-2,3.4-2.23,4.72-0.38c1.37,1.79,1.34,4.89,0.03,6.94c-1.31,1.96-3.45,2.18-4.72,0.38
	C282.65,129.92,282.63,126.78,283.98,124.78"/>
<path class="st2" d="M273.42,124.8c1.08-2.11,3.19-2.51,4.67-0.79c1.52,1.67,1.76,4.75,0.63,6.91c-1.13,2.07-3.24,2.48-4.67,0.79
	C272.54,130.04,272.25,126.92,273.42,124.8"/>
<path class="st2" d="M262.89,125.75c0.9-2.19,2.96-2.78,4.58-1.2c1.66,1.53,2.16,4.58,1.23,6.83c-0.95,2.16-3.01,2.75-4.58,1.2
	C262.47,131.05,261.91,127.96,262.89,125.75"/>
<path class="st2" d="M252.49,127.61c0.7-2.26,2.71-3.03,4.46-1.59c1.78,1.38,2.55,4.37,1.82,6.69c-0.76,2.23-2.76,3-4.46,1.59
	C252.53,132.93,251.71,129.9,252.49,127.61"/>
<path class="st2" d="M242.3,130.38c0.5-2.31,2.43-3.25,4.31-1.98c1.9,1.22,2.93,4.13,2.4,6.51c-0.56,2.29-2.49,3.23-4.31,1.98
	C242.8,135.66,241.71,132.73,242.3,130.38"/>
<path class="st2" d="M232.38,134.02c0.3-2.35,2.14-3.45,4.12-2.34c2,1.05,3.27,3.86,2.96,6.27c-0.36,2.33-2.2,3.44-4.12,2.34
	C233.34,139.24,232,136.41,232.38,134.02"/>
<path class="st2" d="M222.81,138.51c0.09-2.37,1.83-3.63,3.9-2.69c2.08,0.87,3.6,3.56,3.49,5.99c-0.15,2.35-1.89,3.61-3.9,2.69
	C224.23,143.63,222.65,140.92,222.81,138.51"/>
<path class="st2" d="M213.68,143.81c-0.11-2.37,1.51-3.77,3.65-3.02c2.15,0.69,3.9,3.24,4,5.67c0.05,2.36-1.57,3.77-3.65,3.02
	C215.53,148.79,213.72,146.23,213.68,143.81"/>
<path class="st2" d="M205.04,149.9c-0.32-2.35,1.17-3.89,3.37-3.33c2.2,0.5,4.16,2.88,4.48,5.29c0.26,2.35-1.23,3.89-3.37,3.33
	C207.32,154.69,205.29,152.3,205.04,149.9"/>
<path class="st2" d="M196.96,156.71c-0.52-2.31,0.83-3.98,3.07-3.61c2.24,0.3,4.4,2.51,4.93,4.88c0.46,2.31-0.89,3.98-3.07,3.61
	C199.65,161.29,197.43,159.09,196.96,156.71"/>
<path class="st2" d="M189.51,164.2c-0.72-2.26,0.48-4.03,2.74-3.86c2.25,0.11,4.6,2.12,5.33,4.44c0.66,2.26-0.54,4.04-2.74,3.86
	C192.59,168.53,190.18,166.53,189.51,164.2"/>
<path class="st2" d="M182.74,172.31c-0.92-2.18,0.13-4.06,2.39-4.09c2.25-0.09,4.77,1.71,5.7,3.95c0.86,2.2-0.19,4.08-2.39,4.09
	C186.19,176.36,183.61,174.57,182.74,172.31"/>
<path class="st2" d="M176.7,180.98c-1.1-2.1-0.23-4.06,2.03-4.28c2.24-0.29,4.9,1.29,6.02,3.44c1.04,2.12,0.17,4.08-2.03,4.28
	C180.49,184.71,177.77,183.16,176.7,180.98"/>
<path class="st2" d="M171.44,190.15c-1.28-1.99-0.58-4.02,1.65-4.44c2.2-0.48,4.99,0.85,6.3,2.9c1.22,2.02,0.52,4.05-1.65,4.44
	C175.54,193.53,172.69,192.22,171.44,190.15"/>
<path class="st2" d="M167,199.74c-1.45-1.87-0.93-3.95,1.25-4.57c2.15-0.67,5.05,0.42,6.53,2.34c1.4,1.9,0.87,3.98-1.25,4.57
	C171.38,202.75,168.43,201.69,167,199.74"/>
<path class="st2" d="M163.42,209.67c-1.61-1.74-1.27-3.86,0.85-4.66c2.09-0.86,5.06-0.03,6.71,1.77c1.56,1.77,1.22,3.89-0.85,4.66
	C168.04,212.29,165.01,211.5,163.42,209.67"/>
<path class="st2" d="M160.71,219.89c-1.75-1.59-1.6-3.73,0.44-4.72c2-1.03,5.04-0.47,6.84,1.18c1.7,1.63,1.55,3.77-0.44,4.72
	C165.54,222.09,162.45,221.57,160.71,219.89"/>
<path class="st2" d="M158.9,230.3c-1.89-1.43-1.92-3.58,0.03-4.74c1.91-1.2,4.98-0.9,6.91,0.58c1.84,1.48,1.88,3.62-0.03,4.74
	C163.91,232.08,160.79,231.82,158.9,230.3"/>
<path class="st2" d="M158.01,240.82c-2-1.26-2.23-3.4-0.38-4.72c1.79-1.37,4.89-1.34,6.94-0.03c1.96,1.31,2.18,3.45,0.38,4.72
	C163.15,242.16,160.02,242.18,158.01,240.82"/>
<path class="st2" d="M158.04,251.39c-2.11-1.08-2.51-3.19-0.79-4.67c1.67-1.52,4.75-1.76,6.91-0.63c2.07,1.13,2.48,3.24,0.79,4.67
	C163.28,252.27,160.16,252.56,158.04,251.39"/>
<path class="st3" d="M69.18,263.56c11.7-6.82,19.2-14.21,23.95-19.85c5.58-6.63,6.45-9.74,14.81-21.33
	c10.67-14.79,16.01-22.19,19.95-22.3c9.55-0.28,16.35,22.1,34.1,68.21c20.84,54.13,25.74,63.03,32.96,63.66
	c14.99,1.31,15.52-35.22,46.84-56.1c36.1-24.06,65.94,4.08,101.33-19.56c32.07-21.41,36.99-64.13,49.41-61.29
	c3.09,0.7,7.56,9.8,16.37,27.96c4.34,8.94,6.51,13.4,9.83,21.14c9.5,22.14,10.89,29.53,18.62,48.63c9.72,24.02,14.58,36.04,20,36.44
	c11.83,0.89,11.59-35.15,37.33-56c18.2-14.74,37.48-12.25,102.82-11.2c22.64,0.36,56.18,0.64,97.61-0.04"/>
<path class="st2" d="M158.99,261.91c-2.19-0.9-2.78-2.96-1.2-4.58c1.53-1.66,4.58-2.16,6.83-1.23c2.16,0.95,2.75,3.01,1.2,4.58
	C164.28,262.34,161.2,262.9,158.99,261.91"/>
<path class="st2" d="M160.85,272.31c-2.26-0.7-3.03-2.71-1.59-4.46c1.38-1.78,4.37-2.55,6.69-1.82c2.23,0.76,3,2.76,1.59,4.46
	C166.16,272.27,163.14,273.1,160.85,272.31"/>
<path class="st2" d="M163.61,282.51c-2.31-0.5-3.25-2.43-1.98-4.31c1.22-1.9,4.13-2.93,6.51-2.4c2.29,0.56,3.23,2.49,1.98,4.31
	C168.9,282.01,165.96,283.1,163.61,282.51"/>
<path class="st2" d="M167.25,292.43c-2.35-0.3-3.45-2.14-2.34-4.12c1.05-2,3.86-3.27,6.27-2.96c2.33,0.36,3.44,2.2,2.34,4.12
	C172.47,291.47,169.64,292.81,167.25,292.43"/>
<path class="st2" d="M171.74,302c-2.37-0.09-3.63-1.83-2.69-3.9c0.87-2.08,3.56-3.6,5.99-3.49c2.35,0.15,3.61,1.89,2.69,3.9
	C176.86,300.58,174.16,302.16,171.74,302"/>
<path class="st2" d="M177.05,311.13c-2.37,0.11-3.77-1.51-3.02-3.65c0.69-2.15,3.24-3.9,5.67-4c2.36-0.05,3.77,1.57,3.02,3.65
	C182.03,309.28,179.47,311.09,177.05,311.13"/>
<path class="st2" d="M183.13,319.77c-2.35,0.32-3.89-1.17-3.33-3.37c0.5-2.2,2.88-4.16,5.29-4.48c2.35-0.26,3.89,1.23,3.33,3.37
	C187.93,317.49,185.54,319.51,183.13,319.77"/>
<path class="st2" d="M189.94,327.85c-2.31,0.52-3.98-0.83-3.61-3.07c0.3-2.24,2.51-4.4,4.88-4.93c2.31-0.46,3.98,0.89,3.61,3.07
	C194.52,325.16,192.32,327.38,189.94,327.85"/>
<g>
	<g>
		<line class="st0" x1="493.67" y1="339.61" x2="69.18" y2="339.61"/>
		<g>
			<polygon points="491.88,337 501.64,339.61 491.88,342.22 			"/>
		</g>
	</g>
</g>
<path class="st2" d="M197.44,335.3c-2.26,0.72-4.03-0.48-3.86-2.74c0.11-2.25,2.12-4.6,4.44-5.33c2.26-0.66,4.04,0.54,3.86,2.74
	C201.76,332.22,199.76,334.63,197.44,335.3"/>
<path class="st2" d="M205.55,342.07c-2.18,0.92-4.06-0.13-4.09-2.39c-0.09-2.25,1.71-4.77,3.95-5.7c2.2-0.86,4.08,0.19,4.09,2.39
	C209.59,338.62,207.81,341.2,205.55,342.07"/>
<line class="st4" x1="3.98" y1="378" x2="69.18" y2="339.61"/>
<path class="st2" d="M214.22,348.1c-2.1,1.1-4.06,0.23-4.28-2.03c-0.29-2.24,1.29-4.9,3.44-6.02c2.12-1.04,4.08-0.17,4.28,2.03
	C217.95,344.32,216.39,347.04,214.22,348.1"/>
<path class="st2" d="M223.38,353.36c-1.99,1.28-4.02,0.58-4.44-1.65c-0.48-2.2,0.85-4.99,2.9-6.3c2.02-1.22,4.05-0.52,4.44,1.65
	C226.77,349.27,225.46,352.11,223.38,353.36"/>
<path class="st2" d="M232.97,357.8c-1.87,1.45-3.95,0.93-4.57-1.25c-0.67-2.15,0.42-5.05,2.34-6.53c1.9-1.4,3.98-0.87,4.57,1.25
	C235.98,353.43,234.93,356.38,232.97,357.8"/>
<path class="st2" d="M242.91,361.39c-1.74,1.61-3.86,1.27-4.66-0.85c-0.86-2.09-0.03-5.06,1.77-6.71c1.77-1.56,3.89-1.22,4.66,0.85
	C245.53,356.77,244.73,359.8,242.91,361.39"/>
<path class="st2" d="M253.12,364.1c-1.59,1.75-3.73,1.6-4.72-0.44c-1.03-2-0.47-5.04,1.18-6.84c1.63-1.7,3.77-1.55,4.72,0.44
	C255.33,359.27,254.8,362.35,253.12,364.1"/>
<circle class="st5" cx="279.02" cy="245.79" r="114"/>
<path class="st2" d="M263.53,365.91c-1.43,1.89-3.58,1.92-4.74-0.03c-1.2-1.91-0.9-4.98,0.58-6.91c1.48-1.84,3.62-1.88,4.74,0.03
	C265.31,360.9,265.05,364.02,263.53,365.91"/>
<path class="st2" d="M274.06,366.8c-1.26,2-3.4,2.23-4.72,0.38c-1.37-1.79-1.34-4.89-0.03-6.94c1.31-1.96,3.45-2.18,4.72-0.38
	C275.4,361.66,275.41,364.79,274.06,366.8"/>
<path class="st6" d="M0.63,376.17c35.27-45.38,78.54-106.9,121.2-183.98c39.69-71.69,67.61-136.52,87.03-188.08"/>
<g>
	<g>
		<line class="st7" x1="3.98" y1="286" x2="55.68" y2="286"/>
		<g>
			<polygon class="st8" points="53.7,288.91 64.54,286 53.7,283.09 			"/>
		</g>
	</g>
</g>
<g>
	<g>
		<line class="st7" x1="3.98" y1="192" x2="112.97" y2="192.18"/>
		<g>
			<polygon class="st8" points="110.98,195.08 121.83,192.19 110.99,189.27 			"/>
		</g>
	</g>
</g>
<g>
	<g>
		<line class="st7" x1="3.98" y1="4" x2="199.4" y2="4"/>
		<g>
			<polygon class="st8" points="197.42,6.91 208.26,4 197.42,1.09 			"/>
		</g>
	</g>
</g>
<g>
	<g>
		<path class="st9" d="M212.14,367.13l2.84,3.54l-0.06,7.65 M211.13,368.27l2.65,3.22 M220.73,368.08l-3.16,3.79"/>
		<path class="st10" d="M219.66,366.88l-2.53,3.1l-0.63,0.76l0.06,7.58 M218.2,370.42l-0.57-0.44 M213.46,370.61l0.76-0.57
			 M215.11,371.87h1.2"/>
	</g>
	<g>
		<path class="st9" d="M227.44,367.13l2.84,3.54l-0.06,7.65 M226.43,368.27l2.65,3.22 M236.03,368.08l-3.16,3.79"/>
		<path class="st10" d="M234.96,366.88l-2.53,3.1l-0.63,0.76l0.06,7.58 M233.51,370.42l-0.57-0.44 M228.77,370.61l0.76-0.57
			 M230.41,371.87h1.2"/>
	</g>
	<g>
		<path class="st9" d="M196.83,367.13l2.84,3.54l-0.06,7.65 M195.82,368.27l2.65,3.22 M205.43,368.08l-3.16,3.79"/>
		<path class="st10" d="M204.35,366.88l-2.53,3.1l-0.63,0.76l0.06,7.58 M202.9,370.42l-0.57-0.44 M198.16,370.61l0.76-0.57
			 M199.8,371.87h1.2"/>
	</g>
	<g>
		<path class="st9" d="M181.53,367.13l2.84,3.54l-0.06,7.65 M180.52,368.27l2.65,3.22 M190.12,368.08l-3.16,3.79"/>
		<path class="st10" d="M189.05,366.88l-2.53,3.1l-0.63,0.76l0.06,7.58 M187.6,370.42l-0.57-0.44 M182.86,370.61l0.76-0.57
			 M184.5,371.87h1.2"/>
	</g>
	<g>
		<path class="st9" d="M242.74,367.13l2.84,3.54l-0.06,7.65 M241.73,368.27l2.65,3.22 M251.34,368.08l-3.16,3.79"/>
		<path class="st10" d="M250.26,366.88l-2.53,3.1l-0.63,0.76l0.06,7.58 M248.81,370.42l-0.57-0.44 M244.07,370.61l0.76-0.57
			 M245.71,371.87h1.2"/>
	</g>
	<g>
		<path class="st9" d="M258.05,367.13l2.84,3.54l-0.06,7.65 M257.04,368.27l2.65,3.22 M266.64,368.08l-3.16,3.79"/>
		<path class="st10" d="M265.57,366.88l-2.53,3.1l-0.63,0.76l0.06,7.58 M264.11,370.42l-0.57-0.44 M259.37,370.61l0.76-0.57
			 M261.02,371.87h1.2"/>
	</g>
	<g>
		<path class="st9" d="M303.96,367.13l2.84,3.54l-0.06,7.65 M302.95,368.27l2.65,3.22 M312.55,368.08l-3.16,3.79"/>
		<path class="st10" d="M311.48,366.88l-2.53,3.1l-0.63,0.76l0.06,7.58 M310.02,370.42l-0.57-0.44 M305.28,370.61l0.76-0.57
			 M306.93,371.87h1.2"/>
	</g>
	<g>
		<path class="st9" d="M319.26,367.13l2.84,3.54l-0.06,7.65 M318.25,368.27l2.65,3.22 M327.86,368.08l-3.16,3.79"/>
		<path class="st10" d="M326.78,366.88l-2.53,3.1l-0.63,0.76l0.06,7.58 M325.33,370.42l-0.57-0.44 M320.59,370.61l0.76-0.57
			 M322.23,371.87h1.2"/>
	</g>
	<g>
		<path class="st9" d="M273.35,367.13l2.84,3.54l-0.06,7.65 M272.34,368.27l2.65,3.22 M281.94,368.08l-3.16,3.79"/>
		<path class="st10" d="M280.87,366.88l-2.53,3.1l-0.63,0.76l0.06,7.58 M279.42,370.42l-0.57-0.44 M274.68,370.61l0.76-0.57
			 M276.32,371.87h1.2"/>
	</g>
	<g>
		<path class="st9" d="M288.65,367.13l2.84,3.54l-0.06,7.65 M287.64,368.27l2.65,3.22 M297.25,368.08l-3.16,3.79"/>
		<path class="st10" d="M296.17,366.88l-2.53,3.1l-0.63,0.76l0.06,7.58 M294.72,370.42l-0.57-0.44 M289.98,370.61l0.76-0.57
			 M291.62,371.87h1.2"/>
	</g>
	<g>
		<path class="st9" d="M334.56,367.13l2.84,3.54l-0.06,7.65 M333.55,368.27l2.65,3.22 M343.16,368.08l-3.16,3.79"/>
		<path class="st10" d="M342.08,366.88l-2.53,3.1l-0.63,0.76l0.06,7.58 M340.63,370.42l-0.57-0.44 M335.89,370.61l0.76-0.57
			 M337.53,371.87h1.2"/>
	</g>
	<g>
		<path class="st9" d="M349.87,367.13l2.84,3.54l-0.06,7.65 M348.86,368.27l2.65,3.22 M358.46,368.08l-3.16,3.79"/>
		<path class="st10" d="M357.39,366.88l-2.53,3.1l-0.63,0.76l0.06,7.58 M355.93,370.42l-0.57-0.44 M351.19,370.61l0.76-0.57
			 M352.84,371.87h1.2"/>
	</g>
	<g>
		<path class="st9" d="M365.17,367.13l2.84,3.54l-0.06,7.65 M364.16,368.27l2.65,3.22 M373.77,368.08l-3.16,3.79"/>
		<path class="st10" d="M372.69,366.88l-2.53,3.1l-0.63,0.76l0.06,7.58 M371.24,370.42l-0.57-0.44 M366.5,370.61l0.76-0.57
			 M368.14,371.87h1.2"/>
	</g>
	<g>
		<path class="st9" d="M380.47,367.13l2.84,3.54l-0.06,7.65 M379.46,368.27l2.65,3.22 M389.07,368.08l-3.16,3.79"/>
		<path class="st10" d="M387.99,366.88l-2.53,3.1l-0.63,0.76l0.06,7.58 M386.54,370.42l-0.57-0.44 M381.8,370.61l0.76-0.57
			 M383.44,371.87h1.2"/>
	</g>
	<g>
		<path class="st9" d="M395.78,367.13l2.84,3.54l-0.06,7.65 M394.77,368.27l2.65,3.22 M404.37,368.08l-3.16,3.79"/>
		<path class="st10" d="M403.3,366.88l-2.53,3.1l-0.63,0.76l0.06,7.58 M401.84,370.42l-0.57-0.44 M397.11,370.61l0.76-0.57
			 M398.75,371.87h1.2"/>
	</g>
	<g>
		<path class="st9" d="M411.08,367.13l2.84,3.54l-0.06,7.65 M410.07,368.27l2.65,3.22 M419.68,368.08l-3.16,3.79"/>
		<path class="st10" d="M418.6,366.88l-2.53,3.1l-0.63,0.76l0.06,7.58 M417.15,370.42l-0.57-0.44 M412.41,370.61l0.76-0.57
			 M414.05,371.87h1.2"/>
	</g>
	<g>
		<path class="st9" d="M150.92,367.13l2.84,3.54l-0.06,7.65 M149.91,368.27l2.65,3.22 M159.52,368.08l-3.16,3.79"/>
		<path class="st10" d="M158.44,366.88l-2.53,3.1l-0.63,0.76l0.06,7.58 M156.99,370.42l-0.57-0.44 M152.25,370.61l0.76-0.57
			 M153.89,371.87h1.2"/>
	</g>
	<g>
		<path class="st9" d="M166.23,367.13l2.84,3.54l-0.06,7.65 M165.22,368.27l2.65,3.22 M174.82,368.08l-3.16,3.79"/>
		<path class="st10" d="M173.75,366.88l-2.53,3.1l-0.63,0.76l0.06,7.58 M172.29,370.42l-0.57-0.44 M167.55,370.61l0.76-0.57
			 M169.2,371.87h1.2"/>
	</g>
	<g>
		<path class="st9" d="M120.32,367.13l2.84,3.54l-0.06,7.65 M119.31,368.27l2.65,3.22 M128.91,368.08l-3.16,3.79"/>
		<path class="st10" d="M127.84,366.88l-2.53,3.1l-0.63,0.76l0.06,7.58 M126.38,370.42l-0.57-0.44 M121.64,370.61l0.76-0.57
			 M123.29,371.87h1.2"/>
	</g>
	<g>
		<path class="st9" d="M135.62,367.13l2.84,3.54l-0.06,7.65 M134.61,368.27l2.65,3.22 M144.21,368.08l-3.16,3.79"/>
		<path class="st10" d="M143.14,366.88l-2.53,3.1l-0.63,0.76l0.06,7.58 M141.69,370.42l-0.57-0.44 M136.95,370.61l0.76-0.57
			 M138.59,371.87h1.2"/>
	</g>
	<g>
		<path class="st9" d="M89.71,367.13l2.84,3.54l-0.06,7.65 M88.7,368.27l2.65,3.22 M98.3,368.08l-3.16,3.79"/>
		<path class="st10" d="M97.23,366.88l-2.53,3.1l-0.63,0.76l0.06,7.58 M95.78,370.42l-0.57-0.44 M91.04,370.61l0.76-0.57
			 M92.68,371.87h1.2"/>
	</g>
	<g>
		<path class="st9" d="M105.01,367.13l2.84,3.54l-0.06,7.65 M104,368.27l2.65,3.22 M113.61,368.08l-3.16,3.79"/>
		<path class="st10" d="M112.53,366.88l-2.53,3.1l-0.63,0.76l0.06,7.58 M111.08,370.42l-0.57-0.44 M106.34,370.61l0.76-0.57
			 M107.98,371.87h1.2"/>
	</g>
	<g>
		<path class="st9" d="M59.1,367.13l2.84,3.54l-0.06,7.65 M58.09,368.27l2.65,3.22 M67.7,368.08l-3.16,3.79"/>
		<path class="st10" d="M66.62,366.88l-2.53,3.1l-0.63,0.76l0.06,7.58 M65.17,370.42l-0.57-0.44 M60.43,370.61l0.76-0.57
			 M62.07,371.87h1.2"/>
	</g>
	<g>
		<path class="st9" d="M74.41,367.13l2.84,3.54l-0.06,7.65 M73.39,368.27l2.65,3.22 M83,368.08l-3.16,3.79"/>
		<path class="st10" d="M81.92,366.88l-2.53,3.1l-0.63,0.76l0.06,7.58 M80.47,370.42l-0.57-0.44 M75.73,370.61l0.76-0.57
			 M77.38,371.87h1.2"/>
	</g>
	<g>
		<path class="st9" d="M28.5,367.13l2.84,3.54l-0.06,7.65 M27.48,368.27l2.65,3.22 M37.09,368.08l-3.16,3.79"/>
		<path class="st10" d="M36.01,366.88l-2.53,3.1l-0.63,0.76l0.06,7.58 M34.56,370.42l-0.57-0.44 M29.82,370.61l0.76-0.57
			 M31.47,371.87h1.2"/>
	</g>
	<g>
		<path class="st9" d="M43.8,367.13l2.84,3.54l-0.06,7.65 M42.79,368.27l2.65,3.22 M52.39,368.08l-3.16,3.79"/>
		<path class="st10" d="M51.32,366.88l-2.53,3.1l-0.63,0.76l0.06,7.58 M49.87,370.42l-0.57-0.44 M45.13,370.61l0.76-0.57
			 M46.77,371.87h1.2"/>
	</g>
	<g>
		<path class="st9" d="M426.39,367.26l2.84,3.54l-0.06,7.65 M425.37,368.39l2.65,3.22 M434.98,368.2l-3.16,3.79"/>
		<path class="st10" d="M433.9,367l-2.53,3.1l-0.63,0.76l0.06,7.58 M432.45,370.54l-0.57-0.44 M427.71,370.73l0.76-0.57 M429.36,372
			h1.2"/>
	</g>
	<g>
		<path class="st9" d="M13.19,367.13l2.84,3.54l-0.06,7.65 M12.18,368.27l2.65,3.22 M21.79,368.08l-3.16,3.79"/>
		<path class="st10" d="M20.71,366.88l-2.53,3.1l-0.63,0.76l0.06,7.58 M19.26,370.42l-0.57-0.44 M14.52,370.61l0.76-0.57
			 M16.16,371.87h1.2"/>
	</g>
</g>
<g>
	<g>
		<line class="st7" x1="3.98" y1="98" x2="160.7" y2="98"/>
		<g>
			<polygon class="st8" points="158.71,100.91 169.56,98 158.71,95.09 			"/>
		</g>
	</g>
</g>
<text transform="matrix(1 0 0 1 72.7451 92.1483)" class="st8 st11 st12">u</text>
<g>
	<g>
		<g>
			<line class="st13" x1="278.96" y1="244.36" x2="325.63" y2="244.36"/>
			<g>
				<polygon class="st8" points="323.25,247.85 336.26,244.36 323.25,240.87 				"/>
			</g>
		</g>
	</g>
	<text transform="matrix(1 0 0 1 288.7504 235.9177)" class="st8 st11 st14">F</text>
	<text transform="matrix(1 0 0 1 295.5578 239.1695)" class="st8 st11 st15">drag</text>
</g>
<g>
	<g>
		<g>
			<line class="st16" x1="278.96" y1="313.76" x2="278.96" y2="331.25"/>
			<g>
				<polygon class="st2" points="275.47,328.88 278.96,341.88 282.45,328.88 				"/>
			</g>
		</g>
	</g>
	<text transform="matrix(1 0 0 1 225.6263 330.9603)" class="st2 st11 st14">F</text>
	<text transform="matrix(1 0 0 1 232.4344 335.6161)" class="st2 st11 st15">protein</text>
</g>
<g>
	<g>
		<g>
			<line class="st17" x1="278.96" y1="290.63" x2="278.96" y2="308.12"/>
			<g>
				<polygon class="st18" points="275.47,305.74 278.96,318.75 282.45,305.74 				"/>
			</g>
		</g>
	</g>
	<text transform="matrix(1 0 0 1 225.6262 304.6894)" class="st18 st11 st14">F</text>
	<text transform="matrix(1 0 0 1 232.4343 309.3452)" class="st18 st11 st15">dipole</text>
</g>
<g>
	<g>
		<g>
			<line class="st19" x1="278.96" y1="267.49" x2="278.96" y2="284.99"/>
			<g>
				<polygon class="st20" points="275.47,282.61 278.96,295.62 282.45,282.61 				"/>
			</g>
		</g>
	</g>
	<text transform="matrix(1 0 0 1 225.6265 282.5405)" class="st20 st11 st14">F</text>
	<text transform="matrix(1 0 0 1 232.4342 286.7147)" class="st20 st11 st15">electro</text>
</g>
<g>
	<g>
		<g>
			<line class="st21" x1="278.96" y1="244.36" x2="278.96" y2="261.85"/>
			<g>
				<polygon class="st22" points="275.47,259.48 278.96,272.48 282.45,259.48 				"/>
			</g>
		</g>
	</g>
	<text transform="matrix(1 0 0 1 225.6268 258.4229)" class="st22 st11 st14">F</text>
	<text transform="matrix(1 0 0 1 232.4341 261.6747)" class="st22 st11 st15">gravity</text>
</g>
<g>
	<g>
		<path class="st23" d="M185.07,244.36c0-19.57,6.08-39.15,18.25-55.65"/>
		<g>
			<polygon points="204.93,194.22 212.57,177.97 197.82,188.22 			"/>
		</g>
	</g>
</g>
<g>
	<g>
		<path class="st23" d="M372.85,244.36c0,19.55-5.98,37.71-16.2,52.74"/>
		<g>
			<polygon points="354.48,290.24 345.35,310.75 363.51,297.56 			"/>
		</g>
	</g>
</g>
<g>
	<text transform="matrix(1 0 0 1 225.6265 184.0318)" class="st11 st14">F</text>
	<text transform="matrix(1 0 0 1 232.4339 187.2836)" class="st11 st15">lift,shear</text>
	<g>
		<g>
			<line class="st23" x1="278.96" y1="195.84" x2="278.96" y2="178.34"/>
			<g>
				<polygon points="282.45,180.72 278.96,167.71 275.47,180.72 				"/>
			</g>
		</g>
	</g>
</g>
<g>
	<text transform="matrix(1 0 0 1 225.6269 208.2941)" class="st24 st11 st14">F</text>
	<text transform="matrix(1 0 0 1 232.4343 211.5459)" class="st24 st11 st15">lift,wall</text>
	<g>
		<g>
			<line class="st25" x1="278.96" y1="220.1" x2="278.96" y2="202.61"/>
			<g>
				<polygon class="st24" points="282.45,204.98 278.96,191.98 275.47,204.98 				"/>
			</g>
		</g>
	</g>
</g>
<g>
	<text transform="matrix(1 0 0 1 225.6271 232.5564)" class="st26 st11 st14">F</text>
	<text transform="matrix(1 0 0 1 232.4345 235.8081)" class="st26 st11 st15">buoyancy</text>
	<g>
		<g>
			<line class="st27" x1="278.96" y1="244.36" x2="278.96" y2="226.87"/>
			<g>
				<polygon class="st26" points="282.45,229.25 278.96,216.24 275.47,229.25 				"/>
			</g>
		</g>
	</g>
</g>
<text transform="matrix(1 0 0 1 351.9598 272.4847)" class="st11 st14">ω</text>
<circle class="st28" cx="278.96" cy="244.36" r="1.43"/>
<g>
	<g>
		<g>
			<line class="st29" x1="463.04" y1="16.48" x2="463.04" y2="42.94"/>
			<g>
				<polygon points="461.29,17.67 463.03,11.17 464.78,17.67 				"/>
			</g>
		</g>
	</g>
	<g>
		<g>
			<line class="st29" x1="489.5" y1="42.94" x2="463.04" y2="42.94"/>
			<g>
				<polygon points="488.31,41.2 494.81,42.94 488.31,44.69 				"/>
			</g>
		</g>
	</g>
	<g>
		<g>
			<line class="st29" x1="473.9" y1="36.67" x2="463.04" y2="42.94"/>
			<g>
				<polygon points="472,35.76 478.5,34.01 473.74,38.77 				"/>
			</g>
		</g>
	</g>
	<circle class="st30" cx="463.04" cy="42.94" r="1.41"/>
	<text transform="matrix(1 0 0 1 496.4442 45.1101)" class="st11 st15">X</text>
	<text transform="matrix(1 0 0 1 460.6956 7.7212)" class="st11 st15">Z</text>
	<text transform="matrix(1 0 0 1 478.9247 34.865)" class="st11 st15">Y</text>
</g>
<g>
	<rect x="68.2" y="378.5" class="st18" width="97.72" height="9.44"/>
	<path d="M165.42,379v8.44H68.7V379H165.42 M166.42,378H67.7v10.44h98.72V378L166.42,378z"/>
</g>
<text transform="matrix(1 0 0 1 106.5576 386.3879)" class="st31 st11 st15">GMR</text>
<rect x="335.88" y="378.32" class="st32" width="98.72" height="10.44"/>
<text transform="matrix(1 0 0 1 374.7381 386.7036)" class="st31 st11 st15">GMR</text>
<line class="st33" x1="166.54" y1="378" x2="162.54" y2="378"/>
<line class="st33" x1="186.31" y1="378" x2="182.11" y2="378"/>
<g>
	<polygon class="st34" points="166.92,378.5 180.34,378.5 166.92,387.5 	"/>
	<path d="M178.7,379l-11.28,7.57V379H178.7 M181.99,378h-15.57v10.44L181.99,378L181.99,378z"/>
</g>
<line class="st4" x1="3.98" y1="378" x2="434.98" y2="378"/>
<polyline class="st35" points="501.66,339.61 501.64,339.61 501.64,350.05 434.6,388.76 434.6,378.31 435.86,377.58 501.64,339.61 
	"/>
<g>
	<path class="st36" d="M566.76,302.02"/>
</g>
<path class="st4" d="M582.76,187.56"/>
</svg>
