<?xml version="1.0" encoding="UTF-8" standalone="no"?>
<!-- Created with Inkscape (http://www.inkscape.org/) -->

<svg
   xmlns:dc="http://purl.org/dc/elements/1.1/"
   xmlns:cc="http://creativecommons.org/ns#"
   xmlns:rdf="http://www.w3.org/1999/02/22-rdf-syntax-ns#"
   xmlns:svg="http://www.w3.org/2000/svg"
   xmlns="http://www.w3.org/2000/svg"
   xmlns:sodipodi="http://sodipodi.sourceforge.net/DTD/sodipodi-0.dtd"
   xmlns:inkscape="http://www.inkscape.org/namespaces/inkscape"
   width="568.62323"
   height="508.14478"
   id="svg2"
   version="1.1"
   inkscape:version="0.48.1 "
   sodipodi:docname="Magnus_effect.svg">
  <defs
     id="defs4">
    <marker
       inkscape:stockid="Arrow2Lend"
       orient="auto"
       refY="0"
       refX="0"
       id="Arrow2Lend"
       style="overflow:visible">
      <path
         id="path3932"
         style="font-size:12px;fill-rule:evenodd;stroke-width:0.625;stroke-linejoin:round"
         d="M 8.7185878,4.0337352 -2.2072895,0.01601326 8.7185884,-4.0017078 c -1.7454984,2.3720609 -1.7354408,5.6174519 -6e-7,8.035443 z"
         transform="matrix(-1.1,0,0,-1.1,-1.1,0)"
         inkscape:connector-curvature="0" />
    </marker>
    <marker
       inkscape:stockid="Arrow2Mend"
       orient="auto"
       refY="0"
       refX="0"
       id="Arrow2Mend"
       style="overflow:visible">
      <path
         id="path3938"
         style="font-size:12px;fill-rule:evenodd;stroke-width:0.625;stroke-linejoin:round"
         d="M 8.7185878,4.0337352 -2.2072895,0.01601326 8.7185884,-4.0017078 c -1.7454984,2.3720609 -1.7354408,5.6174519 -6e-7,8.035443 z"
         transform="scale(-0.6,-0.6)"
         inkscape:connector-curvature="0" />
    </marker>
    <marker
       inkscape:stockid="Arrow2Mstart"
       orient="auto"
       refY="0"
       refX="0"
       id="Arrow2Mstart"
       style="overflow:visible">
      <path
         id="path3935"
         style="font-size:12px;fill-rule:evenodd;stroke-width:0.625;stroke-linejoin:round"
         d="M 8.7185878,4.0337352 -2.2072895,0.01601326 8.7185884,-4.0017078 c -1.7454984,2.3720609 -1.7354408,5.6174519 -6e-7,8.035443 z"
         transform="scale(0.6,0.6)"
         inkscape:connector-curvature="0" />
    </marker>
    <marker
       inkscape:stockid="Arrow2Lstart"
       orient="auto"
       refY="0"
       refX="0"
       id="Arrow2Lstart"
       style="overflow:visible">
      <path
         id="path3929"
         style="font-size:12px;fill-rule:evenodd;stroke-width:0.625;stroke-linejoin:round"
         d="M 8.7185878,4.0337352 -2.2072895,0.01601326 8.7185884,-4.0017078 c -1.7454984,2.3720609 -1.7354408,5.6174519 -6e-7,8.035443 z"
         transform="matrix(1.1,0,0,1.1,1.1,0)"
         inkscape:connector-curvature="0" />
    </marker>
    <marker
       inkscape:stockid="Arrow1Send"
       orient="auto"
       refY="0"
       refX="0"
       id="Arrow1Send"
       style="overflow:visible">
      <path
         id="path3926"
         d="M 0,0 5,-5 -12.5,0 5,5 0,0 z"
         style="fill-rule:evenodd;stroke:#000000;stroke-width:1pt;marker-start:none"
         transform="matrix(-0.2,0,0,-0.2,-1.2,0)"
         inkscape:connector-curvature="0" />
    </marker>
  </defs>
  <sodipodi:namedview
     id="base"
     pagecolor="#ffffff"
     bordercolor="#666666"
     borderopacity="1.0"
     inkscape:pageopacity="0.0"
     inkscape:pageshadow="2"
     inkscape:zoom="0.7"
     inkscape:cx="142.77496"
     inkscape:cy="361.35109"
     inkscape:document-units="px"
     inkscape:current-layer="layer1"
     showgrid="false"
     inkscape:window-width="1280"
     inkscape:window-height="968"
     inkscape:window-x="-4"
     inkscape:window-y="-4"
     inkscape:window-maximized="1"
     fit-margin-top="0"
     fit-margin-left="0"
     fit-margin-right="0"
     fit-margin-bottom="0" />
  <metadata
     id="metadata7">
    <rdf:RDF>
      <cc:Work
         rdf:about="">
        <dc:format>image/svg+xml</dc:format>
        <dc:type
           rdf:resource="http://purl.org/dc/dcmitype/StillImage" />
        <dc:title></dc:title>
      </cc:Work>
    </rdf:RDF>
  </metadata>
  <g
     inkscape:label="Ebene 1"
     inkscape:groupmode="layer"
     id="layer1"
     transform="translate(-66.939246,-292.13526)">
    <path
       sodipodi:type="arc"
       style="fill:#00ff0a;fill-opacity:1;fill-rule:evenodd;stroke:#000000;stroke-width:4;stroke-miterlimit:4;stroke-opacity:1;stroke-dasharray:none;stroke-dashoffset:3.60000002"
       id="path1424"
       sodipodi:cx="271.5546"
       sodipodi:cy="274.72269"
       sodipodi:rx="86.756401"
       sodipodi:ry="90.283081"
       d="m 358.311,274.72269 c 0,49.86197 -38.84217,90.28308 -86.7564,90.28308 -47.91424,0 -86.75641,-40.42111 -86.75641,-90.28308 0,-49.86197 38.84217,-90.28308 86.75641,-90.28308 47.91423,0 86.7564,40.42111 86.7564,90.28308 z"
       transform="matrix(1.1446893,0,0,1.0653193,-7.079565,248.69414)" />
    <g
       id="g8538"
       transform="matrix(0.95846272,0.28521782,-0.28521782,0.95846272,167.98149,-63.458972)">
      <path
         transform="matrix(1.5161622,0,0,0.8119445,-62.57452,353.23485)"
         sodipodi:open="true"
         sodipodi:end="4.1759656"
         sodipodi:start="3.2429465"
         d="m 195.7576,234.53768 c 1.55059,-28.8489 10.23323,-54.60161 23.40571,-69.42132"
         sodipodi:ry="91.541176"
         sodipodi:rx="48.378582"
         sodipodi:cy="243.79985"
         sodipodi:cx="243.88791"
         id="path4952"
         style="fill:none;stroke:#000000;stroke-width:2.5;stroke-miterlimit:4;stroke-opacity:1;stroke-dasharray:none;stroke-dashoffset:3.60000002;marker-end:url(#Arrow2Mend)"
         sodipodi:type="arc" />
      <path
         transform="matrix(-1.5161622,0,0,-0.8119445,666.30028,736.75965)"
         sodipodi:open="true"
         sodipodi:end="4.1759656"
         sodipodi:start="3.2429465"
         d="m 195.7576,234.53768 c 1.55059,-28.8489 10.23323,-54.60161 23.40571,-69.42132"
         sodipodi:ry="91.541176"
         sodipodi:rx="48.378582"
         sodipodi:cy="243.79985"
         sodipodi:cx="243.88791"
         id="path5837"
         style="fill:none;stroke:#000000;stroke-width:2.5;stroke-miterlimit:4;stroke-opacity:1;stroke-dasharray:none;stroke-dashoffset:3.60000002;marker-end:url(#Arrow2Mend)"
         sodipodi:type="arc" />
    </g>
    <path
       inkscape:connector-curvature="0"
       style="fill:none;stroke:#000000;stroke-width:2.32584596;stroke-linecap:butt;stroke-linejoin:miter;stroke-miterlimit:4;stroke-opacity:1;stroke-dasharray:none;marker-mid:url(#Arrow2Mend)"
       d="m 630.15949,374.26703 c -10.85204,-0.96462 -23.09055,-0.86121 -36.21294,-0.1359 -60.26009,3.33075 -139.15935,19.77603 -188.02706,6.13211 -26.817,-8.13435 -84.62272,-18.16796 -125.8949,-19.63085 -62.89505,-2.90977 -118.29471,-28.42352 -175.7448,-49.3545 -11.136419,-4.05737 -22.349882,-7.94253 -33.709923,-11.45747"
       id="path1434"
       sodipodi:nodetypes="csccsc" />
    <g
       id="g11140"
       transform="matrix(0.9303384,0,0,0.9303384,55.721717,278.55813)"
       style="fill:none;stroke:#000000;stroke-opacity:1">
      <path
         inkscape:connector-curvature="0"
         sodipodi:nodetypes="cccc"
         id="path7624"
         d="M 615.95415,69.58889 C 550.12809,67.253801 472.31983,72.214524 406.47987,71.583883 379.02204,70.849726 329.9088,55.485182 282.5408,52.063511 189.43533,48.454694 126.47197,32.143314 80.298496,15.724072"
         style="fill:none;stroke:#000000;stroke-width:2.4000001;stroke-linecap:butt;stroke-linejoin:miter;stroke-miterlimit:4;stroke-opacity:1;stroke-dasharray:none;marker-start:none;marker-mid:none" />
    </g>
    <g
       id="g11144"
       transform="matrix(0.9303384,0,0,0.9303384,59.433733,384.514)"
       style="fill:none;stroke:#000000;stroke-opacity:1">
      <path
         inkscape:connector-curvature="0"
         sodipodi:nodetypes="cscssc"
         id="path11146"
         d="M 615.95415,69.58889 C 600.67629,68.563367 585.7737,68.408529 571.27967,68.839413 487.86067,71.319324 417.97469,93.201094 367.96446,80.158067 300.39188,59.750944 276.67465,46.442678 191.48191,55.702212 154.2793,59.745736 92.006166,17.938818 45.115119,-8.2062875 31.560171,-15.764138 24.265893,-19.028061 13.089267,-23.184282"
         style="fill:none;stroke:#000000;stroke-width:2.4000001;stroke-linecap:butt;stroke-linejoin:miter;stroke-miterlimit:4;stroke-opacity:1;stroke-dasharray:none;marker-mid:url(#Arrow2Mend)" />
    </g>
    <g
       id="g11150"
       transform="matrix(0.9303384,0,0,0.9303384,57.577716,345.53764)"
       style="fill:none;stroke:#000000;stroke-opacity:1">
      <path
         inkscape:connector-curvature="0"
         sodipodi:nodetypes="cccc"
         id="path11152"
         d="M 615.95415,69.58889 C 509.12597,65.973559 449.28722,103.50147 382.43617,83.927007 333.78653,63.079976 251.65251,48.271279 185.00498,47.998773 116.31273,45.03035 68.912197,1.7531705 10.473737,-19.188308"
         style="fill:none;stroke:#000000;stroke-width:2.4002018;stroke-linecap:butt;stroke-linejoin:miter;stroke-miterlimit:4;stroke-opacity:1;stroke-dasharray:none;marker-mid:none" />
    </g>
    <path
       inkscape:connector-curvature="0"
       style="fill:none;stroke:#000000;stroke-width:2.23281217;stroke-linecap:butt;stroke-linejoin:miter;stroke-miterlimit:4;stroke-opacity:1;stroke-dasharray:none;marker-mid:url(#Arrow2Mend)"
       d="m 632.47951,481.73556 c -6.00824,-0.11006 -25.75887,0.16238 -42.68843,-0.92801 -57.85871,-3.72654 -90.34612,-1.19951 -109.97217,4.04968 -26.71447,7.14508 -56.88002,24.1604 -66.17106,72.09371 -7.72649,39.86169 -40.7915,85.9774 -105.93206,92.06157 -40.98315,-0.31897 -97.62477,-18.93877 -113.25667,-88.39617 -6.73231,-29.91371 -9.96437,-75.01301 -22.77157,-93.87007 -14.76396,-21.73816 -35.06989,-41.84428 -75.203642,-60.96197 -7.972854,-3.79787 -16.728205,-7.55673 -26.378055,-11.28162"
       id="path11163"
       sodipodi:nodetypes="cssscsssc" />
    <g
       id="g11172"
       transform="matrix(0.9303384,0,0,0.9303384,60.825727,450.67827)"
       style="fill:none;stroke:#000000;stroke-opacity:1">
      <path
         inkscape:connector-curvature="0"
         sodipodi:nodetypes="csssssc"
         id="path11174"
         d="m 615.95415,69.58889 c -6.45813,-0.1183 -41.08015,-0.633535 -45.88484,-0.9975 -53.48422,-3.99811 -78.64692,-1.490614 -102.96051,4.299477 -35.19274,8.380873 -50.38841,14.377189 -77.58637,61.535303 -7.2676,12.60118 -38.94548,90.77305 -130.0376,92.88818 C 181.72039,229.10364 148.30232,170.04523 140.1483,148.39111 118.15218,89.977366 120.60511,42.065738 9.4762369,-16.195817"
         style="fill:none;stroke:#000000;stroke-width:2.4000001;stroke-linecap:butt;stroke-linejoin:miter;stroke-miterlimit:4;stroke-opacity:1;stroke-dasharray:none" />
    </g>
    <g
       id="g11179"
       transform="matrix(0.9303384,0,0,0.9303384,61.753792,486.44159)"
       style="fill:none;stroke:#000000;stroke-opacity:1">
      <path
         inkscape:connector-curvature="0"
         sodipodi:nodetypes="csssssc"
         id="path11181"
         d="m 615.95415,69.58889 c -6.45813,-0.1183 -41.06788,-0.877435 -45.88484,-0.9975 -142.90447,-3.537099 -157.70393,35.94948 -172.56691,48.87734 -13.9753,12.15576 -49.30574,84.12771 -132.76846,84.6989 -83.74826,0.57314 -113.00218,-41.8682 -130.57062,-67.74147 C 119.52478,112.86779 104.73634,56.242641 32.128188,9.8815374 24.562125,5.0505231 16.368228,0.33096071 7.4812438,-4.225858"
         style="fill:none;stroke:#000000;stroke-width:2.4000001;stroke-linecap:butt;stroke-linejoin:miter;stroke-miterlimit:4;stroke-opacity:1;stroke-dasharray:none;marker-start:none;marker-mid:url(#Arrow2Mend)" />
    </g>
    <path
       inkscape:connector-curvature="0"
       style="fill:none;stroke:#000000;stroke-width:2.23281217;stroke-linecap:butt;stroke-linejoin:miter;stroke-miterlimit:4;stroke-opacity:1;stroke-dasharray:none;marker-mid:none"
       d="m 634.10355,582.00619 c -6.00824,-0.11006 -37.58837,0.31388 -48.01082,0.15239 -55.82357,-0.86493 -96.9274,6.02521 -160.54562,54.86514 -22.47812,17.25654 -52.02556,52.25135 -122.49723,53.87117 C 247.90377,692.16244 213.53506,667.20547 199.5632,651.37488 168.21768,615.85936 127.35902,558.35082 67.785854,529.80567"
       id="path11187"
       sodipodi:nodetypes="cssssc" />
    <path
       inkscape:connector-curvature="0"
       style="fill:none;stroke:#000000;stroke-width:2.23281217;stroke-linecap:butt;stroke-linejoin:miter;stroke-miterlimit:4;stroke-opacity:1;stroke-dasharray:none;marker-mid:url(#Arrow2Mend)"
       d="m 635.26354,616.51536 c -6.00824,-0.11006 -32.2752,-0.68536 -43.34463,-0.27182 -57.12244,2.13405 -91.7091,5.87899 -158.19262,43.93488 -40.18452,23.00207 -77.94507,45.11807 -125.06333,46.50495 -62.32175,1.83438 -97.79687,-29.4071 -115.13185,-40.98353 C 178.39642,655.59278 154.33222,626.83686 92.253072,584.18245 84.814486,579.07142 76.830087,573.76083 68.249836,568.25887"
       id="path11210"
       sodipodi:nodetypes="csssssc" />
    <g
       id="g11222"
       transform="matrix(0.9303384,0,0,0.9303384,62.681788,593.12972)"
       style="fill:none;stroke:#000000;stroke-opacity:1">
      <path
         inkscape:connector-curvature="0"
         sodipodi:nodetypes="cssssc"
         id="path11224"
         d="m 614.45791,61.858291 c -6.45813,-0.1183 -42.39884,1.52969 -47.20995,1.795743 -81.24802,4.493 -133.68309,19.879116 -177.72553,36.857256 -39.62815,15.27645 -86.00173,36.20532 -133.27212,37.49168 C 218.40256,139.0521 180.70644,125.41559 162.3145,112.11818 96.831622,64.773957 58.627148,42.658657 6.7759072,16.942839"
         style="fill:none;stroke:#000000;stroke-width:2.4000001;stroke-linecap:butt;stroke-linejoin:miter;stroke-miterlimit:4;stroke-opacity:1;stroke-dasharray:none" />
    </g>
    <g
       id="g11230"
       transform="matrix(0.9303384,0,0,0.9303384,62.217778,623.22915)"
       style="fill:none;stroke:#000000;stroke-opacity:1">
      <path
         inkscape:connector-curvature="0"
         sodipodi:nodetypes="csssssc"
         id="path11232"
         d="m 615.45541,63.60391 c -6.45813,-0.1183 -43.39648,-0.218457 -48.20745,0.05012 C 498.696,67.441697 433.22169,77.893392 388.52493,89.538828 357.39834,97.648648 318.19883,121.32273 265.26151,122.03432 215.4282,122.6947 182.04156,112.53174 143.56257,87.815211 112.37898,67.784802 77.509963,46.789583 27.52638,29.294888 21.320099,27.122635 14.880792,25.00435 8.1865804,22.948582"
         style="fill:none;stroke:#000000;stroke-width:2.4000001;stroke-linecap:butt;stroke-linejoin:miter;stroke-miterlimit:4;stroke-opacity:1;stroke-dasharray:none;marker-mid:url(#Arrow2Mend)" />
    </g>
    <path
       inkscape:connector-curvature="0"
       style="fill:none;stroke:#000000;stroke-width:2.23281217;stroke-linecap:butt;stroke-linejoin:miter;stroke-miterlimit:4;stroke-opacity:1;stroke-dasharray:none;marker-mid:none"
       d="m 635.53531,718.30038 c -6.00825,-0.11006 -41.48733,-0.30538 -45.96943,-0.3844 -97.89903,-1.7258 -133.78831,8.14719 -161.40768,12.06413 -47.26549,6.70313 -71.35021,22.97848 -125.41316,24.08161 -35.08569,0.72928 -70.53452,-8.41837 -95.10727,-21.52277 -24.24746,-12.93093 -74.04889,-42.8343 -137.531953,-58.06086"
       id="path11240"
       sodipodi:nodetypes="cssssc" />
    <path
       inkscape:connector-curvature="0"
       style="fill:#000000;fill-opacity:1;stroke:#000000;stroke-width:4;stroke-linecap:butt;stroke-linejoin:miter;stroke-miterlimit:4;stroke-opacity:1;stroke-dasharray:none;marker-start:none;marker-end:url(#Arrow2Mend)"
       d="m 301.64419,544.11753 0.92802,250.12324"
       id="path12124"
       sodipodi:nodetypes="cc" />
    <text
       xml:space="preserve"
       style="font-size:40px;font-style:normal;font-variant:normal;font-weight:normal;font-stretch:normal;line-height:125%;letter-spacing:0px;word-spacing:0px;fill:#000000;fill-opacity:1;stroke:none;font-family:cmr12;-inkscape-font-specification:cmr12"
       x="243.57143"
       y="798.07648"
       id="text3883"
       sodipodi:linespacing="125%"><tspan
         sodipodi:role="line"
         id="tspan3885"
         x="243.57143"
         y="798.07648"
         style="font-size:48px;font-style:normal;font-variant:normal;font-weight:normal;font-stretch:normal;font-family:Arial;-inkscape-font-specification:Arial">F</tspan></text>
    <text
       xml:space="preserve"
       style="font-size:40px;font-style:normal;font-variant:normal;font-weight:normal;font-stretch:normal;line-height:125%;letter-spacing:0px;word-spacing:0px;fill:#000000;fill-opacity:1;stroke:none;font-family:cmr12;-inkscape-font-specification:cmr12"
       x="584.87872"
       y="327.4498"
       id="text3883-7"
       sodipodi:linespacing="125%"><tspan
         sodipodi:role="line"
         id="tspan3885-4"
         x="584.87872"
         y="327.4498"
         style="font-size:48px;font-style:normal;font-variant:normal;font-weight:normal;font-stretch:normal;font-family:Arial;-inkscape-font-specification:Arial">v</tspan></text>
  </g>
</svg>
