<svg id="Ebene_1" data-name="Ebene 1" xmlns="http://www.w3.org/2000/svg" viewBox="0 0 293.84 203.04"><defs><style>.cls-1{fill:#fff;}.cls-1,.cls-2,.cls-3{stroke:#1d1d1b;}.cls-1,.cls-2,.cls-3,.cls-4,.cls-5{stroke-miterlimit:10;}.cls-2{fill:#e69f03;stroke-width:0.62px;}.cls-3{fill:#59b3e5;}.cls-4,.cls-5{fill:none;stroke-width:1.44px;}.cls-4{stroke:#e69f03;}.cls-5{stroke:#59b3e5;}</style></defs><title>ParticleCoverage</title><circle class="cls-1" cx="33.7" cy="97.06" r="29"/><circle class="cls-2" cx="28.37" cy="65.87" r="2.19"/><circle class="cls-2" cx="38.48" cy="65.87" r="2.19"/><circle class="cls-2" cx="48.59" cy="69.18" r="2.19"/><circle class="cls-2" cx="57.77" cy="76.66" r="2.19"/><circle class="cls-2" cx="62.54" cy="85.77" r="2.19"/><circle class="cls-2" cx="19.27" cy="69.18" r="2.19"/><circle class="cls-2" cx="9.62" cy="76.66" r="2.19"/><circle class="cls-2" cx="4.22" cy="85.77" r="2.19"/><circle class="cls-2" cx="2.5" cy="95.91" r="2.19"/><circle class="cls-2" cx="64.74" cy="95.91" r="2.19"/><circle class="cls-2" cx="28.53" cy="128.14" r="2.19"/><circle class="cls-2" cx="39.15" cy="127.83" r="2.19"/><circle class="cls-2" cx="48.74" cy="124.83" r="2.19"/><circle class="cls-2" cx="57.92" cy="117.35" r="2.19"/><circle class="cls-2" cx="63.48" cy="106.05" r="2.19"/><circle class="cls-2" cx="19.42" cy="124.83" r="2.19"/><circle class="cls-2" cx="9.78" cy="117.35" r="2.19"/><circle class="cls-2" cx="3.2" cy="106.05" r="2.19"/><circle class="cls-1" cx="33.62" cy="29.5" r="29"/><circle class="cls-3" cx="33.62" cy="29.5" r="12.69"/><path class="cls-4" d="M8.78,167.33c1,0,2.6,0,4.51-.1s3.27-.27,3.46-.3c5.09-.76,9.23-32.23,10.71-32.24,2.15,0,5.24,67.24,8.11,67.27,2,0,8.39-33.33,12.13-33.59l2.13-.11c.83,0,2-.09,3.64-.18,1.21-.06,2.91-.16,5-.29"/><path class="cls-5" d="M8.78,167.7c1,0,2.6,0,4.51-.1s3.27-.28,3.46-.31c5.09-.76,9.23-32.22,10.71-32.23,2.15,0,5.24,67.24,8.11,67.26,2,0,8.39-33.33,12.13-33.59l2.13-.1,3.64-.18,5-.29"/><circle class="cls-1" cx="264.34" cy="97" r="29"/><circle class="cls-1" cx="264.34" cy="29.5" r="29"/><circle class="cls-1" cx="264.34" cy="29.5" r="6.71"/><line class="cls-4" x1="239.12" y1="163.27" x2="289.93" y2="163.27"/><line class="cls-5" x1="238.76" y1="163.64" x2="289.57" y2="163.64"/><circle class="cls-1" cx="110.52" cy="97.06" r="29"/><circle class="cls-2" cx="115.3" cy="65.87" r="2.19"/><circle class="cls-2" cx="125.41" cy="69.18" r="2.19"/><circle class="cls-2" cx="139.37" cy="85.77" r="2.19"/><circle class="cls-2" cx="96.09" cy="69.18" r="2.19"/><circle class="cls-2" cx="86.45" cy="76.66" r="2.19"/><circle class="cls-2" cx="81.04" cy="85.77" r="2.19"/><circle class="cls-2" cx="141.56" cy="95.91" r="2.19"/><circle class="cls-2" cx="105.35" cy="128.14" r="2.19"/><circle class="cls-2" cx="115.97" cy="127.83" r="2.19"/><circle class="cls-2" cx="125.56" cy="124.83" r="2.19"/><circle class="cls-2" cx="140.3" cy="106.05" r="2.19"/><circle class="cls-2" cx="96.25" cy="124.83" r="2.19"/><circle class="cls-2" cx="80.02" cy="106.05" r="2.19"/><circle class="cls-1" cx="110.79" cy="29.5" r="29"/><circle class="cls-3" cx="110.79" cy="29.5" r="6.71"/><path class="cls-4" d="M85.35,166.05a11.93,11.93,0,0,0,6.28-.26A12.69,12.69,0,0,0,94.91,164c5.27-4,6.67-16.05,8.51-16.21,3.44-.28,9.18,40.66,13.24,40.45,2.89-.15,6.9-21.19,10.61-21.43l2.13-.11,3.64-.18,5-.29"/><path class="cls-5" d="M83.55,166.41c1.73,0,4.34-.11,7.52-.34,2-.15,3-.23,3.45-.31,6.57-1.17,8.37-16.69,10.65-16.65,3.62.08,5.65,39.66,9,39.72,2.44,0,7.58-21.37,11.33-21.63l2.13-.1,3.64-.19c1.21-.06,2.91-.15,5-.29"/><circle class="cls-1" cx="188.68" cy="98.72" r="29"/><circle class="cls-2" cx="193.47" cy="67.52" r="2.19"/><circle class="cls-2" cx="217.53" cy="87.42" r="2.19"/><circle class="cls-2" cx="174.26" cy="70.83" r="2.19"/><circle class="cls-2" cx="159.2" cy="87.42" r="2.19"/><circle class="cls-2" cx="203.73" cy="126.49" r="2.19"/><circle class="cls-2" cx="218.47" cy="107.7" r="2.19"/><circle class="cls-2" cx="174.41" cy="126.49" r="2.19"/><circle class="cls-2" cx="158.19" cy="107.7" r="2.19"/><circle class="cls-1" cx="188.33" cy="29.5" r="29"/><circle class="cls-3" cx="188.33" cy="29.5" r="3.58"/><path class="cls-4" d="M161.6,164c2,0,5,0,8.64-.19,2.59-.16,2.95-.12,3.46-.31,4.8-1.75,4.4-9.77,6.59-10.13,3.77-.62,9.28,22.48,14.3,22,3.2-.3,6.4-10.17,10.06-10.41l2.12-.11,3.65-.18,5-.29"/><path class="cls-4" d="M188.51,163.46"/><path class="cls-5" d="M161.24,164.4c2,0,5,0,8.64-.18a30.7,30.7,0,0,0,3.46-.31c6-1.4,7.24-8.47,9.84-8.32,3.85.22,4.25,15.87,8.92,16.44,3.24.41,8.37-6.47,12.19-6.68l2.13-.1,3.64-.19c1.21-.06,2.9-.15,5-.29"/><path class="cls-5" d="M188.15,163.82"/></svg>