<svg id="Ebene_1" data-name="Ebene 1" xmlns="http://www.w3.org/2000/svg" viewBox="0 0 380.36 204.48"><defs><style>.cls-1{fill:#fff;}.cls-1,.cls-2{stroke:#1d1d1b;}.cls-1,.cls-2,.cls-3,.cls-4{stroke-miterlimit:10;}.cls-2{fill:#e69f03;stroke-width:0.62px;}.cls-3,.cls-4{fill:none;stroke:#e69f03;}.cls-3{stroke-width:0.74px;}.cls-4{stroke-width:0.83px;}</style></defs><title>ParticleAngle</title><circle class="cls-1" cx="186.92" cy="88.92" r="29"/><circle class="cls-2" cx="155.41" cy="85.98" r="2.19"/><circle class="cls-2" cx="158.03" cy="76.22" r="2.19"/><circle class="cls-2" cx="163.84" cy="67.32" r="2.19"/><circle class="cls-2" cx="173.44" cy="60.38" r="2.19"/><circle class="cls-2" cx="156.25" cy="95.63" r="2.19"/><circle class="cls-2" cx="160.98" cy="106.89" r="2.19"/><circle class="cls-2" cx="168.38" cy="114.47" r="2.19"/><circle class="cls-2" cx="177.73" cy="118.75" r="2.19"/><circle class="cls-2" cx="215.6" cy="101.95" r="2.19"/><circle class="cls-2" cx="218.05" cy="91.62" r="2.19"/><circle class="cls-2" cx="217.64" cy="81.57" r="2.19"/><circle class="cls-2" cx="212.79" cy="70.76" r="2.19"/><circle class="cls-2" cx="210.05" cy="109.89" r="2.19"/><circle class="cls-2" cx="200.33" cy="117.27" r="2.19"/><circle class="cls-2" cx="187.7" cy="120.7" r="2.19"/><circle class="cls-1" cx="201.89" cy="33.29" r="29"/><circle class="cls-2" cx="170.38" cy="30.36" r="2.19"/><circle class="cls-2" cx="172.99" cy="20.6" r="2.19"/><circle class="cls-2" cx="178.8" cy="11.69" r="2.19"/><circle class="cls-2" cx="188.41" cy="4.76" r="2.19"/><circle class="cls-2" cx="198.44" cy="2.5" r="2.19"/><circle class="cls-2" cx="171.22" cy="40.01" r="2.19"/><circle class="cls-2" cx="175.94" cy="51.26" r="2.19"/><circle class="cls-2" cx="208.8" cy="3.01" r="2.19"/><circle class="cls-2" cx="230.56" cy="46.33" r="2.19"/><circle class="cls-2" cx="233.02" cy="35.99" r="2.19"/><circle class="cls-2" cx="232.6" cy="25.95" r="2.19"/><circle class="cls-2" cx="227.75" cy="15.14" r="2.19"/><circle class="cls-2" cx="218.27" cy="6.85" r="2.19"/><circle class="cls-2" cx="225.02" cy="54.27" r="2.19"/><circle class="cls-2" cx="215.29" cy="61.65" r="2.19"/><path class="cls-3" d="M150.39,168.92h13.15c8.34-.86,11.56-35.22,14.81-35.19,3.57,0,5,41.83,10.3,42.15,2.94.17,4.85-12.7,7.95-12.55,5.46.25,7.34,40.78,11.18,40.78,3.52,0,6.34-34.12,15.5-35.19.18,0,.15,0,8.84,0H238" transform="translate(0 0)"/><circle class="cls-1" cx="33.7" cy="91.68" r="29"/><circle class="cls-2" cx="28.37" cy="60.49" r="2.19"/><circle class="cls-2" cx="38.48" cy="60.49" r="2.19"/><circle class="cls-2" cx="48.59" cy="63.79" r="2.19"/><circle class="cls-2" cx="57.77" cy="71.28" r="2.19"/><circle class="cls-2" cx="19.27" cy="63.79" r="2.19"/><circle class="cls-2" cx="9.62" cy="71.28" r="2.19"/><circle class="cls-2" cx="4.22" cy="80.39" r="2.19"/><circle class="cls-2" cx="2.5" cy="90.53" r="2.19"/><circle class="cls-2" cx="28.53" cy="122.76" r="2.19"/><circle class="cls-2" cx="39.15" cy="122.45" r="2.19"/><circle class="cls-2" cx="48.74" cy="119.45" r="2.19"/><circle class="cls-2" cx="57.92" cy="111.97" r="2.19"/><circle class="cls-2" cx="19.42" cy="119.45" r="2.19"/><circle class="cls-2" cx="9.78" cy="111.97" r="2.19"/><circle class="cls-2" cx="3.2" cy="100.66" r="2.19"/><circle class="cls-1" cx="91.3" cy="91.68" r="29"/><circle class="cls-2" cx="85.98" cy="60.49" r="2.19"/><circle class="cls-2" cx="96.08" cy="60.49" r="2.19"/><circle class="cls-2" cx="106.19" cy="63.79" r="2.19"/><circle class="cls-2" cx="115.37" cy="71.28" r="2.19"/><circle class="cls-2" cx="120.15" cy="80.39" r="2.19"/><circle class="cls-2" cx="76.87" cy="63.79" r="2.19"/><circle class="cls-2" cx="67.23" cy="71.28" r="2.19"/><circle class="cls-2" cx="122.34" cy="90.53" r="2.19"/><circle class="cls-2" cx="86.13" cy="122.76" r="2.19"/><circle class="cls-2" cx="96.75" cy="122.45" r="2.19"/><circle class="cls-2" cx="106.34" cy="119.45" r="2.19"/><circle class="cls-2" cx="115.53" cy="111.97" r="2.19"/><circle class="cls-2" cx="121.08" cy="100.66" r="2.19"/><circle class="cls-2" cx="77.03" cy="119.45" r="2.19"/><circle class="cls-2" cx="67.38" cy="111.97" r="2.19"/><path class="cls-4" d="M12.48,169.56h11c6.94-.16,13.93-34.44,21.42-35.45,11.24-1.51,28.43,71.18,39.2,69.61,7-1,15.17-33.49,20.27-33.89.06,0,1.93-.14,4.47-.22,1.46-.05,2.69-.06,3.56-.06" transform="translate(0 0)"/><circle class="cls-1" cx="305.61" cy="89.03" r="29"/><circle class="cls-2" cx="279.79" cy="70.74" r="2.19"/><circle class="cls-2" cx="286.93" cy="63.59" r="2.19"/><circle class="cls-2" cx="296.42" cy="58.78" r="2.19"/><circle class="cls-2" cx="308.2" cy="57.58" r="2.19"/><circle class="cls-2" cx="275.69" cy="79.51" r="2.19"/><circle class="cls-2" cx="274.16" cy="91.62" r="2.19"/><circle class="cls-2" cx="276.77" cy="101.89" r="2.19"/><circle class="cls-2" cx="282.73" cy="110.27" r="2.19"/><circle class="cls-2" cx="323.93" cy="114.66" r="2.19"/><circle class="cls-2" cx="331.22" cy="106.93" r="2.19"/><circle class="cls-2" cx="335.88" cy="98.03" r="2.19"/><circle class="cls-2" cx="337.09" cy="86.24" r="2.19"/><circle class="cls-2" cx="315.15" cy="118.76" r="2.19"/><circle class="cls-2" cx="303.04" cy="120.29" r="2.19"/><circle class="cls-2" cx="290.4" cy="116.94" r="2.19"/><circle class="cls-1" cx="346.38" cy="48.34" r="29"/><circle class="cls-2" cx="320.56" cy="30.05" r="2.19"/><circle class="cls-2" cx="327.71" cy="22.9" r="2.19"/><circle class="cls-2" cx="337.19" cy="18.09" r="2.19"/><circle class="cls-2" cx="348.97" cy="16.89" r="2.19"/><circle class="cls-2" cx="358.79" cy="19.96" r="2.19"/><circle class="cls-2" cx="316.46" cy="38.82" r="2.19"/><circle class="cls-2" cx="314.93" cy="50.93" r="2.19"/><circle class="cls-2" cx="367.51" cy="25.57" r="2.19"/><circle class="cls-2" cx="364.7" cy="73.97" r="2.19"/><circle class="cls-2" cx="371.99" cy="66.25" r="2.19"/><circle class="cls-2" cx="376.65" cy="57.34" r="2.19"/><circle class="cls-2" cx="377.86" cy="45.56" r="2.19"/><circle class="cls-2" cx="373.79" cy="33.63" r="2.19"/><circle class="cls-2" cx="355.92" cy="78.07" r="2.19"/><circle class="cls-2" cx="343.81" cy="79.6" r="2.19"/><path class="cls-3" d="M282.18,168.92h13.16c8.38-.86,11.29-35.25,14.8-35.2,2.52,0,.9,17.84,13.58,33.13,1.91,2.3,2,1.93,3.77,4.14,12.27,15,9.82,33,12.08,33.12,3.13.14,6.3-34.12,15.5-35.19.19,0,.15,0,8.84,0h5.92" transform="translate(0 0)"/></svg>