<?xml version="1.0" standalone="no" ?>
<!DOCTYPE svg PUBLIC "-//W3C//DTD SVG 1.1//EN" "http://www.w3.org/Graphics/SVG/1.1/DTD/svg11.dtd">
<svg width="106px" height="56px" viewBox="0 0 106 56" style="background-color: #ffffff00" xmlns="http://www.w3.org/2000/svg" xmlns:xlink="http://www.w3.org/1999/xlink" version="1.1" >
<text x="0" y="0" stroke="none" fill="#000000" transform="matrix(0.0666667 0 0 0.0666667 37.0882 31.1417)" font-style="normal" font-weight="normal" font-size="120px" font-family="Arial" >
Si</text>
<text x="0" y="0" stroke="none" fill="#000000" transform="matrix(0.0666667 0 0 0.0666667 30.357 18.6723)" font-style="normal" font-weight="normal" font-size="120px" font-family="Arial" >
O</text>
<text x="0" y="0" stroke="none" fill="#000000" transform="matrix(0.0666667 0 0 0.0666667 25.0868 38.3409)" font-style="normal" font-weight="normal" font-size="120px" font-family="Arial" >
O</text>
<text x="0" y="0" stroke="none" fill="#000000" transform="matrix(0.0666667 0 0 0.0666667 44.7554 43.6111)" font-style="normal" font-weight="normal" font-size="120px" font-family="Arial" >
O</text>
<text x="0" y="0" stroke="none" fill="#000000" transform="matrix(0.0666667 0 0 0.0666667 87.6338 31.1417)" font-style="normal" font-weight="normal" font-size="120px" font-family="Arial" >
NH</text>
<text x="0" y="0" stroke="none" fill="#000000" transform="matrix(0.0666667 0 0 0.0666667 99.2338 32.9417)" font-style="normal" font-weight="normal" font-size="90px" font-family="Arial" >
2</text>
<path stroke="none" fill="#000000" transform="matrix(0.0666667 0 0 0.0666667 -240.933 -422.333)" d="M 3786.73,6384.52 L 3797.04,6378.57 L 3903.31,6562.63 L 3896.44,6574.54 L 3786.73,6384.52 Z " />
<path stroke="none" fill="#000000" transform="matrix(0.0666667 0 0 0.0666667 -240.933 -422.333)" d="M 3896.44,6574.54 L 3903.31,6562.63 L 4051.54,6562.63 L 4051.54,6574.54 L 3896.44,6574.54 Z " />
<path stroke="none" fill="#000000" transform="matrix(0.0666667 0 0 0.0666667 -240.933 -422.333)" d="M 4146.78,6634.06 L 4157.09,6628.1 L 4193.99,6692.01 L 4183.68,6697.97 L 4146.78,6634.06 Z " />
<path stroke="none" fill="#000000" transform="matrix(0.0666667 0 0 0.0666667 -240.933 -422.333)" d="M 3665.7,6868.77 L 3659.74,6858.46 L 3849.76,6748.75 L 3849.76,6762.5 L 3665.7,6868.77 Z " />
<path stroke="none" fill="#000000" transform="matrix(0.0666667 0 0 0.0666667 -240.933 -422.333)" d="M 3849.76,6762.5 L 3849.76,6748.75 L 3984.62,6826.61 L 3978.67,6836.92 L 3849.76,6762.5 Z " />
<path stroke="none" fill="#000000" transform="matrix(0.0666667 0 0 0.0666667 -240.933 -422.333)" d="M 4094.18,6837.36 L 4088.23,6827.05 L 4152.77,6789.79 L 4158.72,6800.1 L 4094.18,6837.36 Z " />
<path stroke="none" fill="#000000" transform="matrix(0.0666667 0 0 0.0666667 -240.933 -422.333)" d="M 4660.95,7126.73 L 4650.64,7132.68 L 4544.37,6948.62 L 4551.24,6936.71 L 4660.95,7126.73 Z " />
<path stroke="none" fill="#000000" transform="matrix(0.0666667 0 0 0.0666667 -240.933 -422.333)" d="M 4551.24,6936.71 L 4544.37,6948.62 L 4395.14,6948.62 L 4395.14,6936.71 L 4551.24,6936.71 Z " />
<path stroke="none" fill="#000000" transform="matrix(0.0666667 0 0 0.0666667 -240.933 -422.333)" d="M 4305.42,6885.01 L 4295.11,6890.96 L 4262.06,6833.73 L 4272.37,6827.78 L 4305.42,6885.01 Z " />
<path stroke="none" fill="#000000" transform="matrix(0.0666667 0 0 0.0666667 -240.933 -422.333)" d="M 4597.92,6748.75 L 4597.92,6762.5 L 4410.88,6654.51 L 4410.88,6640.76 L 4597.92,6748.75 Z " />
<path stroke="none" fill="#000000" transform="matrix(0.0666667 0 0 0.0666667 -240.933 -422.333)" d="M 4784.97,6640.76 L 4784.97,6654.51 L 4597.92,6762.5 L 4597.92,6748.75 L 4784.97,6640.76 Z " />
<path stroke="none" fill="#000000" transform="matrix(0.0666667 0 0 0.0666667 -240.933 -422.333)" d="M 4912.86,6714.6 L 4906.9,6724.91 L 4784.97,6654.51 L 4784.97,6640.76 L 4912.86,6714.6 Z " />
<path stroke="none" fill="#000000" transform="matrix(0.0666667 0 0 0.0666667 -240.933 -422.333)" d="M 4410.88,6640.76 L 4410.88,6654.51 L 4296.82,6720.36 L 4290.87,6710.05 L 4410.88,6640.76 Z " />
</svg>
