<?xml version="1.0" encoding="utf-8"?>
<!-- Generator: Adobe Illustrator 24.0.2, SVG Export Plug-In . SVG Version: 6.00 Build 0)  -->
<svg version="1.1" id="Ebene_1" xmlns="http://www.w3.org/2000/svg" xmlns:xlink="http://www.w3.org/1999/xlink" x="0px" y="0px"
	 viewBox="0 0 332 358" style="enable-background:new 0 0 332 358;" xml:space="preserve">
<style type="text/css">
	.st0{fill:none;}
	.st1{font-family:'ArialMT';}
	.st2{font-size:9.3333px;}
	.st3{fill:none;stroke:#000000;stroke-width:6.666670e-02;stroke-miterlimit:10;}
	.st4{font-size:7px;}
	.st5{clip-path:url(#SVGID_2_);}
	.st6{fill:#F5BE5C;}
	.st7{fill:#F6C266;}
	.st8{fill:#F7C670;}
	.st9{fill:#F7CA79;}
	.st10{fill:#F8CE82;}
	.st11{fill:#F8D18B;}
	.st12{fill:#F9D493;}
	.st13{fill:#F9D89C;}
	.st14{fill:#FADBA3;}
	.st15{fill:#FADEAB;}
	.st16{fill:#FBE1B2;}
	.st17{fill:#FBE3B9;}
	.st18{fill:#FCE6C0;}
	.st19{fill:#FCE8C6;}
	.st20{fill:#FCEBCC;}
	.st21{fill:#FDEDD1;}
	.st22{fill:#FDEFD7;}
	.st23{fill:#FDF1DC;}
	.st24{fill:#FEF3E0;}
	.st25{fill:#FEF5E4;}
	.st26{fill:#FEF6E8;}
	.st27{fill:#FEF8EC;}
	.st28{fill:#FFF9F0;}
	.st29{fill:#FFFAF3;}
	.st30{fill:#FFFBF5;}
	.st31{fill:#FFFCF8;}
	.st32{fill:#FFFDFA;}
	.st33{fill:#FFFEFC;}
	.st34{fill:#FFFEFD;}
	.st35{fill:#FFFFFE;}
	.st36{fill:#FFFFFF;}
	.st37{fill:none;stroke:#F5BE5C;stroke-width:6.666670e-02;stroke-miterlimit:10;}
	.st38{fill:none;stroke:#F5BE5C;stroke-width:0.8;stroke-miterlimit:10;}
	.st39{clip-path:url(#SVGID_4_);}
	.st40{clip-path:url(#SVGID_6_);}
	.st41{font-size:12px;}
	.st42{font-size:9px;}
	.st43{clip-path:url(#SVGID_8_);}
	.st44{font-family:'Arial-BoldMT';}
	.st45{font-size:16px;}
</style>
<g>
	<path class="st0" d="z"/>
	<text transform="matrix(1 0 0 1 102.4312 115.0602)" class="st1 st2">OH</text>
	<text transform="matrix(1 0 0 1 74.1641 115.007)" class="st1 st2">OH</text>
	<path d="M78.2,124.5h-0.8v-7.9h0.8V124.5z"/>
	<path d="M106.5,124.2h-0.8v-7.5h0.8V124.2z"/>
	<text transform="matrix(1 0 0 1 313.9238 115.0201)" class="st1 st2">OH</text>
	<path d="M318,125.1h-0.8v-8.4h0.8V125.1z"/>
	<text transform="matrix(1 0 0 1 286.3911 114.9532)" class="st1 st2">OH</text>
	<path d="M290.4,124.3h-0.8v-7.7h0.8V124.3z"/>
	<path d="M193.4,137.6h-63.1v-0.8h63.1V137.6z"/>
	<path d="M200.3,137.2l-8,2.1c0,0,1-1.2,1-2.1c0-0.9-1-2.1-1-2.1L200.3,137.2L200.3,137.2"/>
	<path class="st3" d="M200.3,137.2l-8,2.1c0,0,1-1.2,1-2.1c0-0.9-1-2.1-1-2.1L200.3,137.2L200.3,137.2"/>
	<text transform="matrix(1 0 0 1 79.248 57.3937)" class="st1 st2">Si</text>
	<text transform="matrix(1 0 0 1 56.5391 57.3937)" class="st1 st2">EtO</text>
	<text transform="matrix(1 0 0 1 79.7642 71.7936)" class="st1 st2">OEt</text>
	<text transform="matrix(1 0 0 1 94.1641 57.3937)" class="st1 st2">OEt</text>
	<text transform="matrix(1 0 0 1 103.7773 14.9401)" class="st1 st2">NH</text>
	<text transform="matrix(1 0 0 1 117.2583 17.007)" class="st1 st4">2</text>
	<path d="M73.7,54.2v-0.8h4.4v0.8H73.7z"/>
	<path d="M83.8,63.5H83V59h0.8V63.5z"/>
	<path d="M93,53.4v0.8h-4.6v-0.8H93z"/>
	<path d="M94.9,32.3l0.8,0.5l-12.1,7.2l-0.8-0.5L94.9,32.3z"/>
	<path d="M94.7,18.3l0.8,0.5l0.2,14l-0.8-0.5L94.7,18.3z"/>
	<path d="M102,13.9l0.4,0.7l-6.9,4.1l-0.8-0.5L102,13.9z"/>
	<path d="M82.8,39.5l0.8,0.5l0.1,9.2l-0.8,0L82.8,39.5z"/>
	<text transform="matrix(1 0 0 1 45.6309 115.0602)" class="st1 st2">O</text>
	<text transform="matrix(1 0 0 1 14.2842 115.0602)" class="st1 st2">O</text>
	<path d="M49.6,124.2l-0.8,0l0-7.4l0.8,0L49.6,124.2z"/>
	<path d="M18.3,124l-0.8,0l0-7.3l0.8,0L18.3,124z"/>
	<g>
		<defs>
			<polygon id="SVGID_1_" points="4,146.9 4,128.9 4.1,127.9 4.4,127 4.8,126.2 5.4,125.5 6.1,124.9 6.9,124.5 7.8,124.2 8.8,124.1 
				111.1,124.1 112,124.2 112.9,124.5 113.8,124.9 114.5,125.5 115,126.2 115.5,127 115.8,127.9 115.9,128.9 115.9,146.9 
				115.8,147.8 115.5,148.7 115,149.5 114.5,150.2 113.8,150.8 112.9,151.3 112,151.5 111.1,151.6 8.8,151.6 7.8,151.5 6.9,151.3 
				6.1,150.8 5.4,150.2 4.8,149.5 4.4,148.7 4.1,147.8 			"/>
		</defs>
		<clipPath id="SVGID_2_">
			<use xlink:href="#SVGID_1_"  style="overflow:visible;"/>
		</clipPath>
		<g class="st5">
			<path class="st6" d="M3.9,147v-18.2l0.1-1l0.3-0.9l0.4-0.8l0.6-0.7l0.7-0.6l0.8-0.4l0.9-0.3l1-0.1h102.5l1,0.1l0.9,0.3l0.8,0.4
				l0.7,0.6l0.6,0.7l0.4,0.8l0.3,0.9l0.1,1V147l-0.1,1l-0.3,0.9l-0.4,0.8l-0.6,0.7l-0.7,0.6l-0.8,0.4l-0.9,0.3l-1,0.1H8.7l-1-0.1
				l-0.9-0.3L6,150.9l-0.7-0.6l-0.6-0.7l-0.4-0.8L4,147.9L3.9,147z"/>
			<path class="st7" d="M4.3,146.4v-17.6l0.1-0.9l0.3-0.9l0.4-0.8l0.6-0.7l0.7-0.6l0.8-0.4l0.9-0.3l0.9-0.1h99.6l0.9,0.1l0.9,0.3
				l0.8,0.4l0.7,0.6l0.6,0.7l0.4,0.8l0.3,0.9l0.1,0.9v17.6l-0.1,0.9l-0.3,0.9l-0.4,0.8l-0.6,0.7l-0.7,0.6l-0.8,0.4l-0.9,0.3
				l-0.9,0.1H9L8,151l-0.9-0.3l-0.8-0.4l-0.7-0.6L5.1,149l-0.4-0.8l-0.3-0.9L4.3,146.4z"/>
			<path class="st8" d="M4.7,145.9v-17.1l0.1-0.9l0.3-0.8l0.4-0.8l0.6-0.7l0.7-0.6l0.8-0.4l0.8-0.3l0.9-0.1h96.6l0.9,0.1l0.8,0.3
				l0.8,0.4l0.7,0.6l0.6,0.7l0.4,0.8l0.3,0.8l0.1,0.9v17.1l-0.1,0.9l-0.3,0.8l-0.4,0.8l-0.6,0.7l-0.7,0.6l-0.8,0.4l-0.8,0.3
				l-0.9,0.1H9.3l-0.9-0.1L7.5,150l-0.8-0.4l-0.7-0.6l-0.6-0.7l-0.4-0.8l-0.3-0.8L4.7,145.9z"/>
			<path class="st9" d="M5.2,145.3v-16.6l0.1-0.9l0.3-0.8l0.4-0.7l0.5-0.6l0.6-0.5l0.7-0.4l0.8-0.3l0.9-0.1h93.7l0.9,0.1l0.8,0.3
				l0.7,0.4l0.7,0.5l0.5,0.6l0.4,0.7l0.3,0.8l0.1,0.9v16.6l-0.1,0.9l-0.3,0.8l-0.4,0.7l-0.5,0.6l-0.7,0.5l-0.7,0.4l-0.8,0.3
				l-0.9,0.1H9.5l-0.9-0.1l-0.8-0.3l-0.7-0.4l-0.6-0.5l-0.5-0.6L5.5,147l-0.3-0.8L5.2,145.3z"/>
			<path class="st10" d="M5.6,144.7v-16.1l0.1-0.9l0.2-0.8l0.4-0.7l0.5-0.6l0.6-0.5l0.7-0.4l0.8-0.2l0.9-0.1h90.8l0.9,0.1l0.8,0.2
				l0.7,0.4l0.6,0.5l0.5,0.6l0.4,0.7l0.2,0.8l0.1,0.9v16.1l-0.1,0.9l-0.2,0.8l-0.4,0.7l-0.5,0.6l-0.6,0.5l-0.7,0.4l-0.8,0.2
				l-0.9,0.1H9.8L9,148.9l-0.8-0.2l-0.7-0.4l-0.6-0.5l-0.5-0.6l-0.4-0.7l-0.2-0.8L5.6,144.7z"/>
			<path class="st11" d="M6,144.2v-15.6l0.1-0.8l0.2-0.8l0.4-0.7l0.5-0.6l0.6-0.5l0.7-0.4l0.8-0.2l0.8-0.1h87.8l0.8,0.1l0.8,0.2
				l0.7,0.4l0.6,0.5l0.5,0.6l0.4,0.7l0.2,0.8l0.1,0.8v15.6L102,145l-0.2,0.8l-0.4,0.7l-0.5,0.6l-0.6,0.5l-0.7,0.4l-0.8,0.2l-0.8,0.1
				H10.1l-0.8-0.1L8.5,148l-0.7-0.4l-0.6-0.5l-0.5-0.6l-0.4-0.7L6.1,145L6,144.2z"/>
			<path class="st12" d="M6.4,143.6v-15l0.1-0.8l0.2-0.7l0.4-0.7l0.5-0.6l0.6-0.5l0.7-0.4l0.7-0.2l0.8-0.1h84.9l0.8,0.1l0.7,0.2
				l0.7,0.4l0.6,0.5l0.5,0.6l0.4,0.7l0.2,0.7l0.1,0.8v15l-0.1,0.8l-0.2,0.7l-0.4,0.7l-0.5,0.6l-0.6,0.5l-0.7,0.4l-0.7,0.2l-0.8,0.1
				H10.4l-0.8-0.1l-0.7-0.2l-0.7-0.4l-0.6-0.5l-0.5-0.6l-0.4-0.7l-0.2-0.7L6.4,143.6z"/>
			<path class="st13" d="M6.8,143.1v-14.5l0.1-0.8l0.2-0.7l0.4-0.7l0.5-0.6l0.6-0.5l0.7-0.4l0.7-0.2l0.8-0.1h82l0.8,0.1l0.7,0.2
				l0.7,0.4l0.6,0.5l0.5,0.6l0.4,0.7l0.2,0.7l0.1,0.8v14.5l-0.1,0.8l-0.2,0.7l-0.4,0.7l-0.5,0.6l-0.6,0.5l-0.7,0.4l-0.7,0.2
				l-0.8,0.1h-82l-0.8-0.1l-0.7-0.2l-0.7-0.4L8,145.8l-0.5-0.6l-0.4-0.7l-0.2-0.7L6.8,143.1z"/>
			<path class="st14" d="M7.3,142.5v-14l0.1-0.7l0.2-0.7l0.3-0.6l0.5-0.5l0.5-0.5l0.6-0.3l0.7-0.2l0.7-0.1h79l0.7,0.1l0.7,0.2
				l0.6,0.3l0.5,0.5l0.5,0.5l0.3,0.6l0.2,0.7l0.1,0.7v14l-0.1,0.7l-0.2,0.7l-0.3,0.6l-0.5,0.5l-0.5,0.5l-0.6,0.3l-0.7,0.2l-0.7,0.1
				H11l-0.7-0.1l-0.7-0.2l-0.6-0.3l-0.5-0.5l-0.5-0.5L7.6,144l-0.2-0.7L7.3,142.5z"/>
			<path class="st15" d="M7.7,142v-13.5l0.1-0.7l0.2-0.7l0.3-0.6l0.4-0.5l0.5-0.4l0.6-0.3l0.7-0.2l0.7-0.1h76.1l0.7,0.1l0.7,0.2
				l0.6,0.3l0.5,0.4l0.4,0.5l0.3,0.6l0.2,0.7l0.1,0.7V142l-0.1,0.7l-0.2,0.7l-0.3,0.6l-0.4,0.5l-0.5,0.4l-0.6,0.3l-0.7,0.2l-0.7,0.1
				H11.3l-0.7-0.1l-0.7-0.2l-0.6-0.3l-0.5-0.4L8.3,144L8,143.4l-0.2-0.7L7.7,142z"/>
			<path class="st16" d="M8.1,141.4v-13l0.1-0.7l0.2-0.6l0.3-0.6l0.4-0.5l0.5-0.4l0.6-0.3l0.6-0.2l0.7-0.1h73.1l0.7,0.1l0.6,0.2
				l0.6,0.3l0.5,0.4l0.4,0.5l0.3,0.6l0.2,0.6l0.1,0.7v13l-0.1,0.7l-0.2,0.6l-0.3,0.6l-0.4,0.5l-0.5,0.4l-0.6,0.3l-0.6,0.2l-0.7,0.1
				H11.5l-0.7-0.1l-0.6-0.2l-0.6-0.3l-0.5-0.4l-0.4-0.5l-0.3-0.6l-0.2-0.6L8.1,141.4z"/>
			<path class="st17" d="M8.5,140.9v-12.4l0.1-0.7l0.2-0.6l0.3-0.6l0.4-0.5l0.5-0.4l0.6-0.3l0.6-0.2l0.7-0.1H82l0.7,0.1l0.6,0.2
				l0.6,0.3l0.5,0.4l0.4,0.5l0.3,0.6l0.2,0.6l0.1,0.7v12.4l-0.1,0.7l-0.2,0.6l-0.3,0.6l-0.4,0.5l-0.5,0.4l-0.6,0.3l-0.6,0.2
				l-0.7,0.1H11.8l-0.7-0.1l-0.6-0.2l-0.6-0.3l-0.5-0.4l-0.4-0.5l-0.3-0.6l-0.2-0.6L8.5,140.9z"/>
			<path class="st18" d="M9,140.3v-11.9l0.1-0.6l0.2-0.6l0.3-0.5l0.4-0.5l0.5-0.4l0.5-0.3l0.6-0.2l0.6-0.1h67.3l0.6,0.1l0.6,0.2
				l0.5,0.3l0.5,0.4l0.4,0.5l0.3,0.5l0.2,0.6l0.1,0.6v11.9l-0.1,0.6l-0.2,0.6l-0.3,0.5l-0.4,0.5l-0.5,0.4l-0.5,0.3l-0.6,0.2
				l-0.6,0.1H12.1l-0.6-0.1l-0.6-0.2l-0.5-0.3l-0.5-0.4l-0.4-0.5l-0.3-0.5L9,141L9,140.3z"/>
			<path class="st19" d="M9.4,139.8v-11.4l0.1-0.6l0.2-0.6l0.3-0.5l0.4-0.4l0.4-0.4l0.5-0.3l0.6-0.2l0.6-0.1h64.3l0.6,0.1l0.6,0.2
				l0.5,0.3l0.4,0.4l0.4,0.4l0.3,0.5l0.2,0.6l0.1,0.6v11.4l-0.1,0.6l-0.2,0.6l-0.3,0.5l-0.4,0.4l-0.4,0.4l-0.5,0.3l-0.6,0.2
				l-0.6,0.1H12.4l-0.6-0.1l-0.6-0.2l-0.5-0.3l-0.4-0.4l-0.4-0.4l-0.3-0.5l-0.2-0.6L9.4,139.8z"/>
			<path class="st20" d="M9.8,139.2v-10.9l0.1-0.6l0.2-0.5l0.3-0.5l0.4-0.4l0.4-0.4l0.5-0.3l0.5-0.2l0.6-0.1h61.4l0.6,0.1l0.5,0.2
				l0.5,0.3l0.4,0.4l0.4,0.4l0.3,0.5l0.2,0.5l0.1,0.6v10.9l-0.1,0.6l-0.2,0.5l-0.3,0.5l-0.4,0.4l-0.4,0.4l-0.5,0.3l-0.5,0.2
				l-0.6,0.1H12.7l-0.6-0.1l-0.5-0.2l-0.5-0.3l-0.4-0.4l-0.4-0.4l-0.3-0.5l-0.2-0.5L9.8,139.2z"/>
			<path class="st21" d="M10.2,138.7v-10.4l0.1-0.6l0.2-0.5l0.3-0.5l0.3-0.4l0.4-0.3l0.5-0.3l0.5-0.2l0.6-0.1h58.5l0.6,0.1l0.5,0.2
				L73,126l0.4,0.3l0.3,0.4l0.3,0.5l0.2,0.5l0.1,0.6v10.4l-0.1,0.6l-0.2,0.5l-0.3,0.5l-0.3,0.4l-0.4,0.3l-0.5,0.3l-0.5,0.2l-0.6,0.1
				H13l-0.6-0.1l-0.5-0.2l-0.5-0.3l-0.4-0.3l-0.3-0.4l-0.3-0.5l-0.2-0.5L10.2,138.7z"/>
			<path class="st22" d="M10.7,138.1v-9.8l0.1-0.5l0.2-0.5l0.2-0.4l0.3-0.4l0.4-0.3l0.4-0.2l0.5-0.2l0.5-0.1h55.5l0.5,0.1l0.5,0.2
				l0.4,0.2l0.4,0.3l0.3,0.4l0.2,0.4l0.2,0.5l0.1,0.5v9.8l-0.1,0.5l-0.2,0.5l-0.2,0.4l-0.3,0.4l-0.4,0.3l-0.4,0.2l-0.5,0.2l-0.5,0.1
				H13.3l-0.5-0.1l-0.5-0.2l-0.4-0.2l-0.4-0.3l-0.3-0.4l-0.2-0.4l-0.2-0.5L10.7,138.1z"/>
			<path class="st23" d="M11.1,137.6v-9.3l0.1-0.5l0.1-0.5l0.2-0.4l0.3-0.4l0.4-0.3l0.4-0.2l0.5-0.1l0.5-0.1h52.6l0.5,0.1l0.5,0.1
				l0.4,0.2l0.4,0.3l0.3,0.4l0.2,0.4l0.1,0.5l0,0.5v9.3l0,0.5l-0.1,0.5l-0.2,0.4l-0.3,0.4l-0.4,0.3l-0.4,0.2l-0.5,0.1l-0.5,0.1H13.5
				L13,140l-0.5-0.1l-0.4-0.2l-0.4-0.3l-0.3-0.4l-0.2-0.4l-0.1-0.5L11.1,137.6z"/>
			<path class="st24" d="M11.5,137v-8.8l0-0.5l0.1-0.4l0.2-0.4l0.3-0.3l0.3-0.3l0.4-0.2l0.4-0.1l0.5,0h49.7l0.5,0l0.4,0.1l0.4,0.2
				l0.3,0.3l0.3,0.3l0.2,0.4l0.1,0.4l0,0.5v8.8l0,0.5l-0.1,0.4l-0.2,0.4l-0.3,0.3l-0.3,0.3l-0.4,0.2l-0.4,0.1l-0.5,0H13.8l-0.5,0
				l-0.4-0.1l-0.4-0.2l-0.3-0.3l-0.3-0.3l-0.2-0.4l-0.1-0.4L11.5,137z"/>
			<path class="st25" d="M11.9,136.5v-8.3l0-0.4l0.1-0.4l0.2-0.4l0.3-0.3l0.3-0.3l0.4-0.2l0.4-0.1l0.4,0h46.7l0.4,0l0.4,0.1l0.4,0.2
				l0.3,0.3l0.3,0.3l0.2,0.4l0.1,0.4l0,0.4v8.3l0,0.4l-0.1,0.4l-0.2,0.4l-0.3,0.3l-0.3,0.3l-0.4,0.2l-0.4,0.1l-0.4,0H14.1l-0.4,0
				l-0.4-0.1l-0.4-0.2l-0.3-0.3l-0.3-0.3l-0.2-0.4l-0.1-0.4L11.9,136.5z"/>
			<path class="st26" d="M12.3,135.9v-7.8l0-0.4l0.1-0.4l0.2-0.3l0.3-0.3l0.3-0.3l0.3-0.2l0.4-0.1l0.4,0h43.8l0.4,0l0.4,0.1l0.3,0.2
				l0.3,0.3l0.3,0.3l0.2,0.3l0.1,0.4l0,0.4v7.8l0,0.4l-0.1,0.4l-0.2,0.3l-0.3,0.3l-0.3,0.3l-0.3,0.2l-0.4,0.1l-0.4,0H14.4l-0.4,0
				l-0.4-0.1l-0.3-0.2l-0.3-0.3l-0.3-0.3l-0.2-0.3l-0.1-0.4L12.3,135.9z"/>
			<path class="st27" d="M12.8,135.3v-7.2l0-0.4l0.1-0.4l0.2-0.3l0.2-0.3l0.3-0.2l0.3-0.2l0.4-0.1l0.4,0h40.8l0.4,0l0.4,0.1l0.3,0.2
				l0.3,0.2l0.2,0.3l0.2,0.3l0.1,0.4l0,0.4v7.2l0,0.4l-0.1,0.4l-0.2,0.3l-0.2,0.3l-0.3,0.2l-0.3,0.2l-0.4,0.1l-0.4,0H14.7l-0.4,0
				l-0.4-0.1l-0.3-0.2l-0.3-0.2l-0.2-0.3l-0.2-0.3l-0.1-0.4L12.8,135.3z"/>
			<path class="st28" d="M13.2,134.8v-6.7l0-0.4l0.1-0.3l0.2-0.3l0.2-0.3l0.3-0.2l0.3-0.2l0.3-0.1l0.4,0h37.9l0.4,0l0.3,0.1l0.3,0.2
				l0.3,0.2l0.2,0.3l0.2,0.3l0.1,0.3l0,0.4v6.7l0,0.4l-0.1,0.3l-0.2,0.3l-0.2,0.3l-0.3,0.2l-0.3,0.2l-0.3,0.1l-0.4,0H15l-0.4,0
				l-0.3-0.1l-0.3-0.2l-0.3-0.2l-0.2-0.3l-0.2-0.3l-0.1-0.3L13.2,134.8z"/>
			<path class="st29" d="M13.6,134.2V128l0-0.3l0.1-0.3l0.2-0.3l0.2-0.2l0.2-0.2l0.3-0.2l0.3-0.1l0.3,0h35l0.3,0l0.3,0.1l0.3,0.2
				l0.2,0.2l0.2,0.2l0.2,0.3l0.1,0.3l0,0.3v6.2l0,0.3l-0.1,0.3l-0.2,0.3l-0.2,0.2l-0.2,0.2l-0.3,0.2l-0.3,0.1l-0.3,0h-35l-0.3,0
				l-0.3-0.1l-0.3-0.2l-0.2-0.2l-0.2-0.2l-0.2-0.3l-0.1-0.3L13.6,134.2z"/>
			<path class="st30" d="M14,133.7V128l0-0.3l0.1-0.3l0.1-0.3l0.2-0.2l0.2-0.2l0.3-0.1l0.3-0.1l0.3,0h32l0.3,0l0.3,0.1l0.3,0.1
				l0.2,0.2l0.2,0.2l0.1,0.3l0.1,0.3l0,0.3v5.7l0,0.3l-0.1,0.3l-0.1,0.3l-0.2,0.2l-0.2,0.2l-0.3,0.1l-0.3,0.1l-0.3,0h-32l-0.3,0
				l-0.3-0.1l-0.3-0.1l-0.2-0.2l-0.2-0.2l-0.1-0.3l-0.1-0.3L14,133.7z"/>
			<path class="st31" d="M14.5,133.1V128l0-0.3l0.1-0.3l0.1-0.2l0.2-0.2l0.2-0.2l0.2-0.1l0.3-0.1l0.3,0h29.1l0.3,0l0.3,0.1l0.2,0.1
				l0.2,0.2l0.2,0.2l0.1,0.2l0.1,0.3l0,0.3v5.2l0,0.3l-0.1,0.3l-0.1,0.2l-0.2,0.2l-0.2,0.2l-0.2,0.1l-0.3,0.1l-0.3,0H15.8l-0.3,0
				l-0.3-0.1l-0.2-0.1l-0.2-0.2l-0.2-0.2l-0.1-0.2l-0.1-0.3L14.5,133.1z"/>
			<path class="st32" d="M14.9,132.6v-4.6l0-0.2l0.1-0.2l0.1-0.2l0.1-0.2l0.2-0.2l0.2-0.1l0.2-0.1l0.2,0h26.2l0.2,0l0.2,0.1l0.2,0.1
				l0.2,0.2l0.1,0.2l0.1,0.2l0.1,0.2l0,0.2v4.6l0,0.2l-0.1,0.2l-0.1,0.2l-0.1,0.2l-0.2,0.1l-0.2,0.1l-0.2,0.1l-0.2,0H16.1l-0.2,0
				l-0.2-0.1l-0.2-0.1l-0.2-0.1l-0.1-0.2l-0.1-0.2l-0.1-0.2L14.9,132.6z"/>
			<path class="st33" d="M15.3,132v-4.1l0-0.2l0.1-0.2l0.1-0.2l0.1-0.2l0.2-0.1l0.2-0.1l0.2-0.1l0.2,0h23.2l0.2,0l0.2,0.1l0.2,0.1
				l0.2,0.1l0.1,0.2l0.1,0.2l0.1,0.2l0,0.2v4.1l0,0.2l-0.1,0.2l-0.1,0.2l-0.1,0.2l-0.2,0.1L40,133l-0.2,0.1l-0.2,0H16.4l-0.2,0
				L16,133l-0.2-0.1l-0.2-0.1l-0.1-0.2l-0.1-0.2l-0.1-0.2L15.3,132z"/>
			<path class="st34" d="M15.7,131.5v-3.6l0-0.2l0.1-0.2l0.1-0.2l0.1-0.1l0.1-0.1l0.2-0.1l0.2-0.1l0.2,0H37l0.2,0l0.2,0.1l0.2,0.1
				l0.1,0.1l0.1,0.1l0.1,0.2l0.1,0.2l0,0.2v3.6l0,0.2l-0.1,0.2l-0.1,0.2l-0.1,0.1l-0.1,0.1l-0.2,0.1l-0.2,0.1l-0.2,0H16.7l-0.2,0
				l-0.2-0.1l-0.2-0.1l-0.1-0.1l-0.1-0.1l-0.1-0.2l-0.1-0.2L15.7,131.5z"/>
			<path class="st35" d="M16.1,130.9v-3.1l0-0.2l0-0.2l0.1-0.1l0.1-0.1l0.1-0.1l0.1-0.1l0.2,0l0.2,0h17.4l0.2,0l0.2,0l0.1,0.1
				l0.1,0.1l0.1,0.1l0.1,0.1l0,0.2l0,0.2v3.1l0,0.2l0,0.2l-0.1,0.1l-0.1,0.1l-0.1,0.1l-0.1,0.1l-0.2,0l-0.2,0H17l-0.2,0l-0.2,0
				l-0.1-0.1l-0.1-0.1l-0.1-0.1l-0.1-0.1l0-0.2L16.1,130.9z"/>
			<path class="st36" d="M16.6,130.4v-2.6l0-0.1l0-0.1l0.1-0.1l0.1-0.1l0.1-0.1l0.1-0.1l0.1,0l0.1,0h14.4l0.1,0l0.1,0l0.1,0.1
				l0.1,0.1l0.1,0.1l0.1,0.1l0,0.1l0,0.1v2.6l0,0.1l0,0.1l-0.1,0.1l-0.1,0.1l-0.1,0.1l-0.1,0.1l-0.1,0l-0.1,0H17.2l-0.1,0l-0.1,0
				l-0.1-0.1l-0.1-0.1l-0.1-0.1l-0.1-0.1l0-0.1L16.6,130.4z"/>
			<path class="st36" d="M17,129.8v-2l0-0.1l0-0.1l0-0.1l0.1-0.1l0.1-0.1l0.1,0l0.1,0l0.1,0H29l0.1,0l0.1,0l0.1,0l0.1,0.1l0.1,0.1
				l0,0.1l0,0.1l0,0.1v2l0,0.1l0,0.1l0,0.1l-0.1,0.1l-0.1,0.1l-0.1,0.1l-0.1,0l-0.1,0H17.5l-0.1,0l-0.1,0l-0.1-0.1l-0.1-0.1
				l-0.1-0.1l0-0.1l0-0.1L17,129.8z"/>
		</g>
	</g>
	<path class="st37" d="M3.9,147v-18.2c0-2.6,2.2-4.8,4.8-4.8h102.5c2.6,0,4.8,2.2,4.8,4.8V147c0,2.6-2.2,4.8-4.8,4.8H8.7
		C6,151.8,3.9,149.6,3.9,147"/>
	<path class="st38" d="M3.9,147v-18.2c0-2.6,2.2-4.8,4.8-4.8h102.5c2.6,0,4.8,2.2,4.8,4.8V147c0,2.6-2.2,4.8-4.8,4.8H8.7
		C6,151.8,3.9,149.6,3.9,147"/>
	<text transform="matrix(1 0 0 1 15.311 77.2604)" class="st1 st2">H</text>
	<text transform="matrix(1 0 0 1 29.8042 92.0201)" class="st1 st2">O</text>
	<path d="M30.4,84.8l-0.6,0.6l-7.3-7.3l0.6-0.6L30.4,84.8z"/>
	<text transform="matrix(1 0 0 1 43.4443 77.4069)" class="st1 st2">H</text>
	<path d="M42.5,77.9l0.6,0.5l-6.2,6.7l-0.6-0.5L42.5,77.9z"/>
	<text transform="matrix(1 0 0 1 14.5508 100.34)" class="st1 st2">H</text>
	<path d="M17.5,101.9h0.8v4.9h-0.8V101.9z"/>
	<text transform="matrix(1 0 0 1 45.8975 100.2071)" class="st1 st2">H</text>
	<path d="M48.9,101.7h0.8v5.1h-0.8V101.7z"/>
	<path d="M37.8,91.1l0.4-0.7l2.2,1.2L40,92.2L37.8,91.1z"/>
	<path d="M42.2,93.4l0.4-0.7l2.2,1.2l-0.4,0.7L42.2,93.4z"/>
	<path d="M28.8,90.4l0.4,0.7L27,92.3l-0.4-0.7L28.8,90.4z"/>
	<path d="M24.5,92.7l0.4,0.7l-2.2,1.2l-0.4-0.7L24.5,92.7z"/>
	<path d="M272.9,221v-63.1h0.8V221H272.9z"/>
	<path d="M273.3,228l-2.1-8c0,0,1.2,1,2.1,1c0.9,0,2.1-1,2.1-1L273.3,228L273.3,228"/>
	<path class="st3" d="M273.3,228l-2.1-8c0,0,1.2,1,2.1,1c0.9,0,2.1-1,2.1-1L273.3,228L273.3,228"/>
	<text transform="matrix(1 0 0 1 257.8711 115.007)" class="st1 st2">O</text>
	<text transform="matrix(1 0 0 1 226.5239 115.0201)" class="st1 st2">OH</text>
	<path d="M261.9,124.1l-0.8,0l0-7.5l0.8,0L261.9,124.1z"/>
	<path d="M230.5,123.9l-0.8,0l0-7.3l0.8,0L230.5,123.9z"/>
	<g>
		<defs>
			<polygon id="SVGID_3_" points="216.3,146.8 216.3,128.8 216.4,127.9 216.6,127 217.1,126.2 217.7,125.5 218.4,124.9 219.2,124.5 
				220.1,124.2 221.1,124.1 323.3,124.1 324.3,124.2 325.2,124.5 326,124.9 326.7,125.5 327.3,126.2 327.7,127 328,127.9 
				328.1,128.8 328.1,146.8 328,147.8 327.7,148.7 327.3,149.5 326.7,150.2 326,150.8 325.2,151.2 324.3,151.5 323.3,151.6 
				221.1,151.6 220.1,151.5 219.2,151.2 218.4,150.8 217.7,150.2 217.1,149.5 216.6,148.7 216.4,147.8 			"/>
		</defs>
		<clipPath id="SVGID_4_">
			<use xlink:href="#SVGID_3_"  style="overflow:visible;"/>
		</clipPath>
		<g class="st39">
			<path class="st6" d="M216.1,146.9v-18.2l0.1-1l0.3-0.9l0.4-0.8l0.6-0.7l0.7-0.6l0.8-0.4l0.9-0.3l1-0.1h102.5l1,0.1l0.9,0.3
				l0.8,0.4l0.7,0.6l0.6,0.7l0.4,0.8l0.3,0.9l0.1,1v18.2l-0.1,1l-0.3,0.9l-0.4,0.8l-0.6,0.7l-0.7,0.6l-0.8,0.4l-0.9,0.3l-1,0.1
				H220.9l-1-0.1l-0.9-0.3l-0.8-0.4l-0.7-0.6l-0.6-0.7l-0.4-0.8l-0.3-0.9L216.1,146.9z"/>
			<path class="st7" d="M216.6,146.4v-17.6l0.1-0.9l0.3-0.9l0.4-0.8l0.6-0.7l0.7-0.6l0.8-0.4l0.9-0.3l0.9-0.1h99.6l0.9,0.1l0.9,0.3
				l0.8,0.4l0.7,0.6l0.6,0.7l0.4,0.8l0.3,0.9l0.1,0.9v17.6l-0.1,0.9l-0.3,0.9l-0.4,0.8l-0.6,0.7l-0.7,0.6l-0.8,0.4l-0.9,0.3
				l-0.9,0.1h-99.6l-0.9-0.1l-0.9-0.3l-0.8-0.4l-0.7-0.6l-0.6-0.7l-0.4-0.8l-0.3-0.9L216.6,146.4z"/>
			<path class="st8" d="M217,145.8v-17.1l0.1-0.9l0.3-0.8l0.4-0.8l0.6-0.7l0.7-0.6l0.8-0.4l0.8-0.3l0.9-0.1h96.6l0.9,0.1l0.8,0.3
				l0.8,0.4l0.7,0.6l0.6,0.7l0.4,0.8l0.3,0.8l0.1,0.9v17.1l-0.1,0.9l-0.3,0.8l-0.4,0.8l-0.6,0.7l-0.7,0.6l-0.8,0.4l-0.8,0.3
				l-0.9,0.1h-96.6l-0.9-0.1l-0.8-0.3l-0.8-0.4l-0.7-0.6l-0.6-0.7l-0.4-0.8l-0.3-0.8L217,145.8z"/>
			<path class="st9" d="M217.4,145.2v-16.6l0.1-0.9l0.3-0.8l0.4-0.7l0.5-0.6l0.6-0.5l0.7-0.4l0.8-0.3l0.9-0.1h93.7l0.9,0.1l0.8,0.3
				l0.7,0.4l0.6,0.5l0.5,0.6l0.4,0.7l0.3,0.8l0.1,0.9v16.6l-0.1,0.9l-0.3,0.8l-0.4,0.7l-0.5,0.6l-0.6,0.5l-0.7,0.4l-0.8,0.3
				l-0.9,0.1h-93.7l-0.9-0.1l-0.8-0.3l-0.7-0.4l-0.6-0.5l-0.5-0.6l-0.4-0.7l-0.3-0.8L217.4,145.2z"/>
			<path class="st10" d="M217.8,144.7v-16.1l0.1-0.9l0.2-0.8l0.4-0.7l0.5-0.6l0.6-0.5l0.7-0.4l0.8-0.2l0.9-0.1h90.8l0.9,0.1l0.8,0.2
				l0.7,0.4l0.6,0.5l0.5,0.6l0.4,0.7l0.2,0.8l0.1,0.9v16.1l-0.1,0.9l-0.2,0.8l-0.4,0.7l-0.5,0.6l-0.6,0.5l-0.7,0.4l-0.8,0.2
				l-0.9,0.1h-90.8l-0.9-0.1l-0.8-0.2l-0.7-0.4l-0.6-0.5l-0.5-0.6l-0.4-0.7l-0.2-0.8L217.8,144.7z"/>
			<path class="st11" d="M218.2,144.1v-15.6l0.1-0.8l0.2-0.8l0.4-0.7l0.5-0.6l0.6-0.5l0.7-0.4l0.8-0.2l0.8-0.1h87.8l0.8,0.1l0.8,0.2
				l0.7,0.4l0.6,0.5l0.5,0.6l0.4,0.7l0.2,0.8l0.1,0.8v15.6l-0.1,0.8l-0.2,0.8l-0.4,0.7l-0.5,0.6l-0.6,0.5l-0.7,0.4l-0.8,0.2
				l-0.8,0.1h-87.8l-0.8-0.1l-0.8-0.2l-0.7-0.4l-0.6-0.5l-0.5-0.6l-0.4-0.7l-0.2-0.8L218.2,144.1z"/>
			<path class="st12" d="M218.7,143.6v-15l0.1-0.8l0.2-0.7l0.4-0.7l0.5-0.6l0.6-0.5l0.7-0.4l0.7-0.2l0.8-0.1h84.9l0.8,0.1l0.7,0.2
				l0.7,0.4l0.6,0.5l0.5,0.6l0.4,0.7l0.2,0.7l0.1,0.8v15l-0.1,0.8l-0.2,0.7l-0.4,0.7l-0.5,0.6l-0.6,0.5l-0.7,0.4l-0.7,0.2l-0.8,0.1
				h-84.9l-0.8-0.1l-0.7-0.2l-0.7-0.4l-0.6-0.5l-0.5-0.6l-0.4-0.7l-0.2-0.7L218.7,143.6z"/>
			<path class="st13" d="M219.1,143v-14.5l0.1-0.8l0.2-0.7l0.4-0.7l0.5-0.6l0.6-0.5l0.7-0.4l0.7-0.2l0.8-0.1h82l0.8,0.1l0.7,0.2
				l0.7,0.4l0.6,0.5l0.5,0.6l0.4,0.7l0.2,0.7l0.1,0.8V143l-0.1,0.8l-0.2,0.7l-0.4,0.7l-0.5,0.6l-0.6,0.5l-0.7,0.4l-0.7,0.2l-0.8,0.1
				h-82l-0.8-0.1l-0.7-0.2l-0.7-0.4l-0.6-0.5l-0.5-0.6l-0.4-0.7l-0.2-0.7L219.1,143z"/>
			<path class="st14" d="M219.5,142.5v-14l0.1-0.7l0.2-0.7l0.3-0.6l0.5-0.5l0.5-0.5l0.6-0.3l0.7-0.2l0.7-0.1h79l0.7,0.1l0.7,0.2
				l0.6,0.3l0.5,0.5l0.5,0.5l0.3,0.6l0.2,0.7l0.1,0.7v14l-0.1,0.7l-0.2,0.7l-0.3,0.6l-0.5,0.5l-0.5,0.5l-0.6,0.3l-0.7,0.2l-0.7,0.1
				h-79l-0.7-0.1l-0.7-0.2l-0.6-0.3l-0.5-0.5l-0.5-0.5l-0.3-0.6l-0.2-0.7L219.5,142.5z"/>
			<path class="st15" d="M219.9,141.9v-13.5l0.1-0.7l0.2-0.7l0.3-0.6l0.4-0.5l0.5-0.4l0.6-0.3l0.7-0.2l0.7-0.1h76.1l0.7,0.1l0.7,0.2
				l0.6,0.3l0.5,0.4l0.4,0.5l0.3,0.6l0.2,0.7l0.1,0.7v13.5l-0.1,0.7l-0.2,0.7l-0.3,0.6l-0.4,0.5l-0.5,0.4l-0.6,0.3l-0.7,0.2
				l-0.7,0.1h-76.1l-0.7-0.1l-0.7-0.2l-0.6-0.3l-0.5-0.4l-0.4-0.5l-0.3-0.6l-0.2-0.7L219.9,141.9z"/>
			<path class="st16" d="M220.4,141.4v-13l0.1-0.7l0.2-0.6l0.3-0.6l0.4-0.5l0.5-0.4l0.6-0.3l0.6-0.2l0.7-0.1h73.1l0.7,0.1l0.6,0.2
				l0.6,0.3l0.5,0.4l0.4,0.5l0.3,0.6l0.2,0.6l0.1,0.7v13l-0.1,0.7l-0.2,0.6l-0.3,0.6l-0.4,0.5l-0.5,0.4l-0.6,0.3l-0.6,0.2l-0.7,0.1
				h-73.1l-0.7-0.1l-0.6-0.2l-0.6-0.3l-0.5-0.4l-0.4-0.5l-0.3-0.6l-0.2-0.6L220.4,141.4z"/>
			<path class="st17" d="M220.8,140.8v-12.4l0.1-0.7l0.2-0.6l0.3-0.6l0.4-0.5l0.5-0.4l0.6-0.3l0.6-0.2l0.7-0.1h70.2l0.7,0.1l0.6,0.2
				l0.6,0.3l0.5,0.4l0.4,0.5l0.3,0.6l0.2,0.6l0.1,0.7v12.4l-0.1,0.7l-0.2,0.6l-0.3,0.6l-0.4,0.5l-0.5,0.4l-0.6,0.3l-0.6,0.2
				l-0.7,0.1h-70.2l-0.7-0.1l-0.6-0.2l-0.6-0.3l-0.5-0.4l-0.4-0.5l-0.3-0.6l-0.2-0.6L220.8,140.8z"/>
			<path class="st18" d="M221.2,140.3v-11.9l0.1-0.6l0.2-0.6l0.3-0.5l0.4-0.5l0.5-0.4l0.5-0.3l0.6-0.2l0.6-0.1h67.3l0.6,0.1l0.6,0.2
				l0.5,0.3l0.5,0.4l0.4,0.5l0.3,0.5l0.2,0.6l0.1,0.6v11.9l-0.1,0.6l-0.2,0.6l-0.3,0.5l-0.4,0.5l-0.5,0.4l-0.5,0.3l-0.6,0.2
				l-0.6,0.1h-67.3l-0.6-0.1l-0.6-0.2l-0.5-0.3l-0.5-0.4l-0.4-0.5l-0.3-0.5l-0.2-0.6L221.2,140.3z"/>
			<path class="st19" d="M221.6,139.7v-11.4l0.1-0.6l0.2-0.6l0.3-0.5l0.4-0.4l0.4-0.4l0.5-0.3l0.6-0.2l0.6-0.1H289l0.6,0.1l0.6,0.2
				l0.5,0.3l0.4,0.4l0.4,0.4l0.3,0.5l0.2,0.6l0.1,0.6v11.4l-0.1,0.6l-0.2,0.6l-0.3,0.5l-0.4,0.4l-0.4,0.4l-0.5,0.3l-0.6,0.2
				l-0.6,0.1h-64.3l-0.6-0.1l-0.6-0.2l-0.5-0.3l-0.4-0.4l-0.4-0.4l-0.3-0.5l-0.2-0.6L221.6,139.7z"/>
			<path class="st20" d="M222,139.2v-10.9l0.1-0.6l0.2-0.5l0.3-0.5l0.4-0.4l0.4-0.4l0.5-0.3l0.5-0.2l0.6-0.1h61.4l0.6,0.1l0.5,0.2
				l0.5,0.3l0.4,0.4l0.4,0.4l0.3,0.5l0.2,0.5l0.1,0.6v10.9l-0.1,0.6l-0.2,0.5l-0.3,0.5l-0.4,0.4l-0.4,0.4l-0.5,0.3l-0.5,0.2
				l-0.6,0.1h-61.4l-0.6-0.1l-0.5-0.2l-0.5-0.3l-0.4-0.4l-0.4-0.4l-0.3-0.5l-0.2-0.5L222,139.2z"/>
			<path class="st21" d="M222.5,138.6v-10.4l0.1-0.6l0.2-0.5l0.3-0.5l0.3-0.4l0.4-0.3l0.5-0.3l0.5-0.2l0.6-0.1h58.5l0.6,0.1l0.5,0.2
				l0.5,0.3l0.4,0.3l0.3,0.4l0.3,0.5l0.2,0.5l0.1,0.6v10.4l-0.1,0.6l-0.2,0.5l-0.3,0.5l-0.3,0.4l-0.4,0.3l-0.5,0.3l-0.5,0.2
				l-0.6,0.1h-58.5l-0.6-0.1l-0.5-0.2l-0.5-0.3l-0.4-0.3l-0.3-0.4l-0.3-0.5l-0.2-0.5L222.5,138.6z"/>
			<path class="st22" d="M222.9,138.1v-9.8l0.1-0.5l0.2-0.5l0.2-0.4l0.3-0.4l0.4-0.3l0.4-0.2l0.5-0.2l0.5-0.1H281l0.5,0.1l0.5,0.2
				l0.4,0.2l0.4,0.3l0.3,0.4l0.2,0.4l0.2,0.5l0.1,0.5v9.8l-0.1,0.5l-0.2,0.5l-0.2,0.4l-0.3,0.4l-0.4,0.3l-0.4,0.2l-0.5,0.2l-0.5,0.1
				h-55.5l-0.5-0.1l-0.5-0.2l-0.4-0.2l-0.4-0.3l-0.3-0.4l-0.2-0.4l-0.2-0.5L222.9,138.1z"/>
			<path class="st23" d="M223.3,137.5v-9.3l0.1-0.5l0.1-0.5l0.2-0.4l0.3-0.4l0.4-0.3l0.4-0.2l0.5-0.1l0.5-0.1h52.6l0.5,0.1l0.5,0.1
				l0.4,0.2l0.4,0.3l0.3,0.4l0.2,0.4l0.1,0.5l0.1,0.5v9.3l-0.1,0.5l-0.1,0.5l-0.2,0.4l-0.3,0.4l-0.4,0.3l-0.4,0.2l-0.5,0.1l-0.5,0.1
				h-52.6l-0.5-0.1l-0.5-0.1l-0.4-0.2l-0.4-0.3l-0.3-0.4l-0.2-0.4l-0.1-0.5L223.3,137.5z"/>
			<path class="st24" d="M223.7,137v-8.8l0-0.5l0.1-0.4l0.2-0.4l0.3-0.3l0.3-0.3l0.4-0.2l0.4-0.1l0.5,0h49.7l0.5,0l0.4,0.1l0.4,0.2
				l0.3,0.3l0.3,0.3l0.2,0.4l0.1,0.4l0,0.5v8.8l0,0.5l-0.1,0.4l-0.2,0.4l-0.3,0.3l-0.3,0.3l-0.4,0.2l-0.4,0.1l-0.5,0h-49.7l-0.5,0
				l-0.4-0.1l-0.4-0.2l-0.3-0.3l-0.3-0.3l-0.2-0.4l-0.1-0.4L223.7,137z"/>
			<path class="st25" d="M224.2,136.4v-8.3l0-0.4l0.1-0.4l0.2-0.4l0.3-0.3l0.3-0.3l0.4-0.2l0.4-0.1l0.4,0h46.7l0.4,0l0.4,0.1
				l0.4,0.2l0.3,0.3l0.3,0.3l0.2,0.4l0.1,0.4l0,0.4v8.3l0,0.4l-0.1,0.4l-0.2,0.4l-0.3,0.3l-0.3,0.3l-0.4,0.2l-0.4,0.1l-0.4,0h-46.7
				l-0.4,0l-0.4-0.1l-0.4-0.2l-0.3-0.3l-0.3-0.3l-0.2-0.4l-0.1-0.4L224.2,136.4z"/>
			<path class="st26" d="M224.6,135.8v-7.8l0-0.4l0.1-0.4l0.2-0.3l0.3-0.3l0.3-0.3l0.3-0.2l0.4-0.1l0.4,0h43.8l0.4,0l0.4,0.1
				l0.3,0.2l0.3,0.3l0.3,0.3l0.2,0.3l0.1,0.4l0,0.4v7.8l0,0.4l-0.1,0.4l-0.2,0.3l-0.3,0.3l-0.3,0.3l-0.3,0.2l-0.4,0.1l-0.4,0h-43.8
				l-0.4,0l-0.4-0.1l-0.3-0.2l-0.3-0.3l-0.3-0.3l-0.2-0.3l-0.1-0.4L224.6,135.8z"/>
			<path class="st27" d="M225,135.3v-7.2l0-0.4l0.1-0.4l0.2-0.3l0.2-0.3l0.3-0.2l0.3-0.2l0.4-0.1l0.4,0h40.8l0.4,0l0.4,0.1l0.3,0.2
				l0.3,0.2l0.2,0.3l0.2,0.3l0.1,0.4l0,0.4v7.2l0,0.4l-0.1,0.4l-0.2,0.3l-0.2,0.3l-0.3,0.2l-0.3,0.2l-0.4,0.1l-0.4,0h-40.8l-0.4,0
				l-0.4-0.1l-0.3-0.2l-0.3-0.2l-0.2-0.3l-0.2-0.3l-0.1-0.4L225,135.3z"/>
			<path class="st28" d="M225.4,134.7V128l0-0.4l0.1-0.3l0.2-0.3l0.2-0.3l0.3-0.2l0.3-0.2l0.3-0.1l0.4,0h37.9l0.4,0l0.3,0.1l0.3,0.2
				l0.3,0.2l0.2,0.3l0.2,0.3l0.1,0.3l0,0.4v6.7l0,0.4l-0.1,0.3l-0.2,0.3l-0.2,0.3l-0.3,0.2l-0.3,0.2l-0.3,0.1l-0.4,0h-37.9l-0.4,0
				l-0.3-0.1l-0.3-0.2L226,136l-0.2-0.3l-0.2-0.3l-0.1-0.3L225.4,134.7z"/>
			<path class="st29" d="M225.9,134.2V128l0-0.3l0.1-0.3l0.2-0.3l0.2-0.2l0.2-0.2l0.3-0.2l0.3-0.1l0.3,0h35l0.3,0l0.3,0.1l0.3,0.2
				l0.2,0.2l0.2,0.2l0.2,0.3l0.1,0.3l0,0.3v6.2l0,0.3l-0.1,0.3l-0.2,0.3l-0.2,0.2l-0.2,0.2l-0.3,0.2l-0.3,0.1l-0.3,0h-35l-0.3,0
				l-0.3-0.1l-0.3-0.2l-0.2-0.2l-0.2-0.2l-0.2-0.3l-0.1-0.3L225.9,134.2z"/>
			<path class="st30" d="M226.3,133.6V128l0-0.3l0.1-0.3l0.1-0.3l0.2-0.2l0.2-0.2l0.3-0.1l0.3-0.1l0.3,0h32l0.3,0l0.3,0.1l0.3,0.1
				l0.2,0.2l0.2,0.2l0.1,0.3l0.1,0.3l0,0.3v5.7l0,0.3l-0.1,0.3l-0.1,0.3l-0.2,0.2l-0.2,0.2l-0.3,0.1l-0.3,0.1l-0.3,0h-32l-0.3,0
				l-0.3-0.1l-0.3-0.1l-0.2-0.2l-0.2-0.2l-0.1-0.3l-0.1-0.3L226.3,133.6z"/>
			<path class="st31" d="M226.7,133.1v-5.2l0-0.3l0.1-0.3l0.1-0.2l0.2-0.2l0.2-0.2l0.2-0.1l0.3-0.1l0.3,0h29.1l0.3,0l0.3,0.1
				l0.2,0.1l0.2,0.2l0.2,0.2l0.1,0.2l0.1,0.3l0,0.3v5.2l0,0.3l-0.1,0.3l-0.1,0.2l-0.2,0.2l-0.2,0.2l-0.2,0.1l-0.3,0.1l-0.3,0h-29.1
				l-0.3,0l-0.3-0.1l-0.2-0.1l-0.2-0.2l-0.2-0.2l-0.1-0.2l-0.1-0.3L226.7,133.1z"/>
			<path class="st32" d="M227.1,132.5v-4.6l0-0.2l0.1-0.2l0.1-0.2l0.1-0.2l0.2-0.2l0.2-0.1l0.2-0.1l0.2,0h26.2l0.2,0l0.2,0.1
				l0.2,0.1l0.2,0.2l0.1,0.2l0.1,0.2l0.1,0.2l0,0.2v4.6l0,0.2l-0.1,0.2l-0.1,0.2l-0.1,0.2l-0.2,0.1l-0.2,0.1l-0.2,0.1l-0.2,0h-26.2
				l-0.2,0l-0.2-0.1l-0.2-0.1l-0.2-0.1l-0.1-0.2l-0.1-0.2l-0.1-0.2L227.1,132.5z"/>
			<path class="st33" d="M227.5,132v-4.1l0-0.2l0.1-0.2l0.1-0.2l0.1-0.2l0.2-0.1l0.2-0.1l0.2-0.1l0.2,0h23.2l0.2,0l0.2,0.1l0.2,0.1
				l0.2,0.1l0.1,0.2l0.1,0.2l0.1,0.2l0,0.2v4.1l0,0.2l-0.1,0.2l-0.1,0.2l-0.1,0.2l-0.2,0.1l-0.2,0.1l-0.2,0.1l-0.2,0h-23.2l-0.2,0
				l-0.2-0.1l-0.2-0.1l-0.2-0.1l-0.1-0.2l-0.1-0.2l-0.1-0.2L227.5,132z"/>
			<path class="st34" d="M228,131.4v-3.6l0-0.2l0.1-0.2l0.1-0.2l0.1-0.1l0.1-0.1l0.2-0.1l0.2-0.1l0.2,0h20.3l0.2,0l0.2,0.1l0.2,0.1
				l0.1,0.1l0.1,0.1l0.1,0.2l0.1,0.2l0,0.2v3.6l0,0.2l-0.1,0.2L250,132l-0.1,0.1l-0.1,0.1l-0.2,0.1l-0.2,0.1l-0.2,0h-20.3l-0.2,0
				l-0.2-0.1l-0.2-0.1l-0.1-0.1l-0.1-0.1l-0.1-0.2l-0.1-0.2L228,131.4z"/>
			<path class="st35" d="M228.4,130.9v-3.1l0-0.2l0-0.2l0.1-0.1l0.1-0.1l0.1-0.1l0.1-0.1l0.2,0l0.2,0h17.4l0.2,0l0.2,0l0.1,0.1
				l0.1,0.1l0.1,0.1l0.1,0.1l0,0.2l0,0.2v3.1l0,0.2l0,0.2l-0.1,0.1l-0.1,0.1l-0.1,0.1l-0.1,0.1l-0.2,0l-0.2,0h-17.4l-0.2,0l-0.2,0
				l-0.1-0.1l-0.1-0.1l-0.1-0.1l-0.1-0.1l0-0.2L228.4,130.9z"/>
			<path class="st36" d="M228.8,130.3v-2.6l0-0.1l0-0.1l0.1-0.1l0.1-0.1l0.1-0.1l0.1-0.1l0.1,0l0.1,0h14.4l0.1,0l0.1,0l0.1,0.1
				l0.1,0.1l0.1,0.1l0.1,0.1l0,0.1l0,0.1v2.6l0,0.1l0,0.1l-0.1,0.1l-0.1,0.1l-0.1,0.1l-0.1,0.1l-0.1,0l-0.1,0h-14.4l-0.1,0l-0.1,0
				l-0.1-0.1l-0.1-0.1l-0.1-0.1l-0.1-0.1l0-0.1L228.8,130.3z"/>
			<path class="st36" d="M229.2,129.8v-2l0-0.1l0-0.1l0-0.1l0.1-0.1l0.1-0.1l0.1,0l0.1,0l0.1,0h11.5l0.1,0l0.1,0l0.1,0l0.1,0.1
				l0.1,0.1l0,0.1l0,0.1l0,0.1v2l0,0.1l0,0.1l0,0.1l-0.1,0.1l-0.1,0.1l-0.1,0.1l-0.1,0l-0.1,0h-11.5l-0.1,0l-0.1,0l-0.1-0.1
				l-0.1-0.1l-0.1-0.1l0-0.1l0-0.1L229.2,129.8z"/>
		</g>
	</g>
	<path class="st37" d="M216.1,146.9v-18.2c0-2.6,2.2-4.8,4.8-4.8h102.5c2.6,0,4.8,2.2,4.8,4.8v18.2c0,2.6-2.2,4.8-4.8,4.8H220.9
		C218.3,151.7,216.1,149.6,216.1,146.9"/>
	<path class="st38" d="M216.1,146.9v-18.2c0-2.6,2.2-4.8,4.8-4.8h102.5c2.6,0,4.8,2.2,4.8,4.8v18.2c0,2.6-2.2,4.8-4.8,4.8H220.9
		C218.3,151.7,216.1,149.6,216.1,146.9"/>
	<text transform="matrix(1 0 0 1 314.3105 315.0201)" class="st1 st2">OH</text>
	<text transform="matrix(1 0 0 1 286.0313 314.9532)" class="st1 st2">OH</text>
	<text transform="matrix(1 0 0 1 257.5112 315.007)" class="st1 st2">O</text>
	<text transform="matrix(1 0 0 1 226.1514 315.0201)" class="st1 st2">OH</text>
	<path d="M318.3,324.1l-0.8,0l0-7.5l0.8,0L318.3,324.1z"/>
	<path d="M290,323.9l-0.8,0l0-7.3l0.8,0L290,323.9z"/>
	<path d="M261.5,324.1l-0.8,0l0-7.5l0.8,0L261.5,324.1z"/>
	<path d="M230.2,323.9l-0.8,0l0-7.3l0.8,0L230.2,323.9z"/>
	<g>
		<defs>
			<polygon id="SVGID_5_" points="215.9,346.8 215.9,328.8 216,327.9 216.3,327 216.7,326.2 217.3,325.5 218,324.9 218.8,324.5 
				219.7,324.2 220.7,324.1 322.9,324.1 323.9,324.2 324.8,324.5 325.6,324.9 326.3,325.5 326.9,326.2 327.4,327 327.6,327.9 
				327.7,328.8 327.7,346.8 327.6,347.8 327.4,348.7 326.9,349.5 326.3,350.2 325.6,350.8 324.8,351.2 323.9,351.5 322.9,351.6 
				220.7,351.6 219.7,351.5 218.8,351.2 218,350.8 217.3,350.2 216.7,349.5 216.3,348.7 216,347.8 			"/>
		</defs>
		<clipPath id="SVGID_6_">
			<use xlink:href="#SVGID_5_"  style="overflow:visible;"/>
		</clipPath>
		<g class="st40">
			<path class="st6" d="M215.8,346.9v-18.2l0.1-1l0.3-0.9l0.4-0.8l0.6-0.7l0.7-0.6l0.8-0.4l0.9-0.3l1-0.1h102.5l1,0.1l0.9,0.3
				l0.8,0.4l0.7,0.6l0.6,0.7l0.4,0.8l0.3,0.9l0.1,1v18.2l-0.1,1l-0.3,0.9l-0.4,0.8l-0.6,0.7l-0.7,0.6l-0.8,0.4l-0.9,0.3l-1,0.1
				H220.6l-1-0.1l-0.9-0.3l-0.8-0.4l-0.7-0.6l-0.6-0.7l-0.4-0.8l-0.3-0.9L215.8,346.9z"/>
			<path class="st7" d="M216.2,346.4v-17.6l0.1-0.9l0.3-0.9l0.4-0.8l0.6-0.7l0.7-0.6l0.8-0.4l0.9-0.3l0.9-0.1h99.6l0.9,0.1l0.9,0.3
				l0.8,0.4l0.7,0.6l0.6,0.7l0.4,0.8l0.3,0.9l0.1,0.9v17.6l-0.1,0.9l-0.3,0.9l-0.4,0.8l-0.6,0.7l-0.7,0.6l-0.8,0.4l-0.9,0.3
				l-0.9,0.1h-99.6l-0.9-0.1l-0.9-0.3l-0.8-0.4l-0.7-0.6L217,349l-0.4-0.8l-0.3-0.9L216.2,346.4z"/>
			<path class="st8" d="M216.6,345.8v-17.1l0.1-0.9l0.3-0.8l0.4-0.8l0.6-0.7l0.7-0.6l0.8-0.4l0.8-0.3l0.9-0.1h96.6l0.9,0.1l0.8,0.3
				l0.8,0.4l0.7,0.6l0.6,0.7l0.4,0.8l0.3,0.8l0.1,0.9v17.1l-0.1,0.9l-0.3,0.8l-0.4,0.8L321,349l-0.7,0.6l-0.8,0.4l-0.8,0.3l-0.9,0.1
				h-96.6l-0.9-0.1l-0.8-0.3l-0.8-0.4l-0.7-0.6l-0.6-0.7l-0.4-0.8l-0.3-0.8L216.6,345.8z"/>
			<path class="st9" d="M217,345.2v-16.6l0.1-0.9l0.3-0.8l0.4-0.7l0.5-0.6l0.6-0.5l0.7-0.4l0.8-0.3l0.9-0.1h93.7l0.9,0.1l0.8,0.3
				l0.7,0.4l0.6,0.5l0.5,0.6l0.4,0.7l0.3,0.8l0.1,0.9v16.6l-0.1,0.9l-0.3,0.8l-0.4,0.7l-0.5,0.6l-0.6,0.5l-0.7,0.4l-0.8,0.3
				l-0.9,0.1h-93.7l-0.9-0.1l-0.8-0.3l-0.7-0.4l-0.6-0.5l-0.5-0.6l-0.4-0.7l-0.3-0.8L217,345.2z"/>
			<path class="st10" d="M217.4,344.7v-16.1l0.1-0.9l0.2-0.8l0.4-0.7l0.5-0.6l0.6-0.5l0.7-0.4l0.8-0.2l0.9-0.1h90.8l0.9,0.1l0.8,0.2
				l0.7,0.4l0.6,0.5l0.5,0.6l0.4,0.7l0.2,0.8l0.1,0.9v16.1l-0.1,0.9l-0.2,0.8l-0.4,0.7l-0.5,0.6l-0.6,0.5l-0.7,0.4l-0.8,0.2
				l-0.9,0.1h-90.8l-0.9-0.1l-0.8-0.2l-0.7-0.4l-0.6-0.5l-0.5-0.6l-0.4-0.7l-0.2-0.8L217.4,344.7z"/>
			<path class="st11" d="M217.9,344.1v-15.6l0.1-0.8l0.2-0.8l0.4-0.7l0.5-0.6l0.6-0.5l0.7-0.4l0.8-0.2l0.8-0.1h87.8l0.8,0.1l0.8,0.2
				l0.7,0.4l0.6,0.5l0.5,0.6l0.4,0.7l0.2,0.8l0.1,0.8v15.6l-0.1,0.8l-0.2,0.8l-0.4,0.7l-0.5,0.6l-0.6,0.5l-0.7,0.4l-0.8,0.2
				l-0.8,0.1H222l-0.8-0.1l-0.8-0.2l-0.7-0.4l-0.6-0.5l-0.5-0.6l-0.4-0.7L218,345L217.9,344.1z"/>
			<path class="st12" d="M218.3,343.6v-15l0.1-0.8l0.2-0.7l0.4-0.7l0.5-0.6l0.6-0.5l0.7-0.4l0.7-0.2l0.8-0.1h84.9l0.8,0.1l0.7,0.2
				l0.7,0.4l0.6,0.5l0.5,0.6l0.4,0.7l0.2,0.7l0.1,0.8v15l-0.1,0.8l-0.2,0.7l-0.4,0.7l-0.5,0.6l-0.6,0.5l-0.7,0.4l-0.7,0.2l-0.8,0.1
				h-84.9l-0.8-0.1l-0.7-0.2l-0.7-0.4l-0.6-0.5l-0.5-0.6l-0.4-0.7l-0.2-0.7L218.3,343.6z"/>
			<path class="st13" d="M218.7,343v-14.5l0.1-0.8l0.2-0.7l0.4-0.7l0.5-0.6l0.6-0.5l0.7-0.4l0.7-0.2l0.8-0.1h82l0.8,0.1l0.7,0.2
				l0.7,0.4l0.6,0.5l0.5,0.6l0.4,0.7l0.2,0.7l0.1,0.8V343l-0.1,0.8l-0.2,0.7l-0.4,0.7l-0.5,0.6l-0.6,0.5l-0.7,0.4l-0.7,0.2l-0.8,0.1
				h-82l-0.8-0.1l-0.7-0.2l-0.7-0.4l-0.6-0.5l-0.5-0.6l-0.4-0.7l-0.2-0.7L218.7,343z"/>
			<path class="st14" d="M219.1,342.5v-14l0.1-0.7l0.2-0.7l0.3-0.6l0.5-0.5l0.5-0.5l0.6-0.3l0.7-0.2l0.7-0.1h79l0.7,0.1l0.7,0.2
				l0.6,0.3l0.5,0.5l0.5,0.5l0.3,0.6l0.2,0.7l0.1,0.7v14l-0.1,0.7l-0.2,0.7l-0.3,0.6l-0.5,0.5l-0.5,0.5l-0.6,0.3l-0.7,0.2l-0.7,0.1
				h-79l-0.7-0.1l-0.7-0.2l-0.6-0.3l-0.5-0.5l-0.5-0.5l-0.3-0.6l-0.2-0.7L219.1,342.5z"/>
			<path class="st15" d="M219.6,341.9v-13.5l0.1-0.7l0.2-0.7l0.3-0.6l0.4-0.5l0.5-0.4l0.6-0.3l0.7-0.2l0.7-0.1h76.1l0.7,0.1l0.7,0.2
				l0.6,0.3l0.5,0.4l0.4,0.5l0.3,0.6l0.2,0.7l0.1,0.7v13.5l-0.1,0.7l-0.2,0.7l-0.3,0.6l-0.4,0.5l-0.5,0.4l-0.6,0.3l-0.7,0.2
				l-0.7,0.1h-76.1l-0.7-0.1l-0.7-0.2l-0.6-0.3l-0.5-0.4l-0.4-0.5l-0.3-0.6l-0.2-0.7L219.6,341.9z"/>
			<path class="st16" d="M220,341.4v-13l0.1-0.7l0.2-0.6l0.3-0.6l0.4-0.5l0.5-0.4l0.6-0.3l0.6-0.2l0.7-0.1h73.1l0.7,0.1l0.6,0.2
				l0.6,0.3l0.5,0.4l0.4,0.5l0.3,0.6l0.2,0.6l0.1,0.7v13l-0.1,0.7l-0.2,0.6l-0.3,0.6l-0.4,0.5l-0.5,0.4l-0.6,0.3l-0.6,0.2l-0.7,0.1
				h-73.1l-0.7-0.1l-0.6-0.2l-0.6-0.3l-0.5-0.4l-0.4-0.5l-0.3-0.6l-0.2-0.6L220,341.4z"/>
			<path class="st17" d="M220.4,340.8v-12.4l0.1-0.7l0.2-0.6l0.3-0.6l0.4-0.5l0.5-0.4l0.6-0.3l0.6-0.2l0.7-0.1h70.2l0.7,0.1l0.6,0.2
				l0.6,0.3l0.5,0.4l0.4,0.5l0.3,0.6l0.2,0.6l0.1,0.7v12.4l-0.1,0.7l-0.2,0.6l-0.3,0.6l-0.4,0.5l-0.5,0.4l-0.6,0.3l-0.6,0.2
				l-0.7,0.1h-70.2L223,344l-0.6-0.2l-0.6-0.3l-0.5-0.4l-0.4-0.5l-0.3-0.6l-0.2-0.6L220.4,340.8z"/>
			<path class="st18" d="M220.8,340.3v-11.9l0.1-0.6l0.2-0.6l0.3-0.5l0.4-0.5l0.5-0.4l0.5-0.3l0.6-0.2l0.6-0.1h67.3l0.6,0.1l0.6,0.2
				l0.5,0.3l0.5,0.4l0.4,0.5l0.3,0.5l0.2,0.6l0.1,0.6v11.9l-0.1,0.6l-0.2,0.6l-0.3,0.5l-0.4,0.5l-0.5,0.4l-0.5,0.3l-0.6,0.2
				l-0.6,0.1H224l-0.6-0.1l-0.6-0.2l-0.5-0.3l-0.5-0.4l-0.4-0.5l-0.3-0.5l-0.2-0.6L220.8,340.3z"/>
			<path class="st19" d="M221.3,339.7v-11.4l0.1-0.6l0.2-0.6l0.3-0.5l0.4-0.4l0.4-0.4l0.5-0.3l0.6-0.2l0.6-0.1h64.3l0.6,0.1l0.6,0.2
				l0.5,0.3l0.4,0.4l0.4,0.4l0.3,0.5l0.2,0.6l0.1,0.6v11.4l-0.1,0.6l-0.2,0.6l-0.3,0.5l-0.4,0.4l-0.4,0.4l-0.5,0.3l-0.6,0.2
				l-0.6,0.1h-64.3l-0.6-0.1l-0.6-0.2l-0.5-0.3l-0.4-0.4l-0.4-0.4l-0.3-0.5l-0.2-0.6L221.3,339.7z"/>
			<path class="st20" d="M221.7,339.2v-10.9l0.1-0.6l0.2-0.5l0.3-0.5l0.4-0.4l0.4-0.4l0.5-0.3l0.5-0.2l0.6-0.1h61.4l0.6,0.1l0.5,0.2
				l0.5,0.3l0.4,0.4l0.4,0.4l0.3,0.5l0.2,0.5l0.1,0.6v10.9l-0.1,0.6l-0.2,0.5l-0.3,0.5l-0.4,0.4l-0.4,0.4l-0.5,0.3l-0.5,0.2
				l-0.6,0.1h-61.4L224,342l-0.5-0.2l-0.5-0.3l-0.4-0.4l-0.4-0.4l-0.3-0.5l-0.2-0.5L221.7,339.2z"/>
			<path class="st21" d="M222.1,338.6v-10.4l0.1-0.6l0.2-0.5l0.3-0.5l0.3-0.4l0.4-0.3l0.5-0.3l0.5-0.2l0.6-0.1h58.5l0.6,0.1l0.5,0.2
				l0.5,0.3l0.4,0.3l0.3,0.4l0.3,0.5l0.2,0.5l0.1,0.6v10.4l-0.1,0.6l-0.2,0.5l-0.3,0.5l-0.3,0.4l-0.4,0.3l-0.5,0.3l-0.5,0.2
				l-0.6,0.1h-58.5l-0.6-0.1l-0.5-0.2l-0.5-0.3l-0.4-0.3l-0.3-0.4l-0.3-0.5l-0.2-0.5L222.1,338.6z"/>
			<path class="st22" d="M222.5,338.1v-9.8l0.1-0.5l0.2-0.5l0.2-0.4l0.3-0.4l0.4-0.3l0.4-0.2l0.5-0.2l0.5-0.1h55.5l0.5,0.1l0.5,0.2
				l0.4,0.2l0.4,0.3l0.3,0.4l0.2,0.4l0.2,0.5l0.1,0.5v9.8l-0.1,0.5l-0.2,0.5l-0.2,0.4l-0.3,0.4l-0.4,0.3l-0.4,0.2l-0.5,0.2l-0.5,0.1
				h-55.5l-0.5-0.1l-0.5-0.2l-0.4-0.2l-0.4-0.3l-0.3-0.4l-0.2-0.4l-0.2-0.5L222.5,338.1z"/>
			<path class="st23" d="M222.9,337.5v-9.3l0.1-0.5l0.1-0.5l0.2-0.4l0.3-0.4l0.4-0.3l0.4-0.2l0.5-0.1l0.5,0H278l0.5,0l0.5,0.1
				l0.4,0.2l0.4,0.3l0.3,0.4l0.2,0.4l0.1,0.5l0,0.5v9.3l0,0.5l-0.1,0.5l-0.2,0.4l-0.3,0.4l-0.4,0.3l-0.4,0.2l-0.5,0.1l-0.5,0h-52.6
				l-0.5,0l-0.5-0.1l-0.4-0.2l-0.4-0.3l-0.3-0.4l-0.2-0.4L223,338L222.9,337.5z"/>
			<path class="st24" d="M223.4,337v-8.8l0-0.5l0.1-0.4l0.2-0.4l0.3-0.3l0.3-0.3l0.4-0.2l0.4-0.1l0.5,0h49.7l0.5,0l0.4,0.1l0.4,0.2
				l0.3,0.3l0.3,0.3l0.2,0.4l0.1,0.4l0,0.5v8.8l0,0.5l-0.1,0.4l-0.2,0.4l-0.3,0.3l-0.3,0.3l-0.4,0.2l-0.4,0.1l-0.5,0h-49.7l-0.5,0
				l-0.4-0.1l-0.4-0.2l-0.3-0.3l-0.3-0.3l-0.2-0.4l-0.1-0.4L223.4,337z"/>
			<path class="st25" d="M223.8,336.4v-8.3l0-0.4l0.1-0.4l0.2-0.4l0.3-0.3l0.3-0.3l0.4-0.2l0.4-0.1l0.4,0h46.7l0.4,0l0.4,0.1
				l0.4,0.2l0.3,0.3l0.3,0.3l0.2,0.4l0.1,0.4l0,0.4v8.3l0,0.4l-0.1,0.4l-0.2,0.4l-0.3,0.3l-0.3,0.3l-0.4,0.2l-0.4,0.1l-0.4,0H226
				l-0.4,0l-0.4-0.1l-0.4-0.2l-0.3-0.3l-0.3-0.3l-0.2-0.4l-0.1-0.4L223.8,336.4z"/>
			<path class="st26" d="M224.2,335.8v-7.8l0-0.4l0.1-0.4l0.2-0.3l0.3-0.3l0.3-0.3l0.3-0.2l0.4-0.1l0.4,0H270l0.4,0l0.4,0.1l0.3,0.2
				l0.3,0.3l0.3,0.3l0.2,0.3l0.1,0.4l0,0.4v7.8l0,0.4l-0.1,0.4l-0.2,0.3l-0.3,0.3l-0.3,0.3l-0.3,0.2l-0.4,0.1l-0.4,0h-43.8l-0.4,0
				l-0.4-0.1l-0.3-0.2l-0.3-0.3l-0.3-0.3l-0.2-0.3l-0.1-0.4L224.2,335.8z"/>
			<path class="st27" d="M224.6,335.3v-7.2l0-0.4l0.1-0.4l0.2-0.3l0.2-0.3l0.3-0.2l0.3-0.2l0.4-0.1l0.4,0h40.8l0.4,0l0.4,0.1
				l0.3,0.2l0.3,0.2l0.2,0.3l0.2,0.3l0.1,0.4l0,0.4v7.2l0,0.4l-0.1,0.4l-0.2,0.3l-0.2,0.3l-0.3,0.2l-0.3,0.2l-0.4,0.1l-0.4,0h-40.8
				l-0.4,0l-0.4-0.1l-0.3-0.2l-0.3-0.2l-0.2-0.3l-0.2-0.3l-0.1-0.4L224.6,335.3z"/>
			<path class="st28" d="M225.1,334.7V328l0-0.4l0.1-0.3l0.2-0.3l0.2-0.3l0.3-0.2l0.3-0.2l0.3-0.1l0.4,0h37.9l0.4,0l0.3,0.1l0.3,0.2
				l0.3,0.2l0.2,0.3l0.2,0.3l0.1,0.3l0,0.4v6.7l0,0.4l-0.1,0.3l-0.2,0.3L266,336l-0.3,0.2l-0.3,0.2l-0.3,0.1l-0.4,0h-37.9l-0.4,0
				l-0.3-0.1l-0.3-0.2l-0.3-0.2l-0.2-0.3l-0.2-0.3l-0.1-0.3L225.1,334.7z"/>
			<path class="st29" d="M225.5,334.2V328l0-0.3l0.1-0.3l0.2-0.3l0.2-0.2l0.2-0.2l0.3-0.2l0.3-0.1l0.3,0h35l0.3,0l0.3,0.1l0.3,0.2
				l0.2,0.2l0.2,0.2l0.2,0.3l0.1,0.3l0,0.3v6.2l0,0.3l-0.1,0.3l-0.2,0.3l-0.2,0.2l-0.2,0.2l-0.3,0.2l-0.3,0.1l-0.3,0h-35l-0.3,0
				l-0.3-0.1l-0.3-0.2l-0.2-0.2l-0.2-0.2l-0.2-0.3l-0.1-0.3L225.5,334.2z"/>
			<path class="st30" d="M225.9,333.6V328l0-0.3l0.1-0.3l0.1-0.3l0.2-0.2l0.2-0.2l0.3-0.1l0.3-0.1l0.3,0h32l0.3,0l0.3,0.1l0.3,0.1
				l0.2,0.2l0.2,0.2l0.1,0.3l0.1,0.3l0,0.3v5.7l0,0.3l-0.1,0.3l-0.1,0.3l-0.2,0.2l-0.2,0.2L260,335l-0.3,0.1l-0.3,0h-32l-0.3,0
				l-0.3-0.1l-0.3-0.1l-0.2-0.2l-0.2-0.2l-0.1-0.3l-0.1-0.3L225.9,333.6z"/>
			<path class="st31" d="M226.3,333.1v-5.2l0-0.3l0.1-0.3l0.1-0.2l0.2-0.2l0.2-0.2l0.2-0.1l0.3-0.1l0.3,0h29.1l0.3,0l0.3,0.1
				l0.2,0.1l0.2,0.2l0.2,0.2l0.1,0.2l0.1,0.3l0,0.3v5.2l0,0.3l-0.1,0.3l-0.1,0.2l-0.2,0.2l-0.2,0.2l-0.2,0.1l-0.3,0.1l-0.3,0h-29.1
				l-0.3,0l-0.3-0.1l-0.2-0.1l-0.2-0.2l-0.2-0.2l-0.1-0.2l-0.1-0.3L226.3,333.1z"/>
			<path class="st32" d="M226.7,332.5v-4.6l0-0.2l0.1-0.2l0.1-0.2l0.1-0.2l0.2-0.1l0.2-0.1l0.2-0.1l0.2,0h26.2l0.2,0l0.2,0.1
				l0.2,0.1l0.2,0.1l0.1,0.2l0.1,0.2l0.1,0.2l0,0.2v4.6l0,0.2l-0.1,0.2l-0.1,0.2l-0.1,0.2l-0.2,0.1l-0.2,0.1l-0.2,0.1l-0.2,0H228
				l-0.2,0l-0.2-0.1l-0.2-0.1l-0.2-0.1l-0.1-0.2l-0.1-0.2l-0.1-0.2L226.7,332.5z"/>
			<path class="st33" d="M227.2,332v-4.1l0-0.2l0.1-0.2l0.1-0.2l0.1-0.2l0.2-0.1l0.2-0.1l0.2-0.1l0.2,0h23.2l0.2,0l0.2,0.1l0.2,0.1
				l0.2,0.1l0.1,0.2l0.1,0.2l0.1,0.2l0,0.2v4.1l0,0.2l-0.1,0.2l-0.1,0.2l-0.1,0.2l-0.2,0.1l-0.2,0.1l-0.2,0.1l-0.2,0h-23.2l-0.2,0
				l-0.2-0.1l-0.2-0.1l-0.2-0.1l-0.1-0.2l-0.1-0.2l-0.1-0.2L227.2,332z"/>
			<path class="st34" d="M227.6,331.4v-3.6l0-0.2l0.1-0.2l0.1-0.2l0.1-0.1l0.1-0.1l0.2-0.1l0.2-0.1l0.2,0h20.3l0.2,0l0.2,0.1
				l0.2,0.1l0.1,0.1l0.1,0.1l0.1,0.2l0.1,0.2l0,0.2v3.6l0,0.2l-0.1,0.2l-0.1,0.2l-0.1,0.1l-0.1,0.1l-0.2,0.1l-0.2,0.1l-0.2,0h-20.3
				l-0.2,0l-0.2-0.1l-0.2-0.1l-0.1-0.1l-0.1-0.1l-0.1-0.2l-0.1-0.2L227.6,331.4z"/>
			<path class="st35" d="M228,330.9v-3.1l0-0.2l0-0.2l0.1-0.1l0.1-0.1l0.1-0.1l0.1-0.1l0.2,0l0.2,0h17.4l0.2,0l0.2,0l0.1,0.1
				l0.1,0.1l0.1,0.1l0.1,0.1l0,0.2l0,0.2v3.1l0,0.2l0,0.2l-0.1,0.1l-0.1,0.1l-0.1,0.1l-0.1,0.1l-0.2,0l-0.2,0h-17.4l-0.2,0l-0.2,0
				l-0.1-0.1l-0.1-0.1l-0.1-0.1l-0.1-0.1l0-0.2L228,330.9z"/>
			<path class="st36" d="M228.4,330.3v-2.6l0-0.1l0-0.1l0.1-0.1l0.1-0.1l0.1-0.1l0.1-0.1l0.1,0l0.1,0h14.4l0.1,0l0.1,0l0.1,0.1
				l0.1,0.1l0.1,0.1l0.1,0.1l0,0.1l0,0.1v2.6l0,0.1l0,0.1l-0.1,0.1l-0.1,0.1l-0.1,0.1l-0.1,0.1l-0.1,0l-0.1,0h-14.4l-0.1,0l-0.1,0
				l-0.1-0.1l-0.1-0.1l-0.1-0.1l-0.1-0.1l0-0.1L228.4,330.3z"/>
			<path class="st36" d="M228.9,329.8v-2l0-0.1l0-0.1l0.1-0.1l0.1-0.1l0.1-0.1l0.1,0l0.1,0l0.1,0h11.5l0.1,0l0.1,0l0.1,0l0.1,0.1
				l0.1,0.1l0,0.1l0,0.1l0,0.1v2l0,0.1l0,0.1l0,0.1l-0.1,0.1l-0.1,0.1l-0.1,0l-0.1,0l-0.1,0h-11.5l-0.1,0l-0.1,0l-0.1,0l-0.1-0.1
				l-0.1-0.1l-0.1-0.1l0-0.1L228.9,329.8z"/>
		</g>
	</g>
	<path class="st37" d="M215.8,346.9v-18.2c0-2.6,2.2-4.8,4.8-4.8h102.5c2.6,0,4.8,2.2,4.8,4.8v18.2c0,2.6-2.2,4.8-4.8,4.8H220.6
		C217.9,351.7,215.8,349.6,215.8,346.9"/>
	<path class="st38" d="M215.8,346.9v-18.2c0-2.6,2.2-4.8,4.8-4.8h102.5c2.6,0,4.8,2.2,4.8,4.8v18.2c0,2.6-2.2,4.8-4.8,4.8H220.6
		C217.9,351.7,215.8,349.6,215.8,346.9"/>
	<text transform="matrix(1 0 0 1 257.021 295.4474)" class="st1 st2">Si</text>
	<text transform="matrix(1 0 0 1 281.5513 253.007)" class="st1 st2">NH</text>
	<text transform="matrix(1 0 0 1 295.0313 255.0734)" class="st1 st4">2</text>
	<path d="M272.6,270.4l0.8,0.5l-12.1,7.2l-0.8-0.5L272.6,270.4z"/>
	<path d="M272.4,256.3l0.8,0.5l0.2,14l-0.8-0.5L272.4,256.3z"/>
	<path d="M279.8,252l0.4,0.7l-6.9,4.1l-0.8-0.5L279.8,252z"/>
	<path d="M260.6,277.5l0.8,0.5l0.1,9.2l-0.8,0L260.6,277.5z"/>
	<path d="M261.6,306.8l-0.8,0l0-9.7l0.8,0L261.6,306.8z"/>
	<text transform="matrix(1 0 0 1 146.4912 150.8331)" class="st1 st41">-EtOH</text>
	<text transform="matrix(1 0 0 1 277.9712 193.3273)" class="st1 st41">-H</text>
	<text transform="matrix(1 0 0 1 290.6372 195.9274)" class="st1 st42">2</text>
	<text transform="matrix(1 0 0 1 295.6431 193.3273)" class="st1 st41">O</text>
	<path d="M137.2,339h63.1v0.8h-63.1V339z"/>
	<path d="M130.3,339.4l8-2.1c0,0-1,1.2-1,2.1c0,0.9,1,2.1,1,2.1L130.3,339.4L130.3,339.4"/>
	<path class="st3" d="M130.3,339.4l8-2.1c0,0-1,1.2-1,2.1c0,0.9,1,2.1,1,2.1L130.3,339.4L130.3,339.4"/>
	<text transform="matrix(1 0 0 1 102.4443 315.1271)" class="st1 st2">O</text>
	<text transform="matrix(1 0 0 1 74.1641 315.0602)" class="st1 st2">O</text>
	<text transform="matrix(1 0 0 1 45.644 315.1134)" class="st1 st2">O</text>
	<text transform="matrix(1 0 0 1 14.2842 315.1271)" class="st1 st2">O</text>
	<path d="M106.4,324.2l-0.8,0l0-7.5l0.8,0L106.4,324.2z"/>
	<path d="M78.2,324l-0.8,0l0-7.3l0.8,0L78.2,324z"/>
	<path d="M49.6,324.2l-0.8,0l0-7.5l0.8,0L49.6,324.2z"/>
	<path d="M18.3,324l-0.8,0l0-7.3l0.8,0L18.3,324z"/>
	<g>
		<defs>
			<polygon id="SVGID_7_" points="4,346.9 4,328.9 4.1,328 4.4,327.1 4.8,326.3 5.4,325.6 6.1,325 6.9,324.6 7.8,324.3 8.8,324.2 
				111.1,324.2 112,324.3 112.9,324.6 113.8,325 114.5,325.6 115,326.3 115.5,327.1 115.8,328 115.9,328.9 115.9,346.9 115.8,347.9 
				115.5,348.8 115,349.6 114.5,350.3 113.8,350.9 112.9,351.3 112,351.6 111.1,351.7 8.8,351.7 7.8,351.6 6.9,351.3 6.1,350.9 
				5.4,350.3 4.8,349.6 4.4,348.8 4.1,347.9 			"/>
		</defs>
		<clipPath id="SVGID_8_">
			<use xlink:href="#SVGID_7_"  style="overflow:visible;"/>
		</clipPath>
		<g class="st43">
			<path class="st6" d="M3.9,347v-18.2l0.1-1l0.3-0.9l0.4-0.8l0.6-0.7l0.7-0.6l0.8-0.4l0.9-0.3l1-0.1h102.5l1,0.1l0.9,0.3l0.8,0.4
				l0.7,0.6l0.6,0.7l0.4,0.8l0.3,0.9l0.1,1V347l-0.1,1l-0.3,0.9l-0.4,0.8l-0.6,0.7l-0.7,0.6l-0.8,0.4l-0.9,0.3l-1,0.1H8.7l-1-0.1
				l-0.9-0.3L6,351l-0.7-0.6l-0.6-0.7l-0.4-0.8L4,348L3.9,347z"/>
			<path class="st7" d="M4.3,346.5v-17.6l0.1-0.9l0.3-0.9l0.4-0.8l0.6-0.7l0.7-0.6l0.8-0.4l0.9-0.3l0.9-0.1h99.6l0.9,0.1l0.9,0.3
				l0.8,0.4l0.7,0.6l0.6,0.7l0.4,0.8l0.3,0.9l0.1,0.9v17.6l-0.1,0.9l-0.3,0.9l-0.4,0.8l-0.6,0.7l-0.7,0.6l-0.8,0.4l-0.9,0.3
				l-0.9,0.1H9L8,351l-0.9-0.3l-0.8-0.4l-0.7-0.6l-0.6-0.7l-0.4-0.8l-0.3-0.9L4.3,346.5z"/>
			<path class="st8" d="M4.7,345.9v-17.1l0.1-0.9l0.3-0.8l0.4-0.8l0.6-0.7l0.7-0.6l0.8-0.4l0.8-0.3l0.9-0.1h96.6l0.9,0.1l0.8,0.3
				l0.8,0.4l0.7,0.6l0.6,0.7l0.4,0.8l0.3,0.8l0.1,0.9v17.1l-0.1,0.9l-0.3,0.8l-0.4,0.8l-0.6,0.7l-0.7,0.6l-0.8,0.4l-0.8,0.3
				l-0.9,0.1H9.3l-0.9-0.1l-0.8-0.3l-0.8-0.4l-0.7-0.6l-0.6-0.7l-0.4-0.8l-0.3-0.8L4.7,345.9z"/>
			<path class="st9" d="M5.2,345.4v-16.6l0.1-0.9l0.3-0.8l0.4-0.7l0.5-0.6l0.6-0.5l0.7-0.4l0.8-0.3l0.9-0.1h93.7l0.9,0.1l0.8,0.3
				l0.7,0.4l0.7,0.5l0.5,0.6l0.4,0.7l0.3,0.8l0.1,0.9v16.6l-0.1,0.9l-0.3,0.8l-0.4,0.7l-0.5,0.6l-0.7,0.5l-0.7,0.4l-0.8,0.3
				l-0.9,0.1H9.5l-0.9-0.1l-0.8-0.3L7.1,349l-0.6-0.5l-0.5-0.6l-0.4-0.7l-0.3-0.8L5.2,345.4z"/>
			<path class="st10" d="M5.6,344.8v-16.1l0.1-0.9l0.2-0.8l0.4-0.7l0.5-0.6l0.6-0.5l0.7-0.4l0.8-0.2l0.9-0.1h90.8l0.9,0.1l0.8,0.2
				l0.7,0.4l0.6,0.5l0.5,0.6l0.4,0.7l0.2,0.8l0.1,0.9v16.1l-0.1,0.9l-0.2,0.8l-0.4,0.7l-0.5,0.6l-0.6,0.5l-0.7,0.4l-0.8,0.2
				l-0.9,0.1H9.8L9,349l-0.8-0.2l-0.7-0.4l-0.6-0.5l-0.5-0.6l-0.4-0.7l-0.2-0.8L5.6,344.8z"/>
			<path class="st11" d="M6,344.2v-15.6l0.1-0.8l0.2-0.8l0.4-0.7l0.5-0.6l0.6-0.5l0.7-0.4l0.8-0.2l0.8-0.1h87.8l0.8,0.1l0.8,0.2
				l0.7,0.4l0.6,0.5l0.5,0.6l0.4,0.7l0.2,0.8l0.1,0.8v15.6l-0.1,0.8l-0.2,0.8l-0.4,0.7l-0.5,0.6l-0.6,0.5l-0.7,0.4l-0.8,0.2
				l-0.8,0.1H10.1l-0.8-0.1L8.5,348l-0.7-0.4l-0.6-0.5l-0.5-0.6l-0.4-0.7l-0.2-0.8L6,344.2z"/>
			<path class="st12" d="M6.4,343.7v-15l0.1-0.8l0.2-0.7l0.4-0.7l0.5-0.6l0.6-0.5l0.7-0.4l0.7-0.2l0.8-0.1h84.9l0.8,0.1l0.7,0.2
				l0.7,0.4l0.6,0.5l0.5,0.6l0.4,0.7l0.2,0.7l0.1,0.8v15l-0.1,0.8l-0.2,0.7l-0.4,0.7l-0.5,0.6l-0.6,0.5l-0.7,0.4l-0.7,0.2l-0.8,0.1
				H10.4l-0.8-0.1l-0.7-0.2L8.2,347l-0.6-0.5l-0.5-0.6l-0.4-0.7l-0.2-0.7L6.4,343.7z"/>
			<path class="st13" d="M6.8,343.1v-14.5l0.1-0.8l0.2-0.7l0.4-0.7l0.5-0.6l0.6-0.5l0.7-0.4l0.7-0.2l0.8-0.1h82l0.8,0.1l0.7,0.2
				l0.7,0.4l0.6,0.5l0.5,0.6l0.4,0.7l0.2,0.7l0.1,0.8v14.5l-0.1,0.8l-0.2,0.7l-0.4,0.7l-0.5,0.6l-0.6,0.5l-0.7,0.4l-0.7,0.2
				l-0.8,0.1h-82l-0.8-0.1l-0.7-0.2l-0.7-0.4L8,345.9l-0.5-0.6l-0.4-0.7l-0.2-0.7L6.8,343.1z"/>
			<path class="st14" d="M7.3,342.6v-14l0.1-0.7l0.2-0.7l0.3-0.6l0.5-0.5l0.5-0.5l0.6-0.3l0.7-0.2l0.7-0.1h79l0.7,0.1l0.7,0.2
				l0.6,0.3l0.5,0.5l0.5,0.5l0.3,0.6l0.2,0.7l0.1,0.7v14l-0.1,0.7l-0.2,0.7l-0.3,0.6l-0.5,0.5l-0.5,0.5l-0.6,0.3l-0.7,0.2l-0.7,0.1
				H11l-0.7-0.1L9.5,346l-0.6-0.3l-0.5-0.5l-0.5-0.5L7.6,344l-0.2-0.7L7.3,342.6z"/>
			<path class="st15" d="M7.7,342v-13.5l0.1-0.7l0.2-0.7l0.3-0.6l0.4-0.5l0.5-0.4l0.6-0.3l0.7-0.2l0.7-0.1h76.1l0.7,0.1l0.7,0.2
				l0.6,0.3l0.5,0.4l0.4,0.5l0.3,0.6l0.2,0.7l0.1,0.7V342l-0.1,0.7l-0.2,0.7l-0.3,0.6l-0.4,0.5l-0.5,0.4l-0.6,0.3l-0.7,0.2l-0.7,0.1
				H11.3l-0.7-0.1l-0.7-0.2L9.3,345l-0.5-0.4L8.3,344L8,343.4l-0.2-0.7L7.7,342z"/>
			<path class="st16" d="M8.1,341.5v-13l0.1-0.7l0.2-0.6l0.3-0.6l0.4-0.5l0.5-0.4l0.6-0.3l0.6-0.2l0.7-0.1h73.1l0.7,0.1l0.6,0.2
				l0.6,0.3l0.5,0.4l0.4,0.5l0.3,0.6l0.2,0.6l0.1,0.7v13l-0.1,0.7l-0.2,0.6l-0.3,0.6l-0.4,0.5l-0.5,0.4l-0.6,0.3l-0.6,0.2l-0.7,0.1
				H11.5l-0.7-0.1l-0.6-0.2l-0.6-0.3l-0.5-0.4l-0.4-0.5l-0.3-0.6l-0.2-0.6L8.1,341.5z"/>
			<path class="st17" d="M8.5,340.9v-12.4l0.1-0.7l0.2-0.6l0.3-0.6l0.4-0.5l0.5-0.4l0.6-0.3l0.6-0.2l0.7-0.1H82l0.7,0.1l0.6,0.2
				l0.6,0.3l0.5,0.4l0.4,0.5l0.3,0.6l0.2,0.6l0.1,0.7v12.4l-0.1,0.7l-0.2,0.6l-0.3,0.6l-0.4,0.5l-0.5,0.4l-0.6,0.3l-0.6,0.2
				l-0.7,0.1H11.8l-0.7-0.1l-0.6-0.2l-0.6-0.3l-0.5-0.4l-0.4-0.5l-0.3-0.6l-0.2-0.6L8.5,340.9z"/>
			<path class="st18" d="M9,340.4v-11.9l0.1-0.6l0.2-0.6l0.3-0.5l0.4-0.5l0.5-0.4l0.5-0.3l0.6-0.2l0.6-0.1h67.3l0.6,0.1l0.6,0.2
				l0.5,0.3l0.5,0.4l0.4,0.5l0.3,0.5l0.2,0.6l0.1,0.6v11.9l-0.1,0.6l-0.2,0.6l-0.3,0.5l-0.4,0.5l-0.5,0.4l-0.5,0.3l-0.6,0.2
				l-0.6,0.1H12.1l-0.6-0.1l-0.6-0.2l-0.5-0.3l-0.5-0.4l-0.4-0.5l-0.3-0.5L9,341L9,340.4z"/>
			<path class="st19" d="M9.4,339.8v-11.4l0.1-0.6l0.2-0.6l0.3-0.5l0.4-0.4l0.4-0.4l0.5-0.3l0.6-0.2l0.6-0.1h64.3l0.6,0.1l0.6,0.2
				l0.5,0.3l0.4,0.4l0.4,0.4l0.3,0.5l0.2,0.6l0.1,0.6v11.4l-0.1,0.6l-0.2,0.6l-0.3,0.5l-0.4,0.4l-0.4,0.4l-0.5,0.3l-0.6,0.2
				l-0.6,0.1H12.4l-0.6-0.1l-0.6-0.2l-0.5-0.3l-0.4-0.4l-0.4-0.4L9.6,341l-0.2-0.6L9.4,339.8z"/>
			<path class="st20" d="M9.8,339.3v-10.9l0.1-0.6l0.2-0.5l0.3-0.5l0.4-0.4l0.4-0.4l0.5-0.3l0.5-0.2l0.6-0.1h61.4l0.6,0.1l0.5,0.2
				l0.5,0.3l0.4,0.4l0.4,0.4l0.3,0.5l0.2,0.5l0.1,0.6v10.9l-0.1,0.6l-0.2,0.5l-0.3,0.5l-0.4,0.4l-0.4,0.4l-0.5,0.3l-0.5,0.2
				l-0.6,0.1H12.7l-0.6-0.1l-0.5-0.2l-0.5-0.3l-0.4-0.4l-0.4-0.4l-0.3-0.5l-0.2-0.5L9.8,339.3z"/>
			<path class="st21" d="M10.2,338.7v-10.4l0.1-0.6l0.2-0.5l0.3-0.5l0.3-0.4l0.4-0.3l0.5-0.3l0.5-0.2l0.6-0.1h58.5l0.6,0.1l0.5,0.2
				l0.5,0.3l0.4,0.3l0.3,0.4l0.3,0.5l0.2,0.5l0.1,0.6v10.4l-0.1,0.6l-0.2,0.5l-0.3,0.5l-0.3,0.4L73,341l-0.5,0.3l-0.5,0.2l-0.6,0.1
				H13l-0.6-0.1l-0.5-0.2l-0.5-0.3l-0.4-0.3l-0.3-0.4l-0.3-0.5l-0.2-0.5L10.2,338.7z"/>
			<path class="st22" d="M10.7,338.2v-9.8l0.1-0.5l0.2-0.5l0.2-0.4l0.3-0.4l0.4-0.3l0.4-0.2l0.5-0.2l0.5-0.1h55.5l0.5,0.1l0.5,0.2
				l0.4,0.2l0.4,0.3l0.3,0.4l0.2,0.4l0.2,0.5l0.1,0.5v9.8l-0.1,0.5l-0.2,0.5l-0.2,0.4l-0.3,0.4l-0.4,0.3l-0.4,0.2l-0.5,0.2l-0.5,0.1
				H13.3l-0.5-0.1l-0.5-0.2l-0.4-0.2l-0.4-0.3l-0.3-0.4l-0.2-0.4l-0.2-0.5L10.7,338.2z"/>
			<path class="st23" d="M11.1,337.6v-9.3l0.1-0.5l0.1-0.5l0.2-0.4l0.3-0.4l0.4-0.3l0.4-0.2l0.5-0.1l0.5,0h52.6l0.5,0l0.5,0.1
				l0.4,0.2l0.4,0.3l0.3,0.4l0.2,0.4l0.1,0.5l0,0.5v9.3l0,0.5l-0.1,0.5l-0.2,0.4l-0.3,0.4l-0.4,0.3l-0.4,0.2l-0.5,0.1l-0.5,0.1H13.5
				L13,340l-0.5-0.1l-0.4-0.2l-0.4-0.3l-0.3-0.4l-0.2-0.4l-0.1-0.5L11.1,337.6z"/>
			<path class="st24" d="M11.5,337.1v-8.8l0-0.5l0.1-0.4l0.2-0.4l0.3-0.3l0.3-0.3l0.4-0.2l0.4-0.1l0.5,0h49.7l0.5,0l0.4,0.1l0.4,0.2
				l0.3,0.3l0.3,0.3l0.2,0.4l0.1,0.4l0,0.5v8.8l0,0.5l-0.1,0.4l-0.2,0.4l-0.3,0.3l-0.3,0.3l-0.4,0.2l-0.4,0.1l-0.5,0H13.8l-0.5,0
				l-0.4-0.1l-0.4-0.2l-0.3-0.3l-0.3-0.3l-0.2-0.4l-0.1-0.4L11.5,337.1z"/>
			<path class="st25" d="M11.9,336.5v-8.3l0-0.4l0.1-0.4l0.2-0.4l0.3-0.3l0.3-0.3l0.4-0.2l0.4-0.1l0.4,0h46.7l0.4,0l0.4,0.1l0.4,0.2
				l0.3,0.3l0.3,0.3l0.2,0.4l0.1,0.4l0,0.4v8.3l0,0.4l-0.1,0.4l-0.2,0.4l-0.3,0.3l-0.3,0.3l-0.4,0.2l-0.4,0.1l-0.4,0H14.1l-0.4,0
				l-0.4-0.1l-0.4-0.2l-0.3-0.3l-0.3-0.3l-0.2-0.4l-0.1-0.4L11.9,336.5z"/>
			<path class="st26" d="M12.3,336v-7.8l0-0.4l0.1-0.4l0.2-0.3l0.3-0.3l0.3-0.3l0.3-0.2l0.4-0.1l0.4,0h43.8l0.4,0l0.4,0.1l0.3,0.2
				l0.3,0.3l0.3,0.3l0.2,0.3l0.1,0.4l0,0.4v7.8l0,0.4l-0.1,0.4l-0.2,0.3l-0.3,0.3l-0.3,0.3l-0.3,0.2l-0.4,0.1l-0.4,0H14.4l-0.4,0
				l-0.4-0.1l-0.3-0.2l-0.3-0.3l-0.3-0.3l-0.2-0.3l-0.1-0.4L12.3,336z"/>
			<path class="st27" d="M12.8,335.4v-7.2l0-0.4l0.1-0.4l0.2-0.3l0.2-0.3l0.3-0.2l0.3-0.2l0.4-0.1l0.4,0h40.8l0.4,0l0.4,0.1l0.3,0.2
				l0.3,0.2l0.2,0.3l0.2,0.3l0.1,0.4l0,0.4v7.2l0,0.4l-0.1,0.4l-0.2,0.3l-0.2,0.3l-0.3,0.2l-0.3,0.2l-0.4,0.1l-0.4,0H14.7l-0.4,0
				l-0.4-0.1l-0.3-0.2l-0.3-0.2l-0.2-0.3l-0.2-0.3l-0.1-0.4L12.8,335.4z"/>
			<path class="st28" d="M13.2,334.8v-6.7l0-0.4l0.1-0.3l0.2-0.3l0.2-0.3l0.3-0.2l0.3-0.2l0.3-0.1l0.4,0h37.9l0.4,0l0.3,0.1l0.3,0.2
				l0.3,0.2l0.2,0.3l0.2,0.3l0.1,0.3l0,0.4v6.7l0,0.4l-0.1,0.3l-0.2,0.3l-0.2,0.3l-0.3,0.2l-0.3,0.2l-0.3,0.1l-0.4,0H15l-0.4,0
				l-0.3-0.1l-0.3-0.2l-0.3-0.2l-0.2-0.3l-0.2-0.3l-0.1-0.3L13.2,334.8z"/>
			<path class="st29" d="M13.6,334.3v-6.2l0-0.3l0.1-0.3l0.2-0.3l0.2-0.2l0.2-0.2l0.3-0.2l0.3-0.1l0.3,0h35l0.3,0l0.3,0.1l0.3,0.2
				l0.2,0.2l0.2,0.2l0.2,0.3l0.1,0.3l0,0.3v6.2l0,0.3l-0.1,0.3l-0.2,0.3l-0.2,0.2l-0.2,0.2l-0.3,0.2l-0.3,0.1l-0.3,0h-35l-0.3,0
				l-0.3-0.1l-0.3-0.2l-0.2-0.2l-0.2-0.2l-0.2-0.3l-0.1-0.3L13.6,334.3z"/>
			<path class="st30" d="M14,333.7v-5.7l0-0.3l0.1-0.3l0.1-0.3l0.2-0.2l0.2-0.2l0.3-0.1l0.3-0.1l0.3,0h32l0.3,0l0.3,0.1l0.3,0.1
				l0.2,0.2l0.2,0.2l0.1,0.3l0.1,0.3l0,0.3v5.7l0,0.3l-0.1,0.3l-0.1,0.3l-0.2,0.2l-0.2,0.2l-0.3,0.1l-0.3,0.1l-0.3,0h-32l-0.3,0
				l-0.3-0.1l-0.3-0.1l-0.2-0.2l-0.2-0.2l-0.1-0.3l-0.1-0.3L14,333.7z"/>
			<path class="st31" d="M14.5,333.2V328l0-0.3l0.1-0.3l0.1-0.2l0.2-0.2l0.2-0.2l0.2-0.1l0.3-0.1l0.3,0h29.1l0.3,0l0.3,0.1l0.2,0.1
				l0.2,0.2l0.2,0.2l0.1,0.2l0.1,0.3l0,0.3v5.2l0,0.3l-0.1,0.3l-0.1,0.2l-0.2,0.2l-0.2,0.2l-0.2,0.1l-0.3,0.1l-0.3,0H15.8l-0.3,0
				l-0.3-0.1l-0.2-0.1l-0.2-0.2l-0.2-0.2l-0.1-0.2l-0.1-0.3L14.5,333.2z"/>
			<path class="st32" d="M14.9,332.6V328l0-0.2l0.1-0.2l0.1-0.2l0.1-0.2l0.2-0.1l0.2-0.1l0.2-0.1l0.2,0h26.2l0.2,0l0.2,0.1L43,327
				l0.2,0.1l0.1,0.2l0.1,0.2l0.1,0.2l0,0.2v4.6l0,0.2l-0.1,0.2l-0.1,0.2l-0.1,0.2l-0.2,0.1l-0.2,0.1l-0.2,0.1l-0.2,0H16.1l-0.2,0
				l-0.2-0.1l-0.2-0.1l-0.2-0.1l-0.1-0.2l-0.1-0.2l-0.1-0.2L14.9,332.6z"/>
			<path class="st33" d="M15.3,332.1V328l0-0.2l0.1-0.2l0.1-0.2l0.1-0.2l0.2-0.1L16,327l0.2-0.1l0.2,0h23.2l0.2,0L40,327l0.2,0.1
				l0.2,0.1l0.1,0.2l0.1,0.2l0.1,0.2l0,0.2v4.1l0,0.2l-0.1,0.2l-0.1,0.2l-0.1,0.2l-0.2,0.1l-0.2,0.1l-0.2,0.1l-0.2,0H16.4l-0.2,0
				l-0.2-0.1l-0.2-0.1l-0.2-0.1l-0.1-0.2l-0.1-0.2l-0.1-0.2L15.3,332.1z"/>
			<path class="st34" d="M15.7,331.5v-3.6l0-0.2l0.1-0.2l0.1-0.2l0.1-0.1l0.1-0.1l0.2-0.1l0.2-0.1l0.2,0H37l0.2,0l0.2,0.1l0.2,0.1
				l0.1,0.1l0.1,0.1l0.1,0.2l0.1,0.2l0,0.2v3.6l0,0.2l-0.1,0.2l-0.1,0.2l-0.1,0.1l-0.1,0.1l-0.2,0.1l-0.2,0.1l-0.2,0H16.7l-0.2,0
				l-0.2-0.1l-0.2-0.1l-0.1-0.1l-0.1-0.1l-0.1-0.2l-0.1-0.2L15.7,331.5z"/>
			<path class="st35" d="M16.1,331v-3.1l0-0.2l0-0.2l0.1-0.1l0.1-0.1l0.1-0.1l0.1-0.1l0.2,0l0.2,0h17.4l0.2,0l0.2,0l0.1,0.1l0.1,0.1
				l0.1,0.1l0.1,0.1l0,0.2l0,0.2v3.1l0,0.2l0,0.2l-0.1,0.1l-0.1,0.1l-0.1,0.1l-0.1,0.1l-0.2,0l-0.2,0H17l-0.2,0l-0.2,0l-0.1-0.1
				l-0.1-0.1l-0.1-0.1l-0.1-0.1l0-0.2L16.1,331z"/>
			<path class="st36" d="M16.6,330.4v-2.6l0-0.1l0-0.1l0.1-0.1l0.1-0.1l0.1-0.1l0.1-0.1l0.1,0l0.1,0h14.4l0.1,0l0.1,0l0.1,0.1
				l0.1,0.1l0.1,0.1l0.1,0.1l0,0.1l0,0.1v2.6l0,0.1l0,0.1l-0.1,0.1l-0.1,0.1L32,331l-0.1,0.1l-0.1,0l-0.1,0H17.2l-0.1,0l-0.1,0
				l-0.1-0.1l-0.1-0.1l-0.1-0.1l-0.1-0.1l0-0.1L16.6,330.4z"/>
			<path class="st36" d="M17,329.9v-2l0-0.1l0-0.1l0-0.1l0.1-0.1l0.1-0.1l0.1,0l0.1,0l0.1,0H29l0.1,0l0.1,0l0.1,0l0.1,0.1l0.1,0.1
				l0,0.1l0,0.1l0,0.1v2l0,0.1l0,0.1l0,0.1l-0.1,0.1l-0.1,0.1l-0.1,0.1l-0.1,0l-0.1,0H17.5l-0.1,0l-0.1,0l-0.1-0.1l-0.1-0.1
				l-0.1-0.1l0-0.1l0-0.1L17,329.9z"/>
		</g>
	</g>
	<path class="st37" d="M3.9,347v-18.2c0-2.6,2.2-4.8,4.8-4.8h102.5c2.6,0,4.8,2.2,4.8,4.8V347c0,2.6-2.2,4.8-4.8,4.8H8.7
		C6,351.8,3.9,349.7,3.9,347"/>
	<path class="st38" d="M3.9,347v-18.2c0-2.6,2.2-4.8,4.8-4.8h102.5c2.6,0,4.8,2.2,4.8,4.8V347c0,2.6-2.2,4.8-4.8,4.8H8.7
		C6,351.8,3.9,349.7,3.9,347"/>
	<text transform="matrix(1 0 0 1 28.0386 295.5533)" class="st1 st2">Si</text>
	<text transform="matrix(1 0 0 1 55.6841 253.1134)" class="st1 st2">NH</text>
	<text transform="matrix(1 0 0 1 69.1646 255.1803)" class="st1 st4">2</text>
	<path d="M46.8,270.5l0.8,0.5l-12.1,7.2l-0.8-0.5L46.8,270.5z"/>
	<path d="M46.6,256.4l0.8,0.5l0.2,14l-0.8-0.5L46.6,256.4z"/>
	<path d="M53.9,252.1l0.4,0.7l-6.9,4.1l-0.8-0.5L53.9,252.1z"/>
	<path d="M34.7,277.7l0.8,0.5l0.1,9.3l-0.8,0L34.7,277.7z"/>
	<text transform="matrix(1 0 0 1 58.4175 289.7003)" class="st1 st2">O</text>
	<path d="M57.2,286.7l0.2,0.8l-19.7,4.3l-0.2-0.8L57.2,286.7z"/>
	<path d="M21.3,308.2l-0.6-0.5l9-10.1l0.6,0.5L21.3,308.2z"/>
	<path d="M46.9,307.4l-0.7,0.5l-8.5-11.8l0.7-0.5L46.9,307.4z"/>
	<text transform="matrix(1 0 0 1 87.3149 295.713)" class="st1 st2">Si</text>
	<text transform="matrix(1 0 0 1 111.8442 253.2731)" class="st1 st2">NH</text>
	<text transform="matrix(1 0 0 1 125.3242 255.34)" class="st1 st4">2</text>
	<path d="M102.9,270.6l0.8,0.5l-12.1,7.2l-0.8-0.5L102.9,270.6z"/>
	<path d="M102.7,256.6l0.8,0.5l0.2,14l-0.8-0.5L102.7,256.6z"/>
	<path d="M110.1,252.2l0.4,0.7l-6.9,4.1l-0.8-0.5L110.1,252.2z"/>
	<path d="M90.9,277.8l0.8,0.5l0.1,9.2l-0.8,0L90.9,277.8z"/>
	<path d="M80.8,307.8l-0.7-0.5l7.5-10.7l0.7,0.5L80.8,307.8z"/>
	<path d="M103.6,307.5l-0.6,0.5l-7.8-10.4l0.6-0.5L103.6,307.5z"/>
	<path d="M66.8,287.4l0.2-0.8l19.5,4l-0.2,0.8L66.8,287.4z"/>
	<text transform="matrix(1 0 0 1 273.084 295.4474)" class="st1 st2">OH</text>
	<text transform="matrix(1 0 0 1 234.5171 295.4474)" class="st1 st2">HO</text>
	<path d="M272,291.4v0.8h-5.8v-0.8H272z"/>
	<path d="M249.6,292.2v-0.8h6.3v0.8H249.6z"/>
	<text transform="matrix(1 0 0 1 159.064 337.1471)" class="st1 st41">Full</text>
	<text transform="matrix(1 0 0 1 267.0313 99.5934)" class="st1 st2">H</text>
	<text transform="matrix(1 0 0 1 257.2354 67.9269)" class="st1 st2">Si</text>
	<text transform="matrix(1 0 0 1 234.0239 70.1803)" class="st1 st2">HO</text>
	<text transform="matrix(1 0 0 1 257.937 84.2203)" class="st1 st2">O</text>
	<text transform="matrix(1 0 0 1 273.377 70.1803)" class="st1 st2">OH</text>
	<text transform="matrix(1 0 0 1 281.7642 27.7267)" class="st1 st2">NH</text>
	<text transform="matrix(1 0 0 1 295.2441 29.7936)" class="st1 st4">2</text>
	<path d="M249.1,66.3l-0.1-0.8l7.1-0.9l0.1,0.8L249.1,66.3z"/>
	<path d="M261.9,76l-0.8,0l-0.1-6.4l0.8,0L261.9,76z"/>
	<path d="M272.4,65.5l-0.1,0.8l-6-0.9l0.1-0.8L272.4,65.5z"/>
	<path d="M272.9,45.1l0.8,0.5l-12.1,7.2l-0.8-0.5L272.9,45.1z"/>
	<path d="M272.7,31.1l0.8,0.5l0.2,14l-0.8-0.5L272.7,31.1z"/>
	<path d="M280,26.7l0.4,0.7l-6.9,4.1l-0.8-0.5L280,26.7z"/>
	<path d="M260.8,52.3l0.8,0.5l0.1,6.9l-0.8,0L260.8,52.3z"/>
	<path d="M267.1,100.9l0.7,0.4l-3.6,6.2l-0.7-0.4L267.1,100.9z"/>
	<text transform="matrix(1 0 0 1 2.8311 18.4332)" class="st44 st45">a</text>
	<text transform="matrix(1 0 0 1 214.6841 18.4332)" class="st44 st45">b</text>
	<text transform="matrix(1 0 0 1 2.8174 240.4332)" class="st44 st45">d</text>
	<text transform="matrix(1 0 0 1 214.6841 240.4332)" class="st44 st45">c</text>
	<text transform="matrix(1 0 0 1 249.2842 99.6866)" class="st1 st2">H</text>
	<path d="M259.5,107.1l-0.7,0.4l-1.2-2l0.7-0.4L259.5,107.1z"/>
	<path d="M257.2,103.1l-0.7,0.4l-1.2-2l0.7-0.4L257.2,103.1z"/>
	<path d="M255.7,91.6l-0.7-0.4l3.6-6.2l0.7,0.4L255.7,91.6z"/>
	<path d="M268.1,91.1l-0.7,0.4l-1.2-2l0.7-0.4L268.1,91.1z"/>
	<path d="M265.8,87.1l-0.7,0.4l-1.2-2l0.7-0.4L265.8,87.1z"/>
	<text transform="matrix(1 0 0 1 142.4243 351.733)" class="st1 st41">Monolayer</text>
	<path class="st0" d="z"/>
</g>
</svg>
