<?xml version="1.0" encoding="utf-8"?>
<!-- Generator: Adobe Illustrator 24.0.2, SVG Export Plug-In . SVG Version: 6.00 Build 0)  -->
<svg version="1.1" id="Ebene_1" xmlns="http://www.w3.org/2000/svg" xmlns:xlink="http://www.w3.org/1999/xlink" x="0px" y="0px"
	 viewBox="0 0 431 236" style="enable-background:new 0 0 431 236;" xml:space="preserve">
<style type="text/css">
	.st0{fill:none;}
	.st1{font-family:'ArialMT';}
	.st2{font-size:13.3333px;}
	.st3{font-size:10px;}
	.st4{clip-path:url(#SVGID_2_);}
	.st5{fill:#9DFEAB;}
	.st6{fill:#A3FFB0;}
	.st7{fill:#A9FFB5;}
	.st8{fill:#AFFFBA;}
	.st9{fill:#B4FFBF;}
	.st10{fill:#B9FFC3;}
	.st11{fill:#BFFFC8;}
	.st12{fill:#C3FFCC;}
	.st13{fill:#C8FFD0;}
	.st14{fill:#CDFFD4;}
	.st15{fill:#D1FFD8;}
	.st16{fill:#D5FFDB;}
	.st17{fill:#D9FFDF;}
	.st18{fill:#DDFFE2;}
	.st19{fill:#E0FFE5;}
	.st20{fill:#E4FFE8;}
	.st21{fill:#E7FFEA;}
	.st22{fill:#EAFFED;}
	.st23{fill:#EDFFEF;}
	.st24{fill:#EFFFF2;}
	.st25{fill:#F2FFF4;}
	.st26{fill:#F4FFF6;}
	.st27{fill:#F6FFF7;}
	.st28{fill:#F8FFF9;}
	.st29{fill:#F9FFFA;}
	.st30{fill:#FBFFFB;}
	.st31{fill:#FCFFFD;}
	.st32{fill:#FDFFFD;}
	.st33{fill:#FEFFFE;}
	.st34{fill:#FFFFFF;}
	.st35{fill:none;stroke:#9DFEAB;stroke-width:6.666670e-02;stroke-miterlimit:10;}
	.st36{fill:none;stroke:#9DFEAB;stroke-width:0.8;stroke-miterlimit:10;}
	.st37{fill:none;stroke:#000000;stroke-width:0.8;stroke-miterlimit:10;stroke-dasharray:3.3333;}
	.st38{clip-path:url(#SVGID_4_);}
	.st39{fill:none;stroke:#000000;stroke-width:6.666670e-02;stroke-miterlimit:10;}
	.st40{clip-path:url(#SVGID_6_);}
	.st41{clip-path:url(#SVGID_8_);}
	.st42{fill:none;stroke:#F5BE5C;stroke-width:0.8;stroke-miterlimit:10;}
	.st43{fill:#F5BE5C;}
	.st44{fill:none;stroke:#F5BE5C;stroke-width:6.666670e-02;stroke-miterlimit:10;}
</style>
<g>
	<path class="st0" d="z"/>
	<text transform="matrix(1 0 0 1 254.04 166.507)" class="st1 st2">F</text>
	<path d="M258.5,184h-0.8v-15.4h0.8V184z"/>
	<text transform="matrix(1 0 0 1 214.9072 166.6803)" class="st1 st2">OH</text>
	<path d="M219.7,168.9h0.8v16.5h-0.8V168.9z"/>
	<text transform="matrix(1 0 0 1 178.5332 166.653)" class="st1 st2">F</text>
	<path d="M182.2,168.7h0.8v18.1h-0.8V168.7z"/>
	<text transform="matrix(1 0 0 1 139.9731 166.653)" class="st1 st2">NH</text>
	<text transform="matrix(1 0 0 1 159.231 169.587)" class="st1 st3">x</text>
	<path d="M144.4,168.9h0.8v14.3h-0.8V168.9z"/>
	<text transform="matrix(1 0 0 1 291.8672 166.6271)" class="st1 st2">F</text>
	<path d="M295.5,168.7h0.8V186h-0.8V168.7z"/>
	<text transform="matrix(1 0 0 1 102.707 166.653)" class="st1 st2">F</text>
	<path d="M106.4,168.7h0.8v14.9h-0.8V168.7z"/>
	<text transform="matrix(1 0 0 1 328.7998 166.507)" class="st1 st2">NH</text>
	<text transform="matrix(1 0 0 1 348.0576 169.4401)" class="st1 st3">x</text>
	<path d="M333.2,168.7h0.8V185h-0.8V168.7z"/>
	<g>
		<defs>
			<polygon id="SVGID_1_" points="69.8,227.1 69.8,187.6 69.9,186.6 70.2,185.7 70.6,184.9 71.2,184.2 71.9,183.6 72.7,183.2 
				73.6,182.9 74.6,182.8 365.6,182.8 366.6,182.9 367.5,183.2 368.3,183.6 369,184.2 369.6,184.9 370,185.7 370.3,186.6 
				370.4,187.6 370.4,227.1 370.3,228.1 370,229 369.6,229.8 369,230.5 368.3,231.1 367.5,231.5 366.6,231.8 365.6,231.9 
				74.6,231.9 73.6,231.8 72.7,231.5 71.9,231.1 71.2,230.5 70.6,229.8 70.2,229 69.9,228.1 			"/>
		</defs>
		<clipPath id="SVGID_2_">
			<use xlink:href="#SVGID_1_"  style="overflow:visible;"/>
		</clipPath>
		<g class="st4">
			<path class="st5" d="M69.6,227.2v-39.8l0.1-1l0.3-0.9l0.4-0.8l0.6-0.7l0.7-0.6l0.8-0.4l0.9-0.3l1-0.1h291.3l1,0.1l0.9,0.3
				l0.8,0.4l0.7,0.6l0.6,0.7l0.4,0.8l0.3,0.9l0.1,1v39.8l-0.1,1l-0.3,0.9l-0.4,0.8l-0.6,0.7l-0.7,0.6l-0.8,0.4l-0.9,0.3l-1,0.1H74.5
				l-1-0.1l-0.9-0.3l-0.8-0.4l-0.7-0.6l-0.6-0.7l-0.4-0.8l-0.3-0.9L69.6,227.2z"/>
			<path class="st6" d="M70.7,226.1v-38.6l0.1-0.9l0.3-0.9l0.4-0.8l0.6-0.7l0.7-0.6l0.8-0.4l0.9-0.3l0.9-0.1h282.9l1,0.1l0.9,0.3
				l0.8,0.4l0.7,0.6l0.6,0.7l0.4,0.8l0.3,0.9l0.1,0.9v38.6l-0.1,0.9l-0.3,0.9l-0.4,0.8l-0.6,0.7l-0.7,0.6l-0.8,0.4l-0.9,0.3
				l-0.9,0.1H75.4l-1-0.1l-0.9-0.3l-0.8-0.4l-0.7-0.6l-0.6-0.7l-0.4-0.8l-0.3-0.9L70.7,226.1z"/>
			<path class="st7" d="M71.7,225v-37.5l0.1-0.9l0.3-0.8l0.4-0.8l0.6-0.7l0.7-0.6l0.8-0.4l0.8-0.3l0.9-0.1h274.6l0.9,0.1l0.8,0.3
				l0.8,0.4l0.7,0.6l0.6,0.7l0.4,0.8l0.3,0.8l0.1,0.9V225l-0.1,0.9l-0.3,0.8l-0.4,0.8l-0.6,0.7l-0.7,0.6l-0.8,0.4l-0.8,0.3l-0.9,0.1
				H76.3l-0.9-0.1l-0.8-0.3l-0.8-0.4l-0.7-0.6l-0.6-0.7l-0.4-0.8l-0.3-0.8L71.7,225z"/>
			<path class="st8" d="M72.8,223.9v-36.3l0.1-0.9l0.3-0.8l0.4-0.7l0.5-0.6l0.6-0.5l0.7-0.4l0.8-0.3l0.9-0.1h266.2l0.9,0.1l0.8,0.3
				l0.7,0.4l0.6,0.5l0.5,0.6l0.4,0.7l0.3,0.8l0.1,0.9v36.3l-0.1,0.9l-0.3,0.8l-0.4,0.7l-0.5,0.6l-0.6,0.5l-0.7,0.4l-0.8,0.3
				l-0.9,0.1H77.2l-0.9-0.1l-0.8-0.3l-0.7-0.4l-0.6-0.5l-0.5-0.6l-0.4-0.7l-0.3-0.8L72.8,223.9z"/>
			<path class="st9" d="M73.8,222.8v-35.2l0.1-0.9l0.2-0.8l0.4-0.7l0.5-0.6l0.6-0.5l0.7-0.4l0.8-0.2l0.9-0.1h257.9l0.9,0.1l0.8,0.2
				l0.7,0.4l0.6,0.5l0.5,0.6l0.4,0.7l0.2,0.8l0.1,0.9v35.2l-0.1,0.9l-0.2,0.8l-0.4,0.7l-0.5,0.6l-0.6,0.5l-0.7,0.4l-0.8,0.2
				l-0.9,0.1H78.1l-0.9-0.1l-0.8-0.2l-0.7-0.4l-0.6-0.5l-0.5-0.6l-0.4-0.7l-0.2-0.8L73.8,222.8z"/>
			<path class="st10" d="M74.8,221.7v-34.1l0.1-0.8l0.2-0.8l0.4-0.7l0.5-0.6l0.6-0.5l0.7-0.4l0.8-0.2l0.8-0.1h249.5l0.9,0.1l0.8,0.2
				l0.7,0.4l0.6,0.5l0.5,0.6l0.4,0.7l0.2,0.8l0.1,0.8v34.1l-0.1,0.8l-0.2,0.8L332,224l-0.5,0.6l-0.6,0.5l-0.7,0.4l-0.8,0.2l-0.8,0.1
				H79l-0.9-0.1l-0.8-0.2l-0.7-0.4l-0.6-0.5l-0.5-0.6l-0.4-0.7l-0.2-0.8L74.8,221.7z"/>
			<path class="st11" d="M75.9,220.6v-32.9l0.1-0.8l0.2-0.7l0.4-0.7l0.5-0.6l0.6-0.5l0.7-0.4l0.7-0.2l0.8-0.1h241.2l0.8,0.1l0.7,0.2
				l0.7,0.4l0.6,0.5l0.5,0.6l0.4,0.7l0.2,0.7l0.1,0.8v32.9l-0.1,0.8l-0.2,0.7l-0.4,0.7l-0.5,0.6l-0.6,0.5l-0.7,0.4l-0.7,0.2
				l-0.8,0.1H79.9l-0.8-0.1l-0.7-0.2l-0.7-0.4l-0.6-0.5l-0.5-0.6l-0.4-0.7l-0.2-0.7L75.9,220.6z"/>
			<path class="st12" d="M76.9,219.5v-31.8l0.1-0.8l0.2-0.7l0.4-0.7l0.5-0.6l0.6-0.5l0.7-0.4l0.7-0.2l0.8-0.1h232.9l0.8,0.1l0.7,0.2
				l0.7,0.4l0.6,0.5l0.5,0.6l0.4,0.7l0.2,0.7l0.1,0.8v31.8l-0.1,0.8l-0.2,0.7l-0.4,0.7l-0.5,0.6l-0.6,0.5l-0.7,0.4l-0.7,0.2
				l-0.8,0.1H80.8l-0.8-0.1l-0.7-0.2l-0.7-0.4l-0.6-0.5l-0.5-0.6l-0.4-0.7l-0.2-0.7L76.9,219.5z"/>
			<path class="st13" d="M78,218.4v-30.6L78,187l0.2-0.7l0.3-0.6l0.5-0.5l0.5-0.5l0.6-0.3l0.7-0.2l0.7-0.1h224.5l0.8,0.1l0.7,0.2
				l0.6,0.3l0.5,0.5l0.5,0.5l0.3,0.6l0.2,0.7l0.1,0.7v30.6l-0.1,0.7l-0.2,0.7l-0.3,0.6l-0.5,0.5l-0.5,0.5l-0.6,0.3L307,222l-0.7,0.1
				H81.7l-0.8-0.1l-0.7-0.2l-0.6-0.3l-0.5-0.5l-0.5-0.5l-0.3-0.6l-0.2-0.7L78,218.4z"/>
			<path class="st14" d="M79,217.3v-29.5l0.1-0.7l0.2-0.7l0.3-0.6l0.4-0.5l0.5-0.4l0.6-0.3l0.7-0.2l0.7-0.1h216.2l0.7,0.1l0.7,0.2
				l0.6,0.3l0.5,0.4l0.4,0.5l0.3,0.6l0.2,0.7l0.1,0.7v29.5l-0.1,0.7l-0.2,0.7l-0.3,0.6l-0.4,0.5l-0.5,0.4l-0.6,0.3l-0.7,0.2
				l-0.7,0.1H82.6l-0.7-0.1l-0.7-0.2l-0.6-0.3l-0.5-0.4l-0.4-0.5l-0.3-0.6l-0.2-0.7L79,217.3z"/>
			<path class="st15" d="M80.1,216.2v-28.4l0.1-0.7l0.2-0.6l0.3-0.6l0.4-0.5l0.5-0.4l0.6-0.3l0.6-0.2l0.7-0.1h207.8l0.7,0.1l0.6,0.2
				l0.6,0.3l0.5,0.4l0.4,0.5l0.3,0.6l0.2,0.6l0.1,0.7v28.4l-0.1,0.7l-0.2,0.6l-0.3,0.6l-0.4,0.5l-0.5,0.4l-0.6,0.3l-0.6,0.2
				l-0.7,0.1H83.5l-0.7-0.1l-0.6-0.2l-0.6-0.3l-0.5-0.4l-0.4-0.5l-0.3-0.6l-0.2-0.6L80.1,216.2z"/>
			<path class="st16" d="M81.1,215.1v-27.2l0.1-0.7l0.2-0.6l0.3-0.6l0.4-0.5l0.5-0.4l0.6-0.3l0.6-0.2l0.7-0.1h199.5l0.7,0.1l0.6,0.2
				l0.6,0.3l0.5,0.4l0.4,0.5l0.3,0.6l0.2,0.6l0.1,0.7v27.2l-0.1,0.7l-0.2,0.6l-0.3,0.6l-0.4,0.5l-0.5,0.4l-0.6,0.3l-0.6,0.2
				l-0.7,0.1H84.4l-0.7-0.1l-0.6-0.2l-0.6-0.3l-0.5-0.4l-0.4-0.5l-0.3-0.6l-0.2-0.6L81.1,215.1z"/>
			<path class="st17" d="M82.1,214v-26.1l0.1-0.6l0.2-0.6l0.3-0.5l0.4-0.5l0.5-0.4l0.5-0.3l0.6-0.2l0.6-0.1h191.1l0.7,0.1l0.6,0.2
				l0.5,0.3l0.5,0.4l0.4,0.5l0.3,0.5l0.2,0.6l0.1,0.6V214l-0.1,0.6l-0.2,0.6l-0.3,0.5l-0.4,0.5l-0.5,0.4l-0.5,0.3l-0.6,0.2l-0.6,0.1
				H85.3l-0.7-0.1l-0.6-0.2l-0.5-0.3l-0.5-0.4l-0.4-0.5l-0.3-0.5l-0.2-0.6L82.1,214z"/>
			<path class="st18" d="M83.2,212.9v-25l0.1-0.6l0.2-0.6l0.3-0.5l0.4-0.4l0.4-0.4l0.5-0.3l0.6-0.2l0.6-0.1H269l0.6,0.1l0.6,0.2
				l0.5,0.3l0.4,0.4l0.4,0.4l0.3,0.5l0.2,0.6l0.1,0.6v25l-0.1,0.6l-0.2,0.6l-0.3,0.5l-0.4,0.4l-0.4,0.4l-0.5,0.3l-0.6,0.2l-0.6,0.1
				H86.2l-0.6-0.1l-0.6-0.2l-0.5-0.3l-0.4-0.4l-0.4-0.4l-0.3-0.5l-0.2-0.6L83.2,212.9z"/>
			<path class="st19" d="M84.2,211.7v-23.8l0.1-0.6l0.2-0.5l0.3-0.5l0.4-0.4l0.4-0.4l0.5-0.3l0.5-0.2l0.6-0.1h174.5l0.6,0.1l0.5,0.2
				l0.5,0.3l0.4,0.4l0.4,0.4l0.3,0.5l0.2,0.5l0.1,0.6v23.8l-0.1,0.6l-0.2,0.5l-0.3,0.5l-0.4,0.4l-0.4,0.4l-0.5,0.3l-0.5,0.2
				l-0.6,0.1H87.1l-0.6-0.1l-0.5-0.2l-0.5-0.3l-0.4-0.4l-0.4-0.4l-0.3-0.5l-0.2-0.5L84.2,211.7z"/>
			<path class="st20" d="M85.3,210.6V188l0.1-0.6l0.2-0.5l0.3-0.5l0.3-0.4l0.4-0.3l0.5-0.3l0.5-0.2l0.6-0.1h166.1l0.6,0.1l0.5,0.2
				l0.5,0.3l0.4,0.3l0.3,0.4l0.3,0.5l0.2,0.5l0.1,0.6v22.7l-0.1,0.6l-0.2,0.5l-0.3,0.5l-0.3,0.4l-0.4,0.3l-0.5,0.3l-0.5,0.2
				l-0.6,0.1H88l-0.6-0.1l-0.5-0.2l-0.5-0.3l-0.4-0.3l-0.3-0.4l-0.3-0.5l-0.2-0.5L85.3,210.6z"/>
			<path class="st21" d="M86.3,209.5V188l0.1-0.5l0.2-0.5l0.2-0.4l0.3-0.4l0.4-0.3l0.4-0.2l0.5-0.2l0.5-0.1h157.8l0.5,0.1l0.5,0.2
				l0.4,0.2l0.4,0.3l0.3,0.4l0.2,0.4l0.2,0.5l0.1,0.5v21.5l-0.1,0.5l-0.2,0.5l-0.2,0.4l-0.3,0.4l-0.4,0.3l-0.4,0.2l-0.5,0.2
				l-0.5,0.1H88.9l-0.5-0.1l-0.5-0.2l-0.4-0.2l-0.4-0.3l-0.3-0.4l-0.2-0.4l-0.2-0.5L86.3,209.5z"/>
			<path class="st22" d="M87.3,208.4V188l0-0.5l0.1-0.5l0.2-0.4l0.3-0.4l0.4-0.3l0.4-0.2l0.5-0.1l0.5-0.1h149.4l0.5,0.1l0.5,0.1
				l0.4,0.2l0.4,0.3l0.3,0.4l0.2,0.4l0.1,0.5l0.1,0.5v20.4l-0.1,0.5l-0.1,0.5l-0.2,0.4l-0.3,0.4l-0.4,0.3l-0.4,0.2l-0.5,0.1
				l-0.5,0.1H89.8l-0.5-0.1l-0.5-0.1l-0.4-0.2l-0.4-0.3l-0.3-0.4l-0.2-0.4l-0.1-0.5L87.3,208.4z"/>
			<path class="st23" d="M88.4,207.3v-19.3l0-0.5l0.1-0.4l0.2-0.4l0.3-0.3l0.3-0.3l0.4-0.2l0.4-0.1l0.5,0h141.1l0.5,0l0.4,0.1
				l0.4,0.2l0.3,0.3l0.3,0.3l0.2,0.4l0.1,0.4l0,0.5v19.3l0,0.5l-0.1,0.4l-0.2,0.4l-0.3,0.3l-0.3,0.3l-0.4,0.2l-0.4,0.1l-0.5,0H90.7
				l-0.5,0l-0.4-0.1l-0.4-0.2l-0.3-0.3l-0.3-0.3l-0.2-0.4l-0.1-0.4L88.4,207.3z"/>
			<path class="st24" d="M89.4,206.2v-18.1l0-0.4l0.1-0.4l0.2-0.4l0.3-0.3l0.3-0.3l0.4-0.2l0.4-0.1l0.4,0h132.7l0.5,0l0.4,0.1
				l0.4,0.2l0.3,0.3l0.3,0.3l0.2,0.4l0.1,0.4l0,0.4v18.1l0,0.4l-0.1,0.4l-0.2,0.4l-0.3,0.3l-0.3,0.3l-0.4,0.2l-0.4,0.1l-0.4,0H91.6
				l-0.5,0l-0.4-0.1l-0.4-0.2l-0.3-0.3l-0.3-0.3l-0.2-0.4l-0.1-0.4L89.4,206.2z"/>
			<path class="st25" d="M90.5,205.1v-17l0-0.4l0.1-0.4l0.2-0.3l0.3-0.3l0.3-0.3l0.3-0.2l0.4-0.1l0.4,0h124.4l0.4,0l0.4,0.1l0.3,0.2
				l0.3,0.3l0.3,0.3l0.2,0.3l0.1,0.4l0,0.4v17l0,0.4l-0.1,0.4l-0.2,0.3l-0.3,0.3l-0.3,0.3l-0.3,0.2l-0.4,0.1l-0.4,0H92.5l-0.4,0
				l-0.4-0.1l-0.3-0.2l-0.3-0.3l-0.3-0.3l-0.2-0.3l-0.1-0.4L90.5,205.1z"/>
			<path class="st26" d="M91.5,204v-15.8l0-0.4l0.1-0.4l0.2-0.3l0.2-0.3l0.3-0.2l0.3-0.2l0.4-0.1l0.4,0h116.1l0.4,0l0.4,0.1l0.3,0.2
				l0.3,0.2l0.2,0.3l0.2,0.3l0.1,0.4l0,0.4V204l0,0.4l-0.1,0.4l-0.2,0.3l-0.2,0.3l-0.3,0.2l-0.3,0.2l-0.4,0.1l-0.4,0H93.4l-0.4,0
				l-0.4-0.1l-0.3-0.2l-0.3-0.2l-0.2-0.3l-0.2-0.3l-0.1-0.4L91.5,204z"/>
			<path class="st27" d="M92.6,202.9v-14.7l0-0.4l0.1-0.3l0.2-0.3l0.2-0.3l0.3-0.2l0.3-0.2l0.3-0.1l0.4,0H202l0.4,0l0.3,0.1l0.3,0.2
				l0.3,0.2l0.2,0.3l0.2,0.3l0.1,0.3l0,0.4v14.7l0,0.4l-0.1,0.3l-0.2,0.3l-0.2,0.3l-0.3,0.2l-0.3,0.2l-0.3,0.1l-0.4,0H94.3l-0.4,0
				l-0.3-0.1l-0.3-0.2l-0.3-0.2l-0.2-0.3l-0.2-0.3l-0.1-0.3L92.6,202.9z"/>
			<path class="st28" d="M93.6,201.8v-13.6l0-0.3l0.1-0.3l0.2-0.3l0.2-0.2l0.2-0.2l0.3-0.2l0.3-0.1l0.3,0h99.4l0.3,0l0.3,0.1
				l0.3,0.2l0.2,0.2l0.2,0.2l0.2,0.3l0.1,0.3l0,0.3v13.6l0,0.3l-0.1,0.3l-0.2,0.3l-0.2,0.2l-0.2,0.2l-0.3,0.2l-0.3,0.1l-0.3,0H95.3
				l-0.3,0l-0.3-0.1l-0.3-0.2l-0.2-0.2l-0.2-0.2l-0.2-0.3l-0.1-0.3L93.6,201.8z"/>
			<path class="st29" d="M94.6,200.7v-12.4l0-0.3l0.1-0.3l0.1-0.3l0.2-0.2l0.2-0.2l0.3-0.1l0.3-0.1l0.3,0h91l0.3,0l0.3,0.1l0.3,0.1
				l0.2,0.2l0.2,0.2l0.1,0.3l0.1,0.3l0,0.3v12.4l0,0.3l-0.1,0.3l-0.1,0.3l-0.2,0.2l-0.2,0.2l-0.3,0.1l-0.3,0.1l-0.3,0h-91l-0.3,0
				l-0.3-0.1l-0.3-0.1l-0.2-0.2l-0.2-0.2l-0.1-0.3l-0.1-0.3L94.6,200.7z"/>
			<path class="st30" d="M95.7,199.6v-11.3l0-0.3l0.1-0.3l0.1-0.2l0.2-0.2l0.2-0.2l0.2-0.1l0.3-0.1l0.3,0h82.7l0.3,0l0.3,0.1
				l0.2,0.1l0.2,0.2l0.2,0.2l0.1,0.2l0.1,0.3l0,0.3v11.3l0,0.3l-0.1,0.3l-0.1,0.2l-0.2,0.2l-0.2,0.2l-0.2,0.1l-0.3,0.1l-0.3,0H97.1
				l-0.3,0l-0.3-0.1l-0.2-0.1l-0.2-0.2l-0.2-0.2l-0.1-0.2l-0.1-0.3L95.7,199.6z"/>
			<path class="st31" d="M96.7,198.5v-10.1l0-0.2l0.1-0.2l0.1-0.2l0.1-0.2l0.2-0.1l0.2-0.1l0.2-0.1l0.2,0h74.3l0.3,0l0.2,0.1
				l0.2,0.1l0.2,0.1l0.2,0.2l0.1,0.2l0.1,0.2l0,0.2v10.1l0,0.2l-0.1,0.2l-0.1,0.2l-0.2,0.2l-0.2,0.1l-0.2,0.1l-0.2,0.1l-0.2,0H98
				l-0.3,0l-0.2-0.1l-0.2-0.1l-0.2-0.1l-0.1-0.2l-0.1-0.2l-0.1-0.2L96.7,198.5z"/>
			<path class="st32" d="M97.8,197.4v-9l0-0.2l0.1-0.2l0.1-0.2l0.1-0.2l0.2-0.1l0.2-0.1l0.2-0.1l0.2,0h66l0.2,0l0.2,0.1l0.2,0.1
				l0.2,0.1l0.1,0.2l0.1,0.2l0.1,0.2l0,0.2v9l0,0.2l-0.1,0.2l-0.1,0.2l-0.1,0.2l-0.2,0.1l-0.2,0.1l-0.2,0.1l-0.2,0h-66l-0.2,0
				l-0.2-0.1l-0.2-0.1l-0.2-0.1L98,198l-0.1-0.2l-0.1-0.2L97.8,197.4z"/>
			<path class="st33" d="M98.8,196.3v-7.9l0-0.2l0.1-0.2l0.1-0.2l0.1-0.1l0.1-0.1l0.2-0.1l0.2-0.1l0.2,0h57.6l0.2,0l0.2,0.1l0.2,0.1
				l0.1,0.1l0.1,0.1l0.1,0.2l0.1,0.2l0,0.2v7.9l0,0.2l-0.1,0.2l-0.1,0.2l-0.1,0.1l-0.1,0.1l-0.2,0.1l-0.2,0.1l-0.2,0H99.8l-0.2,0
				l-0.2-0.1l-0.2-0.1l-0.1-0.1l-0.1-0.1l-0.1-0.2l-0.1-0.2L98.8,196.3z"/>
			<path class="st34" d="M99.8,195.2v-6.7l0-0.2l0-0.2l0.1-0.1l0.1-0.1l0.1-0.1l0.1-0.1l0.2,0l0.2,0H150l0.2,0l0.2,0l0.1,0.1
				l0.1,0.1l0.1,0.1l0.1,0.1l0,0.2l0,0.2v6.7l0,0.2l0,0.2l-0.1,0.1l-0.1,0.1l-0.1,0.1l-0.1,0.1l-0.2,0l-0.2,0h-49.3l-0.2,0l-0.2,0
				l-0.1-0.1l-0.1-0.1l-0.1-0.1l-0.1-0.1l0-0.2L99.8,195.2z"/>
			<path class="st34" d="M100.9,194.1v-5.6l0-0.1l0-0.1l0.1-0.1l0.1-0.1l0.1-0.1l0.1-0.1l0.1,0l0.1,0h41l0.1,0l0.1,0l0.1,0.1
				l0.1,0.1l0.1,0.1l0.1,0.1l0,0.1l0,0.1v5.6l0,0.1l0,0.1l-0.1,0.1l-0.1,0.1l-0.1,0.1l-0.1,0.1l-0.1,0l-0.1,0h-41l-0.1,0l-0.1,0
				l-0.1-0.1l-0.1-0.1l-0.1-0.1l-0.1-0.1l0-0.1L100.9,194.1z"/>
			<path class="st34" d="M101.9,193v-4.5l0-0.1l0-0.1l0-0.1l0.1-0.1l0.1-0.1l0.1-0.1l0.1,0l0.1,0h32.6l0.1,0l0.1,0l0.1,0.1l0.1,0.1
				l0.1,0.1l0,0.1l0,0.1l0,0.1v4.5l0,0.1l0,0.1l0,0.1l-0.1,0.1l-0.1,0.1l-0.1,0l-0.1,0l-0.1,0h-32.6l-0.1,0l-0.1,0l-0.1,0l-0.1-0.1
				l-0.1-0.1l0-0.1l0-0.1L101.9,193z"/>
		</g>
	</g>
	<path class="st35" d="M69.6,227.2v-39.8c0-2.6,2.2-4.8,4.8-4.8h291.3c2.6,0,4.8,2.2,4.8,4.8v39.8c0,2.6-2.2,4.8-4.8,4.8H74.4
		C71.8,232,69.6,229.9,69.6,227.2"/>
	<path class="st36" d="M69.6,227.2v-39.8c0-2.6,2.2-4.8,4.8-4.8h291.3c2.6,0,4.8,2.2,4.8,4.8v39.8c0,2.6-2.2,4.8-4.8,4.8H74.4
		C71.8,232,69.6,229.9,69.6,227.2"/>
	<text transform="matrix(1 0 0 1 203.7402 210.3873)" class="st1 st2">Si</text>
	<text transform="matrix(1 0 0 1 215.5952 213.3199)" class="st1 st3">3</text>
	<text transform="matrix(1 0 0 1 221.1572 210.3873)" class="st1 st2">N</text>
	<text transform="matrix(1 0 0 1 230.7861 213.3199)" class="st1 st3">4</text>
	<text transform="matrix(1 0 0 1 3.3066 19.1471)" class="st1 st2">H</text>
	<text transform="matrix(1 0 0 1 23.9736 31.3199)" class="st1 st2">O</text>
	<path d="M23.7,22.5l-0.4,0.7l-8.5-4.9l0.4-0.7L23.7,22.5z"/>
	<text transform="matrix(1 0 0 1 45.4536 19.1471)" class="st1 st2">H</text>
	<path d="M43.3,17.5l0.4,0.7l-8.6,5l-0.4-0.7L43.3,17.5z"/>
	<path class="st37" d="M82.5,171.5c0,13,10.6,23.6,23.6,23.6c13,0,23.6-10.6,23.6-23.6c0-13-10.6-23.6-23.6-23.6
		C93.1,147.9,82.5,158.5,82.5,171.5"/>
	<path class="st37" d="M129.9,171.3l27-100.7"/>
	<path class="st37" d="M54.3,66.7l27.8,103.9"/>
	<text transform="matrix(1 0 0 1 102.5122 57.8668)" class="st1 st2">Si</text>
	<path d="M114.8,59.6l0.6-0.6l15.1,15.1l-0.6,0.6L114.8,59.6z"/>
	<path d="M108.7,69.2l-0.8,0l0.1-9l0.8,0L108.7,69.2z"/>
	<path d="M83.8,77.9l-0.6-0.6l19-19l0.6,0.6L83.8,77.9z"/>
	<text transform="matrix(1 0 0 1 104.373 32.6666)" class="st1 st2">F</text>
	<path d="M108,34.7h0.8v11.4H108V34.7z"/>
	<path class="st37" d="M157.2,69.5c3.4-28.4-16.9-54.2-45.3-57.6C83.5,8.5,57.7,28.8,54.3,57.2c-0.4,3.1-0.5,6.3-0.3,9.5"/>
	<g>
		<defs>
			<polygon id="SVGID_3_" points="76,75.2 76,73.7 76.1,72.8 76.3,71.9 76.8,71.1 77.4,70.4 78.1,69.9 78.9,69.4 79.8,69.1 
				80.7,69.1 138.6,69.1 139.6,69.1 140.5,69.4 141.3,69.9 142,70.4 142.6,71.1 143,71.9 143.3,72.8 143.4,73.7 143.4,75.2 
				143.3,76.1 143,77 142.6,77.8 142,78.5 141.3,79.1 140.5,79.5 139.6,79.8 138.6,79.9 80.7,79.9 79.8,79.8 78.9,79.5 78.1,79.1 
				77.4,78.5 76.8,77.8 76.3,77 76.1,76.1 			"/>
		</defs>
		<clipPath id="SVGID_4_">
			<use xlink:href="#SVGID_3_"  style="overflow:visible;"/>
		</clipPath>
		<g class="st38">
			<path class="st5" d="M75.8,75.2v-1.5l0.1-1l0.3-0.9l0.4-0.8l0.6-0.7l0.7-0.6l0.8-0.4l0.9-0.3l1-0.1h58.1l1,0.1l0.9,0.3l0.8,0.4
				l0.7,0.6l0.6,0.7l0.4,0.8l0.3,0.9l0.1,1v1.5l-0.1,1l-0.3,0.9l-0.4,0.8l-0.6,0.7l-0.7,0.6l-0.8,0.4l-0.9,0.3l-1,0.1H80.6l-1-0.1
				l-0.9-0.3l-0.8-0.4l-0.7-0.6l-0.6-0.7l-0.4-0.8l-0.3-0.9L75.8,75.2z"/>
			<path class="st6" d="M76.1,75.1v-1.5l0.1-0.9l0.3-0.9l0.4-0.8l0.6-0.7l0.7-0.6l0.8-0.4l0.9-0.3l0.9-0.1h56.4l0.9,0.1l0.9,0.3
				l0.8,0.4l0.7,0.6L141,71l0.4,0.8l0.3,0.9l0.1,0.9v1.5l-0.1,0.9l-0.3,0.9l-0.4,0.8l-0.6,0.7l-0.7,0.6l-0.8,0.4l-0.9,0.3l-0.9,0.1
				H80.8l-0.9-0.1L79,79.4l-0.8-0.4l-0.7-0.6l-0.6-0.7l-0.4-0.8L76.2,76L76.1,75.1z"/>
			<path class="st7" d="M76.4,74.9v-1.4l0.1-0.9l0.3-0.8l0.4-0.8l0.6-0.7l0.7-0.6l0.8-0.4l0.8-0.3l0.9-0.1h54.8l0.9,0.1l0.8,0.3
				l0.8,0.4l0.7,0.6l0.6,0.7l0.4,0.8l0.3,0.8l0.1,0.9v1.4l-0.1,0.9l-0.3,0.8l-0.4,0.8l-0.6,0.7l-0.7,0.6l-0.8,0.4l-0.8,0.3l-0.9,0.1
				H80.9L80,79.4l-0.8-0.3l-0.8-0.4l-0.7-0.6l-0.6-0.7l-0.4-0.8l-0.3-0.8L76.4,74.9z"/>
			<path class="st8" d="M76.7,74.8v-1.4l0.1-0.9l0.3-0.8l0.4-0.7l0.5-0.7l0.6-0.5l0.7-0.4l0.8-0.3l0.9-0.1h53.1l0.9,0.1l0.8,0.3
				l0.7,0.4l0.6,0.5l0.5,0.7l0.4,0.7l0.3,0.8l0.1,0.9v1.4l-0.1,0.9l-0.3,0.8l-0.4,0.7l-0.5,0.6l-0.6,0.5l-0.7,0.4l-0.8,0.3l-0.9,0.1
				H81l-0.9-0.1l-0.8-0.3l-0.7-0.4l-0.6-0.5l-0.5-0.6L77,76.5l-0.3-0.8L76.7,74.8z"/>
			<path class="st9" d="M76.9,74.7v-1.3l0.1-0.9l0.2-0.8l0.4-0.7l0.5-0.6l0.6-0.5l0.7-0.4l0.8-0.2l0.9-0.1h51.4l0.9,0.1l0.8,0.2
				l0.7,0.4l0.6,0.5l0.5,0.6l0.4,0.7l0.2,0.8l0.1,0.9v1.3l-0.1,0.9l-0.2,0.8l-0.4,0.7l-0.5,0.6l-0.6,0.5l-0.7,0.4l-0.8,0.2l-0.9,0.1
				H81.2l-0.9-0.1l-0.8-0.2l-0.7-0.4l-0.6-0.5l-0.5-0.6l-0.4-0.7L77,75.5L76.9,74.7z"/>
			<path class="st10" d="M77.2,74.5v-1.3l0.1-0.8l0.2-0.8l0.4-0.7l0.5-0.6l0.6-0.5l0.7-0.4l0.8-0.2l0.8-0.1h49.8l0.8,0.1l0.8,0.2
				l0.7,0.4l0.6,0.5l0.5,0.6l0.4,0.7l0.2,0.8l0.1,0.8v1.3l-0.1,0.8l-0.2,0.8l-0.4,0.7l-0.5,0.6l-0.6,0.5l-0.7,0.4l-0.8,0.2l-0.8,0.1
				H81.3l-0.8-0.1l-0.8-0.2L79,77.9l-0.6-0.5l-0.5-0.6l-0.4-0.7l-0.2-0.8L77.2,74.5z"/>
			<path class="st11" d="M77.5,74.4v-1.2l0.1-0.8l0.2-0.7l0.4-0.7l0.5-0.6l0.6-0.5l0.7-0.4l0.7-0.2l0.8-0.1h48.1l0.8,0.1l0.7,0.2
				l0.7,0.4l0.6,0.5l0.5,0.6l0.4,0.7l0.2,0.7l0.1,0.8v1.2l-0.1,0.8l-0.2,0.7l-0.4,0.7l-0.5,0.6l-0.6,0.5l-0.7,0.4l-0.7,0.2l-0.8,0.1
				H81.5l-0.8-0.1l-0.7-0.2l-0.7-0.4l-0.6-0.5l-0.5-0.6L77.8,76l-0.2-0.7L77.5,74.4z"/>
			<path class="st12" d="M77.8,74.3v-1.2l0.1-0.8l0.2-0.7l0.4-0.7l0.5-0.6l0.6-0.5l0.7-0.4l0.7-0.2l0.8-0.1H128l0.8,0.1l0.7,0.2
				l0.7,0.4l0.6,0.5l0.5,0.6l0.4,0.7l0.2,0.7l0.1,0.8v1.2l-0.1,0.8l-0.2,0.7l-0.4,0.7l-0.5,0.6l-0.6,0.5l-0.7,0.4l-0.7,0.2l-0.8,0.1
				H81.6L80.8,78l-0.7-0.2l-0.7-0.4L78.9,77l-0.5-0.6l-0.4-0.7L77.9,75L77.8,74.3z"/>
			<path class="st13" d="M78.1,74.1V73l0.1-0.7l0.2-0.7l0.3-0.6l0.5-0.5l0.5-0.5l0.6-0.3l0.7-0.2l0.7-0.1h44.8l0.7,0.1l0.7,0.2
				l0.6,0.3l0.5,0.5l0.5,0.5l0.3,0.6l0.2,0.7l0.1,0.7v1.2l-0.1,0.7l-0.2,0.7l-0.3,0.6l-0.5,0.5l-0.5,0.5l-0.6,0.3l-0.7,0.2l-0.7,0.1
				H81.8L81,77.8l-0.7-0.2l-0.6-0.3l-0.5-0.5l-0.5-0.5l-0.3-0.6l-0.2-0.7L78.1,74.1z"/>
			<path class="st14" d="M78.3,74v-1.1l0.1-0.7l0.2-0.7l0.3-0.6l0.4-0.5l0.5-0.4l0.6-0.3l0.7-0.2l0.7-0.1H125l0.7,0.1l0.7,0.2
				l0.6,0.3l0.5,0.4l0.4,0.5l0.3,0.6l0.2,0.7l0.1,0.7V74l-0.1,0.7l-0.2,0.7L128,76l-0.4,0.5L127,77l-0.6,0.3l-0.7,0.2l-0.7,0.1H81.9
				l-0.7-0.1l-0.7-0.2L79.9,77l-0.5-0.4L78.9,76l-0.3-0.6l-0.2-0.7L78.3,74z"/>
			<path class="st15" d="M78.6,73.9v-1.1l0.1-0.7l0.2-0.6l0.3-0.6l0.4-0.5l0.5-0.4l0.6-0.3l0.6-0.2l0.7-0.1h41.4l0.7,0.1l0.6,0.2
				l0.6,0.3l0.5,0.4l0.4,0.5l0.3,0.6l0.2,0.6l0.1,0.7v1.1l-0.1,0.7l-0.2,0.6l-0.3,0.6l-0.4,0.5l-0.5,0.4l-0.6,0.3l-0.6,0.2l-0.7,0.1
				H82l-0.7-0.1L80.7,77l-0.6-0.3l-0.5-0.4l-0.4-0.5l-0.3-0.6l-0.2-0.6L78.6,73.9z"/>
			<path class="st16" d="M78.9,73.7v-1L79,72l0.2-0.6l0.3-0.6l0.4-0.5l0.5-0.4l0.6-0.3l0.6-0.2l0.7-0.1H122l0.7,0.1l0.6,0.2l0.6,0.3
				l0.5,0.4l0.4,0.5l0.3,0.6l0.2,0.6l0.1,0.7v1l-0.1,0.7L125,75l-0.3,0.6l-0.4,0.5l-0.5,0.4l-0.6,0.3l-0.6,0.2L122,77H82.2L81.5,77
				l-0.6-0.2l-0.6-0.3l-0.5-0.4l-0.4-0.5L79.1,75L79,74.4L78.9,73.7z"/>
			<path class="st17" d="M79.2,73.6v-1l0.1-0.6l0.2-0.6l0.3-0.5l0.4-0.5l0.5-0.4l0.5-0.3l0.6-0.2l0.6-0.1h38.1l0.6,0.1l0.6,0.2
				l0.5,0.3l0.5,0.4l0.4,0.5l0.3,0.5l0.2,0.6l0.1,0.6v1l-0.1,0.6l-0.2,0.6l-0.3,0.5l-0.4,0.5l-0.5,0.4l-0.5,0.3l-0.6,0.2l-0.6,0.1
				H82.3l-0.6-0.1l-0.6-0.2l-0.5-0.3l-0.5-0.4l-0.4-0.5l-0.3-0.5l-0.2-0.6L79.2,73.6z"/>
			<path class="st18" d="M79.4,73.5v-0.9l0.1-0.6l0.2-0.6l0.3-0.5l0.4-0.4l0.4-0.4l0.5-0.3l0.6-0.2l0.6-0.1h36.5l0.6,0.1l0.6,0.2
				l0.5,0.3l0.4,0.4l0.4,0.4l0.3,0.5l0.2,0.6l0.1,0.6v0.9l-0.1,0.6l-0.2,0.6l-0.3,0.5l-0.4,0.4l-0.4,0.4l-0.5,0.3l-0.6,0.2l-0.6,0.1
				H82.5l-0.6-0.1l-0.6-0.2L80.8,76l-0.4-0.4L80,75.1l-0.3-0.5l-0.2-0.6L79.4,73.5z"/>
			<path class="st19" d="M79.7,73.3v-0.9l0.1-0.6l0.2-0.5l0.3-0.5l0.4-0.4L81,70l0.5-0.3l0.5-0.2l0.6-0.1h34.8l0.6,0.1l0.5,0.2
				L119,70l0.4,0.4l0.4,0.4l0.3,0.5l0.2,0.5l0.1,0.6v0.9l-0.1,0.6l-0.2,0.5l-0.3,0.5l-0.4,0.4l-0.4,0.4l-0.5,0.3l-0.5,0.2l-0.6,0.1
				H82.6L82,76.1L81.5,76L81,75.7l-0.4-0.4l-0.4-0.4l-0.3-0.5l-0.2-0.5L79.7,73.3z"/>
			<path class="st20" d="M80,73.2v-0.9l0.1-0.6l0.2-0.5l0.3-0.5l0.3-0.4l0.4-0.3l0.5-0.3l0.5-0.2l0.6-0.1h33.1l0.6,0.1l0.5,0.2
				l0.5,0.3l0.4,0.3l0.3,0.4l0.3,0.5l0.2,0.5l0.1,0.6v0.9l-0.1,0.6l-0.2,0.5l-0.3,0.5l-0.3,0.4l-0.4,0.3l-0.5,0.3l-0.5,0.2l-0.6,0.1
				H82.7l-0.6-0.1l-0.5-0.2l-0.5-0.3l-0.4-0.3l-0.3-0.4l-0.3-0.5l-0.2-0.5L80,73.2z"/>
			<path class="st21" d="M80.3,73.1v-0.8l0.1-0.5l0.2-0.5l0.2-0.4l0.3-0.4l0.4-0.3l0.4-0.2l0.5-0.2l0.5-0.1h31.5l0.5,0.1l0.5,0.2
				l0.4,0.2l0.4,0.3l0.3,0.4l0.2,0.4l0.2,0.5l0.1,0.5v0.8l-0.1,0.5l-0.2,0.5l-0.2,0.4l-0.3,0.4l-0.4,0.3l-0.4,0.2l-0.5,0.2l-0.5,0.1
				H82.9l-0.5-0.1l-0.5-0.2l-0.4-0.2L81,74.9l-0.3-0.4l-0.2-0.4l-0.2-0.5L80.3,73.1z"/>
			<path class="st22" d="M80.6,72.9v-0.8l0.1-0.5l0.1-0.5l0.2-0.4l0.3-0.4l0.4-0.3l0.4-0.2l0.5-0.1l0.5-0.1h29.8l0.5,0.1l0.5,0.1
				l0.4,0.2l0.4,0.3l0.3,0.4l0.2,0.4l0.1,0.5l0.1,0.5v0.8l-0.1,0.5l-0.1,0.5l-0.2,0.4l-0.3,0.4l-0.4,0.3l-0.4,0.2l-0.5,0.1l-0.5,0
				H83l-0.5,0l-0.5-0.1L81.6,75l-0.4-0.3L81,74.3l-0.2-0.4l-0.1-0.5L80.6,72.9z"/>
			<path class="st23" d="M80.8,72.8v-0.7l0-0.5l0.1-0.4l0.2-0.4l0.3-0.3l0.3-0.3l0.4-0.2l0.4-0.1l0.5,0h28.1l0.5,0l0.4,0.1l0.4,0.2
				l0.3,0.3l0.3,0.3l0.2,0.4l0.1,0.4l0,0.5v0.7l0,0.5l-0.1,0.4l-0.2,0.4l-0.3,0.3l-0.3,0.3l-0.4,0.2l-0.4,0.1l-0.5,0H83.2l-0.5,0
				l-0.4-0.1l-0.4-0.2l-0.3-0.3l-0.3-0.3L81,73.7l-0.1-0.4L80.8,72.8z"/>
			<path class="st24" d="M81.1,72.7V72l0-0.4l0.1-0.4l0.2-0.4l0.3-0.3l0.3-0.3l0.4-0.2l0.4-0.1l0.4,0h26.5l0.4,0l0.4,0.1l0.4,0.2
				l0.3,0.3l0.3,0.3l0.2,0.4l0.1,0.4l0,0.4v0.7l0,0.4l-0.1,0.4l-0.2,0.4l-0.3,0.3l-0.3,0.3l-0.4,0.2l-0.4,0.1l-0.4,0H83.3l-0.4,0
				l-0.4-0.1l-0.4-0.2l-0.3-0.3l-0.3-0.3l-0.2-0.4l-0.1-0.4L81.1,72.7z"/>
			<path class="st25" d="M81.4,72.5v-0.6l0-0.4l0.1-0.4l0.2-0.3l0.3-0.3l0.3-0.3l0.3-0.2l0.4-0.1l0.4,0h24.8l0.4,0L109,70l0.3,0.2
				l0.3,0.3l0.3,0.3l0.2,0.3l0.1,0.4l0,0.4v0.6l0,0.4l-0.1,0.4l-0.2,0.3l-0.3,0.3l-0.3,0.3l-0.3,0.2l-0.4,0.1l-0.4,0H83.4l-0.4,0
				l-0.4-0.1l-0.3-0.2L82,74l-0.3-0.3l-0.2-0.3l-0.1-0.4L81.4,72.5z"/>
			<path class="st26" d="M81.7,72.4v-0.6l0-0.4l0.1-0.4l0.2-0.3l0.2-0.3l0.3-0.2l0.3-0.2l0.4-0.1l0.4,0h23.1l0.4,0l0.4,0.1l0.3,0.2
				l0.3,0.2l0.2,0.3l0.2,0.3l0.1,0.4l0,0.4v0.6l0,0.4l-0.1,0.4l-0.2,0.3l-0.2,0.3l-0.3,0.2l-0.3,0.2l-0.4,0.1l-0.4,0H83.6l-0.4,0
				l-0.4-0.1L82.5,74l-0.3-0.2L82,73.5l-0.2-0.3l-0.1-0.4L81.7,72.4z"/>
			<path class="st27" d="M81.9,72.3v-0.6l0-0.4l0.1-0.3l0.2-0.3l0.2-0.3l0.3-0.2l0.3-0.2l0.3-0.1l0.4,0h21.5l0.4,0l0.3,0.1l0.3,0.2
				l0.3,0.2l0.2,0.3l0.2,0.3l0.1,0.3l0,0.4v0.6l0,0.4l-0.1,0.3l-0.2,0.3l-0.2,0.3l-0.3,0.2l-0.3,0.2l-0.3,0.1l-0.4,0H83.7l-0.4,0
				L83,73.9l-0.3-0.2l-0.3-0.2l-0.2-0.3l-0.2-0.3L82,72.6L81.9,72.3z"/>
			<path class="st28" d="M82.2,72.1v-0.5l0-0.3l0.1-0.3l0.2-0.3l0.2-0.2l0.2-0.2l0.3-0.2l0.3-0.1l0.3,0h19.8l0.3,0l0.3,0.1l0.3,0.2
				l0.2,0.2l0.2,0.2l0.2,0.3l0.1,0.3l0,0.3v0.5l0,0.3l-0.1,0.3L105,73l-0.2,0.2l-0.2,0.2l-0.3,0.2l-0.3,0.1l-0.3,0H83.9l-0.3,0
				l-0.3-0.1l-0.3-0.2l-0.2-0.2L82.5,73l-0.2-0.3l-0.1-0.3L82.2,72.1z"/>
			<path class="st29" d="M82.5,72v-0.5l0-0.3l0.1-0.3l0.1-0.3l0.2-0.2l0.2-0.2l0.3-0.1l0.3-0.1l0.3,0h18.2l0.3,0l0.3,0.1l0.3,0.1
				l0.2,0.2l0.2,0.2l0.1,0.3l0.1,0.3l0,0.3V72l0,0.3l-0.1,0.3l-0.1,0.3l-0.2,0.2l-0.2,0.2l-0.3,0.1l-0.3,0.1l-0.3,0H84l-0.3,0
				l-0.3-0.1l-0.3-0.1L82.9,73l-0.2-0.2l-0.1-0.3l-0.1-0.3L82.5,72z"/>
			<path class="st30" d="M82.8,71.8v-0.4l0-0.3l0.1-0.3l0.1-0.2l0.2-0.2l0.2-0.2l0.2-0.1l0.3-0.1l0.3,0h16.5l0.3,0l0.3,0.1l0.2,0.1
				l0.2,0.2l0.2,0.2l0.1,0.2l0.1,0.3l0,0.3v0.4l0,0.3l-0.1,0.3l-0.1,0.2l-0.2,0.2l-0.2,0.2l-0.2,0.1l-0.3,0.1l-0.3,0H84.1l-0.3,0
				l-0.3-0.1L83.4,73l-0.2-0.2L83,72.6l-0.1-0.2l-0.1-0.3L82.8,71.8z"/>
			<path class="st31" d="M83.1,71.7v-0.4l0-0.2l0.1-0.2l0.1-0.2l0.1-0.2l0.2-0.2l0.2-0.1l0.2-0.1l0.2,0h14.8l0.2,0l0.2,0.1l0.2,0.1
				l0.2,0.2l0.1,0.2l0.1,0.2l0.1,0.2l0,0.2v0.4l0,0.2l-0.1,0.2l-0.1,0.2l-0.1,0.2l-0.2,0.2l-0.2,0.1l-0.2,0.1l-0.2,0H84.3l-0.2,0
				l-0.2-0.1l-0.2-0.1l-0.2-0.2l-0.1-0.2l-0.1-0.2L83.1,72L83.1,71.7z"/>
			<path class="st32" d="M83.3,71.6v-0.3l0-0.2l0.1-0.2l0.1-0.2l0.1-0.2l0.2-0.1l0.2-0.1l0.2-0.1l0.2,0h13.2l0.2,0l0.2,0.1l0.2,0.1
				l0.2,0.1l0.1,0.2l0.1,0.2l0.1,0.2l0,0.2v0.3l0,0.2L98.6,72l-0.1,0.2l-0.1,0.2l-0.2,0.1L98,72.6l-0.2,0.1l-0.2,0H84.4l-0.2,0
				L84,72.6l-0.2-0.1l-0.2-0.1l-0.1-0.2L83.4,72l-0.1-0.2L83.3,71.6z"/>
			<path class="st33" d="M83.6,71.4v-0.3l0-0.2l0.1-0.2l0.1-0.2l0.1-0.1l0.1-0.1l0.2-0.1l0.2-0.1l0.2,0h11.5l0.2,0l0.2,0.1l0.2,0.1
				l0.1,0.1l0.1,0.1l0.1,0.2L97,71l0,0.2v0.3l0,0.2l-0.1,0.2L96.8,72l-0.1,0.1l-0.1,0.1l-0.2,0.1l-0.2,0.1l-0.2,0H84.6l-0.2,0
				l-0.2-0.1L84,72.2l-0.1-0.1L83.8,72l-0.1-0.2l-0.1-0.2L83.6,71.4z"/>
			<path class="st34" d="M83.9,71.3v-0.3l0-0.2l0-0.2l0.1-0.1l0.1-0.1l0.1-0.1l0.1-0.1l0.2,0l0.2,0h9.8l0.2,0l0.2,0l0.1,0.1l0.1,0.1
				l0.1,0.1l0.1,0.1l0,0.2l0,0.2v0.3l0,0.2l0,0.2l-0.1,0.1l-0.1,0.1L95,72l-0.1,0.1l-0.2,0l-0.2,0h-9.8l-0.2,0l-0.2,0L84.2,72
				l-0.1-0.1L84,71.8L84,71.6l0-0.2L83.9,71.3z"/>
			<path class="st34" d="M84.2,71.2V71l0-0.1l0-0.1l0.1-0.1l0.1-0.1l0.1-0.1l0.1-0.1l0.1,0l0.1,0H93l0.1,0l0.1,0l0.1,0.1l0.1,0.1
				l0.1,0.1l0.1,0.1l0,0.1l0,0.1v0.2l0,0.1l0,0.1l-0.1,0.1l-0.1,0.1l-0.1,0.1l-0.1,0.1l-0.1,0l-0.1,0h-8.2l-0.1,0l-0.1,0l-0.1-0.1
				l-0.1-0.1l-0.1-0.1l-0.1-0.1l0-0.1L84.2,71.2z"/>
			<path class="st34" d="M84.4,71v-0.2l0-0.1l0-0.1l0-0.1l0.1-0.1l0.1-0.1l0.1-0.1l0.1,0l0.1,0h6.5l0.1,0l0.1,0l0.1,0.1l0.1,0.1
				l0.1,0.1l0,0.1l0,0.1l0,0.1V71l0,0.1l0,0.1l0,0.1l-0.1,0.1l-0.1,0.1l-0.1,0l-0.1,0l-0.1,0H85l-0.1,0l-0.1,0l-0.1,0l-0.1-0.1
				l-0.1-0.1l0-0.1l0-0.1L84.4,71z"/>
		</g>
	</g>
	<path class="st35" d="M75.8,75.2v-1.5c0-2.6,2.2-4.8,4.8-4.8h58.1c2.6,0,4.8,2.2,4.8,4.8v1.5c0,2.6-2.2,4.8-4.8,4.8H80.6
		C78,80,75.8,77.9,75.8,75.2"/>
	<path class="st36" d="M75.8,75.2v-1.5c0-2.6,2.2-4.8,4.8-4.8h58.1c2.6,0,4.8,2.2,4.8,4.8v1.5c0,2.6-2.2,4.8-4.8,4.8H80.6
		C78,80,75.8,77.9,75.8,75.2"/>
	<path d="M190,63h-20.7v-2.7H190V63z"/>
	<path d="M204,61.6l-16,4.1c0,0,2-2.3,2-4.1c0-1.8-2-4.1-2-4.1L204,61.6L204,61.6"/>
	<path class="st39" d="M204,61.6l-16,4.1c0,0,2-2.3,2-4.1c0-1.8-2-4.1-2-4.1L204,61.6L204,61.6"/>
	<text transform="matrix(1 0 0 1 246.2593 58.3736)" class="st1 st2">Si</text>
	<path d="M258.6,60.1l0.6-0.6l15.1,15.1l-0.6,0.6L258.6,60.1z"/>
	<path d="M252.5,69.6l-0.8,0l0.1-9l0.8,0L252.5,69.6z"/>
	<path d="M227.5,78.4l-0.6-0.6l19-19l0.6,0.6L227.5,78.4z"/>
	<text transform="matrix(1 0 0 1 264.04 36.7067)" class="st1 st2">F</text>
	<path d="M263,37.7l0.6,0.5l-2.1,2.8l-0.6-0.5L263,37.7z"/>
	<path d="M258.9,43.3l0.6,0.5l-2.1,2.8l-0.6-0.5L258.9,43.3z"/>
	<g>
		<defs>
			<polygon id="SVGID_5_" points="219.7,75.7 219.7,74.2 219.8,73.3 220.1,72.4 220.5,71.6 221.1,70.9 221.8,70.3 222.6,69.9 
				223.5,69.6 224.5,69.5 282.3,69.5 283.3,69.6 284.2,69.9 285,70.3 285.7,70.9 286.3,71.6 286.8,72.4 287,73.3 287.1,74.2 
				287.1,75.7 287,76.6 286.8,77.5 286.3,78.3 285.7,79 285,79.6 284.2,80 283.3,80.3 282.4,80.4 224.5,80.4 223.5,80.3 222.6,80 
				221.8,79.6 221.1,79 220.5,78.3 220.1,77.5 219.8,76.6 			"/>
		</defs>
		<clipPath id="SVGID_6_">
			<use xlink:href="#SVGID_5_"  style="overflow:visible;"/>
		</clipPath>
		<g class="st40">
			<path class="st5" d="M219.6,75.7v-1.5l0.1-1l0.3-0.9l0.4-0.8l0.6-0.7l0.7-0.6l0.8-0.4l0.9-0.3l1-0.1h58.1l1,0.1l0.9,0.3l0.8,0.4
				l0.7,0.6l0.6,0.7l0.4,0.8l0.3,0.9l0.1,1v1.5l-0.1,1l-0.3,0.9l-0.4,0.8l-0.6,0.7l-0.7,0.6l-0.8,0.4l-0.9,0.3l-1,0.1h-58.1l-1-0.1
				l-0.9-0.3l-0.8-0.4l-0.7-0.6l-0.6-0.7l-0.4-0.8l-0.3-0.9L219.6,75.7z"/>
			<path class="st6" d="M219.8,75.6v-1.5l0.1-0.9l0.3-0.9l0.4-0.8l0.6-0.7l0.7-0.6l0.8-0.4l0.9-0.3l0.9-0.1h56.4l1,0.1l0.9,0.3
				l0.8,0.4l0.7,0.6l0.6,0.7l0.4,0.8l0.3,0.9l0.1,0.9v1.5l-0.1,0.9l-0.3,0.9l-0.4,0.8l-0.6,0.7l-0.7,0.6l-0.8,0.4l-0.9,0.3l-0.9,0.1
				h-56.4l-0.9-0.1l-0.9-0.3l-0.8-0.4l-0.7-0.6l-0.6-0.7l-0.4-0.8l-0.3-0.9L219.8,75.6z"/>
			<path class="st7" d="M220.1,75.4V74l0.1-0.9l0.3-0.8l0.4-0.8l0.6-0.7l0.7-0.6l0.8-0.4l0.8-0.3l0.9-0.1h54.7l0.9,0.1l0.8,0.3
				l0.8,0.4l0.7,0.6l0.6,0.7l0.4,0.8l0.3,0.8l0.1,0.9v1.4l-0.1,0.9l-0.3,0.8l-0.4,0.8l-0.6,0.7l-0.7,0.6l-0.8,0.4l-0.8,0.3l-0.9,0.1
				h-54.8l-0.9-0.1l-0.8-0.3l-0.8-0.4l-0.7-0.6l-0.6-0.7l-0.4-0.8l-0.3-0.8L220.1,75.4z"/>
			<path class="st8" d="M220.4,75.3v-1.4l0.1-0.9l0.3-0.8l0.4-0.7l0.5-0.6l0.6-0.5l0.7-0.4l0.8-0.3l0.9-0.1h53.1l0.9,0.1l0.8,0.3
				l0.7,0.4l0.6,0.5l0.5,0.6l0.4,0.7l0.3,0.8l0.1,0.9v1.4l-0.1,0.9l-0.3,0.8l-0.4,0.7l-0.5,0.6l-0.6,0.5l-0.7,0.4l-0.8,0.3l-0.9,0.1
				h-53.1l-0.9-0.1l-0.8-0.3l-0.7-0.4l-0.6-0.5l-0.5-0.6l-0.4-0.7l-0.3-0.8L220.4,75.3z"/>
			<path class="st9" d="M220.7,75.2v-1.3l0.1-0.9l0.2-0.8l0.4-0.7l0.5-0.6l0.6-0.5l0.7-0.4l0.8-0.2l0.9-0.1h51.4l0.9,0.1l0.8,0.2
				l0.7,0.4l0.6,0.5l0.5,0.6l0.4,0.7l0.2,0.8l0.1,0.9v1.3l-0.1,0.9l-0.2,0.8l-0.4,0.7l-0.5,0.6l-0.6,0.5l-0.7,0.4l-0.8,0.2l-0.9,0.1
				h-51.4l-0.9-0.1l-0.8-0.2l-0.7-0.4l-0.6-0.5l-0.5-0.6l-0.4-0.7l-0.2-0.8L220.7,75.2z"/>
			<path class="st10" d="M221,75v-1.3l0.1-0.8l0.2-0.8l0.4-0.7l0.5-0.6l0.6-0.5l0.7-0.4l0.8-0.2l0.8-0.1h49.8l0.9,0.1l0.8,0.2
				l0.7,0.4l0.6,0.5l0.5,0.6l0.4,0.7l0.2,0.8l0.1,0.8V75l-0.1,0.8l-0.2,0.8l-0.4,0.7l-0.5,0.6l-0.6,0.5l-0.7,0.4l-0.8,0.2l-0.8,0.1
				h-49.8l-0.8-0.1l-0.8-0.2l-0.7-0.4l-0.6-0.5l-0.5-0.6l-0.4-0.7l-0.2-0.8L221,75z"/>
			<path class="st11" d="M221.2,74.9v-1.3l0.1-0.8l0.2-0.7l0.4-0.7l0.5-0.6l0.6-0.5l0.7-0.4l0.7-0.2l0.8-0.1h48.1l0.8,0.1l0.7,0.2
				l0.7,0.4l0.6,0.5l0.5,0.6l0.4,0.7l0.2,0.7l0.1,0.8v1.3l-0.1,0.8l-0.2,0.7l-0.4,0.7l-0.5,0.6l-0.6,0.5l-0.7,0.4l-0.7,0.2l-0.8,0.1
				h-48.1l-0.8-0.1l-0.7-0.2l-0.7-0.4l-0.6-0.5l-0.5-0.6l-0.4-0.7l-0.2-0.7L221.2,74.9z"/>
			<path class="st12" d="M221.5,74.8v-1.2l0.1-0.8l0.2-0.7l0.4-0.7l0.5-0.6l0.6-0.5l0.7-0.4l0.7-0.2l0.8-0.1h46.4l0.8,0.1l0.7,0.2
				l0.7,0.4l0.6,0.5l0.5,0.6l0.4,0.7l0.2,0.7l0.1,0.8v1.2l-0.1,0.8l-0.2,0.7l-0.4,0.7l-0.5,0.6l-0.6,0.5l-0.7,0.4l-0.7,0.2l-0.8,0.1
				h-46.5l-0.8-0.1l-0.7-0.2l-0.7-0.4l-0.6-0.5l-0.5-0.6l-0.4-0.7l-0.2-0.7L221.5,74.8z"/>
			<path class="st13" d="M221.8,74.6v-1.2l0.1-0.7l0.2-0.7l0.3-0.6l0.5-0.5l0.5-0.5l0.6-0.3l0.7-0.2l0.7-0.1h44.8l0.8,0.1l0.7,0.2
				l0.6,0.3l0.5,0.5l0.5,0.5l0.3,0.6l0.2,0.7l0.1,0.7v1.2l-0.1,0.7l-0.2,0.7l-0.3,0.6l-0.5,0.5l-0.5,0.5l-0.6,0.3l-0.7,0.2l-0.7,0.1
				h-44.8l-0.7-0.1L224,78l-0.6-0.3l-0.5-0.5l-0.5-0.5l-0.3-0.6l-0.2-0.7L221.8,74.6z"/>
			<path class="st14" d="M222.1,74.5v-1.1l0.1-0.7l0.2-0.7l0.3-0.6l0.4-0.5l0.5-0.4l0.6-0.3l0.7-0.2l0.7-0.1h43.1l0.7,0.1l0.7,0.2
				l0.6,0.3l0.5,0.4l0.4,0.5L272,72l0.2,0.7l0.1,0.7v1.1l-0.1,0.7l-0.2,0.7l-0.3,0.6l-0.4,0.5l-0.5,0.4l-0.6,0.3l-0.7,0.2l-0.7,0.1
				h-43.1l-0.7-0.1l-0.7-0.2l-0.6-0.3l-0.5-0.4l-0.4-0.5l-0.3-0.6l-0.2-0.7L222.1,74.5z"/>
			<path class="st15" d="M222.3,74.4v-1.1l0.1-0.7l0.2-0.6l0.3-0.6l0.4-0.5l0.5-0.4l0.6-0.3l0.6-0.2l0.7-0.1h41.4l0.7,0.1l0.6,0.2
				l0.6,0.3l0.5,0.4l0.4,0.5l0.3,0.6l0.2,0.6l0.1,0.7v1.1l-0.1,0.7l-0.2,0.6l-0.3,0.6l-0.4,0.5l-0.5,0.4l-0.6,0.3l-0.6,0.2l-0.7,0.1
				h-41.5l-0.7-0.1l-0.6-0.2l-0.6-0.3l-0.5-0.4l-0.4-0.5l-0.3-0.6l-0.2-0.6L222.3,74.4z"/>
			<path class="st16" d="M222.6,74.2v-1l0.1-0.7l0.2-0.6l0.3-0.6l0.4-0.5l0.5-0.4l0.6-0.3l0.6-0.2l0.7-0.1h39.8l0.7,0.1l0.6,0.2
				l0.6,0.3l0.5,0.4l0.4,0.5l0.3,0.6l0.2,0.6l0.1,0.7v1l-0.1,0.7l-0.2,0.6l-0.3,0.6l-0.4,0.5l-0.5,0.4l-0.6,0.3l-0.6,0.2l-0.7,0.1
				h-39.8l-0.7-0.1l-0.6-0.2l-0.6-0.3l-0.5-0.4l-0.4-0.5l-0.3-0.6l-0.2-0.6L222.6,74.2z"/>
			<path class="st17" d="M222.9,74.1v-1l0.1-0.6l0.2-0.6l0.3-0.5l0.4-0.5l0.5-0.4l0.5-0.3l0.6-0.2l0.6-0.1h38.1l0.7,0.1l0.6,0.2
				l0.5,0.3l0.5,0.4l0.4,0.5l0.3,0.5l0.2,0.6l0.1,0.6v1l-0.1,0.6l-0.2,0.6l-0.3,0.5l-0.4,0.5l-0.5,0.4l-0.5,0.3l-0.6,0.2l-0.6,0.1
				H226l-0.6-0.1l-0.6-0.2l-0.5-0.3l-0.5-0.4l-0.4-0.5l-0.3-0.5l-0.2-0.6L222.9,74.1z"/>
			<path class="st18" d="M223.2,74v-1l0.1-0.6l0.2-0.6l0.3-0.5l0.4-0.4l0.4-0.4l0.5-0.3l0.6-0.2l0.6-0.1h36.4l0.6,0.1l0.6,0.2
				l0.5,0.3l0.4,0.4l0.4,0.4l0.3,0.5l0.2,0.6l0.1,0.6v1l-0.1,0.6l-0.2,0.6l-0.3,0.5l-0.4,0.4l-0.4,0.4l-0.5,0.3l-0.6,0.2l-0.6,0.1
				h-36.5l-0.6-0.1l-0.6-0.2l-0.5-0.3l-0.4-0.4l-0.4-0.4l-0.3-0.5l-0.2-0.6L223.2,74z"/>
			<path class="st19" d="M223.5,73.8v-0.9l0.1-0.6l0.2-0.5l0.3-0.5l0.4-0.4l0.4-0.4l0.5-0.3l0.5-0.2l0.6-0.1h34.8l0.6,0.1l0.5,0.2
				l0.5,0.3l0.4,0.4l0.4,0.4l0.3,0.5l0.2,0.5l0.1,0.6v0.9l-0.1,0.6l-0.2,0.5l-0.3,0.5l-0.4,0.4l-0.4,0.4l-0.5,0.3l-0.5,0.2l-0.6,0.1
				h-34.8l-0.6-0.1l-0.5-0.2l-0.5-0.3l-0.4-0.4l-0.4-0.4l-0.3-0.5l-0.2-0.5L223.5,73.8z"/>
			<path class="st20" d="M223.7,73.7v-0.9l0.1-0.6l0.2-0.5l0.3-0.5l0.3-0.4l0.4-0.3l0.5-0.3l0.5-0.2l0.6-0.1h33.1l0.6,0.1l0.5,0.2
				l0.5,0.3l0.4,0.3l0.3,0.4l0.3,0.5l0.2,0.5l0.1,0.6v0.9l-0.1,0.6l-0.2,0.5l-0.3,0.5l-0.3,0.4l-0.4,0.3l-0.5,0.3l-0.5,0.2l-0.6,0.1
				h-33.1l-0.6-0.1l-0.5-0.2l-0.5-0.3l-0.4-0.3l-0.3-0.4l-0.3-0.5l-0.2-0.5L223.7,73.7z"/>
			<path class="st21" d="M224,73.6v-0.8l0.1-0.5l0.2-0.5l0.2-0.4l0.3-0.4l0.4-0.3l0.4-0.2l0.5-0.2l0.5-0.1h31.5l0.5,0.1l0.5,0.2
				l0.4,0.2l0.4,0.3l0.3,0.4l0.2,0.4l0.2,0.5l0.1,0.5v0.8l-0.1,0.5l-0.2,0.5l-0.2,0.4l-0.3,0.4l-0.4,0.3l-0.4,0.2l-0.5,0.2l-0.5,0.1
				h-31.5l-0.5-0.1l-0.5-0.2l-0.4-0.2l-0.4-0.3l-0.3-0.4l-0.2-0.4l-0.2-0.5L224,73.6z"/>
			<path class="st22" d="M224.3,73.4v-0.8l0.1-0.5l0.1-0.5l0.2-0.4l0.3-0.4l0.4-0.3l0.4-0.2l0.5-0.1l0.5-0.1h29.8l0.5,0.1l0.5,0.1
				l0.4,0.2l0.4,0.3l0.3,0.4l0.2,0.4l0.1,0.5l0,0.5v0.8l0,0.5l-0.1,0.5l-0.2,0.4l-0.3,0.4l-0.4,0.3l-0.4,0.2l-0.5,0.1l-0.5,0.1
				h-29.8l-0.5-0.1l-0.5-0.1l-0.4-0.2l-0.4-0.3l-0.3-0.4l-0.2-0.4l-0.1-0.5L224.3,73.4z"/>
			<path class="st23" d="M224.6,73.3v-0.7l0-0.5l0.1-0.4l0.2-0.4l0.3-0.3l0.3-0.3l0.4-0.2l0.4-0.1l0.5,0H255l0.5,0l0.4,0.1l0.4,0.2
				l0.3,0.3l0.3,0.3l0.2,0.4l0.1,0.4l0,0.5v0.7l0,0.5l-0.1,0.4l-0.2,0.4l-0.3,0.3l-0.3,0.3l-0.4,0.2l-0.4,0.1l-0.5,0h-28.1l-0.5,0
				l-0.4-0.1l-0.4-0.2l-0.3-0.3l-0.3-0.3l-0.2-0.4l-0.1-0.4L224.6,73.3z"/>
			<path class="st24" d="M224.8,73.1v-0.7l0-0.4l0.1-0.4l0.2-0.4l0.3-0.3l0.3-0.3l0.4-0.2l0.4-0.1l0.4,0h26.5l0.5,0l0.4,0.1l0.4,0.2
				l0.3,0.3l0.3,0.3l0.2,0.4l0.1,0.4l0,0.4v0.7l0,0.4l-0.1,0.4l-0.2,0.4l-0.3,0.3l-0.3,0.3l-0.4,0.2l-0.4,0.1l-0.4,0H227l-0.4,0
				l-0.4-0.1l-0.4-0.2l-0.3-0.3l-0.3-0.3L225,74l-0.1-0.4L224.8,73.1z"/>
			<path class="st25" d="M225.1,73v-0.6l0-0.4l0.1-0.4l0.2-0.3l0.3-0.3l0.3-0.3l0.3-0.2l0.4-0.1l0.4,0H252l0.4,0l0.4,0.1l0.3,0.2
				l0.3,0.3l0.3,0.3l0.2,0.3L254,72l0,0.4V73l0,0.4l-0.1,0.4l-0.2,0.3l-0.3,0.3l-0.3,0.3l-0.3,0.2l-0.4,0.1l-0.4,0h-24.8l-0.4,0
				l-0.4-0.1l-0.3-0.2l-0.3-0.3l-0.3-0.3l-0.2-0.3l-0.1-0.4L225.1,73z"/>
			<path class="st26" d="M225.4,72.9v-0.6l0-0.4l0.1-0.4l0.2-0.3l0.2-0.3l0.3-0.2l0.3-0.2l0.4-0.1l0.4,0h23.1l0.4,0l0.4,0.1l0.3,0.2
				l0.3,0.2l0.2,0.3l0.2,0.3l0.1,0.4l0,0.4v0.6l0,0.4l-0.1,0.4l-0.2,0.3l-0.2,0.3l-0.3,0.2l-0.3,0.2l-0.4,0.1l-0.4,0h-23.2l-0.4,0
				l-0.4-0.1l-0.3-0.2l-0.3-0.2l-0.2-0.3l-0.2-0.3l-0.1-0.4L225.4,72.9z"/>
			<path class="st27" d="M225.7,72.7v-0.6l0-0.4l0.1-0.3l0.2-0.3l0.2-0.3l0.3-0.2l0.3-0.2l0.3-0.1l0.4,0h21.5l0.4,0l0.3,0.1l0.3,0.2
				l0.3,0.2l0.2,0.3l0.2,0.3l0.1,0.3l0,0.4v0.6l0,0.4l-0.1,0.3l-0.2,0.3l-0.2,0.3l-0.3,0.2l-0.3,0.2l-0.3,0.1l-0.4,0h-21.5l-0.4,0
				l-0.3-0.1l-0.3-0.2l-0.3-0.2l-0.2-0.3l-0.2-0.3l-0.1-0.3L225.7,72.7z"/>
			<path class="st28" d="M226,72.6v-0.5l0-0.3l0.1-0.3l0.2-0.3l0.2-0.2l0.2-0.2l0.3-0.2l0.3-0.1l0.3,0h19.8l0.3,0l0.3,0.1l0.3,0.2
				l0.2,0.2l0.2,0.2l0.2,0.3l0.1,0.3l0,0.3v0.5l0,0.3l-0.1,0.3l-0.2,0.3l-0.2,0.2l-0.2,0.2l-0.3,0.2l-0.3,0.1l-0.3,0h-19.8l-0.3,0
				l-0.3-0.1l-0.3-0.2l-0.2-0.2l-0.2-0.2l-0.2-0.3l-0.1-0.3L226,72.6z"/>
			<path class="st29" d="M226.2,72.5V72l0-0.3l0.1-0.3l0.1-0.3l0.2-0.2l0.2-0.2l0.3-0.1l0.3-0.1l0.3,0h18.1l0.3,0l0.3,0.1l0.3,0.1
				l0.2,0.2l0.2,0.2l0.1,0.3l0.1,0.3l0,0.3v0.5l0,0.3l-0.1,0.3l-0.1,0.3l-0.2,0.2l-0.2,0.2l-0.3,0.1l-0.3,0.1l-0.3,0h-18.2l-0.3,0
				l-0.3-0.1l-0.3-0.1l-0.2-0.2l-0.2-0.2l-0.1-0.3l-0.1-0.3L226.2,72.5z"/>
			<path class="st30" d="M226.5,72.3v-0.4l0-0.3l0.1-0.3l0.1-0.2l0.2-0.2l0.2-0.2l0.2-0.1l0.3-0.1l0.3,0h16.5l0.3,0l0.3,0.1l0.2,0.1
				l0.2,0.2l0.2,0.2l0.1,0.2l0.1,0.3l0,0.3v0.4l0,0.3l-0.1,0.3l-0.1,0.2l-0.2,0.2l-0.2,0.2l-0.2,0.1l-0.3,0.1l-0.3,0h-16.5l-0.3,0
				l-0.3-0.1l-0.2-0.1l-0.2-0.2l-0.2-0.2l-0.1-0.2l-0.1-0.3L226.5,72.3z"/>
			<path class="st31" d="M226.8,72.2v-0.4l0-0.2l0.1-0.2l0.1-0.2l0.1-0.2l0.2-0.2l0.2-0.1l0.2-0.1l0.2,0h14.8l0.3,0l0.2,0.1l0.2,0.1
				l0.2,0.2l0.1,0.2l0.1,0.2l0.1,0.2l0,0.2v0.4l0,0.2l-0.1,0.2l-0.1,0.2l-0.1,0.2l-0.2,0.1l-0.2,0.1l-0.2,0.1l-0.2,0H228l-0.2,0
				l-0.2-0.1l-0.2-0.1l-0.2-0.1l-0.1-0.2l-0.1-0.2l-0.1-0.2L226.8,72.2z"/>
			<path class="st32" d="M227.1,72.1v-0.3l0-0.2l0.1-0.2l0.1-0.2l0.1-0.2l0.2-0.1l0.2-0.1l0.2-0.1l0.2,0h13.2l0.2,0l0.2,0.1l0.2,0.1
				l0.2,0.1l0.1,0.2l0.1,0.2l0.1,0.2l0,0.2v0.3l0,0.2l-0.1,0.2l-0.1,0.2l-0.1,0.2l-0.2,0.1l-0.2,0.1l-0.2,0.1l-0.2,0h-13.2l-0.2,0
				l-0.2-0.1l-0.2-0.1l-0.2-0.1l-0.1-0.2l-0.1-0.2l-0.1-0.2L227.1,72.1z"/>
			<path class="st33" d="M227.3,71.9v-0.3l0-0.2l0.1-0.2l0.1-0.2l0.1-0.1l0.1-0.1l0.2-0.1l0.2-0.1l0.2,0h11.5l0.2,0l0.2,0.1l0.2,0.1
				l0.1,0.1l0.1,0.1l0.1,0.2l0.1,0.2l0,0.2v0.3l0,0.2l-0.1,0.2l-0.1,0.2l-0.1,0.1l-0.1,0.1l-0.2,0.1l-0.2,0.1l-0.2,0h-11.5l-0.2,0
				l-0.2-0.1l-0.2-0.1l-0.1-0.1l-0.1-0.1l-0.1-0.2l-0.1-0.2L227.3,71.9z"/>
			<path class="st34" d="M227.6,71.8v-0.3l0-0.2l0-0.2l0.1-0.1l0.1-0.1l0.1-0.1l0.1-0.1l0.2,0l0.2,0h9.8l0.2,0l0.2,0l0.1,0.1
				l0.1,0.1l0.1,0.1l0.1,0.1l0,0.2l0,0.2v0.3l0,0.2l0,0.2l-0.1,0.1l-0.1,0.1l-0.1,0.1l-0.1,0.1l-0.2,0l-0.2,0h-9.8l-0.2,0l-0.2,0
				l-0.1-0.1l-0.1-0.1l-0.1-0.1l-0.1-0.1l0-0.2L227.6,71.8z"/>
			<path class="st34" d="M227.9,71.7v-0.2l0-0.1l0-0.1l0.1-0.1l0.1-0.1l0.1-0.1l0.1-0.1l0.1,0l0.1,0h8.2l0.1,0l0.1,0l0.1,0.1
				l0.1,0.1l0.1,0.1l0.1,0.1l0,0.1l0,0.1v0.2l0,0.1l0,0.1l-0.1,0.1l-0.1,0.1l-0.1,0.1l-0.1,0.1l-0.1,0l-0.1,0h-8.2l-0.1,0l-0.1,0
				l-0.1-0.1l-0.1-0.1L228,72l-0.1-0.1l0-0.1L227.9,71.7z"/>
			<path class="st34" d="M228.2,71.5v-0.2l0-0.1l0-0.1l0-0.1l0.1-0.1l0.1-0.1l0.1-0.1l0.1,0l0.1,0h6.5l0.1,0l0.1,0l0.1,0.1l0.1,0.1
				l0.1,0.1l0,0.1l0,0.1l0,0.1v0.2l0,0.1l0,0.1l0,0.1l-0.1,0.1l-0.1,0.1l-0.1,0l-0.1,0l-0.1,0h-6.5l-0.1,0l-0.1,0l-0.1,0l-0.1-0.1
				l-0.1-0.1l0-0.1l0-0.1L228.2,71.5z"/>
		</g>
	</g>
	<path class="st35" d="M219.6,75.7v-1.5c0-2.6,2.2-4.8,4.8-4.8h58.1c2.6,0,4.8,2.2,4.8,4.8v1.5c0,2.6-2.2,4.8-4.8,4.8h-58.1
		C221.7,80.5,219.6,78.4,219.6,75.7"/>
	<path class="st36" d="M219.6,75.7v-1.5c0-2.6,2.2-4.8,4.8-4.8h58.1c2.6,0,4.8,2.2,4.8,4.8v1.5c0,2.6-2.2,4.8-4.8,4.8h-58.1
		C221.7,80.5,219.6,78.4,219.6,75.7"/>
	<text transform="matrix(1 0 0 1 232.4004 36.2003)" class="st1 st2">O</text>
	<path d="M241.4,37.5l0.7-0.4l2.1,3.2l-0.7,0.4L241.4,37.5z"/>
	<path d="M245.7,44l0.7-0.4l2.1,3.2l-0.7,0.4L245.7,44z"/>
	<text transform="matrix(1 0 0 1 247.5474 14.2003)" class="st1 st2">H</text>
	<path d="M256.9,16.2l0.7-0.5l2.2,3.2l-0.7,0.5L256.9,16.2z"/>
	<path d="M261.4,22.6l0.7-0.5l2.2,3.2l-0.7,0.5L261.4,22.6z"/>
	<path d="M247.3,15.8l0.7,0.4l-2.1,3.2l-0.7-0.4L247.3,15.8z"/>
	<path d="M243.1,22.1l0.7,0.4l-2.1,3.2l-0.7-0.4L243.1,22.1z"/>
	<text transform="matrix(1 0 0 1 215.2803 36.2003)" class="st1 st2">H</text>
	<path d="M225.9,31.4v-0.8h5v0.8H225.9z"/>
	<path d="M314.8,62.8H294v-2.7h20.7V62.8z"/>
	<path d="M328.7,61.5l-16,4.1c0,0,2-2.3,2-4.1c0-1.8-2-4.1-2-4.1L328.7,61.5L328.7,61.5"/>
	<path class="st39" d="M328.7,61.5l-16,4.1c0,0,2-2.3,2-4.1c0-1.8-2-4.1-2-4.1L328.7,61.5L328.7,61.5"/>
	<text transform="matrix(1 0 0 1 371.752 58.2003)" class="st1 st2">Si</text>
	<path d="M384.1,60l0.6-0.6l15.1,15.1l-0.6,0.6L384.1,60z"/>
	<path d="M377.9,69.5l-0.8,0l0.1-9l0.8,0L377.9,69.5z"/>
	<path d="M353,78.2l-0.6-0.6l19-19l0.6,0.6L353,78.2z"/>
	<g>
		<defs>
			<polygon id="SVGID_7_" points="345.2,75.5 345.2,74.1 345.3,73.1 345.6,72.2 346,71.5 346.6,70.8 347.3,70.2 348.1,69.8 
				349,69.5 350,69.4 407.8,69.4 408.8,69.5 409.7,69.8 410.5,70.2 411.2,70.8 411.8,71.5 412.3,72.2 412.5,73.1 412.6,74.1 
				412.6,75.5 412.5,76.5 412.3,77.4 411.8,78.1 411.2,78.8 410.5,79.4 409.7,79.8 408.8,80.1 407.8,80.2 350,80.2 349,80.1 
				348.1,79.8 347.3,79.4 346.6,78.8 346,78.1 345.6,77.4 345.3,76.5 			"/>
		</defs>
		<clipPath id="SVGID_8_">
			<use xlink:href="#SVGID_7_"  style="overflow:visible;"/>
		</clipPath>
		<g class="st41">
			<path class="st5" d="M345.1,75.5v-1.5l0.1-1l0.3-0.9l0.4-0.8l0.6-0.7l0.7-0.6l0.8-0.4l0.9-0.3l1-0.1h58.1l1,0.1l0.9,0.3l0.8,0.4
				l0.7,0.6l0.6,0.7l0.4,0.8l0.3,0.9l0.1,1v1.5l-0.1,1l-0.3,0.9l-0.4,0.8l-0.6,0.7l-0.7,0.6l-0.8,0.4l-0.9,0.3l-1,0.1h-58.1l-1-0.1
				L348,80l-0.8-0.4l-0.7-0.6l-0.6-0.7l-0.4-0.8l-0.3-0.9L345.1,75.5z"/>
			<path class="st6" d="M345.3,75.4V74l0.1-0.9l0.3-0.9l0.4-0.8l0.6-0.7l0.7-0.6l0.8-0.4l0.9-0.3l0.9-0.1h56.4l1,0.1l0.9,0.3
				l0.8,0.4l0.7,0.6l0.6,0.7l0.4,0.8L411,73l0.1,0.9v1.5l-0.1,0.9l-0.3,0.9l-0.4,0.8l-0.6,0.7l-0.7,0.6l-0.8,0.4l-0.9,0.3l-0.9,0.1
				H350l-1-0.1l-0.9-0.3l-0.8-0.4l-0.7-0.6l-0.6-0.7l-0.4-0.8l-0.3-0.9L345.3,75.4z"/>
			<path class="st7" d="M345.6,75.3v-1.4l0.1-0.9l0.3-0.8l0.4-0.8l0.6-0.7l0.7-0.6l0.8-0.4l0.8-0.3l0.9-0.1h54.7l0.9,0.1l0.8,0.3
				l0.8,0.4l0.7,0.6l0.6,0.7l0.4,0.8l0.3,0.8l0.1,0.9v1.4l-0.1,0.9l-0.3,0.8l-0.4,0.8l-0.6,0.7l-0.7,0.6l-0.8,0.4l-0.8,0.3l-0.9,0.1
				h-54.7l-0.9-0.1l-0.8-0.3l-0.8-0.4l-0.7-0.6l-0.6-0.7L346,77l-0.3-0.8L345.6,75.3z"/>
			<path class="st8" d="M345.9,75.1v-1.4l0.1-0.9l0.3-0.8l0.4-0.7l0.5-0.6l0.6-0.5l0.7-0.4l0.8-0.3l0.9-0.1h53.1l0.9,0.1l0.8,0.3
				l0.7,0.4l0.6,0.5l0.5,0.6l0.4,0.7l0.3,0.8l0.1,0.9v1.4l-0.1,0.9l-0.3,0.8l-0.4,0.7l-0.5,0.6l-0.6,0.5l-0.7,0.4l-0.8,0.3l-0.9,0.1
				h-53.1l-0.9-0.1l-0.8-0.3l-0.7-0.4l-0.6-0.5l-0.5-0.6l-0.4-0.7L346,76L345.9,75.1z"/>
			<path class="st9" d="M346.2,75v-1.3l0.1-0.9l0.2-0.8l0.4-0.7l0.5-0.6l0.6-0.5l0.7-0.4l0.8-0.2l0.9-0.1h51.4l0.9,0.1l0.8,0.2
				l0.7,0.4l0.6,0.5l0.5,0.6l0.4,0.7l0.2,0.8l0.1,0.9V75l-0.1,0.9l-0.2,0.8l-0.4,0.7l-0.5,0.6l-0.6,0.5l-0.7,0.4l-0.8,0.2l-0.9,0.1
				h-51.4l-0.9-0.1l-0.8-0.2l-0.7-0.4l-0.6-0.5l-0.5-0.6l-0.4-0.7l-0.2-0.8L346.2,75z"/>
			<path class="st10" d="M346.4,74.9v-1.3l0.1-0.8l0.2-0.8l0.4-0.7l0.5-0.6l0.6-0.5l0.7-0.4l0.8-0.2l0.8-0.1h49.8l0.9,0.1l0.8,0.2
				l0.7,0.4l0.6,0.5l0.5,0.6l0.4,0.7l0.2,0.8l0.1,0.8v1.3l-0.1,0.8l-0.2,0.8l-0.4,0.7l-0.5,0.6l-0.6,0.5l-0.7,0.4l-0.8,0.2l-0.8,0.1
				h-49.8l-0.9-0.1l-0.8-0.2l-0.7-0.4l-0.6-0.5l-0.5-0.6l-0.4-0.7l-0.2-0.8L346.4,74.9z"/>
			<path class="st11" d="M346.7,74.7v-1.2l0.1-0.8L347,72l0.4-0.7l0.5-0.6l0.6-0.5l0.7-0.4l0.7-0.2l0.8-0.1h48.1l0.8,0.1l0.7,0.2
				l0.7,0.4l0.6,0.5l0.5,0.6l0.4,0.7l0.2,0.7l0.1,0.8v1.2l-0.1,0.8l-0.2,0.7l-0.4,0.7l-0.5,0.6L401,78l-0.7,0.4l-0.7,0.2l-0.8,0.1
				h-48.1l-0.8-0.1l-0.7-0.2l-0.7-0.4l-0.6-0.5l-0.5-0.6l-0.4-0.7l-0.2-0.7L346.7,74.7z"/>
			<path class="st12" d="M347,74.6v-1.2l0.1-0.8l0.2-0.7l0.4-0.7l0.5-0.6l0.6-0.5l0.7-0.4l0.7-0.2l0.8-0.1h46.4l0.8,0.1l0.7,0.2
				l0.7,0.4l0.6,0.5l0.5,0.6l0.4,0.7l0.2,0.7l0.1,0.8v1.2l-0.1,0.8l-0.2,0.7l-0.4,0.7l-0.5,0.6l-0.6,0.5l-0.7,0.4l-0.7,0.2l-0.8,0.1
				h-46.4l-0.8-0.1l-0.7-0.2l-0.7-0.4l-0.6-0.5l-0.5-0.6l-0.4-0.7l-0.2-0.7L347,74.6z"/>
			<path class="st13" d="M347.3,74.5v-1.2l0.1-0.7l0.2-0.7l0.3-0.6l0.5-0.5l0.5-0.5l0.6-0.3l0.7-0.2l0.7-0.1h44.8l0.8,0.1l0.7,0.2
				l0.6,0.3l0.5,0.5l0.5,0.5l0.3,0.6l0.2,0.7l0.1,0.7v1.2l-0.1,0.7l-0.2,0.7l-0.3,0.6l-0.5,0.5l-0.5,0.5l-0.6,0.3l-0.7,0.2l-0.7,0.1
				H351l-0.8-0.1l-0.7-0.2l-0.6-0.3l-0.5-0.5l-0.5-0.5l-0.3-0.6l-0.2-0.7L347.3,74.5z"/>
			<path class="st14" d="M347.6,74.3v-1.1l0.1-0.7l0.2-0.7l0.3-0.6l0.4-0.5l0.5-0.4l0.6-0.3l0.7-0.2l0.7-0.1h43.1l0.7,0.1l0.7,0.2
				l0.6,0.3l0.5,0.4l0.4,0.5l0.3,0.6l0.2,0.7l0.1,0.7v1.1l-0.1,0.7l-0.2,0.7l-0.3,0.6l-0.4,0.5l-0.5,0.4l-0.6,0.3l-0.7,0.2l-0.7,0.1
				h-43.1l-0.7-0.1l-0.7-0.2l-0.6-0.3l-0.5-0.4l-0.4-0.5l-0.3-0.6l-0.2-0.7L347.6,74.3z"/>
			<path class="st15" d="M347.8,74.2v-1.1l0.1-0.7l0.2-0.6l0.3-0.6l0.4-0.5l0.5-0.4l0.6-0.3l0.6-0.2l0.7-0.1h41.4l0.7,0.1l0.6,0.2
				l0.6,0.3l0.5,0.4l0.4,0.5l0.3,0.6l0.2,0.6l0.1,0.7v1.1l-0.1,0.7l-0.2,0.6l-0.3,0.6l-0.4,0.5l-0.5,0.4l-0.6,0.3l-0.6,0.2l-0.7,0.1
				h-41.4l-0.7-0.1l-0.6-0.2l-0.6-0.3l-0.5-0.4l-0.4-0.5l-0.3-0.6l-0.2-0.6L347.8,74.2z"/>
			<path class="st16" d="M348.1,74.1v-1l0.1-0.7l0.2-0.6l0.3-0.6l0.4-0.5l0.5-0.4l0.6-0.3l0.6-0.2l0.7-0.1h39.8l0.7,0.1l0.6,0.2
				l0.6,0.3l0.5,0.4l0.4,0.5l0.3,0.6l0.2,0.6l0.1,0.7v1l-0.1,0.7l-0.2,0.6l-0.3,0.6l-0.4,0.5l-0.5,0.4l-0.6,0.3l-0.6,0.2l-0.7,0.1
				h-39.8l-0.7-0.1l-0.6-0.2l-0.6-0.3l-0.5-0.4l-0.4-0.5l-0.3-0.6l-0.2-0.6L348.1,74.1z"/>
			<path class="st17" d="M348.4,73.9v-1l0.1-0.6l0.2-0.6l0.3-0.5l0.4-0.5l0.5-0.4l0.5-0.3l0.6-0.2l0.6-0.1h38.1l0.7,0.1l0.6,0.2
				l0.5,0.3l0.5,0.4l0.4,0.5l0.3,0.5l0.2,0.6l0.1,0.6v1l-0.1,0.6l-0.2,0.6l-0.3,0.5l-0.4,0.5l-0.5,0.4l-0.5,0.3l-0.6,0.2l-0.6,0.1
				h-38.1l-0.7-0.1l-0.6-0.2l-0.5-0.3l-0.5-0.4l-0.4-0.5l-0.3-0.5l-0.2-0.6L348.4,73.9z"/>
			<path class="st18" d="M348.7,73.8v-0.9l0.1-0.6l0.2-0.6l0.3-0.5l0.4-0.4l0.4-0.4l0.5-0.3l0.6-0.2l0.6-0.1h36.4l0.6,0.1l0.6,0.2
				l0.5,0.3l0.4,0.4l0.4,0.4l0.3,0.5l0.2,0.6l0.1,0.6v0.9l-0.1,0.6l-0.2,0.6l-0.3,0.5l-0.4,0.4l-0.4,0.4l-0.5,0.3l-0.6,0.2l-0.6,0.1
				h-36.4l-0.6-0.1l-0.6-0.2l-0.5-0.3l-0.4-0.4l-0.4-0.4l-0.3-0.5l-0.2-0.6L348.7,73.8z"/>
			<path class="st19" d="M348.9,73.7v-0.9l0.1-0.6l0.2-0.5l0.3-0.5l0.4-0.4l0.4-0.4l0.5-0.3l0.5-0.2l0.6-0.1h34.8l0.6,0.1l0.5,0.2
				l0.5,0.3l0.4,0.4l0.4,0.4l0.3,0.5l0.2,0.5l0.1,0.6v0.9l-0.1,0.6l-0.2,0.5l-0.3,0.5l-0.4,0.4l-0.4,0.4l-0.5,0.3l-0.5,0.2l-0.6,0.1
				h-34.8l-0.6-0.1l-0.5-0.2l-0.5-0.3l-0.4-0.4l-0.4-0.4l-0.3-0.5l-0.2-0.5L348.9,73.7z"/>
			<path class="st20" d="M349.2,73.5v-0.9l0.1-0.6l0.2-0.5l0.3-0.5l0.3-0.4l0.4-0.3l0.5-0.3l0.5-0.2l0.6-0.1h33.1l0.6,0.1l0.5,0.2
				l0.5,0.3l0.4,0.3l0.3,0.4l0.3,0.5l0.2,0.5l0.1,0.6v0.9l-0.1,0.6l-0.2,0.5l-0.3,0.5l-0.3,0.4l-0.4,0.3l-0.5,0.3l-0.5,0.2l-0.6,0.1
				H352l-0.6-0.1l-0.5-0.2l-0.5-0.3l-0.4-0.3l-0.3-0.4l-0.3-0.5l-0.2-0.5L349.2,73.5z"/>
			<path class="st21" d="M349.5,73.4v-0.8l0.1-0.5l0.2-0.5l0.2-0.4l0.3-0.4l0.4-0.3l0.4-0.2l0.5-0.2l0.5-0.1h31.5l0.5,0.1l0.5,0.2
				l0.4,0.2l0.4,0.3l0.3,0.4l0.2,0.4l0.2,0.5l0.1,0.5v0.8l-0.1,0.5l-0.2,0.5l-0.2,0.4l-0.3,0.4l-0.4,0.3l-0.4,0.2l-0.5,0.2l-0.5,0.1
				h-31.5l-0.5-0.1l-0.5-0.2l-0.4-0.2l-0.4-0.3l-0.3-0.4l-0.2-0.4l-0.2-0.5L349.5,73.4z"/>
			<path class="st22" d="M349.8,73.3v-0.8l0.1-0.5l0.1-0.5l0.2-0.4l0.3-0.4l0.4-0.3l0.4-0.2l0.5-0.1l0.5-0.1H382l0.5,0.1l0.5,0.1
				l0.4,0.2l0.4,0.3l0.3,0.4l0.2,0.4l0.1,0.5l0.1,0.5v0.8l-0.1,0.5l-0.1,0.5l-0.2,0.4l-0.3,0.4l-0.4,0.3l-0.4,0.2l-0.5,0.1l-0.5,0.1
				h-29.8l-0.5-0.1l-0.5-0.1l-0.4-0.2l-0.4-0.3l-0.3-0.4l-0.2-0.4l-0.1-0.5L349.8,73.3z"/>
			<path class="st23" d="M350.1,73.1v-0.7l0-0.5l0.1-0.4l0.2-0.4l0.3-0.3l0.3-0.3l0.4-0.2l0.4-0.1l0.5,0h28.1l0.5,0l0.4,0.1l0.4,0.2
				l0.3,0.3l0.3,0.3l0.2,0.4l0.1,0.4l0,0.5v0.7l0,0.5l-0.1,0.4l-0.2,0.4l-0.3,0.3l-0.3,0.3l-0.4,0.2l-0.4,0.1l-0.5,0h-28.1l-0.5,0
				l-0.4-0.1l-0.4-0.2l-0.3-0.3l-0.3-0.3l-0.2-0.4l-0.1-0.4L350.1,73.1z"/>
			<path class="st24" d="M350.3,73v-0.7l0-0.4l0.1-0.4l0.2-0.4l0.3-0.3l0.3-0.3l0.4-0.2l0.4-0.1l0.4,0H379l0.5,0l0.4,0.1l0.4,0.2
				l0.3,0.3l0.3,0.3l0.2,0.4l0.1,0.4l0,0.4V73l0,0.4l-0.1,0.4l-0.2,0.4l-0.3,0.3l-0.3,0.3l-0.4,0.2l-0.4,0.1l-0.4,0h-26.5l-0.5,0
				l-0.4-0.1l-0.4-0.2l-0.3-0.3l-0.3-0.3l-0.2-0.4l-0.1-0.4L350.3,73z"/>
			<path class="st25" d="M350.6,72.9v-0.6l0-0.4l0.1-0.4l0.2-0.3l0.3-0.3l0.3-0.3l0.3-0.2l0.4-0.1l0.4,0h24.8l0.4,0l0.4,0.1l0.3,0.2
				l0.3,0.3l0.3,0.3l0.2,0.3l0.1,0.4l0,0.4v0.6l0,0.4l-0.1,0.4l-0.2,0.3l-0.3,0.3l-0.3,0.3l-0.3,0.2l-0.4,0.1l-0.4,0h-24.8l-0.4,0
				l-0.4-0.1l-0.3-0.2l-0.3-0.3L351,74l-0.2-0.3l-0.1-0.4L350.6,72.9z"/>
			<path class="st26" d="M350.9,72.7v-0.6l0-0.4l0.1-0.4l0.2-0.3l0.2-0.3l0.3-0.2l0.3-0.2l0.4-0.1l0.4,0h23.1l0.4,0l0.4,0.1l0.3,0.2
				l0.3,0.2l0.2,0.3l0.2,0.3l0.1,0.4l0,0.4v0.6l0,0.4l-0.1,0.4l-0.2,0.3l-0.2,0.3l-0.3,0.2l-0.3,0.2l-0.4,0.1l-0.4,0h-23.1l-0.4,0
				l-0.4-0.1l-0.3-0.2l-0.3-0.2l-0.2-0.3l-0.2-0.3l-0.1-0.4L350.9,72.7z"/>
			<path class="st27" d="M351.2,72.6V72l0-0.4l0.1-0.3l0.2-0.3l0.2-0.3l0.3-0.2l0.3-0.2l0.3-0.1l0.4,0h21.5l0.4,0l0.3,0.1l0.3,0.2
				l0.3,0.2l0.2,0.3l0.2,0.3l0.1,0.3l0,0.4v0.6l0,0.4l-0.1,0.3l-0.2,0.3l-0.2,0.3l-0.3,0.2l-0.3,0.2l-0.3,0.1l-0.4,0H353l-0.4,0
				l-0.3-0.1l-0.3-0.2l-0.3-0.2l-0.2-0.3l-0.2-0.3l-0.1-0.3L351.2,72.6z"/>
			<path class="st28" d="M351.4,72.4v-0.5l0-0.3l0.1-0.3l0.2-0.3l0.2-0.2l0.2-0.2l0.3-0.2l0.3-0.1l0.3,0h19.8l0.3,0l0.3,0.1l0.3,0.2
				l0.2,0.2l0.2,0.2l0.2,0.3l0.1,0.3l0,0.3v0.5l0,0.3l-0.1,0.3l-0.2,0.3l-0.2,0.2l-0.2,0.2l-0.3,0.2l-0.3,0.1l-0.3,0h-19.8l-0.3,0
				l-0.3-0.1l-0.3-0.2l-0.2-0.2l-0.2-0.2l-0.2-0.3l-0.1-0.3L351.4,72.4z"/>
			<path class="st29" d="M351.7,72.3v-0.5l0-0.3l0.1-0.3L352,71l0.2-0.2l0.2-0.2l0.3-0.1l0.3-0.1l0.3,0h18.1l0.3,0l0.3,0.1l0.3,0.1
				l0.2,0.2l0.2,0.2l0.1,0.3l0.1,0.3l0,0.3v0.5l0,0.3l-0.1,0.3l-0.1,0.3l-0.2,0.2l-0.2,0.2l-0.3,0.1l-0.3,0.1l-0.3,0h-18.1l-0.3,0
				l-0.3-0.1l-0.3-0.1l-0.2-0.2l-0.2-0.2l-0.1-0.3l-0.1-0.3L351.7,72.3z"/>
			<path class="st30" d="M352,72.2v-0.4l0-0.3l0.1-0.3l0.1-0.2l0.2-0.2l0.2-0.2l0.2-0.1l0.3-0.1l0.3,0h16.5l0.3,0l0.3,0.1l0.2,0.1
				l0.2,0.2L371,71l0.1,0.2l0.1,0.3l0,0.3v0.4l0,0.3l-0.1,0.3l-0.1,0.2l-0.2,0.2l-0.2,0.2l-0.2,0.1l-0.3,0.1l-0.3,0h-16.5l-0.3,0
				l-0.3-0.1l-0.2-0.1l-0.2-0.2l-0.2-0.2l-0.1-0.2l-0.1-0.3L352,72.2z"/>
			<path class="st31" d="M352.3,72v-0.4l0-0.2l0.1-0.2l0.1-0.2l0.1-0.2l0.2-0.1l0.2-0.1l0.2-0.1l0.2,0h14.8l0.3,0l0.2,0.1l0.2,0.1
				l0.2,0.1l0.2,0.2l0.1,0.2l0.1,0.2l0,0.2V72l0,0.2l-0.1,0.2l-0.1,0.2l-0.2,0.2l-0.2,0.1l-0.2,0.1l-0.2,0.1l-0.2,0h-14.8l-0.3,0
				l-0.2-0.1l-0.2-0.1l-0.2-0.1l-0.1-0.2l-0.1-0.2l-0.1-0.2L352.3,72z"/>
			<path class="st32" d="M352.6,71.9v-0.3l0-0.2l0.1-0.2l0.1-0.2l0.1-0.2l0.2-0.1l0.2-0.1l0.2-0.1l0.2,0h13.2l0.2,0l0.2,0.1l0.2,0.1
				l0.2,0.1l0.1,0.2l0.1,0.2l0.1,0.2l0,0.2v0.3l0,0.2l-0.1,0.2l-0.1,0.2l-0.1,0.2l-0.2,0.1l-0.2,0.1L367,73l-0.2,0h-13.2l-0.2,0
				l-0.2-0.1l-0.2-0.1l-0.2-0.1l-0.1-0.2l-0.1-0.2l-0.1-0.2L352.6,71.9z"/>
			<path class="st33" d="M352.8,71.8v-0.3l0-0.2l0.1-0.2l0.1-0.2l0.1-0.1l0.1-0.1l0.2-0.1l0.2-0.1l0.2,0h11.5l0.2,0l0.2,0.1l0.2,0.1
				l0.1,0.1l0.1,0.1l0.1,0.2l0.1,0.2l0,0.2v0.3l0,0.2l-0.1,0.2l-0.1,0.2l-0.1,0.1l-0.1,0.1l-0.2,0.1l-0.2,0.1l-0.2,0h-11.5l-0.2,0
				l-0.2-0.1l-0.2-0.1l-0.1-0.1l-0.1-0.1l-0.1-0.2l-0.1-0.2L352.8,71.8z"/>
			<path class="st34" d="M353.1,71.6v-0.3l0-0.2l0-0.2l0.1-0.1l0.1-0.1l0.1-0.1l0.1-0.1l0.2,0l0.2,0h9.8l0.2,0l0.2,0l0.1,0.1
				l0.1,0.1l0.1,0.1l0.1,0.1l0,0.2l0,0.2v0.3l0,0.2l0,0.2l-0.1,0.1l-0.1,0.1l-0.1,0.1l-0.1,0.1l-0.2,0l-0.2,0h-9.8l-0.2,0l-0.2,0
				l-0.1-0.1l-0.1-0.1l-0.1-0.1l-0.1-0.1l0-0.2L353.1,71.6z"/>
			<path class="st34" d="M353.4,71.5v-0.2l0-0.1l0-0.1l0.1-0.1l0.1-0.1l0.1-0.1l0.1-0.1l0.1,0l0.1,0h8.2l0.1,0l0.1,0l0.1,0.1
				l0.1,0.1l0.1,0.1l0.1,0.1l0,0.1l0,0.1v0.2l0,0.1l0,0.1l-0.1,0.1l-0.1,0.1l-0.1,0.1l-0.1,0.1l-0.1,0l-0.1,0h-8.2l-0.1,0l-0.1,0
				l-0.1-0.1l-0.1-0.1l-0.1-0.1l-0.1-0.1l0-0.1L353.4,71.5z"/>
			<path class="st34" d="M353.7,71.4v-0.2l0-0.1l0-0.1l0-0.1l0.1-0.1l0.1-0.1l0.1,0l0.1,0l0.1,0h6.5l0.1,0l0.1,0l0.1,0l0.1,0.1
				l0.1,0.1l0.1,0.1l0,0.1l0,0.1v0.2l0,0.1l0,0.1l-0.1,0.1l-0.1,0.1l-0.1,0.1l-0.1,0.1l-0.1,0l-0.1,0h-6.5l-0.1,0l-0.1,0l-0.1-0.1
				l-0.1-0.1l-0.1-0.1l0-0.1l0-0.1L353.7,71.4z"/>
		</g>
	</g>
	<path class="st35" d="M345.1,75.5v-1.5c0-2.6,2.2-4.8,4.8-4.8H408c2.6,0,4.8,2.2,4.8,4.8v1.5c0,2.6-2.2,4.8-4.8,4.8h-58.1
		C347.2,80.3,345.1,78.2,345.1,75.5"/>
	<path class="st36" d="M345.1,75.5v-1.5c0-2.6,2.2-4.8,4.8-4.8H408c2.6,0,4.8,2.2,4.8,4.8v1.5c0,2.6-2.2,4.8-4.8,4.8h-58.1
		C347.2,80.3,345.1,78.2,345.1,75.5"/>
	<text transform="matrix(1 0 0 1 372.4795 39.6803)" class="st1 st2">OH</text>
	<path d="M377.3,41.9h0.8v4.6h-0.8V41.9z"/>
	<text transform="matrix(1 0 0 1 398.7998 16.6803)" class="st1 st2">H</text>
	<text transform="matrix(1 0 0 1 420 16.6803)" class="st1 st2">F</text>
	<path d="M419,11.1v0.8h-9.5v-0.8H419z"/>
	<text transform="matrix(1 0 0 1 167.8271 47.6403)" class="st1 st2">&gt;70C</text>
	<path class="st42" d="M44.4,24.9c12.9,9.3,28.8,14.5,44.7,14.5"/>
	<path class="st43" d="M96.1,39l-7.8,2.4c0,0,0.9-1.2,0.8-2.1c-0.1-0.9-1.2-2-1.2-2L96.1,39L96.1,39"/>
	<path class="st44" d="M96.1,39l-7.8,2.4c0,0,0.9-1.2,0.8-2.1c-0.1-0.9-1.2-2-1.2-2L96.1,39L96.1,39"/>
	<path class="st42" d="M393.3,49.7c11-1.3,20.5-10.4,22.2-21.3"/>
	<path class="st43" d="M415.6,21.3l1.9,8.1c0,0-1.1-1.1-2-1.1c-0.9,0-2.1,0.9-2.1,0.9L415.6,21.3L415.6,21.3"/>
	<path class="st44" d="M415.6,21.3l1.9,8.1c0,0-1.1-1.1-2-1.1c-0.9,0-2.1,0.9-2.1,0.9L415.6,21.3L415.6,21.3"/>
	<path class="st42" d="M59.9,18.1c9.4,4.3,19.8,6.6,30.2,6.7"/>
	<path class="st43" d="M97,24.5l-7.8,2.4c0,0,0.9-1.2,0.8-2.1c-0.1-0.9-1.2-2-1.2-2L97,24.5L97,24.5"/>
	<path class="st44" d="M97,24.5l-7.8,2.4c0,0,0.9-1.2,0.8-2.1c-0.1-0.9-1.2-2-1.2-2L97,24.5L97,24.5"/>
	<path class="st0" d="z"/>
</g>
</svg>
