<?xml version="1.0" standalone="no" ?>
<!DOCTYPE svg PUBLIC "-//W3C//DTD SVG 1.1//EN" "http://www.w3.org/Graphics/SVG/1.1/DTD/svg11.dtd">
<svg width="65px" height="107px" viewBox="0 0 65 107" style="background-color: #ffffff00" xmlns="http://www.w3.org/2000/svg" xmlns:xlink="http://www.w3.org/1999/xlink" version="1.1" >
<text x="0" y="0" stroke="none" fill="#000000" transform="matrix(0.0666667 0 0 0.0666667 24.0056 72.7333)" font-style="normal" font-weight="normal" font-size="200px" font-family="Arial" >
Si</text>
<text x="0" y="0" stroke="none" fill="#000000" transform="matrix(0.0666667 0 0 0.0666667 24.88 43.4533)" font-style="normal" font-weight="normal" font-size="200px" font-family="Arial" >
CH</text>
<text x="0" y="0" stroke="none" fill="#000000" transform="matrix(0.0666667 0 0 0.0666667 44.1378 46.3867)" font-style="normal" font-weight="normal" font-size="150px" font-family="Arial" >
2</text>
<path stroke="none" fill="#000000" transform="matrix(0.0666667 0 0 0.0666667 -347.067 -192.467)" d="M 5646.19,3574.68 L 5658.18,3574.57 L 5660.16,3802.79 L 5648.16,3802.89 L 5646.19,3574.68 Z " />
<text x="0" y="0" stroke="none" fill="#000000" transform="matrix(0.0666667 0 0 0.0666667 24.88 13.8533)" font-style="normal" font-weight="normal" font-size="200px" font-family="Arial" >
R</text>
<path stroke="none" fill="#000000" transform="matrix(0.0666667 0 0 0.0666667 -347.067 -192.467)" d="M 5645.2,3125.97 L 5657.2,3125.97 L 5657.2,3363.63 L 5645.2,3363.63 L 5645.2,3125.97 Z " />
<text x="0" y="0" stroke="none" fill="#000000" transform="matrix(0.0666667 0 0 0.0666667 3.32666 94.9067)" font-style="normal" font-weight="normal" font-size="200px" font-family="Arial" >
X</text>
<path stroke="none" fill="#000000" transform="matrix(0.0666667 0 0 0.0666667 -347.067 -192.467)" d="M 5411.44,4152.05 L 5402.95,4143.56 L 5561.76,3984.76 L 5570.24,3993.24 L 5411.44,4152.05 Z " />
<text x="0" y="0" stroke="none" fill="#000000" transform="matrix(0.0666667 0 0 0.0666667 25.5 103.987)" font-style="normal" font-weight="normal" font-size="200px" font-family="Arial" >
X</text>
<path stroke="none" fill="#000000" transform="matrix(0.0666667 0 0 0.0666667 -347.067 -192.467)" d="M 5661,4273.97 L 5649,4273.97 L 5649,4011.83 L 5661,4011.83 L 5661,4273.97 Z " />
<text x="0" y="0" stroke="none" fill="#000000" transform="matrix(0.0666667 0 0 0.0666667 46.06 93.2933)" font-style="normal" font-weight="normal" font-size="200px" font-family="Arial" >
X</text>
<path stroke="none" fill="#000000" transform="matrix(0.0666667 0 0 0.0666667 -347.067 -192.467)" d="M 5884.35,4120.86 L 5875.86,4129.35 L 5750.84,4004.33 L 5759.33,3995.84 L 5884.35,4120.86 Z " />
<path stroke="#000000" stroke-width="12" fill="none" transform="matrix(0.0666667 0 0 0.0666667 -347.067 -192.467)" d="M 5971.82,3318.8 L 5996.2,3318.8 " />
<path stroke="#000000" stroke-width="12" fill="none" transform="matrix(0.0666667 0 0 0.0666667 -347.067 -192.467)" d="M 5996.2,3318.8 L 5996.2,3648.8 " />
<path stroke="#000000" stroke-width="12" fill="none" transform="matrix(0.0666667 0 0 0.0666667 -347.067 -192.467)" d="M 5996.2,3648.8 L 5971.82,3648.8 " />
<text x="0" y="0" stroke="none" fill="#000000" transform="matrix(0.0666667 0 0 0.0666667 56.43 53.8589)" font-style="normal" font-weight="normal" font-size="150px" font-family="Arial" >
n</text>
<path stroke="#000000" stroke-width="12" fill="none" transform="matrix(0.0666667 0 0 0.0666667 -347.067 -192.467)" d="M 5506.17,3648.8 L 5482.6,3648.8 " />
<path stroke="#000000" stroke-width="12" fill="none" transform="matrix(0.0666667 0 0 0.0666667 -347.067 -192.467)" d="M 5482.6,3648.8 L 5482.6,3330 " />
<path stroke="#000000" stroke-width="12" fill="none" transform="matrix(0.0666667 0 0 0.0666667 -347.067 -192.467)" d="M 5482.6,3330 L 5506.17,3330 " />
</svg>
