<?xml version="1.0" encoding="utf-8"?>
<!-- Generator: Adobe Illustrator 16.0.3, SVG Export Plug-In . SVG Version: 6.00 Build 0)  -->
<!DOCTYPE svg PUBLIC "-//W3C//DTD SVG 1.1//EN" "http://www.w3.org/Graphics/SVG/1.1/DTD/svg11.dtd">
<svg version="1.1" id="Ebene_1" xmlns="http://www.w3.org/2000/svg" xmlns:xlink="http://www.w3.org/1999/xlink" x="0px" y="0px"
	 width="240.945px" height="218.495px" viewBox="0 0 240.945 218.495" enable-background="new 0 0 240.945 218.495"
	 xml:space="preserve">
<g>
	<g>
		<line fill="none" stroke="#000000" stroke-width="0.5" x1="168.861" y1="25.057" x2="147.7" y2="25.057"/>
		<g>
			<polygon points="168.313,23.197 171.552,25.067 168.313,26.937 			"/>
		</g>
	</g>
</g>
<g>
	<g>
		
			<line fill="none" stroke="#000000" stroke-width="0.5" stroke-linecap="round" stroke-linejoin="round" x1="211.912" y1="25.057" x2="187.376" y2="25.057"/>
		<g>
			<polygon points="211.364,23.197 214.603,25.067 211.364,26.937 			"/>
		</g>
	</g>
</g>
<g>
	<g>
		
			<line fill="none" stroke="#000000" stroke-width="0.5" stroke-linecap="round" stroke-linejoin="round" x1="129.282" y1="25.056" x2="1.219" y2="25.056"/>
		<g>
			<polygon points="128.735,23.196 131.973,25.066 128.735,26.936 			"/>
		</g>
	</g>
</g>
<g>
	<g>
		<line fill="none" stroke="#000000" stroke-width="0.5" x1="129.668" y1="138.372" x2="1.219" y2="138.372"/>
		<g>
			<polygon points="129.121,136.513 132.359,138.382 129.121,140.252 			"/>
		</g>
	</g>
</g>
<g>
	<g>
		<line fill="none" stroke="#000000" stroke-width="0.5" x1="140.223" y1="64.303" x2="140.223" y2="35.538"/>
		<g>
			<polygon points="142.082,63.756 140.212,66.994 138.343,63.756 			"/>
		</g>
		<g>
			<polygon points="142.082,36.085 140.212,32.847 138.343,36.085 			"/>
		</g>
	</g>
</g>
<g>
	<g>
		<polyline fill="none" stroke="#000000" stroke-width="0.5" points="129.668,74.691 72.795,74.691 72.795,25.524 		"/>
		<g>
			<polygon points="129.121,72.832 132.359,74.701 129.121,76.571 			"/>
		</g>
	</g>
</g>
<g>
	<path d="M149.891,61.745h-1.96v2.2h-0.376v-2.2h-1.96v-0.36h1.96V59.33h0.376v2.056h1.96V61.745z"/>
	<path d="M154.442,61.209c0,0.549-0.035,1.02-0.104,1.412c-0.069,0.392-0.221,0.716-0.456,0.972
		c-0.304,0.331-0.699,0.496-1.184,0.496c-0.448,0-0.823-0.133-1.124-0.4s-0.463-0.616-0.484-1.048h0.416
		c0.021,0.326,0.138,0.584,0.352,0.776s0.494,0.288,0.84,0.288c0.373,0,0.667-0.115,0.88-0.344c0.106-0.117,0.195-0.263,0.264-0.436
		c0.069-0.173,0.114-0.382,0.136-0.628c0.021-0.245,0.035-0.432,0.04-0.56s0.008-0.323,0.008-0.584
		c-0.117,0.261-0.297,0.472-0.54,0.632c-0.243,0.16-0.516,0.24-0.82,0.24c-0.539,0-0.961-0.169-1.268-0.508
		c-0.307-0.339-0.46-0.786-0.46-1.34c0-0.528,0.155-0.971,0.464-1.328c0.309-0.357,0.728-0.536,1.256-0.536
		c0.288,0,0.546,0.064,0.776,0.192s0.413,0.288,0.552,0.48C154.291,59.407,154.442,60.148,154.442,61.209z M153.931,60.193
		c0-0.411-0.113-0.763-0.34-1.056c-0.227-0.293-0.54-0.44-0.94-0.44c-0.432,0-0.757,0.143-0.976,0.428
		c-0.219,0.285-0.328,0.636-0.328,1.052s0.11,0.767,0.332,1.052c0.221,0.285,0.548,0.428,0.98,0.428
		c0.331,0,0.613-0.112,0.848-0.336C153.789,61.049,153.931,60.673,153.931,60.193z"/>
	<path d="M159.075,61.201c0,1.206-0.219,2.019-0.656,2.44c-0.309,0.299-0.685,0.448-1.128,0.448s-0.819-0.149-1.128-0.448
		c-0.438-0.421-0.656-1.234-0.656-2.44c0-1.205,0.219-2.019,0.656-2.44c0.309-0.298,0.685-0.448,1.128-0.448
		s0.819,0.149,1.128,0.448C158.856,59.183,159.075,59.996,159.075,61.201z M158.646,62.005c0.013-0.21,0.02-0.479,0.02-0.804
		c0-0.325-0.007-0.593-0.02-0.804c-0.013-0.211-0.062-0.456-0.144-0.736c-0.083-0.28-0.201-0.495-0.356-0.644
		c-0.224-0.213-0.509-0.32-0.856-0.32s-0.632,0.107-0.856,0.32c-0.155,0.149-0.273,0.364-0.356,0.644
		c-0.083,0.28-0.131,0.525-0.144,0.736c-0.013,0.21-0.02,0.479-0.02,0.804c0,0.326,0.007,0.594,0.02,0.804
		c0.013,0.211,0.061,0.456,0.144,0.736c0.083,0.28,0.201,0.495,0.356,0.644c0.224,0.213,0.509,0.32,0.856,0.32
		s0.632-0.107,0.856-0.32c0.155-0.149,0.273-0.364,0.356-0.644C158.585,62.461,158.633,62.216,158.646,62.005z"/>
	<path d="M162.407,58.593c0.258,0.261,0.388,0.573,0.388,0.936s-0.129,0.675-0.388,0.936c-0.259,0.261-0.57,0.392-0.932,0.392
		c-0.363,0-0.675-0.131-0.936-0.392s-0.392-0.573-0.392-0.936s0.131-0.675,0.392-0.936s0.573-0.392,0.936-0.392
		C161.837,58.201,162.148,58.332,162.407,58.593z M162.154,60.221c0.182-0.189,0.272-0.42,0.272-0.692s-0.09-0.502-0.272-0.692
		c-0.181-0.189-0.408-0.284-0.68-0.284s-0.5,0.095-0.684,0.284s-0.276,0.42-0.276,0.692s0.092,0.503,0.276,0.692
		c0.184,0.189,0.412,0.284,0.684,0.284S161.973,60.411,162.154,60.221z"/>
</g>
<g>
	<path d="M202.908,21.998h-0.472l-1.64-2.536l-1.648,2.536H198.7l1.864-2.872l-1.855-2.8h0.456l1.647,2.48l1.648-2.48h0.447
		l-1.863,2.8L202.908,21.998z"/>
</g>
<g>
	<path fill="#009EE0" d="M6.13,11.73c-0.152,0.076-0.33,0.114-0.532,0.114c-0.209,0-0.377-0.069-0.503-0.209
		c-0.127-0.139-0.19-0.313-0.19-0.522H4.885c-0.139,0.241-0.348,0.432-0.627,0.575s-0.586,0.214-0.921,0.214
		c-0.52,0-0.925-0.147-1.216-0.442c-0.291-0.294-0.437-0.641-0.437-1.04c0-0.228,0.048-0.445,0.143-0.651
		c0.095-0.206,0.277-0.393,0.546-0.561c0.269-0.167,0.609-0.264,1.021-0.29l1.463-0.085V8.481c0-0.336-0.083-0.58-0.247-0.731
		c-0.177-0.165-0.44-0.247-0.789-0.247c-0.393,0-0.684,0.095-0.874,0.285C2.789,7.946,2.71,8.139,2.71,8.367H1.921
		C1.928,7.974,2.067,7.639,2.339,7.36c0.323-0.342,0.817-0.513,1.482-0.513c0.861,0,1.425,0.308,1.691,0.922
		c0.095,0.215,0.143,0.462,0.143,0.741v2.328c0,0.215,0.088,0.323,0.266,0.323l0.209-0.028V11.73z M4.857,9.744V9.459L3.565,9.535
		C3.28,9.554,3.033,9.634,2.824,9.773S2.51,10.121,2.51,10.4c0,0.234,0.078,0.431,0.233,0.589c0.155,0.159,0.394,0.238,0.717,0.238
		c0.405,0,0.734-0.13,0.988-0.39C4.721,10.558,4.857,10.194,4.857,9.744z"/>
</g>
<line fill="none" stroke="#000000" stroke-width="0.5" stroke-miterlimit="10" x1="140.224" y1="50.026" x2="95.333" y2="50.026"/>
<g>
	<path d="M226.029,27.251h-0.424l-0.576-1.496h-2.744l-0.56,1.496h-0.432l2.151-5.672h0.408L226.029,27.251z M224.877,25.363
		l-1.232-3.208l-1.208,3.208H224.877z"/>
	<path d="M230.958,24.411c0,0.501-0.044,0.938-0.132,1.312c-0.089,0.373-0.273,0.696-0.557,0.968
		c-0.384,0.374-0.861,0.56-1.432,0.56h-1.88v-5.672h1.88c0.57,0,1.048,0.187,1.432,0.56c0.283,0.272,0.468,0.595,0.557,0.968
		C230.914,23.48,230.958,23.915,230.958,24.411z M230.425,25.575c0.072-0.333,0.108-0.722,0.108-1.164
		c0-0.443-0.036-0.831-0.108-1.164s-0.226-0.612-0.46-0.836c-0.299-0.283-0.675-0.424-1.128-0.424h-1.464v4.856h1.464
		c0.453,0,0.829-0.141,1.128-0.424C230.2,26.19,230.353,25.908,230.425,25.575z"/>
	<path d="M236.061,25.515c-0.042,0.533-0.25,0.973-0.624,1.32c-0.373,0.347-0.837,0.52-1.392,0.52c-0.587,0-1.085-0.205-1.496-0.616
		c-0.271-0.277-0.45-0.606-0.536-0.988c-0.085-0.381-0.128-0.828-0.128-1.34c0-0.512,0.043-0.958,0.128-1.336
		c0.086-0.379,0.265-0.707,0.536-0.984c0.411-0.411,0.909-0.616,1.496-0.616c0.555,0,1.019,0.173,1.392,0.52
		c0.374,0.347,0.582,0.787,0.624,1.32h-0.432c-0.037-0.427-0.2-0.772-0.488-1.036c-0.288-0.264-0.653-0.396-1.096-0.396
		c-0.48,0-0.877,0.163-1.192,0.488c-0.159,0.165-0.281,0.376-0.363,0.632c-0.083,0.256-0.133,0.481-0.148,0.676
		c-0.016,0.194-0.023,0.438-0.023,0.732c0,0.288,0.008,0.532,0.023,0.732c0.016,0.2,0.066,0.428,0.152,0.684
		c0.085,0.256,0.208,0.467,0.368,0.632c0.314,0.325,0.709,0.488,1.184,0.488c0.442,0,0.808-0.132,1.096-0.396
		c0.288-0.264,0.451-0.609,0.488-1.036H236.061z"/>
</g>
<g>
	<path fill="#009EE0" d="M44.699,120.226c0,1.051-0.243,1.808-0.728,2.272c-0.395,0.378-0.891,0.568-1.488,0.568h-1.976v-5.672
		h1.976c0.592,0,1.088,0.192,1.488,0.576C44.456,118.428,44.699,119.18,44.699,120.226z M43.979,120.226
		c0-0.39-0.031-0.732-0.092-1.028c-0.062-0.296-0.193-0.548-0.396-0.756c-0.262-0.261-0.598-0.392-1.008-0.392h-1.264v4.36h1.264
		c0.411,0,0.747-0.131,1.008-0.392C43.816,121.687,43.979,121.089,43.979,120.226z"/>
	<path fill="#009EE0" d="M49.803,121.505c0,0.421-0.16,0.787-0.48,1.096c-0.384,0.378-0.92,0.568-1.608,0.568
		s-1.229-0.181-1.624-0.544c-0.405-0.379-0.608-0.832-0.608-1.36h0.744c0,0.341,0.133,0.64,0.4,0.896
		c0.24,0.234,0.603,0.352,1.088,0.352c0.469,0,0.821-0.109,1.056-0.328c0.192-0.176,0.288-0.397,0.288-0.664
		c0-0.235-0.079-0.433-0.236-0.596c-0.158-0.163-0.396-0.268-0.716-0.316l-0.896-0.136c-0.453-0.069-0.819-0.229-1.096-0.48
		c-0.277-0.251-0.416-0.592-0.416-1.024c0-0.432,0.165-0.805,0.496-1.12c0.4-0.374,0.896-0.56,1.488-0.56
		c0.603,0,1.093,0.181,1.472,0.544c0.346,0.331,0.528,0.736,0.544,1.216h-0.744c-0.016-0.277-0.109-0.515-0.28-0.712
		c-0.229-0.261-0.563-0.392-1-0.392c-0.442,0-0.778,0.131-1.008,0.392c-0.155,0.182-0.232,0.387-0.232,0.616
		c0,0.234,0.081,0.418,0.244,0.552c0.163,0.133,0.364,0.216,0.604,0.248c0.026,0.005,0.341,0.053,0.944,0.144
		c0.48,0.069,0.863,0.245,1.148,0.528S49.803,121.068,49.803,121.505z"/>
	<path fill="#009EE0" d="M54.979,119.105c0,0.544-0.157,0.973-0.472,1.288c-0.315,0.314-0.779,0.472-1.392,0.472h-1.4v2.2h-0.712
		v-5.672h2.104c0.646,0,1.125,0.17,1.44,0.512C54.835,118.22,54.979,118.62,54.979,119.105z M54.243,119.105
		c0-0.352-0.102-0.617-0.304-0.796s-0.485-0.268-0.848-0.268h-1.376v2.176h1.384C53.862,120.217,54.243,119.847,54.243,119.105z"/>
</g>
<g>
	<path fill="#009EE0" d="M6.358,108.651c0,0.855-0.231,1.52-0.694,1.995c-0.335,0.348-0.788,0.522-1.358,0.522
		c-0.285,0-0.562-0.066-0.831-0.2c-0.27-0.133-0.47-0.316-0.604-0.551l-0.057,0.627H2.102v-6.859h0.808v2.612
		c0.12-0.209,0.315-0.375,0.584-0.499c0.269-0.124,0.54-0.186,0.812-0.186c0.539,0,0.979,0.162,1.321,0.485
		C6.114,107.068,6.358,107.752,6.358,108.651z M5.218,109.953c0.209-0.355,0.313-0.792,0.313-1.311c0-0.52-0.104-0.957-0.313-1.311
		c-0.209-0.355-0.558-0.532-1.045-0.532c-0.285,0-0.545,0.104-0.779,0.313c-0.354,0.311-0.532,0.82-0.532,1.53
		c0,0.709,0.177,1.219,0.532,1.529c0.234,0.209,0.494,0.313,0.779,0.313C4.66,110.485,5.009,110.308,5.218,109.953z"/>
</g>
<polygon fill="none" stroke="#000000" stroke-width="0.5" stroke-linecap="round" stroke-linejoin="round" stroke-miterlimit="10" points="
	240.379,32.767 219.328,32.767 214.603,25.057 219.328,17.345 240.379,17.345 "/>
<g>
	<path d="M226.029,76.783h-0.424l-0.576-1.496h-2.744l-0.56,1.496h-0.432l2.151-5.672h0.408L226.029,76.783z M224.877,74.895
		l-1.232-3.208l-1.208,3.208H224.877z"/>
	<path d="M230.958,73.943c0,0.501-0.044,0.938-0.132,1.312c-0.089,0.373-0.273,0.696-0.557,0.968
		c-0.384,0.374-0.861,0.56-1.432,0.56h-1.88v-5.672h1.88c0.57,0,1.048,0.187,1.432,0.56c0.283,0.272,0.468,0.595,0.557,0.968
		C230.914,73.013,230.958,73.447,230.958,73.943z M230.425,75.107c0.072-0.333,0.108-0.722,0.108-1.164
		c0-0.443-0.036-0.831-0.108-1.164s-0.226-0.612-0.46-0.836c-0.299-0.283-0.675-0.424-1.128-0.424h-1.464v4.856h1.464
		c0.453,0,0.829-0.141,1.128-0.424C230.2,75.722,230.353,75.44,230.425,75.107z"/>
	<path d="M236.061,75.047c-0.042,0.533-0.25,0.973-0.624,1.32c-0.373,0.347-0.837,0.52-1.392,0.52c-0.587,0-1.085-0.205-1.496-0.616
		c-0.271-0.277-0.45-0.606-0.536-0.988c-0.085-0.381-0.128-0.828-0.128-1.34c0-0.512,0.043-0.958,0.128-1.336
		c0.086-0.379,0.265-0.707,0.536-0.984c0.411-0.411,0.909-0.616,1.496-0.616c0.555,0,1.019,0.173,1.392,0.52
		c0.374,0.347,0.582,0.787,0.624,1.32h-0.432c-0.037-0.427-0.2-0.772-0.488-1.036c-0.288-0.264-0.653-0.396-1.096-0.396
		c-0.48,0-0.877,0.163-1.192,0.488c-0.159,0.165-0.281,0.376-0.363,0.632c-0.083,0.256-0.133,0.481-0.148,0.676
		c-0.016,0.194-0.023,0.438-0.023,0.732c0,0.288,0.008,0.532,0.023,0.732c0.016,0.2,0.066,0.428,0.152,0.684
		c0.085,0.256,0.208,0.467,0.368,0.632c0.314,0.325,0.709,0.488,1.184,0.488c0.442,0,0.808-0.132,1.096-0.396
		c0.288-0.264,0.451-0.609,0.488-1.036H236.061z"/>
</g>
<polygon fill="none" stroke="#000000" stroke-width="0.5" stroke-linecap="round" stroke-linejoin="round" stroke-miterlimit="10" points="
	240.379,82.299 219.328,82.299 214.603,74.589 219.328,66.877 240.379,66.877 "/>
<g>
	<g>
		
			<line fill="none" stroke="#000000" stroke-width="0.5" stroke-linecap="round" stroke-linejoin="round" x1="168.861" y1="74.691" x2="148.086" y2="74.691"/>
		<g>
			<polygon points="168.313,72.832 171.552,74.701 168.313,76.571 			"/>
		</g>
	</g>
</g>
<g>
	<g>
		
			<line fill="none" stroke="#000000" stroke-width="0.5" stroke-linecap="round" stroke-linejoin="round" x1="211.912" y1="74.691" x2="187.376" y2="74.691"/>
		<g>
			<polygon points="211.364,72.832 214.603,74.701 211.364,76.571 			"/>
		</g>
	</g>
</g>
<g>
	<path d="M202.86,65.96l-1.96,3.424v2.248h-0.408v-2.248l-1.96-3.424h0.448l1.729,3.016l1.728-3.016H202.86z"/>
</g>
<g>
	<path d="M136.28,12.351h-0.408V7.279l-2.072,4.992h-0.368l-2.072-4.952v5.032h-0.408V6.679h0.584l2.096,5.04l2.056-5.04h0.592
		V12.351z"/>
	<path d="M138.463,7.239h-0.56v-0.56h0.56V7.239z M138.399,12.351h-0.424v-4h0.424V12.351z"/>
	<path d="M142.824,12.351h-0.48l-1.232-1.784l-1.24,1.784h-0.472l1.44-2.072l-1.416-1.976h0.48l1.216,1.712l1.224-1.712h0.464
		l-1.424,1.976L142.824,12.351z"/>
	<path d="M146.912,10.183c0,0.032-0.001,0.076-0.004,0.132c-0.003,0.056-0.004,0.1-0.004,0.132h-3.056
		c0.01,0.48,0.149,0.88,0.416,1.2c0.24,0.283,0.563,0.424,0.968,0.424c0.357,0,0.648-0.118,0.872-0.352
		c0.16-0.171,0.261-0.36,0.304-0.568h0.416c-0.054,0.32-0.203,0.6-0.448,0.84c-0.31,0.309-0.691,0.464-1.144,0.464
		c-0.517,0-0.941-0.189-1.272-0.568c-0.341-0.4-0.512-0.907-0.512-1.52c0-0.592,0.13-1.067,0.392-1.424
		c0.341-0.464,0.795-0.696,1.36-0.696c0.517,0,0.932,0.191,1.244,0.572C146.755,9.201,146.912,9.655,146.912,10.183z
		 M146.503,10.079c-0.011-0.4-0.133-0.743-0.368-1.028c-0.235-0.286-0.547-0.428-0.936-0.428c-0.4,0-0.724,0.14-0.972,0.42
		c-0.248,0.28-0.372,0.625-0.372,1.036H146.503z"/>
	<path d="M150.167,8.735c-0.107-0.026-0.237-0.04-0.392-0.04c-0.24,0-0.447,0.049-0.62,0.148c-0.174,0.099-0.306,0.234-0.396,0.408
		c-0.091,0.173-0.156,0.357-0.196,0.552s-0.06,0.404-0.06,0.628v1.92h-0.4v-4h0.352l0.048,0.808c0.085-0.267,0.245-0.475,0.48-0.624
		s0.499-0.224,0.792-0.224c0.176,0,0.307,0.008,0.392,0.024V8.735z"/>
</g>
<g>
	<path d="M136.28,92.146h-0.408v-5.072l-2.072,4.992h-0.368l-2.072-4.952v5.032h-0.408v-5.672h0.584l2.096,5.04l2.056-5.04h0.592
		V92.146z"/>
	<path d="M138.463,87.034h-0.56v-0.56h0.56V87.034z M138.399,92.146h-0.424v-4h0.424V92.146z"/>
	<path d="M142.824,92.146h-0.48l-1.232-1.784l-1.24,1.784h-0.472l1.44-2.072l-1.416-1.976h0.48l1.216,1.712l1.224-1.712h0.464
		l-1.424,1.976L142.824,92.146z"/>
	<path d="M146.912,89.978c0,0.032-0.001,0.076-0.004,0.132c-0.003,0.056-0.004,0.1-0.004,0.132h-3.056
		c0.01,0.48,0.149,0.88,0.416,1.2c0.24,0.283,0.563,0.424,0.968,0.424c0.357,0,0.648-0.118,0.872-0.352
		c0.16-0.171,0.261-0.36,0.304-0.568h0.416c-0.054,0.32-0.203,0.6-0.448,0.84c-0.31,0.309-0.691,0.464-1.144,0.464
		c-0.517,0-0.941-0.189-1.272-0.568c-0.341-0.4-0.512-0.907-0.512-1.52c0-0.592,0.13-1.067,0.392-1.424
		c0.341-0.464,0.795-0.696,1.36-0.696c0.517,0,0.932,0.191,1.244,0.572C146.755,88.996,146.912,89.45,146.912,89.978z
		 M146.503,89.874c-0.011-0.4-0.133-0.743-0.368-1.028c-0.235-0.286-0.547-0.428-0.936-0.428c-0.4,0-0.724,0.14-0.972,0.42
		c-0.248,0.28-0.372,0.625-0.372,1.036H146.503z"/>
	<path d="M150.167,88.53c-0.107-0.026-0.237-0.04-0.392-0.04c-0.24,0-0.447,0.049-0.62,0.148c-0.174,0.099-0.306,0.234-0.396,0.408
		c-0.091,0.173-0.156,0.357-0.196,0.552s-0.06,0.404-0.06,0.628v1.92h-0.4v-4h0.352l0.048,0.808c0.085-0.267,0.245-0.475,0.48-0.624
		s0.499-0.224,0.792-0.224c0.176,0,0.307,0.008,0.392,0.024V88.53z"/>
</g>
<g>
	<path d="M81.438,32.145c0.093,0.392,0.14,0.844,0.14,1.356c0,0.512-0.046,0.965-0.14,1.36c-0.094,0.395-0.284,0.731-0.572,1.008
		c-0.4,0.384-0.885,0.576-1.456,0.576s-1.056-0.192-1.456-0.576c-0.288-0.277-0.479-0.613-0.572-1.008s-0.14-0.848-0.14-1.36
		c0-0.512,0.047-0.964,0.14-1.356c0.093-0.392,0.284-0.727,0.572-1.004c0.4-0.384,0.885-0.576,1.456-0.576s1.056,0.192,1.456,0.576
		C81.154,31.418,81.345,31.753,81.438,32.145z M81.146,33.501c0-0.293-0.008-0.54-0.024-0.74c-0.016-0.2-0.071-0.433-0.164-0.7
		c-0.094-0.267-0.226-0.483-0.396-0.648c-0.304-0.293-0.688-0.44-1.152-0.44c-0.464,0-0.848,0.147-1.152,0.44
		c-0.171,0.166-0.303,0.382-0.396,0.648s-0.148,0.5-0.164,0.7c-0.016,0.2-0.024,0.447-0.024,0.74c0,0.299,0.008,0.546,0.024,0.744
		c0.016,0.198,0.071,0.431,0.164,0.7c0.093,0.27,0.225,0.487,0.396,0.652c0.304,0.293,0.688,0.44,1.152,0.44
		c0.464,0,0.848-0.146,1.152-0.44c0.17-0.165,0.302-0.382,0.396-0.652c0.093-0.269,0.148-0.502,0.164-0.7
		C81.138,34.047,81.146,33.8,81.146,33.501z"/>
	<path d="M85.69,35.229c0,0.283-0.091,0.528-0.272,0.736c-0.288,0.32-0.72,0.48-1.296,0.48c-0.571,0-1.008-0.17-1.312-0.512
		c-0.208-0.24-0.32-0.509-0.336-0.808h0.408c0.021,0.234,0.12,0.44,0.296,0.616c0.218,0.213,0.533,0.32,0.944,0.32
		c0.432,0,0.747-0.099,0.944-0.296c0.144-0.144,0.216-0.314,0.216-0.512c0-0.187-0.064-0.347-0.192-0.48s-0.309-0.216-0.544-0.248
		l-0.776-0.104c-0.416-0.048-0.717-0.181-0.904-0.4c-0.149-0.176-0.224-0.387-0.224-0.632c0-0.304,0.115-0.563,0.344-0.776
		c0.272-0.25,0.637-0.376,1.096-0.376c0.539,0,0.941,0.157,1.208,0.472c0.192,0.229,0.293,0.475,0.304,0.736h-0.4
		c-0.021-0.192-0.088-0.352-0.2-0.48c-0.198-0.235-0.501-0.352-0.912-0.352c-0.31,0-0.549,0.062-0.72,0.184
		c-0.208,0.149-0.312,0.333-0.312,0.552c0,0.182,0.058,0.33,0.172,0.444c0.114,0.115,0.316,0.19,0.604,0.228l0.76,0.104
		c0.357,0.048,0.631,0.177,0.82,0.388C85.596,34.724,85.69,34.962,85.69,35.229z"/>
	<path d="M89.882,35.077c-0.054,0.395-0.224,0.722-0.512,0.98c-0.288,0.259-0.637,0.388-1.048,0.388
		c-0.469,0-0.861-0.157-1.176-0.472c-0.373-0.373-0.56-0.917-0.56-1.632s0.187-1.259,0.56-1.632
		c0.315-0.315,0.707-0.472,1.176-0.472c0.416,0,0.765,0.124,1.048,0.372s0.448,0.575,0.496,0.98H89.45
		c-0.043-0.283-0.167-0.513-0.372-0.692s-0.458-0.268-0.756-0.268c-0.374,0-0.669,0.115-0.888,0.344
		c-0.293,0.304-0.44,0.76-0.44,1.368c0,0.613,0.146,1.072,0.44,1.376c0.213,0.224,0.509,0.336,0.888,0.336
		c0.298,0,0.551-0.092,0.756-0.276s0.332-0.417,0.38-0.7H89.882z"/>
	<path d="M91.554,31.229h-0.56v-0.56h0.56V31.229z M91.49,36.341h-0.424v-4h0.424V36.341z"/>
	<path d="M94.242,36.341c-0.118,0.032-0.238,0.048-0.36,0.048c-0.533,0-0.8-0.283-0.8-0.848v-4.976h0.4v4.96
		c0,0.32,0.139,0.48,0.416,0.48c0.155,0,0.269-0.005,0.344-0.016V36.341z"/>
	<path d="M96.474,36.341c-0.118,0.032-0.238,0.048-0.36,0.048c-0.533,0-0.8-0.283-0.8-0.848v-4.976h0.4v4.96
		c0,0.32,0.139,0.48,0.416,0.48c0.155,0,0.269-0.005,0.344-0.016V36.341z"/>
	<path d="M100.882,36.341c-0.096,0.016-0.16,0.024-0.192,0.024c-0.421,0-0.632-0.261-0.632-0.784
		c-0.106,0.272-0.293,0.484-0.56,0.636c-0.267,0.152-0.56,0.228-0.88,0.228c-0.4,0-0.729-0.112-0.988-0.336
		s-0.388-0.522-0.388-0.896c0-0.347,0.123-0.625,0.368-0.836c0.245-0.211,0.571-0.33,0.976-0.356l1.472-0.104v-0.392
		c0-0.608-0.352-0.912-1.056-0.912c-0.331,0-0.6,0.075-0.808,0.224s-0.323,0.368-0.344,0.656h-0.4
		c0.027-0.395,0.181-0.703,0.464-0.924c0.282-0.221,0.645-0.332,1.088-0.332c0.304,0,0.58,0.059,0.828,0.176
		c0.248,0.118,0.423,0.304,0.524,0.56c0.069,0.182,0.104,0.438,0.104,0.768v1.824c0,0.149,0.02,0.259,0.06,0.328
		c0.04,0.07,0.124,0.104,0.252,0.104c0.048,0,0.085-0.002,0.112-0.008V36.341z M100.058,34.493v-0.208l-1.432,0.088
		c-0.299,0.021-0.536,0.106-0.712,0.256c-0.176,0.149-0.264,0.344-0.264,0.584c0,0.277,0.092,0.491,0.276,0.64
		c0.184,0.149,0.425,0.224,0.724,0.224c0.469,0,0.821-0.156,1.056-0.468C99.94,35.297,100.058,34.925,100.058,34.493z"/>
	<path d="M103.954,36.301c-0.299,0.064-0.52,0.096-0.664,0.096c-0.688,0-1.032-0.389-1.032-1.168v-2.52h-0.8v-0.368h0.8v-1.104
		l0.4-0.096v1.2h1.24v0.368h-1.24v2.504c0,0.261,0.048,0.461,0.144,0.6c0.096,0.139,0.269,0.208,0.52,0.208
		c0.16,0,0.371-0.024,0.632-0.072V36.301z"/>
	<path d="M108.146,34.341c0,0.704-0.189,1.246-0.568,1.624c-0.32,0.32-0.709,0.48-1.168,0.48c-0.459,0-0.848-0.16-1.168-0.48
		c-0.379-0.378-0.568-0.92-0.568-1.624s0.189-1.245,0.568-1.624c0.32-0.32,0.709-0.48,1.168-0.48c0.458,0,0.848,0.16,1.168,0.48
		C107.956,33.096,108.146,33.637,108.146,34.341z M107.738,34.341c0-0.597-0.149-1.051-0.448-1.36
		c-0.224-0.235-0.518-0.352-0.88-0.352c-0.363,0-0.656,0.117-0.88,0.352c-0.299,0.309-0.448,0.763-0.448,1.36
		s0.149,1.051,0.448,1.36c0.224,0.235,0.517,0.352,0.88,0.352c0.362,0,0.656-0.117,0.88-0.352
		C107.588,35.392,107.738,34.938,107.738,34.341z"/>
	<path d="M111.449,32.725c-0.107-0.026-0.237-0.04-0.392-0.04c-0.24,0-0.447,0.049-0.62,0.148c-0.174,0.099-0.306,0.234-0.396,0.408
		c-0.091,0.173-0.156,0.357-0.196,0.552s-0.06,0.404-0.06,0.628v1.92h-0.4v-4h0.352l0.048,0.808c0.085-0.267,0.245-0.475,0.48-0.624
		s0.499-0.224,0.792-0.224c0.176,0,0.307,0.008,0.392,0.024V32.725z"/>
</g>
<g>
	<path d="M102.699,43.041c0,0.368-0.107,0.689-0.32,0.964c-0.213,0.275-0.499,0.46-0.856,0.556l1.152,2.52h-0.456l-1.112-2.416
		H99.13v2.416h-0.416v-5.672h2.072c0.608,0,1.079,0.146,1.412,0.44C102.532,42.143,102.699,42.54,102.699,43.041z M101.878,43.961
		c0.259-0.213,0.388-0.52,0.388-0.92s-0.129-0.707-0.388-0.92s-0.623-0.32-1.092-0.32H99.13v2.48h1.656
		C101.256,44.281,101.62,44.174,101.878,43.961z"/>
	<path d="M107.011,44.913c0,0.032-0.001,0.076-0.004,0.132c-0.003,0.056-0.004,0.1-0.004,0.132h-3.056
		c0.01,0.48,0.149,0.88,0.416,1.2c0.24,0.283,0.563,0.424,0.968,0.424c0.357,0,0.648-0.118,0.872-0.352
		c0.16-0.171,0.261-0.36,0.304-0.568h0.416c-0.054,0.32-0.203,0.6-0.448,0.84c-0.31,0.309-0.691,0.464-1.144,0.464
		c-0.517,0-0.941-0.189-1.272-0.568c-0.341-0.4-0.512-0.907-0.512-1.52c0-0.592,0.13-1.067,0.392-1.424
		c0.341-0.464,0.795-0.696,1.36-0.696c0.517,0,0.932,0.191,1.244,0.572C106.854,43.931,107.011,44.385,107.011,44.913z
		 M106.603,44.809c-0.011-0.4-0.133-0.743-0.368-1.028c-0.235-0.286-0.547-0.428-0.936-0.428c-0.4,0-0.724,0.14-0.972,0.42
		c-0.248,0.28-0.372,0.625-0.372,1.036H106.603z"/>
	<path d="M110.203,41.665c-0.213-0.032-0.405-0.048-0.576-0.048c-0.506,0-0.76,0.259-0.76,0.776v0.688h1.256v0.368h-1.256v3.632
		h-0.4v-3.632h-0.8v-0.368h0.8v-0.704c0-0.32,0.097-0.586,0.292-0.8c0.194-0.213,0.473-0.32,0.836-0.32
		c0.213,0,0.416,0.016,0.608,0.048V41.665z"/>
	<path d="M114.131,44.913c0,0.032-0.001,0.076-0.004,0.132c-0.003,0.056-0.004,0.1-0.004,0.132h-3.056
		c0.01,0.48,0.149,0.88,0.416,1.2c0.24,0.283,0.563,0.424,0.968,0.424c0.357,0,0.648-0.118,0.872-0.352
		c0.16-0.171,0.261-0.36,0.304-0.568h0.416c-0.054,0.32-0.203,0.6-0.448,0.84c-0.31,0.309-0.691,0.464-1.144,0.464
		c-0.517,0-0.941-0.189-1.272-0.568c-0.341-0.4-0.512-0.907-0.512-1.52c0-0.592,0.13-1.067,0.392-1.424
		c0.341-0.464,0.795-0.696,1.36-0.696c0.517,0,0.932,0.191,1.244,0.572C113.975,43.931,114.131,44.385,114.131,44.913z
		 M113.723,44.809c-0.011-0.4-0.133-0.743-0.368-1.028c-0.235-0.286-0.547-0.428-0.936-0.428c-0.4,0-0.724,0.14-0.972,0.42
		c-0.248,0.28-0.372,0.625-0.372,1.036H113.723z"/>
	<path d="M117.387,43.465c-0.107-0.026-0.237-0.04-0.392-0.04c-0.24,0-0.447,0.049-0.62,0.148c-0.174,0.099-0.306,0.234-0.396,0.408
		c-0.091,0.173-0.156,0.357-0.196,0.552s-0.06,0.404-0.06,0.628v1.92h-0.4v-4h0.352l0.048,0.808c0.085-0.267,0.245-0.475,0.48-0.624
		s0.499-0.224,0.792-0.224c0.176,0,0.307,0.008,0.392,0.024V43.465z"/>
	<path d="M121.491,44.913c0,0.032-0.001,0.076-0.004,0.132c-0.003,0.056-0.004,0.1-0.004,0.132h-3.056
		c0.01,0.48,0.149,0.88,0.416,1.2c0.24,0.283,0.563,0.424,0.968,0.424c0.357,0,0.648-0.118,0.872-0.352
		c0.16-0.171,0.261-0.36,0.304-0.568h0.416c-0.054,0.32-0.203,0.6-0.448,0.84c-0.31,0.309-0.691,0.464-1.144,0.464
		c-0.517,0-0.941-0.189-1.272-0.568c-0.341-0.4-0.512-0.907-0.512-1.52c0-0.592,0.13-1.067,0.392-1.424
		c0.341-0.464,0.795-0.696,1.36-0.696c0.517,0,0.932,0.191,1.244,0.572C121.334,43.931,121.491,44.385,121.491,44.913z
		 M121.083,44.809c-0.011-0.4-0.133-0.743-0.368-1.028c-0.235-0.286-0.547-0.428-0.936-0.428c-0.4,0-0.724,0.14-0.972,0.42
		c-0.248,0.28-0.372,0.625-0.372,1.036H121.083z"/>
	<path d="M125.843,47.081h-0.4v-2.616c0-0.73-0.344-1.096-1.032-1.096c-0.459,0-0.795,0.164-1.008,0.492
		c-0.213,0.328-0.32,0.735-0.32,1.22v2h-0.4v-4h0.352l0.048,0.728c0.112-0.25,0.295-0.452,0.548-0.604
		c0.253-0.152,0.521-0.228,0.804-0.228c0.453,0,0.801,0.131,1.044,0.392s0.364,0.619,0.364,1.072V47.081z"/>
	<path d="M130.299,45.817c-0.054,0.395-0.224,0.722-0.512,0.98c-0.288,0.259-0.637,0.388-1.048,0.388
		c-0.469,0-0.861-0.157-1.176-0.472c-0.373-0.373-0.56-0.917-0.56-1.632s0.187-1.259,0.56-1.632
		c0.315-0.315,0.707-0.472,1.176-0.472c0.416,0,0.765,0.124,1.048,0.372s0.448,0.575,0.496,0.98h-0.416
		c-0.043-0.283-0.167-0.513-0.372-0.692s-0.458-0.268-0.756-0.268c-0.374,0-0.669,0.115-0.888,0.344
		c-0.293,0.304-0.44,0.76-0.44,1.368c0,0.613,0.146,1.072,0.44,1.376c0.213,0.224,0.509,0.336,0.888,0.336
		c0.298,0,0.551-0.092,0.756-0.276s0.332-0.417,0.38-0.7H130.299z"/>
	<path d="M134.563,44.913c0,0.032-0.001,0.076-0.004,0.132c-0.003,0.056-0.004,0.1-0.004,0.132h-3.056
		c0.01,0.48,0.149,0.88,0.416,1.2c0.24,0.283,0.563,0.424,0.968,0.424c0.357,0,0.648-0.118,0.872-0.352
		c0.16-0.171,0.261-0.36,0.304-0.568h0.416c-0.054,0.32-0.203,0.6-0.448,0.84c-0.31,0.309-0.691,0.464-1.144,0.464
		c-0.517,0-0.941-0.189-1.272-0.568c-0.341-0.4-0.512-0.907-0.512-1.52c0-0.592,0.13-1.067,0.392-1.424
		c0.341-0.464,0.795-0.696,1.36-0.696c0.517,0,0.932,0.191,1.244,0.572C134.406,43.931,134.563,44.385,134.563,44.913z
		 M134.154,44.809c-0.011-0.4-0.133-0.743-0.368-1.028c-0.235-0.286-0.547-0.428-0.936-0.428c-0.4,0-0.724,0.14-0.972,0.42
		c-0.248,0.28-0.372,0.625-0.372,1.036H134.154z"/>
</g>
<g>
	<path d="M102.402,56.298c0,0.427-0.149,0.79-0.448,1.088c-0.374,0.368-0.909,0.552-1.608,0.552c-0.677,0-1.206-0.203-1.584-0.608
		c-0.299-0.32-0.47-0.696-0.512-1.128h0.432c0.037,0.336,0.176,0.626,0.416,0.872c0.304,0.309,0.72,0.464,1.248,0.464
		c0.56,0,0.989-0.141,1.288-0.424c0.224-0.213,0.336-0.485,0.336-0.816c0-0.277-0.1-0.52-0.3-0.728
		c-0.2-0.208-0.468-0.333-0.804-0.376l-1.056-0.136c-0.421-0.053-0.759-0.201-1.012-0.444c-0.253-0.242-0.38-0.572-0.38-0.988
		c0-0.411,0.166-0.768,0.496-1.072c0.363-0.331,0.829-0.496,1.4-0.496c0.304,0,0.596,0.057,0.876,0.172
		c0.28,0.115,0.5,0.265,0.66,0.452c0.261,0.304,0.405,0.632,0.432,0.984h-0.424c-0.037-0.283-0.141-0.522-0.312-0.72
		c-0.267-0.325-0.677-0.488-1.232-0.488c-0.453,0-0.813,0.115-1.08,0.344c-0.256,0.229-0.384,0.504-0.384,0.824
		c0,0.582,0.333,0.912,1,0.992l1.072,0.136c0.438,0.053,0.793,0.224,1.068,0.512C102.265,55.555,102.402,55.898,102.402,56.298z"/>
	<path d="M104.146,52.723h-0.56v-0.56h0.56V52.723z M104.083,57.834h-0.424v-4h0.424V57.834z"/>
	<path d="M109.019,58.435c0,0.283-0.101,0.531-0.304,0.744c-0.31,0.314-0.837,0.472-1.584,0.472c-0.688,0-1.184-0.155-1.488-0.464
		c-0.187-0.197-0.28-0.438-0.28-0.72c0-0.197,0.053-0.381,0.16-0.552c0.106-0.171,0.253-0.299,0.44-0.384
		c-0.139-0.037-0.257-0.121-0.356-0.252c-0.099-0.13-0.148-0.265-0.148-0.404c0-0.32,0.16-0.573,0.48-0.76
		c-0.267-0.256-0.4-0.584-0.4-0.984c0-0.421,0.142-0.76,0.424-1.016c0.283-0.256,0.64-0.384,1.072-0.384
		c0.352,0,0.664,0.091,0.936,0.272c0.048-0.165,0.148-0.297,0.3-0.396c0.152-0.099,0.321-0.148,0.508-0.148
		c0.016,0,0.041,0.003,0.076,0.008c0.034,0.005,0.06,0.008,0.076,0.008v0.344c-0.016,0-0.042-0.002-0.076-0.008
		c-0.035-0.005-0.06-0.008-0.076-0.008c-0.144,0-0.266,0.039-0.364,0.116s-0.161,0.183-0.188,0.316
		c0.213,0.246,0.32,0.544,0.32,0.896c0,0.421-0.144,0.757-0.432,1.008c-0.288,0.25-0.648,0.376-1.08,0.376
		c-0.299,0-0.565-0.062-0.8-0.184c-0.267,0.101-0.4,0.267-0.4,0.496c0,0.176,0.093,0.301,0.28,0.376
		c0.112,0.042,0.291,0.064,0.536,0.064h0.872c0.528,0,0.92,0.131,1.176,0.392C108.912,57.872,109.019,58.13,109.019,58.435z
		 M108.619,58.435c0-0.192-0.064-0.357-0.192-0.496c-0.187-0.197-0.509-0.296-0.968-0.296h-1.056
		c-0.187,0.042-0.344,0.136-0.472,0.28s-0.192,0.325-0.192,0.544c0,0.203,0.072,0.371,0.216,0.504
		c0.224,0.213,0.619,0.32,1.184,0.32c0.613,0,1.037-0.117,1.272-0.352C108.549,58.8,108.619,58.632,108.619,58.435z M107.831,55.878
		c0.211-0.184,0.316-0.433,0.316-0.748c0-0.314-0.105-0.566-0.316-0.756c-0.21-0.189-0.476-0.284-0.796-0.284
		c-0.32,0-0.584,0.095-0.792,0.284s-0.312,0.441-0.312,0.756c0,0.315,0.104,0.564,0.312,0.748s0.472,0.276,0.792,0.276
		C107.355,56.154,107.62,56.063,107.831,55.878z"/>
	<path d="M113.123,57.834h-0.4v-2.616c0-0.73-0.344-1.096-1.032-1.096c-0.459,0-0.795,0.164-1.008,0.492
		c-0.213,0.328-0.32,0.735-0.32,1.22v2h-0.4v-4h0.352l0.048,0.728c0.112-0.25,0.295-0.452,0.548-0.604
		c0.253-0.152,0.521-0.228,0.804-0.228c0.453,0,0.801,0.131,1.044,0.392s0.364,0.619,0.364,1.072V57.834z"/>
	<path d="M117.939,57.834c-0.096,0.016-0.16,0.024-0.192,0.024c-0.421,0-0.632-0.261-0.632-0.784
		c-0.106,0.272-0.293,0.484-0.56,0.636c-0.267,0.152-0.56,0.228-0.88,0.228c-0.4,0-0.729-0.112-0.988-0.336
		s-0.388-0.522-0.388-0.896c0-0.347,0.123-0.625,0.368-0.836c0.245-0.211,0.571-0.33,0.976-0.356l1.472-0.104v-0.392
		c0-0.608-0.352-0.912-1.056-0.912c-0.331,0-0.6,0.075-0.808,0.224s-0.323,0.368-0.344,0.656h-0.4
		c0.027-0.395,0.181-0.703,0.464-0.924c0.282-0.221,0.645-0.332,1.088-0.332c0.304,0,0.58,0.059,0.828,0.176
		c0.248,0.118,0.423,0.304,0.524,0.56c0.069,0.182,0.104,0.438,0.104,0.768v1.824c0,0.149,0.02,0.259,0.06,0.328
		c0.04,0.07,0.124,0.104,0.252,0.104c0.048,0,0.085-0.002,0.112-0.008V57.834z M117.115,55.986v-0.208l-1.432,0.088
		c-0.299,0.021-0.536,0.106-0.712,0.256c-0.176,0.149-0.264,0.344-0.264,0.584c0,0.277,0.092,0.491,0.276,0.64
		c0.184,0.149,0.425,0.224,0.724,0.224c0.469,0,0.821-0.156,1.056-0.468C116.998,56.791,117.115,56.418,117.115,55.986z"/>
	<path d="M120.251,57.834c-0.118,0.032-0.238,0.048-0.36,0.048c-0.533,0-0.8-0.283-0.8-0.848v-4.976h0.4v4.96
		c0,0.32,0.139,0.48,0.416,0.48c0.155,0,0.269-0.005,0.344-0.016V57.834z"/>
	<path d="M126.794,52.163l-2.032,5.672h-0.392l-2.032-5.672h0.44l1.8,5.072l1.776-5.072H126.794z"/>
	<path d="M128.523,58.391c-0.062-0.016-0.138-0.023-0.229-0.023c-0.14,0-0.26,0.029-0.361,0.086
		c-0.101,0.057-0.178,0.137-0.231,0.238s-0.091,0.208-0.114,0.322c-0.023,0.113-0.035,0.235-0.035,0.366v1.119h-0.233v-2.332h0.205
		l0.028,0.471c0.05-0.156,0.143-0.277,0.28-0.364s0.291-0.131,0.462-0.131c0.103,0,0.179,0.005,0.229,0.014V58.391z"/>
	<path d="M130.803,58.667l-0.248,0.192c-0.421-0.475-0.747-1.035-0.976-1.68c-0.229-0.646-0.344-1.288-0.344-1.928
		s0.115-1.283,0.344-1.928c0.229-0.645,0.555-1.205,0.976-1.68l0.248,0.192c-0.795,1.024-1.192,2.163-1.192,3.416
		S130.008,57.643,130.803,58.667z"/>
	<path d="M133.651,57.794c-0.299,0.064-0.52,0.096-0.664,0.096c-0.688,0-1.032-0.389-1.032-1.168v-2.52h-0.8v-0.368h0.8V52.73
		l0.4-0.096v1.2h1.24v0.368h-1.24v2.504c0,0.261,0.048,0.461,0.144,0.6c0.096,0.139,0.269,0.208,0.52,0.208
		c0.16,0,0.371-0.024,0.632-0.072V57.794z"/>
	<path d="M135.307,53.322c0.229,0.646,0.344,1.288,0.344,1.928s-0.115,1.283-0.344,1.928c-0.229,0.645-0.555,1.205-0.976,1.68
		l-0.248-0.192c0.794-1.024,1.192-2.163,1.192-3.416s-0.397-2.392-1.192-3.416l0.248-0.192
		C134.752,52.117,135.078,52.677,135.307,53.322z"/>
</g>
<g>
	<path d="M12.737,21.361h-0.424v-5.672h0.424V21.361z"/>
	<path d="M17.553,21.361h-0.4v-2.616c0-0.73-0.344-1.096-1.032-1.096c-0.459,0-0.795,0.164-1.008,0.492
		c-0.213,0.328-0.32,0.735-0.32,1.22v2h-0.4v-4h0.352l0.048,0.728c0.112-0.25,0.295-0.452,0.548-0.604
		c0.253-0.152,0.521-0.228,0.804-0.228c0.453,0,0.801,0.131,1.044,0.392s0.364,0.619,0.364,1.072V21.361z"/>
	<path d="M22.505,19.354c0,0.736-0.208,1.301-0.624,1.696c-0.288,0.277-0.651,0.416-1.088,0.416c-0.283,0-0.549-0.072-0.8-0.216
		c-0.251-0.144-0.429-0.331-0.536-0.56v2.272h-0.4v-5.6h0.352l0.048,0.704c0.107-0.24,0.285-0.435,0.536-0.584
		c0.25-0.149,0.515-0.224,0.792-0.224c0.427,0,0.781,0.125,1.064,0.376C22.287,18.017,22.505,18.591,22.505,19.354z M22.097,19.361
		c0-0.64-0.176-1.117-0.528-1.432c-0.213-0.187-0.478-0.28-0.792-0.28c-0.32,0-0.592,0.106-0.816,0.32
		c-0.341,0.336-0.512,0.8-0.512,1.392c0,0.619,0.168,1.085,0.504,1.4c0.219,0.208,0.499,0.312,0.84,0.312
		c0.347,0,0.632-0.117,0.856-0.352C21.948,20.401,22.097,19.948,22.097,19.361z"/>
	<path d="M26.809,21.354h-0.352l-0.048-0.728c-0.112,0.25-0.293,0.452-0.544,0.604c-0.251,0.152-0.52,0.228-0.808,0.228
		c-0.454,0-0.801-0.131-1.044-0.392c-0.243-0.261-0.364-0.619-0.364-1.072v-2.64h0.4v2.616c0,0.731,0.344,1.096,1.032,1.096
		c0.458,0,0.794-0.164,1.008-0.492s0.32-0.734,0.32-1.22v-2h0.4V21.354z"/>
	<path d="M30.289,21.321c-0.299,0.064-0.52,0.096-0.664,0.096c-0.688,0-1.032-0.389-1.032-1.168v-2.52h-0.8v-0.368h0.8v-1.104
		l0.4-0.096v1.2h1.24v0.368h-1.24v2.504c0,0.261,0.048,0.461,0.144,0.6c0.096,0.139,0.269,0.208,0.52,0.208
		c0.16,0,0.371-0.024,0.632-0.072V21.321z"/>
	<path d="M36.833,19.825c0,0.427-0.149,0.79-0.448,1.088c-0.374,0.368-0.909,0.552-1.608,0.552c-0.677,0-1.206-0.203-1.584-0.608
		c-0.299-0.32-0.47-0.696-0.512-1.128h0.432c0.037,0.336,0.176,0.626,0.416,0.872c0.304,0.309,0.72,0.464,1.248,0.464
		c0.56,0,0.989-0.141,1.288-0.424c0.224-0.213,0.336-0.485,0.336-0.816c0-0.277-0.1-0.52-0.3-0.728
		c-0.2-0.208-0.468-0.333-0.804-0.376l-1.056-0.136c-0.421-0.053-0.759-0.201-1.012-0.444c-0.253-0.242-0.38-0.572-0.38-0.988
		c0-0.411,0.166-0.768,0.496-1.072c0.363-0.331,0.829-0.496,1.4-0.496c0.304,0,0.596,0.057,0.876,0.172
		c0.28,0.115,0.5,0.265,0.66,0.452c0.261,0.304,0.405,0.632,0.432,0.984h-0.424c-0.037-0.283-0.141-0.522-0.312-0.72
		c-0.267-0.325-0.677-0.488-1.232-0.488c-0.453,0-0.813,0.115-1.08,0.344c-0.256,0.229-0.384,0.504-0.384,0.824
		c0,0.582,0.333,0.912,1,0.992l1.072,0.136c0.438,0.053,0.793,0.224,1.068,0.512C36.695,19.082,36.833,19.425,36.833,19.825z"/>
	<path d="M38.577,16.25h-0.56v-0.56h0.56V16.25z M38.513,21.361h-0.424v-4h0.424V21.361z"/>
	<path d="M43.449,21.961c0,0.283-0.101,0.531-0.304,0.744c-0.31,0.314-0.837,0.472-1.584,0.472c-0.688,0-1.184-0.155-1.488-0.464
		c-0.187-0.197-0.28-0.438-0.28-0.72c0-0.197,0.053-0.381,0.16-0.552c0.106-0.171,0.253-0.299,0.44-0.384
		c-0.139-0.037-0.257-0.121-0.356-0.252c-0.099-0.13-0.148-0.265-0.148-0.404c0-0.32,0.16-0.573,0.48-0.76
		c-0.267-0.256-0.4-0.584-0.4-0.984c0-0.421,0.142-0.76,0.424-1.016c0.283-0.256,0.64-0.384,1.072-0.384
		c0.352,0,0.664,0.091,0.936,0.272c0.048-0.165,0.148-0.297,0.3-0.396c0.152-0.099,0.321-0.148,0.508-0.148
		c0.016,0,0.041,0.003,0.076,0.008c0.034,0.005,0.06,0.008,0.076,0.008v0.344c-0.016,0-0.042-0.002-0.076-0.008
		c-0.035-0.005-0.06-0.008-0.076-0.008c-0.144,0-0.266,0.039-0.364,0.116s-0.161,0.183-0.188,0.316
		c0.213,0.246,0.32,0.544,0.32,0.896c0,0.421-0.144,0.757-0.432,1.008c-0.288,0.25-0.648,0.376-1.08,0.376
		c-0.299,0-0.565-0.062-0.8-0.184c-0.267,0.101-0.4,0.267-0.4,0.496c0,0.176,0.093,0.301,0.28,0.376
		c0.112,0.042,0.291,0.064,0.536,0.064h0.872c0.528,0,0.92,0.131,1.176,0.392C43.342,21.398,43.449,21.657,43.449,21.961z
		 M43.049,21.961c0-0.192-0.064-0.357-0.192-0.496c-0.187-0.197-0.509-0.296-0.968-0.296h-1.056
		c-0.187,0.042-0.344,0.136-0.472,0.28s-0.192,0.325-0.192,0.544c0,0.203,0.072,0.371,0.216,0.504
		c0.224,0.213,0.619,0.32,1.184,0.32c0.613,0,1.037-0.117,1.272-0.352C42.979,22.327,43.049,22.159,43.049,21.961z M42.261,19.405
		c0.211-0.184,0.316-0.433,0.316-0.748c0-0.314-0.105-0.566-0.316-0.756c-0.21-0.189-0.476-0.284-0.796-0.284
		c-0.32,0-0.584,0.095-0.792,0.284s-0.312,0.441-0.312,0.756c0,0.315,0.104,0.564,0.312,0.748s0.472,0.276,0.792,0.276
		C41.785,19.681,42.05,19.589,42.261,19.405z"/>
	<path d="M47.553,21.361h-0.4v-2.616c0-0.73-0.344-1.096-1.032-1.096c-0.459,0-0.795,0.164-1.008,0.492
		c-0.213,0.328-0.32,0.735-0.32,1.22v2h-0.4v-4h0.352l0.048,0.728c0.112-0.25,0.295-0.452,0.548-0.604
		c0.253-0.152,0.521-0.228,0.804-0.228c0.453,0,0.801,0.131,1.044,0.392s0.364,0.619,0.364,1.072V21.361z"/>
	<path d="M52.369,21.361c-0.096,0.016-0.16,0.024-0.192,0.024c-0.421,0-0.632-0.261-0.632-0.784
		c-0.106,0.272-0.293,0.484-0.56,0.636c-0.267,0.152-0.56,0.228-0.88,0.228c-0.4,0-0.729-0.112-0.988-0.336
		s-0.388-0.522-0.388-0.896c0-0.347,0.123-0.625,0.368-0.836c0.245-0.211,0.571-0.33,0.976-0.356l1.472-0.104v-0.392
		c0-0.608-0.352-0.912-1.056-0.912c-0.331,0-0.6,0.075-0.808,0.224s-0.323,0.368-0.344,0.656h-0.4
		c0.027-0.395,0.181-0.703,0.464-0.924c0.282-0.221,0.645-0.332,1.088-0.332c0.304,0,0.58,0.059,0.828,0.176
		c0.248,0.118,0.423,0.304,0.524,0.56c0.069,0.182,0.104,0.438,0.104,0.768v1.824c0,0.149,0.02,0.259,0.06,0.328
		c0.04,0.07,0.124,0.104,0.252,0.104c0.048,0,0.085-0.002,0.112-0.008V21.361z M51.545,19.513v-0.208l-1.432,0.088
		c-0.299,0.021-0.536,0.106-0.712,0.256c-0.176,0.149-0.264,0.344-0.264,0.584c0,0.277,0.092,0.491,0.276,0.64
		c0.184,0.149,0.425,0.224,0.724,0.224c0.469,0,0.821-0.156,1.056-0.468C51.428,20.317,51.545,19.945,51.545,19.513z"/>
	<path d="M54.681,21.361c-0.118,0.032-0.238,0.048-0.36,0.048c-0.533,0-0.8-0.283-0.8-0.848v-4.976h0.4v4.96
		c0,0.32,0.139,0.48,0.416,0.48c0.155,0,0.269-0.005,0.344-0.016V21.361z"/>
	<path d="M61.225,15.689l-2.032,5.672h-0.392l-2.032-5.672h0.44l1.8,5.072l1.776-5.072H61.225z"/>
	<path d="M63.416,23.377c0,0.165-0.053,0.308-0.159,0.429c-0.168,0.187-0.42,0.28-0.756,0.28c-0.333,0-0.587-0.1-0.765-0.298
		c-0.121-0.14-0.187-0.297-0.196-0.471h0.238c0.012,0.137,0.07,0.256,0.172,0.359c0.127,0.124,0.311,0.187,0.55,0.187
		c0.252,0,0.436-0.058,0.551-0.173c0.084-0.084,0.126-0.183,0.126-0.298c0-0.109-0.038-0.202-0.112-0.28s-0.18-0.126-0.317-0.145
		l-0.453-0.061c-0.242-0.028-0.418-0.106-0.527-0.233c-0.087-0.103-0.131-0.226-0.131-0.369c0-0.177,0.067-0.328,0.201-0.452
		c0.159-0.146,0.372-0.219,0.639-0.219c0.314,0,0.549,0.092,0.704,0.275c0.112,0.134,0.171,0.277,0.177,0.429h-0.233
		c-0.012-0.112-0.051-0.205-0.116-0.28c-0.115-0.137-0.292-0.205-0.532-0.205c-0.181,0-0.32,0.036-0.42,0.107
		c-0.121,0.087-0.182,0.194-0.182,0.322c0,0.105,0.033,0.192,0.1,0.259s0.184,0.111,0.352,0.133l0.443,0.061
		c0.208,0.028,0.368,0.104,0.479,0.226C63.36,23.083,63.416,23.222,63.416,23.377z"/>
	<path d="M65.844,22.193l-0.248,0.192c-0.421-0.475-0.747-1.035-0.976-1.68c-0.229-0.646-0.344-1.288-0.344-1.928
		s0.115-1.283,0.344-1.928c0.229-0.645,0.555-1.205,0.976-1.68l0.248,0.192c-0.795,1.024-1.192,2.163-1.192,3.416
		S65.049,21.169,65.844,22.193z"/>
	<path d="M68.692,21.321c-0.299,0.064-0.52,0.096-0.664,0.096c-0.688,0-1.032-0.389-1.032-1.168v-2.52h-0.8v-0.368h0.8v-1.104
		l0.4-0.096v1.2h1.24v0.368h-1.24v2.504c0,0.261,0.048,0.461,0.144,0.6c0.096,0.139,0.269,0.208,0.52,0.208
		c0.16,0,0.371-0.024,0.632-0.072V21.321z"/>
	<path d="M70.348,16.849c0.229,0.646,0.344,1.288,0.344,1.928s-0.115,1.283-0.344,1.928c-0.229,0.645-0.555,1.205-0.976,1.68
		l-0.248-0.192c0.794-1.024,1.192-2.163,1.192-3.416s-0.397-2.392-1.192-3.416l0.248-0.192
		C69.793,15.644,70.119,16.204,70.348,16.849z"/>
</g>
<g>
	<path d="M5.239,125.507H4.815v-5.672h0.424V125.507z"/>
	<path d="M10.055,125.507h-0.4v-2.616c0-0.73-0.344-1.096-1.032-1.096c-0.459,0-0.795,0.164-1.008,0.492
		c-0.213,0.328-0.32,0.735-0.32,1.22v2h-0.4v-4h0.352l0.048,0.728c0.112-0.25,0.295-0.452,0.548-0.604
		c0.253-0.152,0.521-0.228,0.804-0.228c0.453,0,0.801,0.131,1.044,0.392s0.364,0.619,0.364,1.072V125.507z"/>
	<path d="M15.007,123.5c0,0.736-0.208,1.301-0.624,1.696c-0.288,0.277-0.651,0.416-1.088,0.416c-0.283,0-0.549-0.072-0.8-0.216
		c-0.251-0.144-0.429-0.331-0.536-0.56v2.272h-0.4v-5.6h0.352l0.048,0.704c0.107-0.24,0.285-0.435,0.536-0.584
		c0.25-0.149,0.515-0.224,0.792-0.224c0.427,0,0.781,0.125,1.064,0.376C14.789,122.163,15.007,122.737,15.007,123.5z
		 M14.599,123.507c0-0.64-0.176-1.117-0.528-1.432c-0.213-0.187-0.478-0.28-0.792-0.28c-0.32,0-0.592,0.106-0.816,0.32
		c-0.341,0.336-0.512,0.8-0.512,1.392c0,0.619,0.168,1.085,0.504,1.4c0.219,0.208,0.499,0.312,0.84,0.312
		c0.347,0,0.632-0.117,0.856-0.352C14.45,124.547,14.599,124.094,14.599,123.507z"/>
	<path d="M19.311,125.5h-0.352l-0.048-0.728c-0.112,0.25-0.293,0.452-0.544,0.604c-0.251,0.152-0.52,0.228-0.808,0.228
		c-0.454,0-0.801-0.131-1.044-0.392c-0.243-0.261-0.364-0.619-0.364-1.072v-2.64h0.4v2.616c0,0.731,0.344,1.096,1.032,1.096
		c0.458,0,0.794-0.164,1.008-0.492s0.32-0.734,0.32-1.22v-2h0.4V125.5z"/>
	<path d="M22.791,125.467c-0.299,0.064-0.52,0.096-0.664,0.096c-0.688,0-1.032-0.389-1.032-1.168v-2.52h-0.8v-0.368h0.8v-1.104
		l0.4-0.096v1.2h1.24v0.368h-1.24v2.504c0,0.261,0.048,0.461,0.144,0.6c0.096,0.139,0.269,0.208,0.52,0.208
		c0.16,0,0.371-0.024,0.632-0.072V125.467z"/>
	<path d="M8.503,133.571c0,0.427-0.149,0.79-0.448,1.088c-0.374,0.368-0.909,0.552-1.608,0.552c-0.677,0-1.206-0.203-1.584-0.608
		c-0.299-0.32-0.47-0.696-0.512-1.128h0.432c0.037,0.336,0.176,0.626,0.416,0.872c0.304,0.309,0.72,0.464,1.248,0.464
		c0.56,0,0.989-0.141,1.288-0.424c0.224-0.213,0.336-0.485,0.336-0.816c0-0.277-0.1-0.52-0.3-0.728
		c-0.2-0.208-0.468-0.333-0.804-0.376l-1.056-0.136c-0.421-0.053-0.759-0.201-1.012-0.444c-0.253-0.242-0.38-0.572-0.38-0.988
		c0-0.411,0.166-0.768,0.496-1.072c0.363-0.331,0.829-0.496,1.4-0.496c0.304,0,0.596,0.057,0.876,0.172
		c0.28,0.115,0.5,0.265,0.66,0.452c0.261,0.304,0.405,0.632,0.432,0.984H7.959c-0.037-0.283-0.141-0.522-0.312-0.72
		c-0.267-0.325-0.677-0.488-1.232-0.488c-0.453,0-0.813,0.115-1.08,0.344c-0.256,0.229-0.384,0.504-0.384,0.824
		c0,0.582,0.333,0.912,1,0.992l1.072,0.136c0.438,0.053,0.793,0.224,1.068,0.512C8.366,132.828,8.503,133.171,8.503,133.571z"/>
	<path d="M10.247,129.996h-0.56v-0.56h0.56V129.996z M10.183,135.107H9.759v-4h0.424V135.107z"/>
	<path d="M15.119,135.708c0,0.283-0.101,0.531-0.304,0.744c-0.31,0.314-0.837,0.472-1.584,0.472c-0.688,0-1.184-0.155-1.488-0.464
		c-0.187-0.197-0.28-0.438-0.28-0.72c0-0.197,0.053-0.381,0.16-0.552c0.106-0.171,0.253-0.299,0.44-0.384
		c-0.139-0.037-0.257-0.121-0.356-0.252c-0.099-0.13-0.148-0.265-0.148-0.404c0-0.32,0.16-0.573,0.48-0.76
		c-0.267-0.256-0.4-0.584-0.4-0.984c0-0.421,0.142-0.76,0.424-1.016c0.283-0.256,0.64-0.384,1.072-0.384
		c0.352,0,0.664,0.091,0.936,0.272c0.048-0.165,0.148-0.297,0.3-0.396c0.152-0.099,0.321-0.148,0.508-0.148
		c0.016,0,0.041,0.003,0.076,0.008c0.034,0.005,0.06,0.008,0.076,0.008v0.344c-0.016,0-0.042-0.002-0.076-0.008
		c-0.035-0.005-0.06-0.008-0.076-0.008c-0.144,0-0.266,0.039-0.364,0.116s-0.161,0.183-0.188,0.316
		c0.213,0.246,0.32,0.544,0.32,0.896c0,0.421-0.144,0.757-0.432,1.008c-0.288,0.25-0.648,0.376-1.08,0.376
		c-0.299,0-0.565-0.062-0.8-0.184c-0.267,0.101-0.4,0.267-0.4,0.496c0,0.176,0.093,0.301,0.28,0.376
		c0.112,0.042,0.291,0.064,0.536,0.064h0.872c0.528,0,0.92,0.131,1.176,0.392C15.013,135.145,15.119,135.403,15.119,135.708z
		 M14.719,135.708c0-0.192-0.064-0.357-0.192-0.496c-0.187-0.197-0.509-0.296-0.968-0.296h-1.056
		c-0.187,0.042-0.344,0.136-0.472,0.28s-0.192,0.325-0.192,0.544c0,0.203,0.072,0.371,0.216,0.504
		c0.224,0.213,0.619,0.32,1.184,0.32c0.613,0,1.037-0.117,1.272-0.352C14.65,136.073,14.719,135.905,14.719,135.708z
		 M13.931,133.151c0.211-0.184,0.316-0.433,0.316-0.748c0-0.314-0.105-0.566-0.316-0.756c-0.21-0.189-0.476-0.284-0.796-0.284
		c-0.32,0-0.584,0.095-0.792,0.284s-0.312,0.441-0.312,0.756c0,0.315,0.104,0.564,0.312,0.748s0.472,0.276,0.792,0.276
		C13.456,133.427,13.721,133.335,13.931,133.151z"/>
	<path d="M19.223,135.107h-0.4v-2.616c0-0.73-0.344-1.096-1.032-1.096c-0.459,0-0.795,0.164-1.008,0.492
		c-0.213,0.328-0.32,0.735-0.32,1.22v2h-0.4v-4h0.352l0.048,0.728c0.112-0.25,0.295-0.452,0.548-0.604
		c0.253-0.152,0.521-0.228,0.804-0.228c0.453,0,0.801,0.131,1.044,0.392s0.364,0.619,0.364,1.072V135.107z"/>
	<path d="M24.039,135.107c-0.096,0.016-0.16,0.024-0.192,0.024c-0.421,0-0.632-0.261-0.632-0.784
		c-0.106,0.272-0.293,0.484-0.56,0.636c-0.267,0.152-0.56,0.228-0.88,0.228c-0.4,0-0.729-0.112-0.988-0.336
		s-0.388-0.522-0.388-0.896c0-0.347,0.123-0.625,0.368-0.836c0.245-0.211,0.571-0.33,0.976-0.356l1.472-0.104v-0.392
		c0-0.608-0.352-0.912-1.056-0.912c-0.331,0-0.6,0.075-0.808,0.224s-0.323,0.368-0.344,0.656h-0.4
		c0.027-0.395,0.181-0.703,0.464-0.924c0.282-0.221,0.645-0.332,1.088-0.332c0.304,0,0.58,0.059,0.828,0.176
		c0.248,0.118,0.423,0.304,0.524,0.56c0.069,0.182,0.104,0.438,0.104,0.768v1.824c0,0.149,0.02,0.259,0.06,0.328
		c0.04,0.07,0.124,0.104,0.252,0.104c0.048,0,0.085-0.002,0.112-0.008V135.107z M23.215,133.259v-0.208l-1.432,0.088
		c-0.299,0.021-0.536,0.106-0.712,0.256c-0.176,0.149-0.264,0.344-0.264,0.584c0,0.277,0.092,0.491,0.276,0.64
		c0.184,0.149,0.425,0.224,0.724,0.224c0.469,0,0.821-0.156,1.056-0.468C23.098,134.063,23.215,133.691,23.215,133.259z"/>
	<path d="M26.351,135.107c-0.118,0.032-0.238,0.048-0.36,0.048c-0.533,0-0.8-0.283-0.8-0.848v-4.976h0.4v4.96
		c0,0.32,0.139,0.48,0.416,0.48c0.155,0,0.269-0.005,0.344-0.016V135.107z"/>
</g>
<g>
	<path d="M8.782,141.97l-2.032,5.672H6.358l-2.032-5.672h0.44l1.8,5.072l1.776-5.072H8.782z"/>
	<path d="M10.973,149.657c0,0.165-0.053,0.308-0.159,0.429c-0.168,0.187-0.42,0.28-0.756,0.28c-0.333,0-0.587-0.1-0.765-0.298
		c-0.121-0.14-0.187-0.297-0.196-0.471h0.238c0.012,0.137,0.07,0.256,0.172,0.359c0.127,0.124,0.311,0.187,0.55,0.187
		c0.252,0,0.436-0.058,0.551-0.173c0.084-0.084,0.126-0.183,0.126-0.298c0-0.109-0.038-0.202-0.112-0.28s-0.18-0.126-0.317-0.145
		l-0.453-0.061c-0.242-0.028-0.418-0.106-0.527-0.233c-0.087-0.103-0.131-0.226-0.131-0.369c0-0.177,0.067-0.328,0.201-0.452
		c0.159-0.146,0.372-0.219,0.639-0.219c0.314,0,0.549,0.092,0.704,0.275c0.112,0.134,0.171,0.277,0.177,0.429h-0.233
		c-0.012-0.112-0.051-0.205-0.116-0.28c-0.115-0.137-0.292-0.205-0.532-0.205c-0.181,0-0.32,0.036-0.42,0.107
		c-0.121,0.087-0.182,0.194-0.182,0.322c0,0.105,0.033,0.192,0.1,0.259s0.184,0.111,0.352,0.133l0.443,0.061
		c0.208,0.028,0.368,0.104,0.479,0.226C10.917,149.363,10.973,149.502,10.973,149.657z"/>
	<path d="M13.401,148.474l-0.248,0.192c-0.421-0.475-0.747-1.035-0.976-1.68c-0.229-0.646-0.344-1.288-0.344-1.928
		s0.115-1.283,0.344-1.928c0.229-0.645,0.555-1.205,0.976-1.68l0.248,0.192c-0.795,1.024-1.192,2.163-1.192,3.416
		S12.606,147.45,13.401,148.474z"/>
	<path d="M16.25,147.602c-0.299,0.064-0.52,0.096-0.664,0.096c-0.688,0-1.032-0.389-1.032-1.168v-2.52h-0.8v-0.368h0.8v-1.104
		l0.4-0.096v1.2h1.24v0.368h-1.24v2.504c0,0.261,0.048,0.461,0.144,0.6c0.096,0.139,0.269,0.208,0.52,0.208
		c0.16,0,0.371-0.024,0.632-0.072V147.602z"/>
	<path d="M17.905,143.129c0.229,0.646,0.344,1.288,0.344,1.928s-0.115,1.283-0.344,1.928c-0.229,0.645-0.555,1.205-0.976,1.68
		l-0.248-0.192c0.794-1.024,1.192-2.163,1.192-3.416s-0.397-2.392-1.192-3.416l0.248-0.192
		C17.351,141.924,17.676,142.484,17.905,143.129z"/>
</g>
<g>
	<g>
		<polyline fill="none" stroke="#009EE0" stroke-width="0.75" points="240.318,208.517 240.318,210.52 238.316,210.52 		"/>
		
			<line fill="none" stroke="#009EE0" stroke-width="0.75" stroke-dasharray="3.9536,1.9763" x1="236.339" y1="210.52" x2="35.712" y2="210.52"/>
		<polyline fill="none" stroke="#009EE0" stroke-width="0.75" points="34.724,210.52 32.722,210.52 32.722,208.517 		"/>
		
			<line fill="none" stroke="#009EE0" stroke-width="0.75" stroke-dasharray="4.0123,2.0056" x1="32.722" y1="206.511" x2="32.722" y2="117.246"/>
		<polyline fill="none" stroke="#009EE0" stroke-width="0.75" points="32.722,116.243 32.722,114.24 34.724,114.24 		"/>
		
			<line fill="none" stroke="#009EE0" stroke-width="0.75" stroke-dasharray="3.9536,1.9763" x1="36.701" y1="114.24" x2="237.328" y2="114.24"/>
		<polyline fill="none" stroke="#009EE0" stroke-width="0.75" points="238.316,114.24 240.318,114.24 240.318,116.243 		"/>
		
			<line fill="none" stroke="#009EE0" stroke-width="0.75" stroke-dasharray="4.0123,2.0056" x1="240.318" y1="118.249" x2="240.318" y2="207.514"/>
	</g>
</g>
<g>
	<circle fill="none" stroke="#000000" stroke-width="0.5" stroke-miterlimit="10" cx="87.42" cy="50.107" r="7.913"/>
	<g>
		
			<path fill="none" stroke="#000000" stroke-width="0.75" stroke-linecap="round" stroke-linejoin="round" stroke-miterlimit="10" d="
			M87.472,50.105c0,0,3.65,4.28,4.777-0.369"/>
		
			<path fill="none" stroke="#000000" stroke-width="0.75" stroke-linecap="round" stroke-linejoin="round" stroke-miterlimit="10" d="
			M87.464,50.107c0,0-3.65-4.278-4.779,0.372"/>
	</g>
</g>
<g>
	<circle fill="none" stroke="#000000" stroke-width="0.5" stroke-miterlimit="10" cx="140.223" cy="74.858" r="7.863"/>
	
		<line fill="none" stroke="#000000" stroke-width="0.75" stroke-linecap="round" stroke-linejoin="round" stroke-miterlimit="10" x1="135.719" y1="70.354" x2="144.727" y2="79.36"/>
	
		<line fill="none" stroke="#000000" stroke-width="0.75" stroke-linecap="round" stroke-linejoin="round" stroke-miterlimit="10" x1="135.719" y1="79.36" x2="144.727" y2="70.354"/>
</g>
<g>
	<circle fill="none" stroke="#000000" stroke-width="0.5" stroke-miterlimit="10" cx="140.223" cy="25.02" r="7.863"/>
	
		<line fill="none" stroke="#000000" stroke-width="0.75" stroke-linecap="round" stroke-linejoin="round" stroke-miterlimit="10" x1="135.719" y1="20.515" x2="144.727" y2="29.521"/>
	
		<line fill="none" stroke="#000000" stroke-width="0.75" stroke-linecap="round" stroke-linejoin="round" stroke-miterlimit="10" x1="135.719" y1="29.521" x2="144.727" y2="20.515"/>
</g>
<g>
	
		<rect x="171.552" y="67.114" fill="none" stroke="#000000" stroke-width="0.5" stroke-linecap="round" stroke-linejoin="round" stroke-miterlimit="10" width="15.426" height="15.422"/>
	
		<polyline fill="none" stroke="#000000" stroke-width="0.75" stroke-linecap="round" stroke-linejoin="round" stroke-miterlimit="10" points="
		174.29,71.591 181.12,71.591 184.339,77.739 	"/>
</g>
<g>
	<path d="M178.017,87.142H176.4v-2.729h0.2v2.541h1.417V87.142z"/>
	<path d="M180.109,84.617c0.166,0.136,0.249,0.336,0.249,0.601c0,0.264-0.083,0.464-0.249,0.601
		c-0.166,0.136-0.385,0.204-0.66,0.204h-0.747v0.003v1.117h-0.2v-2.729h0.947C179.724,84.413,179.943,84.48,180.109,84.617z
		 M179.957,85.677c0.128-0.102,0.192-0.255,0.192-0.46c0-0.206-0.064-0.359-0.192-0.46c-0.128-0.101-0.298-0.152-0.508-0.152h-0.747
		v1.224h0.747C179.659,85.829,179.829,85.779,179.957,85.677z"/>
	<path d="M182.59,84.605h-1.509v1.055h1.359v0.193h-1.359v1.29h-0.2v-2.729h1.709V84.605z"/>
</g>
<g>
	
		<rect x="171.552" y="17.425" fill="none" stroke="#000000" stroke-width="0.5" stroke-linecap="round" stroke-linejoin="round" stroke-miterlimit="10" width="15.426" height="15.422"/>
	
		<polyline fill="none" stroke="#000000" stroke-width="0.75" stroke-linecap="round" stroke-linejoin="round" stroke-miterlimit="10" points="
		174.29,21.903 181.12,21.903 184.339,28.05 	"/>
</g>
<g>
	<path d="M178.017,37.454H176.4v-2.729h0.2v2.541h1.417V37.454z"/>
	<path d="M180.109,34.928c0.166,0.136,0.249,0.336,0.249,0.601c0,0.264-0.083,0.464-0.249,0.601
		c-0.166,0.136-0.385,0.204-0.66,0.204h-0.747v0.003v1.117h-0.2v-2.729h0.947C179.724,34.724,179.943,34.792,180.109,34.928z
		 M179.957,35.989c0.128-0.102,0.192-0.255,0.192-0.46c0-0.206-0.064-0.359-0.192-0.46c-0.128-0.101-0.298-0.152-0.508-0.152h-0.747
		v1.224h0.747C179.659,36.141,179.829,36.09,179.957,35.989z"/>
	<path d="M182.59,34.917h-1.509v1.055h1.359v0.193h-1.359v1.29h-0.2v-2.729h1.709V34.917z"/>
</g>
<g>
	<g>
		<line fill="none" stroke="#000000" stroke-width="0.5" x1="168.861" y1="138.329" x2="147.7" y2="138.329"/>
		<g>
			<polygon points="168.313,136.469 171.552,138.339 168.313,140.209 			"/>
		</g>
	</g>
</g>
<g>
	<g>
		
			<line fill="none" stroke="#000000" stroke-width="0.5" stroke-linecap="round" stroke-linejoin="round" x1="223.369" y1="138.329" x2="187.48" y2="138.329"/>
		<g>
			<polygon points="222.821,136.469 226.06,138.339 222.821,140.209 			"/>
		</g>
	</g>
</g>
<g>
	<g>
		<line fill="none" stroke="#000000" stroke-width="0.5" x1="140.223" y1="177.575" x2="140.223" y2="148.81"/>
		<g>
			<polygon points="142.082,177.027 140.212,180.266 138.343,177.027 			"/>
		</g>
		<g>
			<polygon points="142.082,149.357 140.212,146.119 138.343,149.357 			"/>
		</g>
	</g>
</g>
<g>
	<g>
		<polyline fill="none" stroke="#000000" stroke-width="0.5" points="129.668,187.963 72.795,187.963 72.795,138.796 		"/>
		<g>
			<polygon points="129.121,186.104 132.359,187.973 129.121,189.843 			"/>
		</g>
	</g>
</g>
<g>
	<path d="M149.891,175.017h-1.96v2.2h-0.376v-2.2h-1.96v-0.36h1.96v-2.056h0.376v2.056h1.96V175.017z"/>
	<path d="M154.442,174.481c0,0.549-0.035,1.02-0.104,1.412c-0.069,0.392-0.221,0.716-0.456,0.972
		c-0.304,0.331-0.699,0.496-1.184,0.496c-0.448,0-0.823-0.133-1.124-0.4s-0.463-0.616-0.484-1.048h0.416
		c0.021,0.326,0.138,0.584,0.352,0.776s0.494,0.288,0.84,0.288c0.373,0,0.667-0.115,0.88-0.344c0.106-0.117,0.195-0.263,0.264-0.436
		c0.069-0.173,0.114-0.382,0.136-0.628c0.021-0.245,0.035-0.432,0.04-0.56s0.008-0.323,0.008-0.584
		c-0.117,0.261-0.297,0.472-0.54,0.632c-0.243,0.16-0.516,0.24-0.82,0.24c-0.539,0-0.961-0.169-1.268-0.508
		c-0.307-0.339-0.46-0.786-0.46-1.34c0-0.528,0.155-0.971,0.464-1.328c0.309-0.357,0.728-0.536,1.256-0.536
		c0.288,0,0.546,0.064,0.776,0.192s0.413,0.288,0.552,0.48C154.291,172.679,154.442,173.42,154.442,174.481z M153.931,173.465
		c0-0.411-0.113-0.763-0.34-1.056c-0.227-0.293-0.54-0.44-0.94-0.44c-0.432,0-0.757,0.143-0.976,0.428
		c-0.219,0.285-0.328,0.636-0.328,1.052s0.11,0.767,0.332,1.052c0.221,0.285,0.548,0.428,0.98,0.428
		c0.331,0,0.613-0.112,0.848-0.336C153.789,174.321,153.931,173.945,153.931,173.465z"/>
	<path d="M159.075,174.473c0,1.206-0.219,2.019-0.656,2.44c-0.309,0.299-0.685,0.448-1.128,0.448s-0.819-0.149-1.128-0.448
		c-0.438-0.421-0.656-1.234-0.656-2.44c0-1.205,0.219-2.019,0.656-2.44c0.309-0.298,0.685-0.448,1.128-0.448
		s0.819,0.149,1.128,0.448C158.856,172.455,159.075,173.268,159.075,174.473z M158.646,175.277c0.013-0.21,0.02-0.479,0.02-0.804
		c0-0.325-0.007-0.593-0.02-0.804c-0.013-0.211-0.062-0.456-0.144-0.736c-0.083-0.28-0.201-0.495-0.356-0.644
		c-0.224-0.213-0.509-0.32-0.856-0.32s-0.632,0.107-0.856,0.32c-0.155,0.149-0.273,0.364-0.356,0.644
		c-0.083,0.28-0.131,0.525-0.144,0.736c-0.013,0.21-0.02,0.479-0.02,0.804c0,0.326,0.007,0.594,0.02,0.804
		c0.013,0.211,0.061,0.456,0.144,0.736c0.083,0.28,0.201,0.495,0.356,0.644c0.224,0.213,0.509,0.32,0.856,0.32
		s0.632-0.107,0.856-0.32c0.155-0.149,0.273-0.364,0.356-0.644C158.585,175.733,158.633,175.488,158.646,175.277z"/>
	<path d="M162.407,171.865c0.258,0.261,0.388,0.573,0.388,0.936s-0.129,0.675-0.388,0.936c-0.259,0.261-0.57,0.392-0.932,0.392
		c-0.363,0-0.675-0.131-0.936-0.392s-0.392-0.573-0.392-0.936s0.131-0.675,0.392-0.936s0.573-0.392,0.936-0.392
		C161.837,171.473,162.148,171.604,162.407,171.865z M162.154,173.493c0.182-0.189,0.272-0.42,0.272-0.692s-0.09-0.502-0.272-0.692
		c-0.181-0.189-0.408-0.284-0.68-0.284s-0.5,0.095-0.684,0.284s-0.276,0.42-0.276,0.692s0.092,0.503,0.276,0.692
		c0.184,0.189,0.412,0.284,0.684,0.284S161.973,173.683,162.154,173.493z"/>
</g>
<g>
	<path d="M202.908,135.27h-0.472l-1.64-2.536l-1.648,2.536H198.7l1.864-2.872l-1.855-2.8h0.456l1.647,2.48l1.648-2.48h0.447
		l-1.863,2.8L202.908,135.27z"/>
</g>
<line fill="none" stroke="#000000" stroke-width="0.5" stroke-miterlimit="10" x1="140.224" y1="163.299" x2="95.333" y2="163.299"/>
<g>
	<g>
		
			<line fill="none" stroke="#000000" stroke-width="0.5" stroke-linecap="round" stroke-linejoin="round" x1="168.861" y1="187.963" x2="148.086" y2="187.963"/>
		<g>
			<polygon points="168.313,186.104 171.552,187.973 168.313,189.843 			"/>
		</g>
	</g>
</g>
<g>
	<g>
		
			<line fill="none" stroke="#000000" stroke-width="0.5" stroke-linecap="round" stroke-linejoin="round" x1="223.369" y1="187.963" x2="187.48" y2="187.963"/>
		<g>
			<polygon points="222.821,186.104 226.06,187.973 222.821,189.843 			"/>
		</g>
	</g>
</g>
<g>
	<path d="M202.86,179.232l-1.96,3.424v2.248h-0.408v-2.248l-1.96-3.424h0.448l1.729,3.016l1.728-3.016H202.86z"/>
</g>
<g>
	<path d="M136.28,125.623h-0.408v-5.072l-2.072,4.992h-0.368l-2.072-4.952v5.032h-0.408v-5.672h0.584l2.096,5.04l2.056-5.04h0.592
		V125.623z"/>
	<path d="M138.463,120.511h-0.56v-0.56h0.56V120.511z M138.399,125.623h-0.424v-4h0.424V125.623z"/>
	<path d="M142.824,125.623h-0.48l-1.232-1.784l-1.24,1.784h-0.472l1.44-2.072l-1.416-1.976h0.48l1.216,1.712l1.224-1.712h0.464
		l-1.424,1.976L142.824,125.623z"/>
	<path d="M146.912,123.455c0,0.032-0.001,0.076-0.004,0.132c-0.003,0.056-0.004,0.1-0.004,0.132h-3.056
		c0.01,0.48,0.149,0.88,0.416,1.2c0.24,0.283,0.563,0.424,0.968,0.424c0.357,0,0.648-0.118,0.872-0.352
		c0.16-0.171,0.261-0.36,0.304-0.568h0.416c-0.054,0.32-0.203,0.6-0.448,0.84c-0.31,0.309-0.691,0.464-1.144,0.464
		c-0.517,0-0.941-0.189-1.272-0.568c-0.341-0.4-0.512-0.907-0.512-1.52c0-0.592,0.13-1.067,0.392-1.424
		c0.341-0.464,0.795-0.696,1.36-0.696c0.517,0,0.932,0.191,1.244,0.572C146.755,122.473,146.912,122.927,146.912,123.455z
		 M146.503,123.351c-0.011-0.4-0.133-0.743-0.368-1.028c-0.235-0.286-0.547-0.428-0.936-0.428c-0.4,0-0.724,0.14-0.972,0.42
		c-0.248,0.28-0.372,0.625-0.372,1.036H146.503z"/>
	<path d="M150.167,122.007c-0.107-0.026-0.237-0.04-0.392-0.04c-0.24,0-0.447,0.049-0.62,0.148
		c-0.174,0.099-0.306,0.234-0.396,0.408c-0.091,0.173-0.156,0.357-0.196,0.552s-0.06,0.404-0.06,0.628v1.92h-0.4v-4h0.352
		l0.048,0.808c0.085-0.267,0.245-0.475,0.48-0.624s0.499-0.224,0.792-0.224c0.176,0,0.307,0.008,0.392,0.024V122.007z"/>
</g>
<g>
	<path d="M136.28,205.418h-0.408v-5.072l-2.072,4.992h-0.368l-2.072-4.952v5.032h-0.408v-5.672h0.584l2.096,5.04l2.056-5.04h0.592
		V205.418z"/>
	<path d="M138.463,200.306h-0.56v-0.56h0.56V200.306z M138.399,205.418h-0.424v-4h0.424V205.418z"/>
	<path d="M142.824,205.418h-0.48l-1.232-1.784l-1.24,1.784h-0.472l1.44-2.072l-1.416-1.976h0.48l1.216,1.712l1.224-1.712h0.464
		l-1.424,1.976L142.824,205.418z"/>
	<path d="M146.912,203.25c0,0.032-0.001,0.076-0.004,0.132c-0.003,0.056-0.004,0.1-0.004,0.132h-3.056
		c0.01,0.48,0.149,0.88,0.416,1.2c0.24,0.283,0.563,0.424,0.968,0.424c0.357,0,0.648-0.118,0.872-0.352
		c0.16-0.171,0.261-0.36,0.304-0.568h0.416c-0.054,0.32-0.203,0.6-0.448,0.84c-0.31,0.309-0.691,0.464-1.144,0.464
		c-0.517,0-0.941-0.189-1.272-0.568c-0.341-0.4-0.512-0.907-0.512-1.52c0-0.592,0.13-1.067,0.392-1.424
		c0.341-0.464,0.795-0.696,1.36-0.696c0.517,0,0.932,0.191,1.244,0.572C146.755,202.268,146.912,202.722,146.912,203.25z
		 M146.503,203.146c-0.011-0.4-0.133-0.743-0.368-1.028c-0.235-0.286-0.547-0.428-0.936-0.428c-0.4,0-0.724,0.14-0.972,0.42
		c-0.248,0.28-0.372,0.625-0.372,1.036H146.503z"/>
	<path d="M150.167,201.802c-0.107-0.026-0.237-0.04-0.392-0.04c-0.24,0-0.447,0.049-0.62,0.148
		c-0.174,0.099-0.306,0.234-0.396,0.408c-0.091,0.173-0.156,0.357-0.196,0.552s-0.06,0.404-0.06,0.628v1.92h-0.4v-4h0.352
		l0.048,0.808c0.085-0.267,0.245-0.475,0.48-0.624s0.499-0.224,0.792-0.224c0.176,0,0.307,0.008,0.392,0.024V201.802z"/>
</g>
<g>
	<path d="M81.438,145.417c0.093,0.392,0.14,0.844,0.14,1.356c0,0.512-0.046,0.965-0.14,1.36c-0.094,0.395-0.284,0.731-0.572,1.008
		c-0.4,0.384-0.885,0.576-1.456,0.576s-1.056-0.192-1.456-0.576c-0.288-0.277-0.479-0.613-0.572-1.008s-0.14-0.848-0.14-1.36
		c0-0.512,0.047-0.964,0.14-1.356c0.093-0.392,0.284-0.727,0.572-1.004c0.4-0.384,0.885-0.576,1.456-0.576s1.056,0.192,1.456,0.576
		C81.154,144.69,81.345,145.025,81.438,145.417z M81.146,146.773c0-0.293-0.008-0.54-0.024-0.74c-0.016-0.2-0.071-0.433-0.164-0.7
		c-0.094-0.267-0.226-0.483-0.396-0.648c-0.304-0.293-0.688-0.44-1.152-0.44c-0.464,0-0.848,0.147-1.152,0.44
		c-0.171,0.166-0.303,0.382-0.396,0.648s-0.148,0.5-0.164,0.7c-0.016,0.2-0.024,0.447-0.024,0.74c0,0.299,0.008,0.546,0.024,0.744
		c0.016,0.198,0.071,0.431,0.164,0.7c0.093,0.27,0.225,0.487,0.396,0.652c0.304,0.293,0.688,0.44,1.152,0.44
		c0.464,0,0.848-0.146,1.152-0.44c0.17-0.165,0.302-0.382,0.396-0.652c0.093-0.269,0.148-0.502,0.164-0.7
		C81.138,147.319,81.146,147.072,81.146,146.773z"/>
	<path d="M85.69,148.501c0,0.283-0.091,0.528-0.272,0.736c-0.288,0.32-0.72,0.48-1.296,0.48c-0.571,0-1.008-0.17-1.312-0.512
		c-0.208-0.24-0.32-0.509-0.336-0.808h0.408c0.021,0.234,0.12,0.44,0.296,0.616c0.218,0.213,0.533,0.32,0.944,0.32
		c0.432,0,0.747-0.099,0.944-0.296c0.144-0.144,0.216-0.314,0.216-0.512c0-0.187-0.064-0.347-0.192-0.48s-0.309-0.216-0.544-0.248
		l-0.776-0.104c-0.416-0.048-0.717-0.181-0.904-0.4c-0.149-0.176-0.224-0.387-0.224-0.632c0-0.304,0.115-0.563,0.344-0.776
		c0.272-0.25,0.637-0.376,1.096-0.376c0.539,0,0.941,0.157,1.208,0.472c0.192,0.229,0.293,0.475,0.304,0.736h-0.4
		c-0.021-0.192-0.088-0.352-0.2-0.48c-0.198-0.235-0.501-0.352-0.912-0.352c-0.31,0-0.549,0.062-0.72,0.184
		c-0.208,0.149-0.312,0.333-0.312,0.552c0,0.182,0.058,0.33,0.172,0.444c0.114,0.115,0.316,0.19,0.604,0.228l0.76,0.104
		c0.357,0.048,0.631,0.177,0.82,0.388C85.596,147.996,85.69,148.234,85.69,148.501z"/>
	<path d="M89.882,148.349c-0.054,0.395-0.224,0.722-0.512,0.98c-0.288,0.259-0.637,0.388-1.048,0.388
		c-0.469,0-0.861-0.157-1.176-0.472c-0.373-0.373-0.56-0.917-0.56-1.632s0.187-1.259,0.56-1.632
		c0.315-0.315,0.707-0.472,1.176-0.472c0.416,0,0.765,0.124,1.048,0.372s0.448,0.575,0.496,0.98H89.45
		c-0.043-0.283-0.167-0.513-0.372-0.692s-0.458-0.268-0.756-0.268c-0.374,0-0.669,0.115-0.888,0.344
		c-0.293,0.304-0.44,0.76-0.44,1.368c0,0.613,0.146,1.072,0.44,1.376c0.213,0.224,0.509,0.336,0.888,0.336
		c0.298,0,0.551-0.092,0.756-0.276s0.332-0.417,0.38-0.7H89.882z"/>
	<path d="M91.554,144.501h-0.56v-0.56h0.56V144.501z M91.49,149.613h-0.424v-4h0.424V149.613z"/>
	<path d="M94.242,149.613c-0.118,0.032-0.238,0.048-0.36,0.048c-0.533,0-0.8-0.283-0.8-0.848v-4.976h0.4v4.96
		c0,0.32,0.139,0.48,0.416,0.48c0.155,0,0.269-0.005,0.344-0.016V149.613z"/>
	<path d="M96.474,149.613c-0.118,0.032-0.238,0.048-0.36,0.048c-0.533,0-0.8-0.283-0.8-0.848v-4.976h0.4v4.96
		c0,0.32,0.139,0.48,0.416,0.48c0.155,0,0.269-0.005,0.344-0.016V149.613z"/>
	<path d="M100.882,149.613c-0.096,0.016-0.16,0.024-0.192,0.024c-0.421,0-0.632-0.261-0.632-0.784
		c-0.106,0.272-0.293,0.484-0.56,0.636c-0.267,0.152-0.56,0.228-0.88,0.228c-0.4,0-0.729-0.112-0.988-0.336
		s-0.388-0.522-0.388-0.896c0-0.347,0.123-0.625,0.368-0.836c0.245-0.211,0.571-0.33,0.976-0.356l1.472-0.104v-0.392
		c0-0.608-0.352-0.912-1.056-0.912c-0.331,0-0.6,0.075-0.808,0.224s-0.323,0.368-0.344,0.656h-0.4
		c0.027-0.395,0.181-0.703,0.464-0.924c0.282-0.221,0.645-0.332,1.088-0.332c0.304,0,0.58,0.059,0.828,0.176
		c0.248,0.118,0.423,0.304,0.524,0.56c0.069,0.182,0.104,0.438,0.104,0.768v1.824c0,0.149,0.02,0.259,0.06,0.328
		c0.04,0.07,0.124,0.104,0.252,0.104c0.048,0,0.085-0.002,0.112-0.008V149.613z M100.058,147.765v-0.208l-1.432,0.088
		c-0.299,0.021-0.536,0.106-0.712,0.256c-0.176,0.149-0.264,0.344-0.264,0.584c0,0.277,0.092,0.491,0.276,0.64
		c0.184,0.149,0.425,0.224,0.724,0.224c0.469,0,0.821-0.156,1.056-0.468C99.94,148.569,100.058,148.197,100.058,147.765z"/>
	<path d="M103.954,149.573c-0.299,0.064-0.52,0.096-0.664,0.096c-0.688,0-1.032-0.389-1.032-1.168v-2.52h-0.8v-0.368h0.8v-1.104
		l0.4-0.096v1.2h1.24v0.368h-1.24v2.504c0,0.261,0.048,0.461,0.144,0.6c0.096,0.139,0.269,0.208,0.52,0.208
		c0.16,0,0.371-0.024,0.632-0.072V149.573z"/>
	<path d="M108.146,147.613c0,0.704-0.189,1.246-0.568,1.624c-0.32,0.32-0.709,0.48-1.168,0.48c-0.459,0-0.848-0.16-1.168-0.48
		c-0.379-0.378-0.568-0.92-0.568-1.624s0.189-1.245,0.568-1.624c0.32-0.32,0.709-0.48,1.168-0.48c0.458,0,0.848,0.16,1.168,0.48
		C107.956,146.368,108.146,146.909,108.146,147.613z M107.738,147.613c0-0.597-0.149-1.051-0.448-1.36
		c-0.224-0.235-0.518-0.352-0.88-0.352c-0.363,0-0.656,0.117-0.88,0.352c-0.299,0.309-0.448,0.763-0.448,1.36
		s0.149,1.051,0.448,1.36c0.224,0.235,0.517,0.352,0.88,0.352c0.362,0,0.656-0.117,0.88-0.352
		C107.588,148.664,107.738,148.21,107.738,147.613z"/>
	<path d="M111.449,145.997c-0.107-0.026-0.237-0.04-0.392-0.04c-0.24,0-0.447,0.049-0.62,0.148
		c-0.174,0.099-0.306,0.234-0.396,0.408c-0.091,0.173-0.156,0.357-0.196,0.552s-0.06,0.404-0.06,0.628v1.92h-0.4v-4h0.352
		l0.048,0.808c0.085-0.267,0.245-0.475,0.48-0.624s0.499-0.224,0.792-0.224c0.176,0,0.307,0.008,0.392,0.024V145.997z"/>
</g>
<g>
	<path d="M102.699,156.313c0,0.368-0.107,0.689-0.32,0.964c-0.213,0.275-0.499,0.46-0.856,0.556l1.152,2.52h-0.456l-1.112-2.416
		H99.13v2.416h-0.416v-5.672h2.072c0.608,0,1.079,0.146,1.412,0.44C102.532,155.415,102.699,155.812,102.699,156.313z
		 M101.878,157.233c0.259-0.213,0.388-0.52,0.388-0.92s-0.129-0.707-0.388-0.92s-0.623-0.32-1.092-0.32H99.13v2.48h1.656
		C101.256,157.553,101.62,157.446,101.878,157.233z"/>
	<path d="M107.011,158.185c0,0.032-0.001,0.076-0.004,0.132c-0.003,0.056-0.004,0.1-0.004,0.132h-3.056
		c0.01,0.48,0.149,0.88,0.416,1.2c0.24,0.283,0.563,0.424,0.968,0.424c0.357,0,0.648-0.118,0.872-0.352
		c0.16-0.171,0.261-0.36,0.304-0.568h0.416c-0.054,0.32-0.203,0.6-0.448,0.84c-0.31,0.309-0.691,0.464-1.144,0.464
		c-0.517,0-0.941-0.189-1.272-0.568c-0.341-0.4-0.512-0.907-0.512-1.52c0-0.592,0.13-1.067,0.392-1.424
		c0.341-0.464,0.795-0.696,1.36-0.696c0.517,0,0.932,0.191,1.244,0.572C106.854,157.203,107.011,157.657,107.011,158.185z
		 M106.603,158.081c-0.011-0.4-0.133-0.743-0.368-1.028c-0.235-0.286-0.547-0.428-0.936-0.428c-0.4,0-0.724,0.14-0.972,0.42
		c-0.248,0.28-0.372,0.625-0.372,1.036H106.603z"/>
	<path d="M110.203,154.937c-0.213-0.032-0.405-0.048-0.576-0.048c-0.506,0-0.76,0.259-0.76,0.776v0.688h1.256v0.368h-1.256v3.632
		h-0.4v-3.632h-0.8v-0.368h0.8v-0.704c0-0.32,0.097-0.586,0.292-0.8c0.194-0.213,0.473-0.32,0.836-0.32
		c0.213,0,0.416,0.016,0.608,0.048V154.937z"/>
	<path d="M114.131,158.185c0,0.032-0.001,0.076-0.004,0.132c-0.003,0.056-0.004,0.1-0.004,0.132h-3.056
		c0.01,0.48,0.149,0.88,0.416,1.2c0.24,0.283,0.563,0.424,0.968,0.424c0.357,0,0.648-0.118,0.872-0.352
		c0.16-0.171,0.261-0.36,0.304-0.568h0.416c-0.054,0.32-0.203,0.6-0.448,0.84c-0.31,0.309-0.691,0.464-1.144,0.464
		c-0.517,0-0.941-0.189-1.272-0.568c-0.341-0.4-0.512-0.907-0.512-1.52c0-0.592,0.13-1.067,0.392-1.424
		c0.341-0.464,0.795-0.696,1.36-0.696c0.517,0,0.932,0.191,1.244,0.572C113.975,157.203,114.131,157.657,114.131,158.185z
		 M113.723,158.081c-0.011-0.4-0.133-0.743-0.368-1.028c-0.235-0.286-0.547-0.428-0.936-0.428c-0.4,0-0.724,0.14-0.972,0.42
		c-0.248,0.28-0.372,0.625-0.372,1.036H113.723z"/>
	<path d="M117.387,156.737c-0.107-0.026-0.237-0.04-0.392-0.04c-0.24,0-0.447,0.049-0.62,0.148
		c-0.174,0.099-0.306,0.234-0.396,0.408c-0.091,0.173-0.156,0.357-0.196,0.552s-0.06,0.404-0.06,0.628v1.92h-0.4v-4h0.352
		l0.048,0.808c0.085-0.267,0.245-0.475,0.48-0.624s0.499-0.224,0.792-0.224c0.176,0,0.307,0.008,0.392,0.024V156.737z"/>
	<path d="M121.491,158.185c0,0.032-0.001,0.076-0.004,0.132c-0.003,0.056-0.004,0.1-0.004,0.132h-3.056
		c0.01,0.48,0.149,0.88,0.416,1.2c0.24,0.283,0.563,0.424,0.968,0.424c0.357,0,0.648-0.118,0.872-0.352
		c0.16-0.171,0.261-0.36,0.304-0.568h0.416c-0.054,0.32-0.203,0.6-0.448,0.84c-0.31,0.309-0.691,0.464-1.144,0.464
		c-0.517,0-0.941-0.189-1.272-0.568c-0.341-0.4-0.512-0.907-0.512-1.52c0-0.592,0.13-1.067,0.392-1.424
		c0.341-0.464,0.795-0.696,1.36-0.696c0.517,0,0.932,0.191,1.244,0.572C121.334,157.203,121.491,157.657,121.491,158.185z
		 M121.083,158.081c-0.011-0.4-0.133-0.743-0.368-1.028c-0.235-0.286-0.547-0.428-0.936-0.428c-0.4,0-0.724,0.14-0.972,0.42
		c-0.248,0.28-0.372,0.625-0.372,1.036H121.083z"/>
	<path d="M125.843,160.353h-0.4v-2.616c0-0.73-0.344-1.096-1.032-1.096c-0.459,0-0.795,0.164-1.008,0.492
		c-0.213,0.328-0.32,0.735-0.32,1.22v2h-0.4v-4h0.352l0.048,0.728c0.112-0.25,0.295-0.452,0.548-0.604
		c0.253-0.152,0.521-0.228,0.804-0.228c0.453,0,0.801,0.131,1.044,0.392s0.364,0.619,0.364,1.072V160.353z"/>
	<path d="M130.299,159.089c-0.054,0.395-0.224,0.722-0.512,0.98c-0.288,0.259-0.637,0.388-1.048,0.388
		c-0.469,0-0.861-0.157-1.176-0.472c-0.373-0.373-0.56-0.917-0.56-1.632s0.187-1.259,0.56-1.632
		c0.315-0.315,0.707-0.472,1.176-0.472c0.416,0,0.765,0.124,1.048,0.372s0.448,0.575,0.496,0.98h-0.416
		c-0.043-0.283-0.167-0.513-0.372-0.692s-0.458-0.268-0.756-0.268c-0.374,0-0.669,0.115-0.888,0.344
		c-0.293,0.304-0.44,0.76-0.44,1.368c0,0.613,0.146,1.072,0.44,1.376c0.213,0.224,0.509,0.336,0.888,0.336
		c0.298,0,0.551-0.092,0.756-0.276s0.332-0.417,0.38-0.7H130.299z"/>
	<path d="M134.563,158.185c0,0.032-0.001,0.076-0.004,0.132c-0.003,0.056-0.004,0.1-0.004,0.132h-3.056
		c0.01,0.48,0.149,0.88,0.416,1.2c0.24,0.283,0.563,0.424,0.968,0.424c0.357,0,0.648-0.118,0.872-0.352
		c0.16-0.171,0.261-0.36,0.304-0.568h0.416c-0.054,0.32-0.203,0.6-0.448,0.84c-0.31,0.309-0.691,0.464-1.144,0.464
		c-0.517,0-0.941-0.189-1.272-0.568c-0.341-0.4-0.512-0.907-0.512-1.52c0-0.592,0.13-1.067,0.392-1.424
		c0.341-0.464,0.795-0.696,1.36-0.696c0.517,0,0.932,0.191,1.244,0.572C134.406,157.203,134.563,157.657,134.563,158.185z
		 M134.154,158.081c-0.011-0.4-0.133-0.743-0.368-1.028c-0.235-0.286-0.547-0.428-0.936-0.428c-0.4,0-0.724,0.14-0.972,0.42
		c-0.248,0.28-0.372,0.625-0.372,1.036H134.154z"/>
</g>
<g>
	<path d="M102.402,169.57c0,0.427-0.149,0.79-0.448,1.088c-0.374,0.368-0.909,0.552-1.608,0.552c-0.677,0-1.206-0.203-1.584-0.608
		c-0.299-0.32-0.47-0.696-0.512-1.128h0.432c0.037,0.336,0.176,0.626,0.416,0.872c0.304,0.309,0.72,0.464,1.248,0.464
		c0.56,0,0.989-0.141,1.288-0.424c0.224-0.213,0.336-0.485,0.336-0.816c0-0.277-0.1-0.52-0.3-0.728
		c-0.2-0.208-0.468-0.333-0.804-0.376l-1.056-0.136c-0.421-0.053-0.759-0.201-1.012-0.444c-0.253-0.242-0.38-0.572-0.38-0.988
		c0-0.411,0.166-0.768,0.496-1.072c0.363-0.331,0.829-0.496,1.4-0.496c0.304,0,0.596,0.057,0.876,0.172
		c0.28,0.115,0.5,0.265,0.66,0.452c0.261,0.304,0.405,0.632,0.432,0.984h-0.424c-0.037-0.283-0.141-0.522-0.312-0.72
		c-0.267-0.325-0.677-0.488-1.232-0.488c-0.453,0-0.813,0.115-1.08,0.344c-0.256,0.229-0.384,0.504-0.384,0.824
		c0,0.582,0.333,0.912,1,0.992l1.072,0.136c0.438,0.053,0.793,0.224,1.068,0.512C102.265,168.827,102.402,169.17,102.402,169.57z"/>
	<path d="M104.146,165.995h-0.56v-0.56h0.56V165.995z M104.083,171.106h-0.424v-4h0.424V171.106z"/>
	<path d="M109.019,171.707c0,0.283-0.101,0.531-0.304,0.744c-0.31,0.314-0.837,0.472-1.584,0.472c-0.688,0-1.184-0.155-1.488-0.464
		c-0.187-0.197-0.28-0.438-0.28-0.72c0-0.197,0.053-0.381,0.16-0.552c0.106-0.171,0.253-0.299,0.44-0.384
		c-0.139-0.037-0.257-0.121-0.356-0.252c-0.099-0.13-0.148-0.265-0.148-0.404c0-0.32,0.16-0.573,0.48-0.76
		c-0.267-0.256-0.4-0.584-0.4-0.984c0-0.421,0.142-0.76,0.424-1.016c0.283-0.256,0.64-0.384,1.072-0.384
		c0.352,0,0.664,0.091,0.936,0.272c0.048-0.165,0.148-0.297,0.3-0.396c0.152-0.099,0.321-0.148,0.508-0.148
		c0.016,0,0.041,0.003,0.076,0.008c0.034,0.005,0.06,0.008,0.076,0.008v0.344c-0.016,0-0.042-0.002-0.076-0.008
		c-0.035-0.005-0.06-0.008-0.076-0.008c-0.144,0-0.266,0.039-0.364,0.116s-0.161,0.183-0.188,0.316
		c0.213,0.246,0.32,0.544,0.32,0.896c0,0.421-0.144,0.757-0.432,1.008c-0.288,0.25-0.648,0.376-1.08,0.376
		c-0.299,0-0.565-0.062-0.8-0.184c-0.267,0.101-0.4,0.267-0.4,0.496c0,0.176,0.093,0.301,0.28,0.376
		c0.112,0.042,0.291,0.064,0.536,0.064h0.872c0.528,0,0.92,0.131,1.176,0.392C108.912,171.144,109.019,171.402,109.019,171.707z
		 M108.619,171.707c0-0.192-0.064-0.357-0.192-0.496c-0.187-0.197-0.509-0.296-0.968-0.296h-1.056
		c-0.187,0.042-0.344,0.136-0.472,0.28s-0.192,0.325-0.192,0.544c0,0.203,0.072,0.371,0.216,0.504
		c0.224,0.213,0.619,0.32,1.184,0.32c0.613,0,1.037-0.117,1.272-0.352C108.549,172.072,108.619,171.904,108.619,171.707z
		 M107.831,169.15c0.211-0.184,0.316-0.433,0.316-0.748c0-0.314-0.105-0.566-0.316-0.756c-0.21-0.189-0.476-0.284-0.796-0.284
		c-0.32,0-0.584,0.095-0.792,0.284s-0.312,0.441-0.312,0.756c0,0.315,0.104,0.564,0.312,0.748s0.472,0.276,0.792,0.276
		C107.355,169.426,107.62,169.334,107.831,169.15z"/>
	<path d="M113.123,171.106h-0.4v-2.616c0-0.73-0.344-1.096-1.032-1.096c-0.459,0-0.795,0.164-1.008,0.492
		c-0.213,0.328-0.32,0.735-0.32,1.22v2h-0.4v-4h0.352l0.048,0.728c0.112-0.25,0.295-0.452,0.548-0.604
		c0.253-0.152,0.521-0.228,0.804-0.228c0.453,0,0.801,0.131,1.044,0.392s0.364,0.619,0.364,1.072V171.106z"/>
	<path d="M117.939,171.106c-0.096,0.016-0.16,0.024-0.192,0.024c-0.421,0-0.632-0.261-0.632-0.784
		c-0.106,0.272-0.293,0.484-0.56,0.636c-0.267,0.152-0.56,0.228-0.88,0.228c-0.4,0-0.729-0.112-0.988-0.336
		s-0.388-0.522-0.388-0.896c0-0.347,0.123-0.625,0.368-0.836c0.245-0.211,0.571-0.33,0.976-0.356l1.472-0.104v-0.392
		c0-0.608-0.352-0.912-1.056-0.912c-0.331,0-0.6,0.075-0.808,0.224s-0.323,0.368-0.344,0.656h-0.4
		c0.027-0.395,0.181-0.703,0.464-0.924c0.282-0.221,0.645-0.332,1.088-0.332c0.304,0,0.58,0.059,0.828,0.176
		c0.248,0.118,0.423,0.304,0.524,0.56c0.069,0.182,0.104,0.438,0.104,0.768v1.824c0,0.149,0.02,0.259,0.06,0.328
		c0.04,0.07,0.124,0.104,0.252,0.104c0.048,0,0.085-0.002,0.112-0.008V171.106z M117.115,169.258v-0.208l-1.432,0.088
		c-0.299,0.021-0.536,0.106-0.712,0.256c-0.176,0.149-0.264,0.344-0.264,0.584c0,0.277,0.092,0.491,0.276,0.64
		c0.184,0.149,0.425,0.224,0.724,0.224c0.469,0,0.821-0.156,1.056-0.468C116.998,170.063,117.115,169.69,117.115,169.258z"/>
	<path d="M120.251,171.106c-0.118,0.032-0.238,0.048-0.36,0.048c-0.533,0-0.8-0.283-0.8-0.848v-4.976h0.4v4.96
		c0,0.32,0.139,0.48,0.416,0.48c0.155,0,0.269-0.005,0.344-0.016V171.106z"/>
	<path d="M126.794,165.435l-2.032,5.672h-0.392l-2.032-5.672h0.44l1.8,5.072l1.776-5.072H126.794z"/>
	<path d="M128.523,171.663c-0.062-0.016-0.138-0.023-0.229-0.023c-0.14,0-0.26,0.029-0.361,0.086
		c-0.101,0.057-0.178,0.137-0.231,0.238s-0.091,0.208-0.114,0.322c-0.023,0.113-0.035,0.235-0.035,0.366v1.119h-0.233v-2.332h0.205
		l0.028,0.471c0.05-0.156,0.143-0.277,0.28-0.364s0.291-0.131,0.462-0.131c0.103,0,0.179,0.005,0.229,0.014V171.663z"/>
	<path d="M130.803,171.938l-0.248,0.192c-0.421-0.475-0.747-1.035-0.976-1.68c-0.229-0.646-0.344-1.288-0.344-1.928
		s0.115-1.283,0.344-1.928c0.229-0.645,0.555-1.205,0.976-1.68l0.248,0.192c-0.795,1.024-1.192,2.163-1.192,3.416
		S130.008,170.915,130.803,171.938z"/>
	<path d="M133.651,171.066c-0.299,0.064-0.52,0.096-0.664,0.096c-0.688,0-1.032-0.389-1.032-1.168v-2.52h-0.8v-0.368h0.8v-1.104
		l0.4-0.096v1.2h1.24v0.368h-1.24v2.504c0,0.261,0.048,0.461,0.144,0.6c0.096,0.139,0.269,0.208,0.52,0.208
		c0.16,0,0.371-0.024,0.632-0.072V171.066z"/>
	<path d="M135.307,166.594c0.229,0.646,0.344,1.288,0.344,1.928s-0.115,1.283-0.344,1.928c-0.229,0.645-0.555,1.205-0.976,1.68
		l-0.248-0.192c0.794-1.024,1.192-2.163,1.192-3.416s-0.397-2.392-1.192-3.416l0.248-0.192
		C134.752,165.389,135.078,165.949,135.307,166.594z"/>
</g>
<g>
	<circle fill="none" stroke="#000000" stroke-width="0.5" stroke-miterlimit="10" cx="87.42" cy="163.379" r="7.913"/>
	<g>
		
			<path fill="none" stroke="#000000" stroke-width="0.75" stroke-linecap="round" stroke-linejoin="round" stroke-miterlimit="10" d="
			M87.472,163.377c0,0,3.65,4.28,4.777-0.369"/>
		
			<path fill="none" stroke="#000000" stroke-width="0.75" stroke-linecap="round" stroke-linejoin="round" stroke-miterlimit="10" d="
			M87.464,163.379c0,0-3.65-4.278-4.779,0.372"/>
	</g>
</g>
<g>
	<path fill="none" stroke="#000000" stroke-width="0.5" stroke-miterlimit="10" d="M148.086,188.131c0,4.34-3.52,7.861-7.863,7.861
		c-4.342,0-7.863-3.521-7.863-7.861c0-4.346,3.521-7.865,7.863-7.865C144.566,180.266,148.086,183.785,148.086,188.131z"/>
	
		<line fill="none" stroke="#000000" stroke-width="0.75" stroke-linecap="round" stroke-linejoin="round" stroke-miterlimit="10" x1="135.719" y1="183.625" x2="144.727" y2="192.633"/>
	
		<line fill="none" stroke="#000000" stroke-width="0.75" stroke-linecap="round" stroke-linejoin="round" stroke-miterlimit="10" x1="135.719" y1="192.633" x2="144.727" y2="183.625"/>
</g>
<g>
	<circle fill="none" stroke="#000000" stroke-width="0.5" stroke-miterlimit="10" cx="140.223" cy="138.292" r="7.863"/>
	
		<line fill="none" stroke="#000000" stroke-width="0.75" stroke-linecap="round" stroke-linejoin="round" stroke-miterlimit="10" x1="135.719" y1="133.787" x2="144.727" y2="142.793"/>
	
		<line fill="none" stroke="#000000" stroke-width="0.75" stroke-linecap="round" stroke-linejoin="round" stroke-miterlimit="10" x1="135.719" y1="142.793" x2="144.727" y2="133.787"/>
</g>
<g>
	
		<rect x="171.552" y="180.386" fill="none" stroke="#000000" stroke-width="0.5" stroke-linecap="round" stroke-linejoin="round" stroke-miterlimit="10" width="15.426" height="15.422"/>
	
		<polyline fill="none" stroke="#000000" stroke-width="0.75" stroke-linecap="round" stroke-linejoin="round" stroke-miterlimit="10" points="
		174.29,184.863 181.12,184.863 184.339,191.011 	"/>
</g>
<g>
	<path d="M178.017,200.414H176.4v-2.729h0.2v2.541h1.417V200.414z"/>
	<path d="M180.109,197.889c0.166,0.136,0.249,0.336,0.249,0.601c0,0.264-0.083,0.464-0.249,0.601
		c-0.166,0.136-0.385,0.204-0.66,0.204h-0.747v0.003v1.117h-0.2v-2.729h0.947C179.724,197.685,179.943,197.752,180.109,197.889z
		 M179.957,198.949c0.128-0.102,0.192-0.255,0.192-0.46c0-0.206-0.064-0.359-0.192-0.46c-0.128-0.101-0.298-0.152-0.508-0.152
		h-0.747v1.224h0.747C179.659,199.101,179.829,199.051,179.957,198.949z"/>
	<path d="M182.59,197.877h-1.509v1.055h1.359v0.193h-1.359v1.29h-0.2v-2.729h1.709V197.877z"/>
</g>
<g>
	
		<rect x="171.552" y="130.697" fill="none" stroke="#000000" stroke-width="0.5" stroke-linecap="round" stroke-linejoin="round" stroke-miterlimit="10" width="15.426" height="15.422"/>
	
		<polyline fill="none" stroke="#000000" stroke-width="0.75" stroke-linecap="round" stroke-linejoin="round" stroke-miterlimit="10" points="
		174.29,135.175 181.12,135.175 184.339,141.322 	"/>
</g>
<g>
	<path d="M178.017,150.726H176.4v-2.729h0.2v2.541h1.417V150.726z"/>
	<path d="M180.109,148.2c0.166,0.136,0.249,0.336,0.249,0.601c0,0.264-0.083,0.464-0.249,0.601c-0.166,0.136-0.385,0.204-0.66,0.204
		h-0.747v0.003v1.117h-0.2v-2.729h0.947C179.724,147.996,179.943,148.064,180.109,148.2z M179.957,149.261
		c0.128-0.102,0.192-0.255,0.192-0.46c0-0.206-0.064-0.359-0.192-0.46c-0.128-0.101-0.298-0.152-0.508-0.152h-0.747v1.224h0.747
		C179.659,149.413,179.829,149.362,179.957,149.261z"/>
	<path d="M182.59,148.188h-1.509v1.055h1.359v0.193h-1.359v1.29h-0.2v-2.729h1.709V148.188z"/>
</g>
<polygon fill="#FFFFFF" stroke="#000000" stroke-width="0.5" stroke-linecap="round" stroke-linejoin="round" stroke-miterlimit="10" points="
	66.388,146.083 45.337,146.083 40.612,138.373 45.337,130.661 66.388,130.661 "/>
<g>
	<path d="M52.038,140.567h-0.424l-0.576-1.496h-2.744l-0.56,1.496h-0.432l2.151-5.672h0.408L52.038,140.567z M50.886,138.679
		l-1.232-3.208l-1.208,3.208H50.886z"/>
	<path d="M56.966,137.728c0,0.501-0.044,0.938-0.132,1.312c-0.089,0.373-0.273,0.696-0.557,0.968
		c-0.384,0.374-0.861,0.56-1.432,0.56h-1.88v-5.672h1.88c0.57,0,1.048,0.187,1.432,0.56c0.283,0.272,0.468,0.595,0.557,0.968
		C56.922,136.797,56.966,137.231,56.966,137.728z M56.434,138.892c0.072-0.333,0.108-0.722,0.108-1.164
		c0-0.443-0.036-0.831-0.108-1.164s-0.226-0.612-0.46-0.836c-0.299-0.283-0.675-0.424-1.128-0.424h-1.464v4.856h1.464
		c0.453,0,0.829-0.141,1.128-0.424C56.208,139.506,56.362,139.225,56.434,138.892z"/>
	<path d="M62.07,138.832c-0.042,0.533-0.25,0.973-0.624,1.32c-0.373,0.347-0.837,0.52-1.392,0.52c-0.587,0-1.085-0.205-1.496-0.616
		c-0.271-0.277-0.45-0.606-0.536-0.988c-0.085-0.381-0.128-0.828-0.128-1.34c0-0.512,0.043-0.958,0.128-1.336
		c0.086-0.379,0.265-0.707,0.536-0.984c0.411-0.411,0.909-0.616,1.496-0.616c0.555,0,1.019,0.173,1.392,0.52
		c0.374,0.347,0.582,0.787,0.624,1.32h-0.432c-0.037-0.427-0.2-0.772-0.488-1.036c-0.288-0.264-0.653-0.396-1.096-0.396
		c-0.48,0-0.877,0.163-1.192,0.488c-0.159,0.165-0.281,0.376-0.363,0.632c-0.083,0.256-0.133,0.481-0.148,0.676
		c-0.016,0.194-0.023,0.438-0.023,0.732c0,0.288,0.008,0.532,0.023,0.732c0.016,0.2,0.066,0.428,0.152,0.684
		c0.085,0.256,0.208,0.467,0.368,0.632c0.314,0.325,0.709,0.488,1.184,0.488c0.442,0,0.808-0.132,1.096-0.396
		c0.288-0.264,0.451-0.609,0.488-1.036H62.07z"/>
</g>
<g>
</g>
<g>
</g>
<g>
</g>
</svg>
